<svg xmlns="http://www.w3.org/2000/svg" xmlns:xlink="http://www.w3.org/1999/xlink" width="136.5625" height="257.5" style="width:136.5625px;height:257.5px;font-family:Asana-Math, Asana;background:transparent;"><g><g><g><g><g transform="matrix(1,0,0,1,7.953125,30.900000000000002)"><path transform="matrix(0.0255,0,0,-0.0255,0,0)" d="M694 802C694 860 621 885 573 885C368 885 344 579 334 430C323 251 309 72 304 -108C301 -191 312 -410 184 -410C173 -410 159 -407 151 -397C153 -392 155 -384 155 -378C155 -347 114 -315 83 -315C59 -315 54 -340 54 -359C54 -418 125 -442 173 -442C348 -442 380 -190 395 -59C413 104 421 269 433 433C439 521 422 853 562 853C574 853 587 850 596 841C593 834 592 828 592 821C592 789 633 759 663 759C687 759 694 782 694 802Z" stroke="rgb(0,0,0)" stroke-opacity="1" stroke-width="8" fill="rgb(0,0,0)" fill-opacity="1"></path></g></g></g><g><g transform="matrix(1,0,0,1,28.078125,31)"><path transform="matrix(0.017,0,0,-0.017,0,0)" d="M-7 -180C-8 -187 -8 -193 -8 -198C-8 -241 29 -276 74 -276C180 -276 290 -152 349 33L490 473L479 482C450 471 427 465 405 463L370 331C358 284 323 211 290 162C255 111 206 67 184 67C172 67 163 90 164 115L180 322C182 353 184 391 184 419C184 464 177 482 160 482C147 482 133 475 85 442L3 386L14 368L64 398C69 401 80 410 89 410C103 410 111 391 111 358C111 357 111 351 110 343L93 100L92 60C92 18 110 -11 135 -11C172 -11 256 74 331 187L282 16C231 -161 181 -234 111 -234C76 -234 49 -207 49 -172C49 -167 50 -159 51 -150L41 -146ZM730.80334 794.13126C730.80334 821.493 701.92302 841.25307 676.08278 841.25307C646.44268 841.25307 632.76181 812.37177 624.4023 788.05206L540.80044 545.60793C538.52013 539.52776 533.20072 525.08809 533.20072 517.48836C533.20072 510.64842 537.76036 500.76741 545.36008 500.76741C557.52042 500.76741 571.2013 517.48836 577.28147 526.60764L708.00319 734.09128C718.64398 750.81126 730.80334 772.85164 730.80334 794.13126ZM1251 722L1239 733C1187 707 1151 698 1079 691L1075 670L1123 670C1147 670 1157 663 1157 646C1157 638 1156 629 1155 622L1127 468C1097 477 1070 482 1045 482C976 482 882 410 836 323C805 265 785 170 785 86C785 21 800 -11 829 -11C856 -11 893 6 927 33C981 77 1014 116 1081 217L1058 126C1047 82 1042 50 1042 24C1042 3 1051 -9 1068 -9C1085 -9 1109 3 1143 28L1224 88L1214 107L1170 76C1156 66 1140 59 1131 59C1123 59 1117 68 1117 82C1117 90 1118 99 1125 128ZM882 59C866 59 857 73 857 98C857 224 903 380 952 418C965 428 984 433 1011 433C1055 433 1084 427 1117 410L1105 351C1068 171 927 59 882 59ZM1260 -180C1259 -187 1259 -193 1259 -198C1259 -241 1296 -276 1341 -276C1447 -276 1557 -152 1616 33L1757 473L1746 482C1717 471 1694 465 1672 463L1637 331C1625 284 1590 211 1557 162C1522 111 1473 67 1451 67C1439 67 1430 90 1431 115L1447 322C1449 353 1451 391 1451 419C1451 464 1444 482 1427 482C1414 482 1400 475 1352 442L1270 386L1281 368L1331 398C1336 401 1347 410 1356 410C1370 410 1378 391 1378 358C1378 357 1378 351 1377 343L1360 100L1359 60C1359 18 1377 -11 1402 -11C1439 -11 1523 74 1598 187L1549 16C1498 -161 1448 -234 1378 -234C1343 -234 1316 -207 1316 -172C1316 -167 1317 -159 1318 -150L1308 -146Z" stroke="rgb(0,0,0)" stroke-opacity="1" stroke-width="8" fill="rgb(0,0,0)" fill-opacity="1"></path></g></g><g><g transform="matrix(1,0,0,1,63.203125,31)"><path transform="matrix(0.017,0,0,-0.017,0,0)" d="M604 347L604 406L65 406L65 347ZM604 134L604 193L65 193L65 134Z" stroke="rgb(0,0,0)" stroke-opacity="1" stroke-width="8" fill="rgb(0,0,0)" fill-opacity="1"></path></g></g><g><g><g transform="matrix(1,0,0,1,79.65625,30.900000000000002)"><path transform="matrix(0.0255,0,0,-0.0255,0,0)" d="M694 802C694 860 621 885 573 885C368 885 344 579 334 430C323 251 309 72 304 -108C301 -191 312 -410 184 -410C173 -410 159 -407 151 -397C153 -392 155 -384 155 -378C155 -347 114 -315 83 -315C59 -315 54 -340 54 -359C54 -418 125 -442 173 -442C348 -442 380 -190 395 -59C413 104 421 269 433 433C439 521 422 853 562 853C574 853 587 850 596 841C593 834 592 828 592 821C592 789 633 759 663 759C687 759 694 782 694 802Z" stroke="rgb(0,0,0)" stroke-opacity="1" stroke-width="8" fill="rgb(0,0,0)" fill-opacity="1"></path></g></g></g><g><g><g><g><g transform="matrix(1,0,0,1,101.46875,19)"><path transform="matrix(0.017,0,0,-0.017,0,0)" d="M418 -3L418 27L366 30C311 33 301 44 301 96L301 700L60 598L67 548L217 614L217 96C217 44 206 33 152 30L96 27L96 -3C250 0 250 0 261 0C292 0 402 -3 418 -3Z" stroke="rgb(0,0,0)" stroke-opacity="1" stroke-width="8" fill="rgb(0,0,0)" fill-opacity="1"></path></g></g></g></g><g><g><g><g transform="matrix(1,0,0,1,101.46875,44)"><path transform="matrix(0.017,0,0,-0.017,0,0)" d="M9 1C24 -7 40 -11 52 -11C85 -11 124 18 155 65L231 182L242 113C255 28 278 -11 314 -11C336 -11 368 6 400 35L449 79L440 98C404 68 379 53 363 53C348 53 335 63 325 83C316 102 305 139 300 168L282 269L317 318C364 383 391 406 422 406C438 406 450 398 455 383L469 387L484 472C472 479 463 482 454 482C414 482 374 446 312 354L275 299L269 347C257 446 230 482 171 482C145 482 123 474 114 461L56 378L73 368C103 402 123 416 142 416C175 416 197 375 214 277L225 215L185 153C142 86 108 54 80 54C65 54 54 58 52 63L41 91L21 88C21 53 13 27 9 1Z" stroke="rgb(0,0,0)" stroke-opacity="1" stroke-width="8" fill="rgb(0,0,0)" fill-opacity="1"></path></g></g></g></g><line style="fill:none;stroke-width:1px;stroke:rgb(0, 0, 0);" x1="101.46875" y1="26.75" x2="109.953125" y2="26.75"></line></g><g><g transform="matrix(1,0,0,1,111.640625,31)"><path transform="matrix(0.017,0,0,-0.017,0,0)" d="M483 722L471 733C419 707 383 698 311 691L307 670L355 670C379 670 389 663 389 646C389 638 388 629 387 622L359 468C329 477 302 482 277 482C208 482 114 410 68 323C37 265 17 170 17 86C17 21 32 -11 61 -11C88 -11 125 6 159 33C213 77 246 116 313 217L290 126C279 82 274 50 274 24C274 3 283 -9 300 -9C317 -9 341 3 375 28L456 88L446 107L402 76C388 66 372 59 363 59C355 59 349 68 349 82C349 90 350 99 357 128ZM114 59C98 59 89 73 89 98C89 224 135 380 184 418C197 428 216 433 243 433C287 433 316 427 349 410L337 351C300 171 159 59 114 59ZM508 1C523 -7 539 -11 551 -11C584 -11 623 18 654 65L730 182L741 113C754 28 777 -11 813 -11C835 -11 867 6 899 35L948 79L939 98C903 68 878 53 862 53C847 53 834 63 824 83C815 102 804 139 799 168L781 269L816 318C863 383 890 406 921 406C937 406 949 398 954 383L968 387L983 472C971 479 962 482 953 482C913 482 873 446 811 354L774 299L768 347C756 446 729 482 670 482C644 482 622 474 613 461L555 378L572 368C602 402 622 416 641 416C674 416 696 375 713 277L724 215L684 153C641 86 607 54 579 54C564 54 553 58 551 63L540 91L520 88C520 53 512 27 508 1Z" stroke="rgb(0,0,0)" stroke-opacity="1" stroke-width="8" fill="rgb(0,0,0)" fill-opacity="1"></path></g></g></g><g><g><g transform="matrix(1,0,0,1,21.046875,61)"><path transform="matrix(0.017,0,0,-0.017,0,0)" d="M-7 -180C-8 -187 -8 -193 -8 -198C-8 -241 29 -276 74 -276C180 -276 290 -152 349 33L490 473L479 482C450 471 427 465 405 463L370 331C358 284 323 211 290 162C255 111 206 67 184 67C172 67 163 90 164 115L180 322C182 353 184 391 184 419C184 464 177 482 160 482C147 482 133 475 85 442L3 386L14 368L64 398C69 401 80 410 89 410C103 410 111 391 111 358C111 357 111 351 110 343L93 100L92 60C92 18 110 -11 135 -11C172 -11 256 74 331 187L282 16C231 -161 181 -234 111 -234C76 -234 49 -207 49 -172C49 -167 50 -159 51 -150L41 -146Z" stroke="rgb(0,0,0)" stroke-opacity="1" stroke-width="8" fill="rgb(0,0,0)" fill-opacity="1"></path></g></g><g><g transform="matrix(1,0,0,1,34.625,61)"><path transform="matrix(0.017,0,0,-0.017,0,0)" d="M604 347L604 406L65 406L65 347ZM604 134L604 193L65 193L65 134Z" stroke="rgb(0,0,0)" stroke-opacity="1" stroke-width="8" fill="rgb(0,0,0)" fill-opacity="1"></path></g></g><g><g><g transform="matrix(1,0,0,1,51.078125,61)"><path transform="matrix(0.017,0,0,-0.017,0,0)" d="M23 661L79 661C97 661 104 650 104 620L104 102C104 39 101 32 67 30L21 27L21 -3C121 0 121 0 146 0C171 0 171 0 271 -3L271 27L225 30C191 32 188 39 188 102L188 718L179 726C135 709 102 701 23 689ZM700 -3C761 0 762 0 779 0C793 0 793 0 862 -3L862 27L821 30C787 32 784 38 784 102L784 295C784 412 729 469 617 469C580 469 559 462 538 444L462 378L462 465L453 469C402 448 350 434 297 428L297 400L334 400C374 400 378 393 378 327L378 102C378 39 375 32 341 30L296 27L296 -3C364 -1 391 0 420 0C449 0 476 -1 544 -3L544 27L499 30C465 32 462 39 462 102L462 314C462 359 528 408 589 408C656 408 700 358 700 281Z" stroke="rgb(0,0,0)" stroke-opacity="1" stroke-width="8" fill="rgb(0,0,0)" fill-opacity="1"></path></g></g></g><g><g transform="matrix(1,0,0,1,65.890625,61)"><path transform="matrix(0.017,0,0,-0.017,0,0)" d="M146 266C146 526 243 632 301 700L282 726C225 675 60 542 60 266C60 159 85 58 133 -32C168 -99 200 -138 282 -215L301 -194C255 -137 146 -15 146 266Z" stroke="rgb(0,0,0)" stroke-opacity="1" stroke-width="8" fill="rgb(0,0,0)" fill-opacity="1"></path></g></g><g><g transform="matrix(1,0,0,1,71.546875,61)"><path transform="matrix(0.017,0,0,-0.017,0,0)" d="M9 1C24 -7 40 -11 52 -11C85 -11 124 18 155 65L231 182L242 113C255 28 278 -11 314 -11C336 -11 368 6 400 35L449 79L440 98C404 68 379 53 363 53C348 53 335 63 325 83C316 102 305 139 300 168L282 269L317 318C364 383 391 406 422 406C438 406 450 398 455 383L469 387L484 472C472 479 463 482 454 482C414 482 374 446 312 354L275 299L269 347C257 446 230 482 171 482C145 482 123 474 114 461L56 378L73 368C103 402 123 416 142 416C175 416 197 375 214 277L225 215L185 153C142 86 108 54 80 54C65 54 54 58 52 63L41 91L21 88C21 53 13 27 9 1Z" stroke="rgb(0,0,0)" stroke-opacity="1" stroke-width="8" fill="rgb(0,0,0)" fill-opacity="1"></path></g></g><g><g transform="matrix(1,0,0,1,80.03125,61)"><path transform="matrix(0.017,0,0,-0.017,0,0)" d="M51 726L32 700C87 636 187 526 187 266C187 -10 83 -131 32 -194L51 -215C104 -165 273 -23 273 265C273 542 108 675 51 726Z" stroke="rgb(0,0,0)" stroke-opacity="1" stroke-width="8" fill="rgb(0,0,0)" fill-opacity="1"></path></g></g><g><g transform="matrix(1,0,0,1,89.078125,61)"><path transform="matrix(0.017,0,0,-0.017,0,0)" d="M604 241L604 300L364 300L364 538L305 538L305 300L65 300L65 241L305 241L305 0L364 0L364 241Z" stroke="rgb(0,0,0)" stroke-opacity="1" stroke-width="8" fill="rgb(0,0,0)" fill-opacity="1"></path></g></g><g><g transform="matrix(1,0,0,1,103.828125,61)"><path transform="matrix(0.017,0,0,-0.017,0,0)" d="M45 284C45 90 152 -18 343 -18C439 -18 510 5 600 67L610 103L600 110C506 53 454 35 376 35C219 35 133 131 133 309C133 447 190 653 418 653C489 653 541 639 597 603L597 519L624 519C629 576 637 619 651 665C575 694 518 706 456 706C276 706 45 578 45 284Z" stroke="rgb(0,0,0)" stroke-opacity="1" stroke-width="8" fill="rgb(0,0,0)" fill-opacity="1"></path></g></g></g><g><g><g><g><g><text x="5.71875" y="69.6875" style="white-space:pre;stroke:none;fill:rgb(0,0,0);fill-opacity:1;font-size:15px;font-family:Arial, Helvetica, sans-serif;font-weight:400;font-style:normal;dominant-baseline:text-before-edge;text-decoration:none solid rgb(0, 0, 0);">Plugging in</text></g></g></g></g><g><g transform="matrix(1,0,0,1,79.953125,83.6875)"><path transform="matrix(0.017,0,0,-0.017,0,0)" d="" stroke="rgb(0,0,0)" stroke-opacity="1" stroke-width="8" fill="rgb(0,0,0)" fill-opacity="1"></path></g></g><g><svg x="85.375" overflow="visible" y="65.6875" height="24" width="8.5"><path d=" M 6.27 1.70 c 0.00 -0.06 -0.04 -0.08 -0.08 -0.08 c -0.03 0.00 -0.06 0.01 -0.08 0.02 c -2.55 1.34 -4.65 3.73 -4.65 9.40 v 0.60 h 1.53 v -0.60 c 0.00 -3.23 0.64 -7.03 3.31 -9.06 c 0.12 -0.09 0.13 -0.19 0.13 -0.28 z   M 1.44 11.64 v 0.72 h 1.53 v -0.72 z" style="fill:rgb(0,0,0);fill-opacity:1;stroke-width:1px;stroke:none;stroke-opacity:1;"></path><path d=" M 6.27 22.30 c 0.00 0.06 -0.04 0.08 -0.08 0.08 c -0.03 0.00 -0.06 -0.01 -0.08 -0.02 c -2.55 -1.34 -4.65 -3.73 -4.65 -9.40 v -0.60 h 1.53 v 0.60 c 0.00 3.23 0.64 7.03 3.31 9.06 c 0.12 0.09 0.13 0.19 0.13 0.28 z" style="fill:rgb(0,0,0);fill-opacity:1;stroke-width:1px;stroke:none;stroke-opacity:1;"></path></svg></g><g><g transform="matrix(1,0,0,1,92.1875,83.6875)"><path transform="matrix(0.017,0,0,-0.017,0,0)" d="M328 111L304 94C251 56 203 36 167 36C120 36 91 73 91 133C91 158 94 185 99 214C116 218 225 248 250 259C335 296 374 342 374 404C374 451 340 482 290 482C222 496 112 423 75 349C45 299 15 180 15 113C15 35 59 -11 131 -11C188 -11 244 17 336 92ZM113 274C130 343 150 386 179 412C197 428 228 440 252 440C281 440 300 420 300 388C300 344 265 297 213 272C185 258 149 247 104 237Z" stroke="rgb(0,0,0)" stroke-opacity="1" stroke-width="8" fill="rgb(0,0,0)" fill-opacity="1"></path></g></g><g><g><g><g><g transform="matrix(1,0,0,1,99.765625,77.259375)"><path transform="matrix(0.0119,0,0,-0.0119,0,0)" d="M16 23L16 -3C203 -3 203 0 239 0C275 0 275 -3 468 -3L468 82C353 77 307 81 122 77L304 270C401 373 431 428 431 503C431 618 353 689 226 689C154 689 105 669 56 619L39 483L68 483L81 529C97 587 133 612 200 612C286 612 341 558 341 473C341 398 299 324 186 204Z" stroke="rgb(0,0,0)" stroke-opacity="1" stroke-width="8" fill="rgb(0,0,0)" fill-opacity="1"></path></g></g></g></g></g><g><g transform="matrix(1,0,0,1,106.734375,83.6875)"><path transform="matrix(0.017,0,0,-0.017,0,0)" d="M204 123C177 114 159 108 106 93C99 17 74 -48 16 -144L30 -155L71 -136C152 -31 190 32 218 109Z" stroke="rgb(0,0,0)" stroke-opacity="1" stroke-width="8" fill="rgb(0,0,0)" fill-opacity="1"></path></g></g><g><g transform="matrix(1,0,0,1,114.359375,83.6875)"><path transform="matrix(0.017,0,0,-0.017,0,0)" d="M462 224C462 345 355 366 308 374C388 436 418 482 418 541C418 630 344 689 233 689C165 689 120 670 72 622L43 498L74 498L92 554C103 588 166 622 218 622C283 622 336 569 336 506C336 431 277 368 206 368C198 368 187 369 174 370L159 371L147 318L154 312C192 329 211 334 238 334C321 334 369 281 369 190C369 88 308 21 215 21C169 21 128 36 98 64C74 86 61 109 42 163L15 153C36 92 44 56 50 6C103 -12 147 -20 184 -20C307 -20 462 87 462 224Z" stroke="rgb(0,0,0)" stroke-opacity="1" stroke-width="8" fill="rgb(0,0,0)" fill-opacity="1"></path></g></g><g><svg x="121.15625" overflow="visible" y="65.6875" height="24" width="8.5"><path d=" M 1.75 1.70 c 0.00 -0.06 0.04 -0.08 0.08 -0.08 c 0.03 0.00 0.06 0.01 0.08 0.02 c 2.55 1.34 4.65 3.73 4.65 9.40 v 0.60 h -1.53 v -0.60 c 0.00 -3.23 -0.64 -7.03 -3.31 -9.06 c -0.12 -0.09 -0.13 -0.19 -0.13 -0.28 z  M 6.58 11.64 v 0.72 h -1.53 v -0.72 z" style="fill:rgb(0,0,0);fill-opacity:1;stroke-width:1px;stroke:none;stroke-opacity:1;"></path><path d=" M 1.75 22.30 c 0.00 0.06 0.04 0.08 0.08 0.08 c 0.03 0.00 0.06 -0.01 0.08 -0.02 c 2.55 -1.34 4.65 -3.73 4.65 -9.40 v -0.60 h -1.53 v 0.60 c 0.00 3.23 -0.64 7.03 -3.31 9.06 c -0.12 0.09 -0.13 0.19 -0.13 0.28 z" style="fill:rgb(0,0,0);fill-opacity:1;stroke-width:1px;stroke:none;stroke-opacity:1;"></path></svg></g></g><g><g><g transform="matrix(1,0,0,1,15.671875,111.0625)"><path transform="matrix(0.017,0,0,-0.017,0,0)" d="M462 224C462 345 355 366 308 374C388 436 418 482 418 541C418 630 344 689 233 689C165 689 120 670 72 622L43 498L74 498L92 554C103 588 166 622 218 622C283 622 336 569 336 506C336 431 277 368 206 368C198 368 187 369 174 370L159 371L147 318L154 312C192 329 211 334 238 334C321 334 369 281 369 190C369 88 308 21 215 21C169 21 128 36 98 64C74 86 61 109 42 163L15 153C36 92 44 56 50 6C103 -12 147 -20 184 -20C307 -20 462 87 462 224Z" stroke="rgb(0,0,0)" stroke-opacity="1" stroke-width="8" fill="rgb(0,0,0)" fill-opacity="1"></path></g></g><g><g transform="matrix(1,0,0,1,29.25,111.0625)"><path transform="matrix(0.017,0,0,-0.017,0,0)" d="M604 347L604 406L65 406L65 347ZM604 134L604 193L65 193L65 134Z" stroke="rgb(0,0,0)" stroke-opacity="1" stroke-width="8" fill="rgb(0,0,0)" fill-opacity="1"></path></g></g><g><g><g transform="matrix(1,0,0,1,45.703125,111.0625)"><path transform="matrix(0.017,0,0,-0.017,0,0)" d="M23 661L79 661C97 661 104 650 104 620L104 102C104 39 101 32 67 30L21 27L21 -3C121 0 121 0 146 0C171 0 171 0 271 -3L271 27L225 30C191 32 188 39 188 102L188 718L179 726C135 709 102 701 23 689ZM700 -3C761 0 762 0 779 0C793 0 793 0 862 -3L862 27L821 30C787 32 784 38 784 102L784 295C784 412 729 469 617 469C580 469 559 462 538 444L462 378L462 465L453 469C402 448 350 434 297 428L297 400L334 400C374 400 378 393 378 327L378 102C378 39 375 32 341 30L296 27L296 -3C364 -1 391 0 420 0C449 0 476 -1 544 -3L544 27L499 30C465 32 462 39 462 102L462 314C462 359 528 408 589 408C656 408 700 358 700 281Z" stroke="rgb(0,0,0)" stroke-opacity="1" stroke-width="8" fill="rgb(0,0,0)" fill-opacity="1"></path></g></g></g><g><svg x="61.703125" overflow="visible" y="93.0625" height="24" width="8.5"><path d=" M 6.27 1.70 c 0.00 -0.06 -0.04 -0.08 -0.08 -0.08 c -0.03 0.00 -0.06 0.01 -0.08 0.02 c -2.55 1.34 -4.65 3.73 -4.65 9.40 v 0.60 h 1.53 v -0.60 c 0.00 -3.23 0.64 -7.03 3.31 -9.06 c 0.12 -0.09 0.13 -0.19 0.13 -0.28 z   M 1.44 11.64 v 0.72 h 1.53 v -0.72 z" style="fill:rgb(0,0,0);fill-opacity:1;stroke-width:1px;stroke:none;stroke-opacity:1;"></path><path d=" M 6.27 22.30 c 0.00 0.06 -0.04 0.08 -0.08 0.08 c -0.03 0.00 -0.06 -0.01 -0.08 -0.02 c -2.55 -1.34 -4.65 -3.73 -4.65 -9.40 v -0.60 h 1.53 v 0.60 c 0.00 3.23 0.64 7.03 3.31 9.06 c 0.12 0.09 0.13 0.19 0.13 0.28 z" style="fill:rgb(0,0,0);fill-opacity:1;stroke-width:1px;stroke:none;stroke-opacity:1;"></path></svg></g><g><g transform="matrix(1,0,0,1,68.515625,111.0625)"><path transform="matrix(0.017,0,0,-0.017,0,0)" d="M328 111L304 94C251 56 203 36 167 36C120 36 91 73 91 133C91 158 94 185 99 214C116 218 225 248 250 259C335 296 374 342 374 404C374 451 340 482 290 482C222 496 112 423 75 349C45 299 15 180 15 113C15 35 59 -11 131 -11C188 -11 244 17 336 92ZM113 274C130 343 150 386 179 412C197 428 228 440 252 440C281 440 300 420 300 388C300 344 265 297 213 272C185 258 149 247 104 237Z" stroke="rgb(0,0,0)" stroke-opacity="1" stroke-width="8" fill="rgb(0,0,0)" fill-opacity="1"></path></g></g><g><g><g><g><g transform="matrix(1,0,0,1,76.09375,104.634375)"><path transform="matrix(0.0119,0,0,-0.0119,0,0)" d="M16 23L16 -3C203 -3 203 0 239 0C275 0 275 -3 468 -3L468 82C353 77 307 81 122 77L304 270C401 373 431 428 431 503C431 618 353 689 226 689C154 689 105 669 56 619L39 483L68 483L81 529C97 587 133 612 200 612C286 612 341 558 341 473C341 398 299 324 186 204Z" stroke="rgb(0,0,0)" stroke-opacity="1" stroke-width="8" fill="rgb(0,0,0)" fill-opacity="1"></path></g></g></g></g></g><g><svg x="81.375" overflow="visible" y="93.0625" height="24" width="8.5"><path d=" M 1.75 1.70 c 0.00 -0.06 0.04 -0.08 0.08 -0.08 c 0.03 0.00 0.06 0.01 0.08 0.02 c 2.55 1.34 4.65 3.73 4.65 9.40 v 0.60 h -1.53 v -0.60 c 0.00 -3.23 -0.64 -7.03 -3.31 -9.06 c -0.12 -0.09 -0.13 -0.19 -0.13 -0.28 z  M 6.58 11.64 v 0.72 h -1.53 v -0.72 z" style="fill:rgb(0,0,0);fill-opacity:1;stroke-width:1px;stroke:none;stroke-opacity:1;"></path><path d=" M 1.75 22.30 c 0.00 0.06 0.04 0.08 0.08 0.08 c 0.03 0.00 0.06 -0.01 0.08 -0.02 c 2.55 -1.34 4.65 -3.73 4.65 -9.40 v -0.60 h -1.53 v 0.60 c 0.00 3.23 -0.64 7.03 -3.31 9.06 c -0.12 0.09 -0.13 0.19 -0.13 0.28 z" style="fill:rgb(0,0,0);fill-opacity:1;stroke-width:1px;stroke:none;stroke-opacity:1;"></path></svg></g><g><g transform="matrix(1,0,0,1,94.453125,111.0625)"><path transform="matrix(0.017,0,0,-0.017,0,0)" d="M604 241L604 300L364 300L364 538L305 538L305 300L65 300L65 241L305 241L305 0L364 0L364 241Z" stroke="rgb(0,0,0)" stroke-opacity="1" stroke-width="8" fill="rgb(0,0,0)" fill-opacity="1"></path></g></g><g><g transform="matrix(1,0,0,1,109.203125,111.0625)"><path transform="matrix(0.017,0,0,-0.017,0,0)" d="M45 284C45 90 152 -18 343 -18C439 -18 510 5 600 67L610 103L600 110C506 53 454 35 376 35C219 35 133 131 133 309C133 447 190 653 418 653C489 653 541 639 597 603L597 519L624 519C629 576 637 619 651 665C575 694 518 706 456 706C276 706 45 578 45 284Z" stroke="rgb(0,0,0)" stroke-opacity="1" stroke-width="8" fill="rgb(0,0,0)" fill-opacity="1"></path></g></g></g><g><g><g transform="matrix(1,0,0,1,34.109375,135.75)"><path transform="matrix(0.017,0,0,-0.017,0,0)" d="M462 224C462 345 355 366 308 374C388 436 418 482 418 541C418 630 344 689 233 689C165 689 120 670 72 622L43 498L74 498L92 554C103 588 166 622 218 622C283 622 336 569 336 506C336 431 277 368 206 368C198 368 187 369 174 370L159 371L147 318L154 312C192 329 211 334 238 334C321 334 369 281 369 190C369 88 308 21 215 21C169 21 128 36 98 64C74 86 61 109 42 163L15 153C36 92 44 56 50 6C103 -12 147 -20 184 -20C307 -20 462 87 462 224Z" stroke="rgb(0,0,0)" stroke-opacity="1" stroke-width="8" fill="rgb(0,0,0)" fill-opacity="1"></path></g></g><g><g transform="matrix(1,0,0,1,47.6875,135.75)"><path transform="matrix(0.017,0,0,-0.017,0,0)" d="M604 347L604 406L65 406L65 347ZM604 134L604 193L65 193L65 134Z" stroke="rgb(0,0,0)" stroke-opacity="1" stroke-width="8" fill="rgb(0,0,0)" fill-opacity="1"></path></g></g><g><g transform="matrix(1,0,0,1,64.140625,135.75)"><path transform="matrix(0.017,0,0,-0.017,0,0)" d="M16 23L16 -3C203 -3 203 0 239 0C275 0 275 -3 468 -3L468 82C353 77 307 81 122 77L304 270C401 373 431 428 431 503C431 618 353 689 226 689C154 689 105 669 56 619L39 483L68 483L81 529C97 587 133 612 200 612C286 612 341 558 341 473C341 398 299 324 186 204Z" stroke="rgb(0,0,0)" stroke-opacity="1" stroke-width="8" fill="rgb(0,0,0)" fill-opacity="1"></path></g></g><g><g transform="matrix(1,0,0,1,76.015625,135.75)"><path transform="matrix(0.017,0,0,-0.017,0,0)" d="M604 241L604 300L364 300L364 538L305 538L305 300L65 300L65 241L305 241L305 0L364 0L364 241Z" stroke="rgb(0,0,0)" stroke-opacity="1" stroke-width="8" fill="rgb(0,0,0)" fill-opacity="1"></path></g></g><g><g transform="matrix(1,0,0,1,90.765625,135.75)"><path transform="matrix(0.017,0,0,-0.017,0,0)" d="M45 284C45 90 152 -18 343 -18C439 -18 510 5 600 67L610 103L600 110C506 53 454 35 376 35C219 35 133 131 133 309C133 447 190 653 418 653C489 653 541 639 597 603L597 519L624 519C629 576 637 619 651 665C575 694 518 706 456 706C276 706 45 578 45 284Z" stroke="rgb(0,0,0)" stroke-opacity="1" stroke-width="8" fill="rgb(0,0,0)" fill-opacity="1"></path></g></g></g><g><g><g transform="matrix(1,0,0,1,47.421875,155.75)"><path transform="matrix(0.017,0,0,-0.017,0,0)" d="M45 284C45 90 152 -18 343 -18C439 -18 510 5 600 67L610 103L600 110C506 53 454 35 376 35C219 35 133 131 133 309C133 447 190 653 418 653C489 653 541 639 597 603L597 519L624 519C629 576 637 619 651 665C575 694 518 706 456 706C276 706 45 578 45 284Z" stroke="rgb(0,0,0)" stroke-opacity="1" stroke-width="8" fill="rgb(0,0,0)" fill-opacity="1"></path></g></g><g><g transform="matrix(1,0,0,1,64.203125,155.75)"><path transform="matrix(0.017,0,0,-0.017,0,0)" d="M604 347L604 406L65 406L65 347ZM604 134L604 193L65 193L65 134Z" stroke="rgb(0,0,0)" stroke-opacity="1" stroke-width="8" fill="rgb(0,0,0)" fill-opacity="1"></path></g></g><g><g transform="matrix(1,0,0,1,80.65625,155.75)"><path transform="matrix(0.017,0,0,-0.017,0,0)" d="M418 -3L418 27L366 30C311 33 301 44 301 96L301 700L60 598L67 548L217 614L217 96C217 44 206 33 152 30L96 27L96 -3C250 0 250 0 261 0C292 0 402 -3 418 -3Z" stroke="rgb(0,0,0)" stroke-opacity="1" stroke-width="8" fill="rgb(0,0,0)" fill-opacity="1"></path></g></g></g><g><g><g><g><g><text x="35.75" y="161.75" style="white-space:pre;stroke:none;fill:rgb(0,0,0);fill-opacity:1;font-size:15px;font-family:Arial, Helvetica, sans-serif;font-weight:400;font-style:normal;dominant-baseline:text-before-edge;text-decoration:none solid rgb(0, 0, 0);">Therefore</text></g></g></g></g></g><g><g><g transform="matrix(1,0,0,1,22.96875,197.75)"><path transform="matrix(0.017,0,0,-0.017,0,0)" d="M-7 -180C-8 -187 -8 -193 -8 -198C-8 -241 29 -276 74 -276C180 -276 290 -152 349 33L490 473L479 482C450 471 427 465 405 463L370 331C358 284 323 211 290 162C255 111 206 67 184 67C172 67 163 90 164 115L180 322C182 353 184 391 184 419C184 464 177 482 160 482C147 482 133 475 85 442L3 386L14 368L64 398C69 401 80 410 89 410C103 410 111 391 111 358C111 357 111 351 110 343L93 100L92 60C92 18 110 -11 135 -11C172 -11 256 74 331 187L282 16C231 -161 181 -234 111 -234C76 -234 49 -207 49 -172C49 -167 50 -159 51 -150L41 -146Z" stroke="rgb(0,0,0)" stroke-opacity="1" stroke-width="8" fill="rgb(0,0,0)" fill-opacity="1"></path></g></g><g><g transform="matrix(1,0,0,1,36.546875,197.75)"><path transform="matrix(0.017,0,0,-0.017,0,0)" d="M604 347L604 406L65 406L65 347ZM604 134L604 193L65 193L65 134Z" stroke="rgb(0,0,0)" stroke-opacity="1" stroke-width="8" fill="rgb(0,0,0)" fill-opacity="1"></path></g></g><g><g transform="matrix(1,0,0,1,53,197.75)"><path transform="matrix(0.017,0,0,-0.017,0,0)" d="M251 722L239 733C187 707 151 698 79 691L75 670L123 670C147 670 157 663 157 648C157 645 157 640 154 622C143 567 70 182 55 132C42 82 36 52 36 31C36 6 47 -9 66 -9C92 -9 128 12 226 85L216 103L190 86C161 67 139 56 129 56C122 56 116 66 116 76C116 82 117 89 120 104ZM301 388L308 368L340 389C377 412 380 414 387 414C398 414 405 404 405 389C405 338 364 145 323 2L330 -9C355 -2 378 4 400 8C419 134 440 199 486 268C540 352 615 414 660 414C671 414 677 405 677 390C677 372 674 351 666 319L614 107C605 70 601 47 601 31C601 6 612 -9 631 -9C657 -9 693 12 791 85L781 103L755 86C726 67 704 56 694 56C687 56 681 65 681 76C681 81 682 92 683 96L749 372C756 401 760 429 760 446C760 469 749 482 729 482C687 482 618 444 559 389C521 354 493 320 441 247L479 408C483 426 485 438 485 449C485 470 477 482 462 482C441 482 402 460 329 408Z" stroke="rgb(0,0,0)" stroke-opacity="1" stroke-width="8" fill="rgb(0,0,0)" fill-opacity="1"></path></g></g><g><g transform="matrix(1,0,0,1,67.15625,197.75)"><path transform="matrix(0.017,0,0,-0.017,0,0)" d="M146 266C146 526 243 632 301 700L282 726C225 675 60 542 60 266C60 159 85 58 133 -32C168 -99 200 -138 282 -215L301 -194C255 -137 146 -15 146 266Z" stroke="rgb(0,0,0)" stroke-opacity="1" stroke-width="8" fill="rgb(0,0,0)" fill-opacity="1"></path></g></g><g><g transform="matrix(1,0,0,1,72.8125,197.75)"><path transform="matrix(0.017,0,0,-0.017,0,0)" d="M9 1C24 -7 40 -11 52 -11C85 -11 124 18 155 65L231 182L242 113C255 28 278 -11 314 -11C336 -11 368 6 400 35L449 79L440 98C404 68 379 53 363 53C348 53 335 63 325 83C316 102 305 139 300 168L282 269L317 318C364 383 391 406 422 406C438 406 450 398 455 383L469 387L484 472C472 479 463 482 454 482C414 482 374 446 312 354L275 299L269 347C257 446 230 482 171 482C145 482 123 474 114 461L56 378L73 368C103 402 123 416 142 416C175 416 197 375 214 277L225 215L185 153C142 86 108 54 80 54C65 54 54 58 52 63L41 91L21 88C21 53 13 27 9 1Z" stroke="rgb(0,0,0)" stroke-opacity="1" stroke-width="8" fill="rgb(0,0,0)" fill-opacity="1"></path></g></g><g><g transform="matrix(1,0,0,1,81.296875,197.75)"><path transform="matrix(0.017,0,0,-0.017,0,0)" d="M51 726L32 700C87 636 187 526 187 266C187 -10 83 -131 32 -194L51 -215C104 -165 273 -23 273 265C273 542 108 675 51 726Z" stroke="rgb(0,0,0)" stroke-opacity="1" stroke-width="8" fill="rgb(0,0,0)" fill-opacity="1"></path></g></g><g><g transform="matrix(1,0,0,1,90.34375,197.75)"><path transform="matrix(0.017,0,0,-0.017,0,0)" d="M604 241L604 300L364 300L364 538L305 538L305 300L65 300L65 241L305 241L305 0L364 0L364 241Z" stroke="rgb(0,0,0)" stroke-opacity="1" stroke-width="8" fill="rgb(0,0,0)" fill-opacity="1"></path></g></g><g><g transform="matrix(1,0,0,1,105.09375,197.75)"><path transform="matrix(0.017,0,0,-0.017,0,0)" d="M418 -3L418 27L366 30C311 33 301 44 301 96L301 700L60 598L67 548L217 614L217 96C217 44 206 33 152 30L96 27L96 -3C250 0 250 0 261 0C292 0 402 -3 418 -3Z" stroke="rgb(0,0,0)" stroke-opacity="1" stroke-width="8" fill="rgb(0,0,0)" fill-opacity="1"></path></g></g></g><g><g><g transform="matrix(1,0,0,1,2,220.4375)"><path transform="matrix(0.017,0,0,-0.017,0,0)" d="M-7 -180C-8 -187 -8 -193 -8 -198C-8 -241 29 -276 74 -276C180 -276 290 -152 349 33L490 473L479 482C450 471 427 465 405 463L370 331C358 284 323 211 290 162C255 111 206 67 184 67C172 67 163 90 164 115L180 322C182 353 184 391 184 419C184 464 177 482 160 482C147 482 133 475 85 442L3 386L14 368L64 398C69 401 80 410 89 410C103 410 111 391 111 358C111 357 111 351 110 343L93 100L92 60C92 18 110 -11 135 -11C172 -11 256 74 331 187L282 16C231 -161 181 -234 111 -234C76 -234 49 -207 49 -172C49 -167 50 -159 51 -150L41 -146Z" stroke="rgb(0,0,0)" stroke-opacity="1" stroke-width="8" fill="rgb(0,0,0)" fill-opacity="1"></path></g></g><g><svg x="11.671875" overflow="visible" y="202.4375" height="24" width="8.5"><path d=" M 6.27 1.70 c 0.00 -0.06 -0.04 -0.08 -0.08 -0.08 c -0.03 0.00 -0.06 0.01 -0.08 0.02 c -2.55 1.34 -4.65 3.73 -4.65 9.40 v 0.60 h 1.53 v -0.60 c 0.00 -3.23 0.64 -7.03 3.31 -9.06 c 0.12 -0.09 0.13 -0.19 0.13 -0.28 z   M 1.44 11.64 v 0.72 h 1.53 v -0.72 z" style="fill:rgb(0,0,0);fill-opacity:1;stroke-width:1px;stroke:none;stroke-opacity:1;"></path><path d=" M 6.27 22.30 c 0.00 0.06 -0.04 0.08 -0.08 0.08 c -0.03 0.00 -0.06 -0.01 -0.08 -0.02 c -2.55 -1.34 -4.65 -3.73 -4.65 -9.40 v -0.60 h 1.53 v 0.60 c 0.00 3.23 0.64 7.03 3.31 9.06 c 0.12 0.09 0.13 0.19 0.13 0.28 z" style="fill:rgb(0,0,0);fill-opacity:1;stroke-width:1px;stroke:none;stroke-opacity:1;"></path></svg></g><g><g transform="matrix(1,0,0,1,18.484375,220.4375)"><path transform="matrix(0.017,0,0,-0.017,0,0)" d="M328 111L304 94C251 56 203 36 167 36C120 36 91 73 91 133C91 158 94 185 99 214C116 218 225 248 250 259C335 296 374 342 374 404C374 451 340 482 290 482C222 496 112 423 75 349C45 299 15 180 15 113C15 35 59 -11 131 -11C188 -11 244 17 336 92ZM113 274C130 343 150 386 179 412C197 428 228 440 252 440C281 440 300 420 300 388C300 344 265 297 213 272C185 258 149 247 104 237Z" stroke="rgb(0,0,0)" stroke-opacity="1" stroke-width="8" fill="rgb(0,0,0)" fill-opacity="1"></path></g></g><g><g><g><g><g transform="matrix(1,0,0,1,26.0625,214.009375)"><path transform="matrix(0.0119,0,0,-0.0119,0,0)" d="M280 181L280 106C280 46 269 32 220 30L158 27L158 -3C291 0 291 0 315 0C339 0 339 0 472 -3L472 27L424 30C375 33 364 46 364 106L364 181C423 181 444 180 472 177L472 248L364 245L365 697L285 667L2 204L2 181ZM280 245L65 245L280 597Z" stroke="rgb(0,0,0)" stroke-opacity="1" stroke-width="8" fill="rgb(0,0,0)" fill-opacity="1"></path></g></g></g></g></g><g><svg x="31.34375" overflow="visible" y="202.4375" height="24" width="8.5"><path d=" M 1.75 1.70 c 0.00 -0.06 0.04 -0.08 0.08 -0.08 c 0.03 0.00 0.06 0.01 0.08 0.02 c 2.55 1.34 4.65 3.73 4.65 9.40 v 0.60 h -1.53 v -0.60 c 0.00 -3.23 -0.64 -7.03 -3.31 -9.06 c -0.12 -0.09 -0.13 -0.19 -0.13 -0.28 z  M 6.58 11.64 v 0.72 h -1.53 v -0.72 z" style="fill:rgb(0,0,0);fill-opacity:1;stroke-width:1px;stroke:none;stroke-opacity:1;"></path><path d=" M 1.75 22.30 c 0.00 0.06 0.04 0.08 0.08 0.08 c 0.03 0.00 0.06 -0.01 0.08 -0.02 c 2.55 -1.34 4.65 -3.73 4.65 -9.40 v -0.60 h -1.53 v 0.60 c 0.00 3.23 -0.64 7.03 -3.31 9.06 c -0.12 0.09 -0.13 0.19 -0.13 0.28 z" style="fill:rgb(0,0,0);fill-opacity:1;stroke-width:1px;stroke:none;stroke-opacity:1;"></path></svg></g><g><g transform="matrix(1,0,0,1,46.125,220.4375)"><path transform="matrix(0.017,0,0,-0.017,0,0)" d="M604 347L604 406L65 406L65 347ZM604 134L604 193L65 193L65 134Z" stroke="rgb(0,0,0)" stroke-opacity="1" stroke-width="8" fill="rgb(0,0,0)" fill-opacity="1"></path></g></g><g><g><g transform="matrix(1,0,0,1,62.578125,220.4375)"><path transform="matrix(0.017,0,0,-0.017,0,0)" d="M23 661L79 661C97 661 104 650 104 620L104 102C104 39 101 32 67 30L21 27L21 -3C121 0 121 0 146 0C171 0 171 0 271 -3L271 27L225 30C191 32 188 39 188 102L188 718L179 726C135 709 102 701 23 689ZM700 -3C761 0 762 0 779 0C793 0 793 0 862 -3L862 27L821 30C787 32 784 38 784 102L784 295C784 412 729 469 617 469C580 469 559 462 538 444L462 378L462 465L453 469C402 448 350 434 297 428L297 400L334 400C374 400 378 393 378 327L378 102C378 39 375 32 341 30L296 27L296 -3C364 -1 391 0 420 0C449 0 476 -1 544 -3L544 27L499 30C465 32 462 39 462 102L462 314C462 359 528 408 589 408C656 408 700 358 700 281Z" stroke="rgb(0,0,0)" stroke-opacity="1" stroke-width="8" fill="rgb(0,0,0)" fill-opacity="1"></path></g></g></g><g><svg x="78.578125" overflow="visible" y="202.4375" height="24" width="8.5"><path d=" M 6.27 1.70 c 0.00 -0.06 -0.04 -0.08 -0.08 -0.08 c -0.03 0.00 -0.06 0.01 -0.08 0.02 c -2.55 1.34 -4.65 3.73 -4.65 9.40 v 0.60 h 1.53 v -0.60 c 0.00 -3.23 0.64 -7.03 3.31 -9.06 c 0.12 -0.09 0.13 -0.19 0.13 -0.28 z   M 1.44 11.64 v 0.72 h 1.53 v -0.72 z" style="fill:rgb(0,0,0);fill-opacity:1;stroke-width:1px;stroke:none;stroke-opacity:1;"></path><path d=" M 6.27 22.30 c 0.00 0.06 -0.04 0.08 -0.08 0.08 c -0.03 0.00 -0.06 -0.01 -0.08 -0.02 c -2.55 -1.34 -4.65 -3.73 -4.65 -9.40 v -0.60 h 1.53 v 0.60 c 0.00 3.23 0.64 7.03 3.31 9.06 c 0.12 0.09 0.13 0.19 0.13 0.28 z" style="fill:rgb(0,0,0);fill-opacity:1;stroke-width:1px;stroke:none;stroke-opacity:1;"></path></svg></g><g><g transform="matrix(1,0,0,1,85.390625,220.4375)"><path transform="matrix(0.017,0,0,-0.017,0,0)" d="M328 111L304 94C251 56 203 36 167 36C120 36 91 73 91 133C91 158 94 185 99 214C116 218 225 248 250 259C335 296 374 342 374 404C374 451 340 482 290 482C222 496 112 423 75 349C45 299 15 180 15 113C15 35 59 -11 131 -11C188 -11 244 17 336 92ZM113 274C130 343 150 386 179 412C197 428 228 440 252 440C281 440 300 420 300 388C300 344 265 297 213 272C185 258 149 247 104 237Z" stroke="rgb(0,0,0)" stroke-opacity="1" stroke-width="8" fill="rgb(0,0,0)" fill-opacity="1"></path></g></g><g><g><g><g><g transform="matrix(1,0,0,1,92.96875,214.009375)"><path transform="matrix(0.0119,0,0,-0.0119,0,0)" d="M280 181L280 106C280 46 269 32 220 30L158 27L158 -3C291 0 291 0 315 0C339 0 339 0 472 -3L472 27L424 30C375 33 364 46 364 106L364 181C423 181 444 180 472 177L472 248L364 245L365 697L285 667L2 204L2 181ZM280 245L65 245L280 597Z" stroke="rgb(0,0,0)" stroke-opacity="1" stroke-width="8" fill="rgb(0,0,0)" fill-opacity="1"></path></g></g></g></g></g><g><svg x="98.25" overflow="visible" y="202.4375" height="24" width="8.5"><path d=" M 1.75 1.70 c 0.00 -0.06 0.04 -0.08 0.08 -0.08 c 0.03 0.00 0.06 0.01 0.08 0.02 c 2.55 1.34 4.65 3.73 4.65 9.40 v 0.60 h -1.53 v -0.60 c 0.00 -3.23 -0.64 -7.03 -3.31 -9.06 c -0.12 -0.09 -0.13 -0.19 -0.13 -0.28 z  M 6.58 11.64 v 0.72 h -1.53 v -0.72 z" style="fill:rgb(0,0,0);fill-opacity:1;stroke-width:1px;stroke:none;stroke-opacity:1;"></path><path d=" M 1.75 22.30 c 0.00 0.06 0.04 0.08 0.08 0.08 c 0.03 0.00 0.06 -0.01 0.08 -0.02 c 2.55 -1.34 4.65 -3.73 4.65 -9.40 v -0.60 h -1.53 v 0.60 c 0.00 3.23 -0.64 7.03 -3.31 9.06 c -0.12 0.09 -0.13 0.19 -0.13 0.28 z" style="fill:rgb(0,0,0);fill-opacity:1;stroke-width:1px;stroke:none;stroke-opacity:1;"></path></svg></g><g><g transform="matrix(1,0,0,1,111.328125,220.4375)"><path transform="matrix(0.017,0,0,-0.017,0,0)" d="M604 241L604 300L364 300L364 538L305 538L305 300L65 300L65 241L305 241L305 0L364 0L364 241Z" stroke="rgb(0,0,0)" stroke-opacity="1" stroke-width="8" fill="rgb(0,0,0)" fill-opacity="1"></path></g></g><g><g transform="matrix(1,0,0,1,126.078125,220.4375)"><path transform="matrix(0.017,0,0,-0.017,0,0)" d="M418 -3L418 27L366 30C311 33 301 44 301 96L301 700L60 598L67 548L217 614L217 96C217 44 206 33 152 30L96 27L96 -3C250 0 250 0 261 0C292 0 402 -3 418 -3Z" stroke="rgb(0,0,0)" stroke-opacity="1" stroke-width="8" fill="rgb(0,0,0)" fill-opacity="1"></path></g></g></g><g><g><g transform="matrix(1,0,0,1,33.75,247.8125)"><path transform="matrix(0.017,0,0,-0.017,0,0)" d="M-7 -180C-8 -187 -8 -193 -8 -198C-8 -241 29 -276 74 -276C180 -276 290 -152 349 33L490 473L479 482C450 471 427 465 405 463L370 331C358 284 323 211 290 162C255 111 206 67 184 67C172 67 163 90 164 115L180 322C182 353 184 391 184 419C184 464 177 482 160 482C147 482 133 475 85 442L3 386L14 368L64 398C69 401 80 410 89 410C103 410 111 391 111 358C111 357 111 351 110 343L93 100L92 60C92 18 110 -11 135 -11C172 -11 256 74 331 187L282 16C231 -161 181 -234 111 -234C76 -234 49 -207 49 -172C49 -167 50 -159 51 -150L41 -146Z" stroke="rgb(0,0,0)" stroke-opacity="1" stroke-width="8" fill="rgb(0,0,0)" fill-opacity="1"></path></g></g><g><svg x="43.421875" overflow="visible" y="229.8125" height="24" width="8.5"><path d=" M 6.27 1.70 c 0.00 -0.06 -0.04 -0.08 -0.08 -0.08 c -0.03 0.00 -0.06 0.01 -0.08 0.02 c -2.55 1.34 -4.65 3.73 -4.65 9.40 v 0.60 h 1.53 v -0.60 c 0.00 -3.23 0.64 -7.03 3.31 -9.06 c 0.12 -0.09 0.13 -0.19 0.13 -0.28 z   M 1.44 11.64 v 0.72 h 1.53 v -0.72 z" style="fill:rgb(0,0,0);fill-opacity:1;stroke-width:1px;stroke:none;stroke-opacity:1;"></path><path d=" M 6.27 22.30 c 0.00 0.06 -0.04 0.08 -0.08 0.08 c -0.03 0.00 -0.06 -0.01 -0.08 -0.02 c -2.55 -1.34 -4.65 -3.73 -4.65 -9.40 v -0.60 h 1.53 v 0.60 c 0.00 3.23 0.64 7.03 3.31 9.06 c 0.12 0.09 0.13 0.19 0.13 0.28 z" style="fill:rgb(0,0,0);fill-opacity:1;stroke-width:1px;stroke:none;stroke-opacity:1;"></path></svg></g><g><g transform="matrix(1,0,0,1,50.234375,247.8125)"><path transform="matrix(0.017,0,0,-0.017,0,0)" d="M328 111L304 94C251 56 203 36 167 36C120 36 91 73 91 133C91 158 94 185 99 214C116 218 225 248 250 259C335 296 374 342 374 404C374 451 340 482 290 482C222 496 112 423 75 349C45 299 15 180 15 113C15 35 59 -11 131 -11C188 -11 244 17 336 92ZM113 274C130 343 150 386 179 412C197 428 228 440 252 440C281 440 300 420 300 388C300 344 265 297 213 272C185 258 149 247 104 237Z" stroke="rgb(0,0,0)" stroke-opacity="1" stroke-width="8" fill="rgb(0,0,0)" fill-opacity="1"></path></g></g><g><g><g><g><g transform="matrix(1,0,0,1,57.8125,241.384375)"><path transform="matrix(0.0119,0,0,-0.0119,0,0)" d="M280 181L280 106C280 46 269 32 220 30L158 27L158 -3C291 0 291 0 315 0C339 0 339 0 472 -3L472 27L424 30C375 33 364 46 364 106L364 181C423 181 444 180 472 177L472 248L364 245L365 697L285 667L2 204L2 181ZM280 245L65 245L280 597Z" stroke="rgb(0,0,0)" stroke-opacity="1" stroke-width="8" fill="rgb(0,0,0)" fill-opacity="1"></path></g></g></g></g></g><g><svg x="63.09375" overflow="visible" y="229.8125" height="24" width="8.5"><path d=" M 1.75 1.70 c 0.00 -0.06 0.04 -0.08 0.08 -0.08 c 0.03 0.00 0.06 0.01 0.08 0.02 c 2.55 1.34 4.65 3.73 4.65 9.40 v 0.60 h -1.53 v -0.60 c 0.00 -3.23 -0.64 -7.03 -3.31 -9.06 c -0.12 -0.09 -0.13 -0.19 -0.13 -0.28 z  M 6.58 11.64 v 0.72 h -1.53 v -0.72 z" style="fill:rgb(0,0,0);fill-opacity:1;stroke-width:1px;stroke:none;stroke-opacity:1;"></path><path d=" M 1.75 22.30 c 0.00 0.06 0.04 0.08 0.08 0.08 c 0.03 0.00 0.06 -0.01 0.08 -0.02 c 2.55 -1.34 4.65 -3.73 4.65 -9.40 v -0.60 h -1.53 v 0.60 c 0.00 3.23 -0.64 7.03 -3.31 9.06 c -0.12 0.09 -0.13 0.19 -0.13 0.28 z" style="fill:rgb(0,0,0);fill-opacity:1;stroke-width:1px;stroke:none;stroke-opacity:1;"></path></svg></g><g><g transform="matrix(1,0,0,1,77.875,247.8125)"><path transform="matrix(0.017,0,0,-0.017,0,0)" d="M604 347L604 406L65 406L65 347ZM604 134L604 193L65 193L65 134Z" stroke="rgb(0,0,0)" stroke-opacity="1" stroke-width="8" fill="rgb(0,0,0)" fill-opacity="1"></path></g></g><g><g transform="matrix(1,0,0,1,94.328125,247.8125)"><path transform="matrix(0.017,0,0,-0.017,0,0)" d="M459 253C459 366 378 446 264 446C216 446 180 443 127 396L127 605L432 604L432 689L75 690L75 322L95 316C142 363 169 377 218 377C314 377 374 309 374 201C374 90 310 25 201 25C147 25 97 43 83 69L37 151L13 137C36 80 48 48 62 4C90 -11 130 -20 173 -20C301 -20 459 89 459 253Z" stroke="rgb(0,0,0)" stroke-opacity="1" stroke-width="8" fill="rgb(0,0,0)" fill-opacity="1"></path></g></g></g></g></svg>