<svg xmlns="http://www.w3.org/2000/svg" xmlns:xlink="http://www.w3.org/1999/xlink" width="72.359375" height="46" style="width:72.359375px;height:46px;font-family:Asana-Math, Asana;background:transparent;"><g><g><g><g transform="matrix(1,0,0,1,8.109375,19)"><path transform="matrix(0.017,0,0,-0.017,0,0)" d="M-7 -180C-8 -187 -8 -193 -8 -198C-8 -241 29 -276 74 -276C180 -276 290 -152 349 33L490 473L479 482C450 471 427 465 405 463L370 331C358 284 323 211 290 162C255 111 206 67 184 67C172 67 163 90 164 115L180 322C182 353 184 391 184 419C184 464 177 482 160 482C147 482 133 475 85 442L3 386L14 368L64 398C69 401 80 410 89 410C103 410 111 391 111 358C111 357 111 351 110 343L93 100L92 60C92 18 110 -11 135 -11C172 -11 256 74 331 187L282 16C231 -161 181 -234 111 -234C76 -234 49 -207 49 -172C49 -167 50 -159 51 -150L41 -146ZM730.80334 794.13126C730.80334 821.493 701.92302 841.25307 676.08278 841.25307C646.44268 841.25307 632.76181 812.37177 624.4023 788.05206L540.80044 545.60793C538.52013 539.52776 533.20072 525.08809 533.20072 517.48836C533.20072 510.64842 537.76036 500.76741 545.36008 500.76741C557.52042 500.76741 571.2013 517.48836 577.28147 526.60764L708.00319 734.09128C718.64398 750.81126 730.80334 772.85164 730.80334 794.13126ZM999.80334 794.13126C999.80334 821.493 970.92302 841.25307 945.08278 841.25307C915.44268 841.25307 901.76181 812.37177 893.4023 788.05206L809.80044 545.60793C807.52013 539.52776 802.20072 525.08809 802.20072 517.48836C802.20072 510.64842 806.76036 500.76741 814.36008 500.76741C826.52042 500.76741 840.2013 517.48836 846.28147 526.60764L977.00319 734.09128C987.64398 750.81126 999.80334 772.85164 999.80334 794.13126Z" stroke="rgb(0,0,0)" stroke-opacity="1" stroke-width="8" fill="rgb(0,0,0)" fill-opacity="1"></path></g></g><g><g transform="matrix(1,0,0,1,30.84375,19)"><path transform="matrix(0.017,0,0,-0.017,0,0)" d="M604 347L604 406L65 406L65 347ZM604 134L604 193L65 193L65 134Z" stroke="rgb(0,0,0)" stroke-opacity="1" stroke-width="8" fill="rgb(0,0,0)" fill-opacity="1"></path></g></g><g><g transform="matrix(1,0,0,1,47.296875,19)"><path transform="matrix(0.017,0,0,-0.017,0,0)" d="M462 224C462 345 355 366 308 374C388 436 418 482 418 541C418 630 344 689 233 689C165 689 120 670 72 622L43 498L74 498L92 554C103 588 166 622 218 622C283 622 336 569 336 506C336 431 277 368 206 368C198 368 187 369 174 370L159 371L147 318L154 312C192 329 211 334 238 334C321 334 369 281 369 190C369 88 308 21 215 21C169 21 128 36 98 64C74 86 61 109 42 163L15 153C36 92 44 56 50 6C103 -12 147 -20 184 -20C307 -20 462 87 462 224ZM508 1C523 -7 539 -11 551 -11C584 -11 623 18 654 65L730 182L741 113C754 28 777 -11 813 -11C835 -11 867 6 899 35L948 79L939 98C903 68 878 53 862 53C847 53 834 63 824 83C815 102 804 139 799 168L781 269L816 318C863 383 890 406 921 406C937 406 949 398 954 383L968 387L983 472C971 479 962 482 953 482C913 482 873 446 811 354L774 299L768 347C756 446 729 482 670 482C644 482 622 474 613 461L555 378L572 368C602 402 622 416 641 416C674 416 696 375 713 277L724 215L684 153C641 86 607 54 579 54C564 54 553 58 551 63L540 91L520 88C520 53 512 27 508 1Z" stroke="rgb(0,0,0)" stroke-opacity="1" stroke-width="8" fill="rgb(0,0,0)" fill-opacity="1"></path></g></g></g><g><g><g><g><g><text x="2" y="25" style="white-space:pre;stroke:none;fill:rgb(0,0,0);fill-opacity:1;font-size:15px;font-family:Arial, Helvetica, sans-serif;font-weight:400;font-style:normal;dominant-baseline:text-before-edge;text-decoration:none solid rgb(0, 0, 0);">solve for y</text></g></g></g></g></g></g></svg>