<svg xmlns="http://www.w3.org/2000/svg" xmlns:xlink="http://www.w3.org/1999/xlink" width="15.109375" height="42" style="width:15.109375px;height:42px;font-family:Asana-Math, Asana;background:transparent;"><g><g><g><g><g><g><g transform="matrix(1,0,0,1,2,15)"><path transform="matrix(0.017,0,0,-0.017,0,0)" d="M525 42C469 42 464 125 465 166C466 251 494 333 537 405L599 418C602 435 608 452 613 467C459 461 300 463 145 466C80 467 66 389 47 340C46 332 59 331 63 328L63 332C106 395 130 405 205 405L228 405C188 266 161 129 98 -2L98 -12C118 -6 153 1 170 13C211 141 240 274 268 405L495 405C438 318 397 213 395 108C395 59 410 -15 471 -15C512 -15 568 25 598 51L598 66L586 66L586 67C568 56 548 42 525 42Z" stroke="rgb(0,0,0)" stroke-opacity="1" stroke-width="0" fill="rgb(0,0,0)" fill-opacity="1"></path></g></g></g></g><g><g><g><g transform="matrix(1,0,0,1,3.3125,40)"><path transform="matrix(0.017,0,0,-0.017,0,0)" d="M280 181L280 106C280 46 269 32 220 30L158 27L158 -3C291 0 291 0 315 0C339 0 339 0 472 -3L472 27L424 30C375 33 364 46 364 106L364 181C423 181 444 180 472 177L472 248L364 245L365 697L285 667L2 204L2 181ZM280 245L65 245L280 597Z" stroke="rgb(0,0,0)" stroke-opacity="1" stroke-width="0" fill="rgb(0,0,0)" fill-opacity="1"></path></g></g></g></g><line style="fill:none;stroke-width:1px;stroke:rgb(0, 0, 0);" x1="2" y1="22.75" x2="13.109375" y2="22.75"></line></g></g></g></svg>