<svg xmlns="http://www.w3.org/2000/svg" xmlns:xlink="http://www.w3.org/1999/xlink" width="29.453125" height="24" style="width:29.453125px;height:24px;font-family:Asana-Math, Asana;background:transparent;"><g><g><g><g transform="matrix(1,0,0,1,2,19)"><path transform="matrix(0.017,0,0,-0.017,0,0)" d="M280 181L280 106C280 46 269 32 220 30L158 27L158 -3C291 0 291 0 315 0C339 0 339 0 472 -3L472 27L424 30C375 33 364 46 364 106L364 181C423 181 444 180 472 177L472 248L364 245L365 697L285 667L2 204L2 181ZM280 245L65 245L280 597ZM958 253C958 366 877 446 763 446C715 446 679 443 626 396L626 605L931 604L931 689L574 690L574 322L594 316C641 363 668 377 717 377C813 377 873 309 873 201C873 90 809 25 700 25C646 25 596 43 582 69L536 151L512 137C535 80 547 48 561 4C589 -11 629 -20 672 -20C800 -20 958 89 958 253ZM1129 331C1150 512 1239 611 1419 665L1377 689C1281 657 1240 637 1189 593C1086 506 1030 384 1030 247C1030 82 1110 -20 1239 -20C1369 -20 1466 83 1466 219C1466 334 1397 409 1291 409C1214 409 1182 370 1129 331ZM1253 349C1329 349 1380 283 1380 184C1380 80 1329 13 1252 13C1167 13 1121 86 1121 220C1121 255 1125 274 1136 291C1158 325 1205 349 1253 349Z" stroke="rgb(0,0,0)" stroke-opacity="1" stroke-width="0" fill="rgb(0,0,0)" fill-opacity="1"></path></g></g></g></g></svg>