<svg xmlns="http://www.w3.org/2000/svg" xmlns:xlink="http://www.w3.org/1999/xlink" width="29.453125" height="46" style="width:29.453125px;height:46px;font-family:Asana-Math, Asana;background:transparent;"><g><g><g><g><g><g><g transform="matrix(1,0,0,1,2,19)"><path transform="matrix(0.017,0,0,-0.017,0,0)" d="M459 253C459 366 378 446 264 446C216 446 180 443 127 396L127 605L432 604L432 689L75 690L75 322L95 316C142 363 169 377 218 377C314 377 374 309 374 201C374 90 310 25 201 25C147 25 97 43 83 69L37 151L13 137C36 80 48 48 62 4C90 -11 130 -20 173 -20C301 -20 459 89 459 253ZM762 689C607 689 528 566 528 324C528 207 549 106 584 57C619 8 675 -20 737 -20C888 -20 964 110 964 366C964 585 899 689 762 689ZM744 654C841 654 880 556 880 316C880 103 842 15 750 15C653 15 612 116 612 360C612 571 649 654 744 654ZM1261 689C1106 689 1027 566 1027 324C1027 207 1048 106 1083 57C1118 8 1174 -20 1236 -20C1387 -20 1463 110 1463 366C1463 585 1398 689 1261 689ZM1243 654C1340 654 1379 556 1379 316C1379 103 1341 15 1249 15C1152 15 1111 116 1111 360C1111 571 1148 654 1243 654Z" stroke="rgb(0,0,0)" stroke-opacity="1" stroke-width="0" fill="rgb(0,0,0)" fill-opacity="1"></path></g></g></g></g><g><g><g><g transform="matrix(1,0,0,1,10.484375,44)"><path transform="matrix(0.017,0,0,-0.017,0,0)" d="M462 224C462 345 355 366 308 374C388 436 418 482 418 541C418 630 344 689 233 689C165 689 120 670 72 622L43 498L74 498L92 554C103 588 166 622 218 622C283 622 336 569 336 506C336 431 277 368 206 368C198 368 187 369 174 370L159 371L147 318L154 312C192 329 211 334 238 334C321 334 369 281 369 190C369 88 308 21 215 21C169 21 128 36 98 64C74 86 61 109 42 163L15 153C36 92 44 56 50 6C103 -12 147 -20 184 -20C307 -20 462 87 462 224Z" stroke="rgb(0,0,0)" stroke-opacity="1" stroke-width="0" fill="rgb(0,0,0)" fill-opacity="1"></path></g></g></g></g><line style="fill:none;stroke-width:1px;stroke:rgb(0, 0, 0);" x1="2" y1="26.75" x2="27.453125" y2="26.75"></line></g></g></g></svg>