<svg xmlns="http://www.w3.org/2000/svg" xmlns:xlink="http://www.w3.org/1999/xlink" width="230.78125" height="93.328125" style="width:230.78125px;height:93.328125px;font-family:Asana-Math, Asana;background:transparent;"><g><g><g><g><g><g><text x="20.34375" y="5" style="white-space:pre;stroke:none;fill:rgb(0,0,0);fill-opacity:1;font-size:15px;font-family:Arial, Helvetica, sans-serif;font-weight:400;font-style:normal;dominant-baseline:text-before-edge;text-decoration:none solid rgb(0, 0, 0);">A cars velocity is determined</text></g></g></g></g></g><g><g><g><g><g><text x="2.75" y="28.328125" style="white-space:pre;stroke:none;fill:rgb(0,0,0);fill-opacity:1;font-size:15px;font-family:Arial, Helvetica, sans-serif;font-weight:400;font-style:normal;dominant-baseline:text-before-edge;text-decoration:none solid rgb(0, 0, 0);">by the equation</text></g></g></g></g><g><g transform="matrix(1,0,0,1,105.34375,42.328125)"><path transform="matrix(0.017,0,0,-0.017,0,0)" d="M415 420C436 420 452 421 478 424C367 304 325 221 325 121C325 44 371 -11 435 -11C573 -11 726 236 726 384C726 441 700 482 664 482C651 482 639 478 631 470L581 423L592 404C601 410 610 413 619 413C646 413 662 390 662 350C662 202 565 39 477 39C428 39 397 81 397 146C397 251 436 342 534 464L524 482C504 473 491 470 463 470C435 470 393 472 364 475L352 476C346 477 341 477 340 477C328 477 319 475 308 470C294 443 283 407 270 352L292 352L309 394C316 411 336 422 360 422C393 422 377 420 415 420Z" stroke="rgb(0,0,0)" stroke-opacity="1" stroke-width="8" fill="rgb(0,0,0)" fill-opacity="1"></path></g></g><g><g transform="matrix(1,0,0,1,118.0625,42.328125)"><path transform="matrix(0.017,0,0,-0.017,0,0)" d="M146 266C146 526 243 632 301 700L282 726C225 675 60 542 60 266C60 159 85 58 133 -32C168 -99 200 -138 282 -215L301 -194C255 -137 146 -15 146 266Z" stroke="rgb(0,0,0)" stroke-opacity="1" stroke-width="8" fill="rgb(0,0,0)" fill-opacity="1"></path></g></g><g><g transform="matrix(1,0,0,1,123.71875,42.328125)"><path transform="matrix(0.017,0,0,-0.017,0,0)" d="M125 390L69 107C68 99 56 61 56 31C56 6 67 -9 86 -9C121 -9 156 11 234 74L265 99L255 117L210 86C181 66 161 56 150 56C141 56 136 64 136 76C136 102 150 183 179 328L192 390L299 390L310 440C272 436 238 434 200 434C216 528 227 577 245 631L234 646C214 634 187 622 156 610L131 440C87 419 61 408 43 403L41 390Z" stroke="rgb(0,0,0)" stroke-opacity="1" stroke-width="8" fill="rgb(0,0,0)" fill-opacity="1"></path></g></g><g><g transform="matrix(1,0,0,1,129.375,42.328125)"><path transform="matrix(0.017,0,0,-0.017,0,0)" d="M51 726L32 700C87 636 187 526 187 266C187 -10 83 -131 32 -194L51 -215C104 -165 273 -23 273 265C273 542 108 675 51 726Z" stroke="rgb(0,0,0)" stroke-opacity="1" stroke-width="8" fill="rgb(0,0,0)" fill-opacity="1"></path></g></g><g><g transform="matrix(1,0,0,1,140.125,42.328125)"><path transform="matrix(0.017,0,0,-0.017,0,0)" d="M604 347L604 406L65 406L65 347ZM604 134L604 193L65 193L65 134Z" stroke="rgb(0,0,0)" stroke-opacity="1" stroke-width="8" fill="rgb(0,0,0)" fill-opacity="1"></path></g></g><g><g transform="matrix(1,0,0,1,156.578125,42.328125)"><path transform="matrix(0.017,0,0,-0.017,0,0)" d="M125 390L69 107C68 99 56 61 56 31C56 6 67 -9 86 -9C121 -9 156 11 234 74L265 99L255 117L210 86C181 66 161 56 150 56C141 56 136 64 136 76C136 102 150 183 179 328L192 390L299 390L310 440C272 436 238 434 200 434C216 528 227 577 245 631L234 646C214 634 187 622 156 610L131 440C87 419 61 408 43 403L41 390Z" stroke="rgb(0,0,0)" stroke-opacity="1" stroke-width="8" fill="rgb(0,0,0)" fill-opacity="1"></path></g></g><g><g><g><g><g transform="matrix(1,0,0,1,163.203125,35.9)"><path transform="matrix(0.0119,0,0,-0.0119,0,0)" d="M16 23L16 -3C203 -3 203 0 239 0C275 0 275 -3 468 -3L468 82C353 77 307 81 122 77L304 270C401 373 431 428 431 503C431 618 353 689 226 689C154 689 105 669 56 619L39 483L68 483L81 529C97 587 133 612 200 612C286 612 341 558 341 473C341 398 299 324 186 204Z" stroke="rgb(0,0,0)" stroke-opacity="1" stroke-width="8" fill="rgb(0,0,0)" fill-opacity="1"></path></g></g></g></g></g><g><g transform="matrix(1,0,0,1,173.5625,42.328125)"><path transform="matrix(0.017,0,0,-0.017,0,0)" d="M555 243L555 299L51 299L51 243Z" stroke="rgb(0,0,0)" stroke-opacity="1" stroke-width="8" fill="rgb(0,0,0)" fill-opacity="1"></path></g></g><g><g transform="matrix(1,0,0,1,187.25,42.328125)"><path transform="matrix(0.017,0,0,-0.017,0,0)" d="M16 23L16 -3C203 -3 203 0 239 0C275 0 275 -3 468 -3L468 82C353 77 307 81 122 77L304 270C401 373 431 428 431 503C431 618 353 689 226 689C154 689 105 669 56 619L39 483L68 483L81 529C97 587 133 612 200 612C286 612 341 558 341 473C341 398 299 324 186 204ZM624 390L568 107C567 99 555 61 555 31C555 6 566 -9 585 -9C620 -9 655 11 733 74L764 99L754 117L709 86C680 66 660 56 649 56C640 56 635 64 635 76C635 102 649 183 678 328L691 390L798 390L809 440C771 436 737 434 699 434C715 528 726 577 744 631L733 646C713 634 686 622 655 610L630 440C586 419 560 408 542 403L540 390Z" stroke="rgb(0,0,0)" stroke-opacity="1" stroke-width="8" fill="rgb(0,0,0)" fill-opacity="1"></path></g></g><g><g transform="matrix(1,0,0,1,204.78125,42.328125)"><path transform="matrix(0.017,0,0,-0.017,0,0)" d="M604 241L604 300L364 300L364 538L305 538L305 300L65 300L65 241L305 241L305 0L364 0L364 241Z" stroke="rgb(0,0,0)" stroke-opacity="1" stroke-width="8" fill="rgb(0,0,0)" fill-opacity="1"></path></g></g><g><g transform="matrix(1,0,0,1,219.53125,42.328125)"><path transform="matrix(0.017,0,0,-0.017,0,0)" d="M459 253C459 366 378 446 264 446C216 446 180 443 127 396L127 605L432 604L432 689L75 690L75 322L95 316C142 363 169 377 218 377C314 377 374 309 374 201C374 90 310 25 201 25C147 25 97 43 83 69L37 151L13 137C36 80 48 48 62 4C90 -11 130 -20 173 -20C301 -20 459 89 459 253Z" stroke="rgb(0,0,0)" stroke-opacity="1" stroke-width="8" fill="rgb(0,0,0)" fill-opacity="1"></path></g></g></g><g><g><g><g><g><text x="2" y="50.328125" style="white-space:pre;stroke:none;fill:rgb(0,0,0);fill-opacity:1;font-size:15px;font-family:Arial, Helvetica, sans-serif;font-weight:400;font-style:normal;dominant-baseline:text-before-edge;text-decoration:none solid rgb(0, 0, 0);">What is the acceleration of the car</text></g></g></g></g></g><g><g><g><g><g><text x="89.171875" y="72.328125" style="white-space:pre;stroke:none;fill:rgb(0,0,0);fill-opacity:1;font-size:15px;font-family:Arial, Helvetica, sans-serif;font-weight:400;font-style:normal;dominant-baseline:text-before-edge;text-decoration:none solid rgb(0, 0, 0);">at</text></g></g></g></g><g><g transform="matrix(1,0,0,1,101.6875,86.328125)"><path transform="matrix(0.017,0,0,-0.017,0,0)" d="M374 390L318 107C317 99 305 61 305 31C305 6 316 -9 335 -9C370 -9 405 11 483 74L514 99L504 117L459 86C430 66 410 56 399 56C390 56 385 64 385 76C385 102 399 183 428 328L441 390L548 390L559 440C521 436 487 434 449 434C465 528 476 577 494 631L483 646C463 634 436 622 405 610L380 440C336 419 310 408 292 403L290 390Z" stroke="rgb(0,0,0)" stroke-opacity="1" stroke-width="8" fill="rgb(0,0,0)" fill-opacity="1"></path></g></g><g><g transform="matrix(1,0,0,1,116.671875,86.328125)"><path transform="matrix(0.017,0,0,-0.017,0,0)" d="M604 347L604 406L65 406L65 347ZM604 134L604 193L65 193L65 134Z" stroke="rgb(0,0,0)" stroke-opacity="1" stroke-width="8" fill="rgb(0,0,0)" fill-opacity="1"></path></g></g><g><g transform="matrix(1,0,0,1,133.125,86.328125)"><path transform="matrix(0.017,0,0,-0.017,0,0)" d="M459 253C459 366 378 446 264 446C216 446 180 443 127 396L127 605L432 604L432 689L75 690L75 322L95 316C142 363 169 377 218 377C314 377 374 309 374 201C374 90 310 25 201 25C147 25 97 43 83 69L37 151L13 137C36 80 48 48 62 4C90 -11 130 -20 173 -20C301 -20 459 89 459 253Z" stroke="rgb(0,0,0)" stroke-opacity="1" stroke-width="8" fill="rgb(0,0,0)" fill-opacity="1"></path></g></g></g></g></svg>