<svg xmlns="http://www.w3.org/2000/svg" xmlns:xlink="http://www.w3.org/1999/xlink" width="20.96875" height="24" style="width:20.96875px;height:24px;font-family:Asana-Math, Asana;background:transparent;"><g><g><g><g transform="matrix(1,0,0,1,2,19)"><path transform="matrix(0.017,0,0,-0.017,0,0)" d="M418 -3L418 27L366 30C311 33 301 44 301 96L301 700L60 598L67 548L217 614L217 96C217 44 206 33 152 30L96 27L96 -3C250 0 250 0 261 0C292 0 402 -3 418 -3ZM667 345C626 326 609 315 587 294C549 256 529 211 529 159C529 56 612 -20 725 -20C855 -20 963 82 963 206C963 286 926 329 812 381C903 443 935 485 935 545C935 631 864 689 758 689C639 689 552 613 552 508C552 440 579 402 667 345ZM783 295C846 267 884 218 884 164C884 80 821 14 740 14C655 14 600 74 600 167C600 240 629 286 703 331ZM722 423C659 454 627 494 627 544C627 610 675 655 746 655C819 655 867 607 867 534C867 477 842 438 777 396Z" stroke="rgb(0,0,0)" stroke-opacity="1" stroke-width="0" fill="rgb(0,0,0)" fill-opacity="1"></path></g></g></g></g></svg>