<svg xmlns="http://www.w3.org/2000/svg" xmlns:xlink="http://www.w3.org/1999/xlink" width="257.046875" height="91.328125" style="width:257.046875px;height:91.328125px;font-family:Asana-Math, Asana;background:transparent;"><g><g><g><g><g><g><text x="2" y="5" style="white-space:pre;stroke:none;fill:rgb(0,0,0);fill-opacity:1;font-size:15px;font-family:Arial, Helvetica, sans-serif;font-weight:400;font-style:normal;dominant-baseline:text-before-edge;text-decoration:none solid rgb(0, 0, 0);">Find the area bounded by the </text></g></g></g></g><g><g transform="matrix(1,0,0,1,202.15625,19)"><path transform="matrix(0.017,0,0,-0.017,0,0)" d="M9 1C24 -7 40 -11 52 -11C85 -11 124 18 155 65L231 182L242 113C255 28 278 -11 314 -11C336 -11 368 6 400 35L449 79L440 98C404 68 379 53 363 53C348 53 335 63 325 83C316 102 305 139 300 168L282 269L317 318C364 383 391 406 422 406C438 406 450 398 455 383L469 387L484 472C472 479 463 482 454 482C414 482 374 446 312 354L275 299L269 347C257 446 230 482 171 482C145 482 123 474 114 461L56 378L73 368C103 402 123 416 142 416C175 416 197 375 214 277L225 215L185 153C142 86 108 54 80 54C65 54 54 58 52 63L41 91L21 88C21 53 13 27 9 1Z" stroke="rgb(0,0,0)" stroke-opacity="1" stroke-width="8" fill="rgb(0,0,0)" fill-opacity="1"></path></g></g><g><g transform="matrix(1,0,0,1,214.03125,19)"><path transform="matrix(0.017,0,0,-0.017,0,0)" d="M555 243L555 299L51 299L51 243Z" stroke="rgb(0,0,0)" stroke-opacity="1" stroke-width="8" fill="rgb(0,0,0)" fill-opacity="1"></path></g></g><g><g transform="matrix(1,0,0,1,227.71875,19)"><path transform="matrix(0.017,0,0,-0.017,0,0)" d="M271 204L242 77C238 60 236 42 236 26C236 4 245 -9 260 -9C283 -9 324 17 406 85L399 106C375 86 346 59 324 59C315 59 309 68 309 82C309 87 309 90 310 93L402 472L392 481L359 463C318 478 301 482 274 482C246 482 226 477 199 464C137 433 104 403 79 354C35 265 4 145 4 67C4 23 19 -11 38 -11C75 -11 155 41 271 204ZM319 414C297 305 278 253 244 201C187 117 126 59 94 59C82 59 76 72 76 99C76 163 104 280 139 360C163 415 186 433 234 433C257 433 275 429 319 414ZM452 1C467 -7 483 -11 495 -11C528 -11 567 18 598 65L674 182L685 113C698 28 721 -11 757 -11C779 -11 811 6 843 35L892 79L883 98C847 68 822 53 806 53C791 53 778 63 768 83C759 102 748 139 743 168L725 269L760 318C807 383 834 406 865 406C881 406 893 398 898 383L912 387L927 472C915 479 906 482 897 482C857 482 817 446 755 354L718 299L712 347C700 446 673 482 614 482C588 482 566 474 557 461L499 378L516 368C546 402 566 416 585 416C618 416 640 375 657 277L668 215L628 153C585 86 551 54 523 54C508 54 497 58 495 63L484 91L464 88C464 53 456 27 452 1ZM976 388L983 368L1015 389C1052 412 1055 414 1062 414C1072 414 1080 404 1080 391C1080 384 1076 361 1072 347L1006 107C998 76 993 49 993 30C993 6 1004 -9 1023 -9C1049 -9 1085 12 1183 85L1173 103L1147 86C1118 67 1095 56 1086 56C1079 56 1073 66 1073 76C1073 86 1075 95 1080 116L1157 420C1161 437 1163 448 1163 456C1163 473 1154 482 1138 482C1116 482 1079 461 1004 408ZM1170 712C1141 712 1112 679 1112 645C1112 620 1127 604 1151 604C1182 604 1206 633 1206 671C1206 695 1191 712 1170 712ZM1250 148C1245 97 1239 62 1228 16C1266 -2 1300 -11 1335 -11C1384 -11 1430 7 1481 47C1532 87 1553 124 1553 174C1553 228 1521 257 1447 271L1404 279C1344 290 1325 307 1325 348C1325 401 1370 442 1427 442C1468 442 1506 424 1522 397L1522 342L1545 342C1549 377 1553 404 1564 455C1525 474 1497 482 1464 482C1412 482 1351 452 1303 404C1277 377 1266 352 1266 316C1266 260 1297 228 1363 215L1426 203C1470 195 1486 177 1486 138C1486 73 1440 29 1369 29C1334 29 1303 40 1275 64L1275 148Z" stroke="rgb(0,0,0)" stroke-opacity="1" stroke-width="8" fill="rgb(0,0,0)" fill-opacity="1"></path></g></g></g><g><g><g><g><g><text x="80.46875" y="27" style="white-space:pre;stroke:none;fill:rgb(0,0,0);fill-opacity:1;font-size:15px;font-family:Arial, Helvetica, sans-serif;font-weight:400;font-style:normal;dominant-baseline:text-before-edge;text-decoration:none solid rgb(0, 0, 0);">The line</text></g></g></g></g><g><g transform="matrix(1,0,0,1,133.84375,41)"><path transform="matrix(0.017,0,0,-0.017,0,0)" d="M258 1C273 -7 289 -11 301 -11C334 -11 373 18 404 65L480 182L491 113C504 28 527 -11 563 -11C585 -11 617 6 649 35L698 79L689 98C653 68 628 53 612 53C597 53 584 63 574 83C565 102 554 139 549 168L531 269L566 318C613 383 640 406 671 406C687 406 699 398 704 383L718 387L733 472C721 479 712 482 703 482C663 482 623 446 561 354L524 299L518 347C506 446 479 482 420 482C394 482 372 474 363 461L305 378L322 368C352 402 372 416 391 416C424 416 446 375 463 277L474 215L434 153C391 86 357 54 329 54C314 54 303 58 301 63L290 91L270 88C270 53 262 27 258 1Z" stroke="rgb(0,0,0)" stroke-opacity="1" stroke-width="8" fill="rgb(0,0,0)" fill-opacity="1"></path></g></g><g><g transform="matrix(1,0,0,1,151.65625,41)"><path transform="matrix(0.017,0,0,-0.017,0,0)" d="M604 347L604 406L65 406L65 347ZM604 134L604 193L65 193L65 134Z" stroke="rgb(0,0,0)" stroke-opacity="1" stroke-width="8" fill="rgb(0,0,0)" fill-opacity="1"></path></g></g><g><g transform="matrix(1,0,0,1,168.109375,41)"><path transform="matrix(0.017,0,0,-0.017,0,0)" d="M263 689C108 689 29 566 29 324C29 207 50 106 85 57C120 8 176 -20 238 -20C389 -20 465 110 465 366C465 585 400 689 263 689ZM245 654C342 654 381 556 381 316C381 103 343 15 251 15C154 15 113 116 113 360C113 571 150 654 245 654Z" stroke="rgb(0,0,0)" stroke-opacity="1" stroke-width="8" fill="rgb(0,0,0)" fill-opacity="1"></path></g></g></g><g><g><g><g><g><text x="36.1875" y="50.328125" style="white-space:pre;stroke:none;fill:rgb(0,0,0);fill-opacity:1;font-size:15px;font-family:Arial, Helvetica, sans-serif;font-weight:400;font-style:normal;dominant-baseline:text-before-edge;text-decoration:none solid rgb(0, 0, 0);">And the function</text></g></g></g></g><g><g transform="matrix(1,0,0,1,144.609375,64.328125)"><path transform="matrix(0.017,0,0,-0.017,0,0)" d="M258 1C273 -7 289 -11 301 -11C334 -11 373 18 404 65L480 182L491 113C504 28 527 -11 563 -11C585 -11 617 6 649 35L698 79L689 98C653 68 628 53 612 53C597 53 584 63 574 83C565 102 554 139 549 168L531 269L566 318C613 383 640 406 671 406C687 406 699 398 704 383L718 387L733 472C721 479 712 482 703 482C663 482 623 446 561 354L524 299L518 347C506 446 479 482 420 482C394 482 372 474 363 461L305 378L322 368C352 402 372 416 391 416C424 416 446 375 463 277L474 215L434 153C391 86 357 54 329 54C314 54 303 58 301 63L290 91L270 88C270 53 262 27 258 1Z" stroke="rgb(0,0,0)" stroke-opacity="1" stroke-width="8" fill="rgb(0,0,0)" fill-opacity="1"></path></g></g><g><g transform="matrix(1,0,0,1,162.421875,64.328125)"><path transform="matrix(0.017,0,0,-0.017,0,0)" d="M604 347L604 406L65 406L65 347ZM604 134L604 193L65 193L65 134Z" stroke="rgb(0,0,0)" stroke-opacity="1" stroke-width="8" fill="rgb(0,0,0)" fill-opacity="1"></path></g></g><g><g transform="matrix(1,0,0,1,178.875,64.328125)"><path transform="matrix(0.017,0,0,-0.017,0,0)" d="M-7 -180C-8 -187 -8 -193 -8 -198C-8 -241 29 -276 74 -276C180 -276 290 -152 349 33L490 473L479 482C450 471 427 465 405 463L370 331C358 284 323 211 290 162C255 111 206 67 184 67C172 67 163 90 164 115L180 322C182 353 184 391 184 419C184 464 177 482 160 482C147 482 133 475 85 442L3 386L14 368L64 398C69 401 80 410 89 410C103 410 111 391 111 358C111 357 111 351 110 343L93 100L92 60C92 18 110 -11 135 -11C172 -11 256 74 331 187L282 16C231 -161 181 -234 111 -234C76 -234 49 -207 49 -172C49 -167 50 -159 51 -150L41 -146Z" stroke="rgb(0,0,0)" stroke-opacity="1" stroke-width="8" fill="rgb(0,0,0)" fill-opacity="1"></path></g></g><g><g><g><g><g transform="matrix(1,0,0,1,188.328125,57.9)"><path transform="matrix(0.0119,0,0,-0.0119,0,0)" d="M462 224C462 345 355 366 308 374C388 436 418 482 418 541C418 630 344 689 233 689C165 689 120 670 72 622L43 498L74 498L92 554C103 588 166 622 218 622C283 622 336 569 336 506C336 431 277 368 206 368C198 368 187 369 174 370L159 371L147 318L154 312C192 329 211 334 238 334C321 334 369 281 369 190C369 88 308 21 215 21C169 21 128 36 98 64C74 86 61 109 42 163L15 153C36 92 44 56 50 6C103 -12 147 -20 184 -20C307 -20 462 87 462 224Z" stroke="rgb(0,0,0)" stroke-opacity="1" stroke-width="8" fill="rgb(0,0,0)" fill-opacity="1"></path></g></g></g></g></g><g><g transform="matrix(1,0,0,1,198.6875,64.328125)"><path transform="matrix(0.017,0,0,-0.017,0,0)" d="M555 243L555 299L51 299L51 243Z" stroke="rgb(0,0,0)" stroke-opacity="1" stroke-width="8" fill="rgb(0,0,0)" fill-opacity="1"></path></g></g><g><g transform="matrix(1,0,0,1,212.375,64.328125)"><path transform="matrix(0.017,0,0,-0.017,0,0)" d="M168 345C127 326 110 315 88 294C50 256 30 211 30 159C30 56 113 -20 226 -20C356 -20 464 82 464 206C464 286 427 329 313 381C404 443 436 485 436 545C436 631 365 689 259 689C140 689 53 613 53 508C53 440 80 402 168 345ZM284 295C347 267 385 218 385 164C385 80 322 14 241 14C156 14 101 74 101 167C101 240 130 286 204 331ZM223 423C160 454 128 494 128 544C128 610 176 655 247 655C320 655 368 607 368 534C368 477 343 438 278 396Z" stroke="rgb(0,0,0)" stroke-opacity="1" stroke-width="8" fill="rgb(0,0,0)" fill-opacity="1"></path></g></g></g><g></g></g></svg>