<svg xmlns="http://www.w3.org/2000/svg" xmlns:xlink="http://www.w3.org/1999/xlink" width="452.140625" height="88" style="width:452.140625px;height:88px;font-family:Asana-Math, Asana;background:transparent;"><g><g><g><g><g><g><g transform="matrix(1,0,0,1,185.546875,19)"><path transform="matrix(0.017,0,0,-0.017,0,0)" d="M483 722L471 733C419 707 383 698 311 691L307 670L355 670C379 670 389 663 389 646C389 638 388 629 387 622L359 468C329 477 302 482 277 482C208 482 114 410 68 323C37 265 17 170 17 86C17 21 32 -11 61 -11C88 -11 125 6 159 33C213 77 246 116 313 217L290 126C279 82 274 50 274 24C274 3 283 -9 300 -9C317 -9 341 3 375 28L456 88L446 107L402 76C388 66 372 59 363 59C355 59 349 68 349 82C349 90 350 99 357 128ZM114 59C98 59 89 73 89 98C89 224 135 380 184 418C197 428 216 433 243 433C287 433 316 427 349 410L337 351C300 171 159 59 114 59ZM492 -180C491 -187 491 -193 491 -198C491 -241 528 -276 573 -276C679 -276 789 -152 848 33L989 473L978 482C949 471 926 465 904 463L869 331C857 284 822 211 789 162C754 111 705 67 683 67C671 67 662 90 663 115L679 322C681 353 683 391 683 419C683 464 676 482 659 482C646 482 632 475 584 442L502 386L513 368L563 398C568 401 579 410 588 410C602 410 610 391 610 358C610 357 610 351 609 343L592 100L591 60C591 18 609 -11 634 -11C671 -11 755 74 830 187L781 16C730 -161 680 -234 610 -234C575 -234 548 -207 548 -172C548 -167 549 -159 550 -150L540 -146Z" stroke="rgb(0,0,0)" stroke-opacity="1" stroke-width="8" fill="rgb(0,0,0)" fill-opacity="1"></path></g></g></g></g><g><g><g><g transform="matrix(1,0,0,1,185.546875,44)"><path transform="matrix(0.017,0,0,-0.017,0,0)" d="M483 722L471 733C419 707 383 698 311 691L307 670L355 670C379 670 389 663 389 646C389 638 388 629 387 622L359 468C329 477 302 482 277 482C208 482 114 410 68 323C37 265 17 170 17 86C17 21 32 -11 61 -11C88 -11 125 6 159 33C213 77 246 116 313 217L290 126C279 82 274 50 274 24C274 3 283 -9 300 -9C317 -9 341 3 375 28L456 88L446 107L402 76C388 66 372 59 363 59C355 59 349 68 349 82C349 90 350 99 357 128ZM114 59C98 59 89 73 89 98C89 224 135 380 184 418C197 428 216 433 243 433C287 433 316 427 349 410L337 351C300 171 159 59 114 59ZM508 1C523 -7 539 -11 551 -11C584 -11 623 18 654 65L730 182L741 113C754 28 777 -11 813 -11C835 -11 867 6 899 35L948 79L939 98C903 68 878 53 862 53C847 53 834 63 824 83C815 102 804 139 799 168L781 269L816 318C863 383 890 406 921 406C937 406 949 398 954 383L968 387L983 472C971 479 962 482 953 482C913 482 873 446 811 354L774 299L768 347C756 446 729 482 670 482C644 482 622 474 613 461L555 378L572 368C602 402 622 416 641 416C674 416 696 375 713 277L724 215L684 153C641 86 607 54 579 54C564 54 553 58 551 63L540 91L520 88C520 53 512 27 508 1Z" stroke="rgb(0,0,0)" stroke-opacity="1" stroke-width="8" fill="rgb(0,0,0)" fill-opacity="1"></path></g></g></g></g><line style="fill:none;stroke-width:1px;stroke:rgb(0, 0, 0);" x1="185.546875" y1="26.75" x2="202.515625" y2="26.75"></line></g><g><g transform="matrix(1,0,0,1,209.296875,31)"><path transform="matrix(0.017,0,0,-0.017,0,0)" d="M604 347L604 406L65 406L65 347ZM604 134L604 193L65 193L65 134Z" stroke="rgb(0,0,0)" stroke-opacity="1" stroke-width="8" fill="rgb(0,0,0)" fill-opacity="1"></path></g></g><g><g transform="matrix(1,0,0,1,225.75,31)"><path transform="matrix(0.017,0,0,-0.017,0,0)" d="M16 23L16 -3C203 -3 203 0 239 0C275 0 275 -3 468 -3L468 82C353 77 307 81 122 77L304 270C401 373 431 428 431 503C431 618 353 689 226 689C154 689 105 669 56 619L39 483L68 483L81 529C97 587 133 612 200 612C286 612 341 558 341 473C341 398 299 324 186 204ZM508 1C523 -7 539 -11 551 -11C584 -11 623 18 654 65L730 182L741 113C754 28 777 -11 813 -11C835 -11 867 6 899 35L948 79L939 98C903 68 878 53 862 53C847 53 834 63 824 83C815 102 804 139 799 168L781 269L816 318C863 383 890 406 921 406C937 406 949 398 954 383L968 387L983 472C971 479 962 482 953 482C913 482 873 446 811 354L774 299L768 347C756 446 729 482 670 482C644 482 622 474 613 461L555 378L572 368C602 402 622 416 641 416C674 416 696 375 713 277L724 215L684 153C641 86 607 54 579 54C564 54 553 58 551 63L540 91L520 88C520 53 512 27 508 1Z" stroke="rgb(0,0,0)" stroke-opacity="1" stroke-width="8" fill="rgb(0,0,0)" fill-opacity="1"></path></g></g><g><g transform="matrix(1,0,0,1,246.109375,31)"><path transform="matrix(0.017,0,0,-0.017,0,0)" d="M555 243L555 299L51 299L51 243Z" stroke="rgb(0,0,0)" stroke-opacity="1" stroke-width="8" fill="rgb(0,0,0)" fill-opacity="1"></path></g></g><g><g transform="matrix(1,0,0,1,259.796875,31)"><path transform="matrix(0.017,0,0,-0.017,0,0)" d="M418 -3L418 27L366 30C311 33 301 44 301 96L301 700L60 598L67 548L217 614L217 96C217 44 206 33 152 30L96 27L96 -3C250 0 250 0 261 0C292 0 402 -3 418 -3Z" stroke="rgb(0,0,0)" stroke-opacity="1" stroke-width="8" fill="rgb(0,0,0)" fill-opacity="1"></path></g></g></g><g><g><g transform="matrix(1,0,0,1,196.484375,61)"><path transform="matrix(0.017,0,0,-0.017,0,0)" d="M345 437L329 437L350 549C366 635 394 673 440 673C470 673 497 658 512 634L522 638C527 654 537 685 545 705L550 720C534 727 503 733 480 733C469 733 453 730 445 726C421 715 339 654 316 630C294 608 282 578 271 521L256 442C215 422 195 414 170 405L165 383L246 383L237 327C207 132 170 -54 148 -123C130 -182 100 -213 64 -213C41 -213 30 -206 12 -184L-2 -188C-6 -211 -20 -259 -25 -268C-16 -273 -1 -276 10 -276C51 -276 105 -245 144 -198C215 -114 235 -18 319 383L423 383C427 402 434 425 440 439L436 446C407 439 408 437 345 437Z" stroke="rgb(0,0,0)" stroke-opacity="1" stroke-width="8" fill="rgb(0,0,0)" fill-opacity="1"></path></g></g><g><g transform="matrix(1,0,0,1,205.84375,61)"><path transform="matrix(0.017,0,0,-0.017,0,0)" d="M146 266C146 526 243 632 301 700L282 726C225 675 60 542 60 266C60 159 85 58 133 -32C168 -99 200 -138 282 -215L301 -194C255 -137 146 -15 146 266Z" stroke="rgb(0,0,0)" stroke-opacity="1" stroke-width="8" fill="rgb(0,0,0)" fill-opacity="1"></path></g></g><g><g transform="matrix(1,0,0,1,211.5,61)"><path transform="matrix(0.017,0,0,-0.017,0,0)" d="M16 23L16 -3C203 -3 203 0 239 0C275 0 275 -3 468 -3L468 82C353 77 307 81 122 77L304 270C401 373 431 428 431 503C431 618 353 689 226 689C154 689 105 669 56 619L39 483L68 483L81 529C97 587 133 612 200 612C286 612 341 558 341 473C341 398 299 324 186 204Z" stroke="rgb(0,0,0)" stroke-opacity="1" stroke-width="8" fill="rgb(0,0,0)" fill-opacity="1"></path></g></g><g><g transform="matrix(1,0,0,1,219.984375,61)"><path transform="matrix(0.017,0,0,-0.017,0,0)" d="M51 726L32 700C87 636 187 526 187 266C187 -10 83 -131 32 -194L51 -215C104 -165 273 -23 273 265C273 542 108 675 51 726Z" stroke="rgb(0,0,0)" stroke-opacity="1" stroke-width="8" fill="rgb(0,0,0)" fill-opacity="1"></path></g></g><g><g transform="matrix(1,0,0,1,230.734375,61)"><path transform="matrix(0.017,0,0,-0.017,0,0)" d="M604 347L604 406L65 406L65 347ZM604 134L604 193L65 193L65 134Z" stroke="rgb(0,0,0)" stroke-opacity="1" stroke-width="8" fill="rgb(0,0,0)" fill-opacity="1"></path></g></g><g><g transform="matrix(1,0,0,1,247.1875,61)"><path transform="matrix(0.017,0,0,-0.017,0,0)" d="M418 -3L418 27L366 30C311 33 301 44 301 96L301 700L60 598L67 548L217 614L217 96C217 44 206 33 152 30L96 27L96 -3C250 0 250 0 261 0C292 0 402 -3 418 -3Z" stroke="rgb(0,0,0)" stroke-opacity="1" stroke-width="8" fill="rgb(0,0,0)" fill-opacity="1"></path></g></g></g><g><g><g><g><g><text x="2" y="67" style="white-space:pre;stroke:none;fill:rgb(0,0,0);fill-opacity:1;font-size:15px;font-family:Arial, Helvetica, sans-serif;font-weight:400;font-style:normal;dominant-baseline:text-before-edge;text-decoration:none solid rgb(0, 0, 0);">Approximate </text></g></g></g></g><g><g transform="matrix(1,0,0,1,90.375,81)"><path transform="matrix(0.017,0,0,-0.017,0,0)" d="M345 437L329 437L350 549C366 635 394 673 440 673C470 673 497 658 512 634L522 638C527 654 537 685 545 705L550 720C534 727 503 733 480 733C469 733 453 730 445 726C421 715 339 654 316 630C294 608 282 578 271 521L256 442C215 422 195 414 170 405L165 383L246 383L237 327C207 132 170 -54 148 -123C130 -182 100 -213 64 -213C41 -213 30 -206 12 -184L-2 -188C-6 -211 -20 -259 -25 -268C-16 -273 -1 -276 10 -276C51 -276 105 -245 144 -198C215 -114 235 -18 319 383L423 383C427 402 434 425 440 439L436 446C407 439 408 437 345 437Z" stroke="rgb(0,0,0)" stroke-opacity="1" stroke-width="8" fill="rgb(0,0,0)" fill-opacity="1"></path></g></g><g><g transform="matrix(1,0,0,1,99.734375,81)"><path transform="matrix(0.017,0,0,-0.017,0,0)" d="M146 266C146 526 243 632 301 700L282 726C225 675 60 542 60 266C60 159 85 58 133 -32C168 -99 200 -138 282 -215L301 -194C255 -137 146 -15 146 266Z" stroke="rgb(0,0,0)" stroke-opacity="1" stroke-width="8" fill="rgb(0,0,0)" fill-opacity="1"></path></g></g><g><g transform="matrix(1,0,0,1,105.390625,81)"><path transform="matrix(0.017,0,0,-0.017,0,0)" d="M131 331C152 512 241 611 421 665L379 689C283 657 242 637 191 593C88 506 32 384 32 247C32 82 112 -20 241 -20C371 -20 468 83 468 219C468 334 399 409 293 409C216 409 184 370 131 331ZM255 349C331 349 382 283 382 184C382 80 331 13 254 13C169 13 123 86 123 220C123 255 127 274 138 291C160 325 207 349 255 349Z" stroke="rgb(0,0,0)" stroke-opacity="1" stroke-width="8" fill="rgb(0,0,0)" fill-opacity="1"></path></g></g><g><g transform="matrix(1,0,0,1,113.875,81)"><path transform="matrix(0.017,0,0,-0.017,0,0)" d="M51 726L32 700C87 636 187 526 187 266C187 -10 83 -131 32 -194L51 -215C104 -165 273 -23 273 265C273 542 108 675 51 726Z" stroke="rgb(0,0,0)" stroke-opacity="1" stroke-width="8" fill="rgb(0,0,0)" fill-opacity="1"></path></g></g><g><g transform="matrix(1,0,0,1,119.53125,81)"><path transform="matrix(0.017,0,0,-0.017,0,0)" d="" stroke="rgb(0,0,0)" stroke-opacity="1" stroke-width="8" fill="rgb(0,0,0)" fill-opacity="1"></path></g></g><g><g><g><g><text x="123.765625" y="67" style="white-space:pre;stroke:none;fill:rgb(0,0,0);fill-opacity:1;font-size:15px;font-family:Arial, Helvetica, sans-serif;font-weight:400;font-style:normal;dominant-baseline:text-before-edge;text-decoration:none solid rgb(0, 0, 0);">using Euler&#x27;s method with two steps of equal size</text></g></g></g></g></g></g></svg>