<svg xmlns="http://www.w3.org/2000/svg" xmlns:xlink="http://www.w3.org/1999/xlink" width="140.890625" height="30" style="width:140.890625px;height:30px;font-family:Asana-Math, Asana;background:transparent;"><g><g><g><g><g><g><g><g transform="matrix(1,0,0,1,19,25)"><path transform="matrix(0.017,0,0,-0.017,0,0)" d="M324 82L319 -3C384 0 384 0 397 0C402 0 427 -1 471 -3L471 27L432 29C408 30 404 38 404 87L404 270C404 416 362 469 246 469C203 469 163 458 125 435L72 403L72 338L98 331L111 362C132 409 142 416 188 416C282 416 321 379 324 288L225 270C89 245 32 198 32 111C32 33 79 -12 158 -12C176 -12 193 -9 200 -4ZM324 124C295 83 232 45 193 45C153 45 118 82 118 125C118 162 138 197 168 216C193 231 248 245 324 256ZM522 400L559 400C599 400 603 393 603 327L603 102C603 39 600 32 566 30L520 27L520 -3C592 -1 618 0 643 0C663 0 663 0 786 -3L786 27L734 30C689 33 687 36 687 102L687 274C687 334 727 384 776 384C806 384 827 370 843 338L864 338L873 458C862 465 844 469 826 469C796 469 764 453 743 428L687 362L687 465L678 469C627 448 575 434 522 428ZM1292 311C1292 357 1297 398 1306 434C1274 478 1231 497 1186 497C1062 497 918 361 918 224C918 219 919 215 919 210C919 75 1014 -20 1148 -20C1200 -20 1275 -1 1285 14L1306 46L1296 61C1259 41 1227 32 1191 32C1080 32 1007 118 1007 250C1007 357 1057 417 1147 417C1191 417 1239 397 1257 372L1264 311ZM1434 382L1434 94C1434 20 1467 -12 1544 -12C1567 -12 1591 -7 1597 0L1645 53L1632 70C1607 56 1592 51 1573 51C1534 51 1518 71 1518 120L1518 382L1646 382L1655 436L1518 430L1518 468C1518 510 1521 546 1529 610L1517 621C1493 606 1463 593 1432 583C1435 553 1436 534 1436 504L1436 434L1358 399L1358 378ZM1985 82L1980 -3C2045 0 2045 0 2058 0C2063 0 2088 -1 2132 -3L2132 27L2093 29C2069 30 2065 38 2065 87L2065 270C2065 416 2023 469 1907 469C1864 469 1824 458 1786 435L1733 403L1733 338L1759 331L1772 362C1793 409 1803 416 1849 416C1943 416 1982 379 1985 288L1886 270C1750 245 1693 198 1693 111C1693 33 1740 -12 1819 -12C1837 -12 1854 -9 1861 -4ZM1985 124C1956 83 1893 45 1854 45C1814 45 1779 82 1779 125C1779 162 1799 197 1829 216C1854 231 1909 245 1985 256ZM2570 -3C2631 0 2632 0 2649 0C2663 0 2663 0 2732 -3L2732 27L2691 30C2657 32 2654 38 2654 102L2654 295C2654 412 2599 469 2487 469C2450 469 2429 462 2408 444L2332 378L2332 465L2323 469C2272 448 2220 434 2167 428L2167 400L2204 400C2244 400 2248 393 2248 327L2248 102C2248 39 2245 32 2211 30L2166 27L2166 -3C2234 -1 2261 0 2290 0C2319 0 2346 -1 2414 -3L2414 27L2369 30C2335 32 2332 39 2332 102L2332 314C2332 359 2398 408 2459 408C2526 408 2570 358 2570 281Z" stroke="rgb(0,0,0)" stroke-opacity="1" stroke-width="8" fill="rgb(0,0,0)" fill-opacity="1"></path></g></g></g><g><g transform="matrix(1,0,0,1,65.609375,25)"><path transform="matrix(0.017,0,0,-0.017,0,0)" d="M146 266C146 526 243 632 301 700L282 726C225 675 60 542 60 266C60 159 85 58 133 -32C168 -99 200 -138 282 -215L301 -194C255 -137 146 -15 146 266Z" stroke="rgb(0,0,0)" stroke-opacity="1" stroke-width="8" fill="rgb(0,0,0)" fill-opacity="1"></path></g></g><g><g transform="matrix(1,0,0,1,71.265625,25)"><path transform="matrix(0.017,0,0,-0.017,0,0)" d="M322 -11C334 -11 343 -9 372 -1C383 61 391 95 402 142L380 142L358 82C352 64 340 57 319 57C307 57 291 59 270 64L252 68C219 75 185 80 166 80C134 80 107 74 71 59L410 441L416 473L407 482L384 459C374 449 364 445 350 445C316 445 264 453 216 466L198 471C170 478 150 482 136 482C119 482 99 479 75 472L43 350L64 350L94 408C111 412 120 413 133 413C174 413 206 398 259 398C295 398 319 404 352 421L-1 21L8 -6C37 17 64 26 99 26C162 26 253 -11 322 -11Z" stroke="rgb(0,0,0)" stroke-opacity="1" stroke-width="8" fill="rgb(0,0,0)" fill-opacity="1"></path></g></g><g><g transform="matrix(1,0,0,1,78.796875,25)"><path transform="matrix(0.017,0,0,-0.017,0,0)" d="M51 726L32 700C87 636 187 526 187 266C187 -10 83 -131 32 -194L51 -215C104 -165 273 -23 273 265C273 542 108 675 51 726Z" stroke="rgb(0,0,0)" stroke-opacity="1" stroke-width="8" fill="rgb(0,0,0)" fill-opacity="1"></path></g></g></g></g><svg x="2" overflow="visible" y="6" height="17" width="82.453125"><polygon points="0.35142118863049093,9.889147286821704 4.7881136950904395,7.517054263565892 9.6703316016086,17.8711299203846 16.363049095607234,0 82.453125,0 82.453125,1.0542635658914745 17.08627450980392,1.0542635658914745 9.180878552971576,22.18888888888889 3.0968992248062013,9.44987080103359 0.6369509043927648,10.372351421188629" style="fill:rgb(0,0,0);fill-opacity:1;stroke-width:1px;stroke:none;stroke-opacity:1;"></polygon></svg></g><g><g transform="matrix(1,0,0,1,87.84375,25)"><path transform="matrix(0.017,0,0,-0.017,0,0)" d="M555 243L555 299L51 299L51 243Z" stroke="rgb(0,0,0)" stroke-opacity="1" stroke-width="8" fill="rgb(0,0,0)" fill-opacity="1"></path></g></g><g><g transform="matrix(1,0,0,1,101.53125,25)"><path transform="matrix(0.017,0,0,-0.017,0,0)" d="M322 -11C334 -11 343 -9 372 -1C383 61 391 95 402 142L380 142L358 82C352 64 340 57 319 57C307 57 291 59 270 64L252 68C219 75 185 80 166 80C134 80 107 74 71 59L410 441L416 473L407 482L384 459C374 449 364 445 350 445C316 445 264 453 216 466L198 471C170 478 150 482 136 482C119 482 99 479 75 472L43 350L64 350L94 408C111 412 120 413 133 413C174 413 206 398 259 398C295 398 319 404 352 421L-1 21L8 -6C37 17 64 26 99 26C162 26 253 -11 322 -11Z" stroke="rgb(0,0,0)" stroke-opacity="1" stroke-width="8" fill="rgb(0,0,0)" fill-opacity="1"></path></g></g><g><g transform="matrix(1,0,0,1,112.453125,25)"><path transform="matrix(0.017,0,0,-0.017,0,0)" d="M604 241L604 300L364 300L364 538L305 538L305 300L65 300L65 241L305 241L305 0L364 0L364 241Z" stroke="rgb(0,0,0)" stroke-opacity="1" stroke-width="8" fill="rgb(0,0,0)" fill-opacity="1"></path></g></g><g><g transform="matrix(1,0,0,1,127.203125,25)"><path transform="matrix(0.017,0,0,-0.017,0,0)" d="M45 284C45 90 152 -18 343 -18C439 -18 510 5 600 67L610 103L600 110C506 53 454 35 376 35C219 35 133 131 133 309C133 447 190 653 418 653C489 653 541 639 597 603L597 519L624 519C629 576 637 619 651 665C575 694 518 706 456 706C276 706 45 578 45 284Z" stroke="rgb(0,0,0)" stroke-opacity="1" stroke-width="8" fill="rgb(0,0,0)" fill-opacity="1"></path></g></g></g></g></svg>