<svg xmlns="http://www.w3.org/2000/svg" xmlns:xlink="http://www.w3.org/1999/xlink" width="198.546875" height="47.328125" style="width:198.546875px;height:47.328125px;font-family:Asana-Math, Asana;background:transparent;"><g><g><g><g><g transform="matrix(1,0,0,1,2,32.228125000000006)"><path transform="matrix(0.0255,0,0,-0.0255,0,0)" d="M694 802C694 860 621 885 573 885C368 885 344 579 334 430C323 251 309 72 304 -108C301 -191 312 -410 184 -410C173 -410 159 -407 151 -397C153 -392 155 -384 155 -378C155 -347 114 -315 83 -315C59 -315 54 -340 54 -359C54 -418 125 -442 173 -442C348 -442 380 -190 395 -59C413 104 421 269 433 433C439 521 422 853 562 853C574 853 587 850 596 841C593 834 592 828 592 821C592 789 633 759 663 759C687 759 694 782 694 802Z" stroke="rgb(0,0,0)" stroke-opacity="1" stroke-width="8" fill="rgb(0,0,0)" fill-opacity="1"></path></g></g></g><g><g><g><g><g transform="matrix(1,0,0,1,23.8125,20.328125)"><path transform="matrix(0.017,0,0,-0.017,0,0)" d="M418 -3L418 27L366 30C311 33 301 44 301 96L301 700L60 598L67 548L217 614L217 96C217 44 206 33 152 30L96 27L96 -3C250 0 250 0 261 0C292 0 402 -3 418 -3ZM515 23L515 -3C702 -3 702 0 738 0C774 0 774 -3 967 -3L967 82C852 77 806 81 621 77L803 270C900 373 930 428 930 503C930 618 852 689 725 689C653 689 604 669 555 619L538 483L567 483L580 529C596 587 632 612 699 612C785 612 840 558 840 473C840 398 798 324 685 204ZM1234 722L1222 733C1177 711 1136 697 1062 691L1058 670L1106 670C1124 670 1140 667 1140 647C1140 641 1140 632 1138 622L1096 388C1076 272 1034 80 1008 2L1015 -9L1084 7C1092 64 1106 164 1146 236C1191 317 1294 414 1336 414C1347 414 1358 407 1358 393C1358 375 1353 342 1343 303L1292 107C1286 85 1279 55 1279 31C1279 6 1289 -9 1310 -9C1342 -9 1410 41 1469 85L1459 103L1433 86C1410 71 1384 56 1372 56C1365 56 1359 65 1359 76C1359 88 1362 101 1366 116L1430 372C1436 398 1441 423 1441 447C1441 464 1435 482 1409 482C1374 482 1297 437 1229 374C1196 343 1170 308 1142 273L1138 275Z" stroke="rgb(0,0,0)" stroke-opacity="1" stroke-width="8" fill="rgb(0,0,0)" fill-opacity="1"></path></g></g><g><g><g><g><g transform="matrix(1,0,0,1,50.234375,13.9)"><path transform="matrix(0.0119,0,0,-0.0119,0,0)" d="M462 224C462 345 355 366 308 374C388 436 418 482 418 541C418 630 344 689 233 689C165 689 120 670 72 622L43 498L74 498L92 554C103 588 166 622 218 622C283 622 336 569 336 506C336 431 277 368 206 368C198 368 187 369 174 370L159 371L147 318L154 312C192 329 211 334 238 334C321 334 369 281 369 190C369 88 308 21 215 21C169 21 128 36 98 64C74 86 61 109 42 163L15 153C36 92 44 56 50 6C103 -12 147 -20 184 -20C307 -20 462 87 462 224Z" stroke="rgb(0,0,0)" stroke-opacity="1" stroke-width="8" fill="rgb(0,0,0)" fill-opacity="1"></path></g></g></g></g></g><g><g transform="matrix(1,0,0,1,60.59375,20.328125)"><path transform="matrix(0.017,0,0,-0.017,0,0)" d="M555 243L555 299L51 299L51 243Z" stroke="rgb(0,0,0)" stroke-opacity="1" stroke-width="8" fill="rgb(0,0,0)" fill-opacity="1"></path></g></g><g><g transform="matrix(1,0,0,1,74.28125,20.328125)"><path transform="matrix(0.017,0,0,-0.017,0,0)" d="M418 -3L418 27L366 30C311 33 301 44 301 96L301 700L60 598L67 548L217 614L217 96C217 44 206 33 152 30L96 27L96 -3C250 0 250 0 261 0C292 0 402 -3 418 -3ZM917 -3L917 27L865 30C810 33 800 44 800 96L800 700L559 598L566 548L716 614L716 96C716 44 705 33 651 30L595 27L595 -3C749 0 749 0 760 0C791 0 901 -3 917 -3ZM1234 722L1222 733C1177 711 1136 697 1062 691L1058 670L1106 670C1124 670 1140 667 1140 647C1140 641 1140 632 1138 622L1096 388C1076 272 1034 80 1008 2L1015 -9L1084 7C1092 64 1106 164 1146 236C1191 317 1294 414 1336 414C1347 414 1358 407 1358 393C1358 375 1353 342 1343 303L1292 107C1286 85 1279 55 1279 31C1279 6 1289 -9 1310 -9C1342 -9 1410 41 1469 85L1459 103L1433 86C1410 71 1384 56 1372 56C1365 56 1359 65 1359 76C1359 88 1362 101 1366 116L1430 372C1436 398 1441 423 1441 447C1441 464 1435 482 1409 482C1374 482 1297 437 1229 374C1196 343 1170 308 1142 273L1138 275Z" stroke="rgb(0,0,0)" stroke-opacity="1" stroke-width="8" fill="rgb(0,0,0)" fill-opacity="1"></path></g></g><g><g><g><g><g transform="matrix(1,0,0,1,100.703125,13.9)"><path transform="matrix(0.0119,0,0,-0.0119,0,0)" d="M16 23L16 -3C203 -3 203 0 239 0C275 0 275 -3 468 -3L468 82C353 77 307 81 122 77L304 270C401 373 431 428 431 503C431 618 353 689 226 689C154 689 105 669 56 619L39 483L68 483L81 529C97 587 133 612 200 612C286 612 341 558 341 473C341 398 299 324 186 204Z" stroke="rgb(0,0,0)" stroke-opacity="1" stroke-width="8" fill="rgb(0,0,0)" fill-opacity="1"></path></g></g></g></g></g><g><g transform="matrix(1,0,0,1,111.0625,20.328125)"><path transform="matrix(0.017,0,0,-0.017,0,0)" d="M604 241L604 300L364 300L364 538L305 538L305 300L65 300L65 241L305 241L305 0L364 0L364 241Z" stroke="rgb(0,0,0)" stroke-opacity="1" stroke-width="8" fill="rgb(0,0,0)" fill-opacity="1"></path></g></g><g><g transform="matrix(1,0,0,1,125.8125,20.328125)"><path transform="matrix(0.017,0,0,-0.017,0,0)" d="M96 -20C207 16 255 39 309 85C406 168 457 283 457 417C457 586 376 689 244 689C116 689 20 589 20 455C20 340 95 256 199 256C233 256 272 267 290 282L360 340C352 172 243 49 62 5L62 -3ZM240 656C285 656 318 637 340 597C358 565 370 516 370 471C370 379 317 317 240 317C160 317 106 388 106 492C106 593 158 656 240 656ZM735 722L723 733C678 711 637 697 563 691L559 670L607 670C625 670 641 667 641 647C641 641 641 632 639 622L597 388C577 272 535 80 509 2L516 -9L585 7C593 64 607 164 647 236C692 317 795 414 837 414C848 414 859 407 859 393C859 375 854 342 844 303L793 107C787 85 780 55 780 31C780 6 790 -9 811 -9C843 -9 911 41 970 85L960 103L934 86C911 71 885 56 873 56C866 56 860 65 860 76C860 88 863 101 867 116L931 372C937 398 942 423 942 447C942 464 936 482 910 482C875 482 798 437 730 374C697 343 671 308 643 273L639 275Z" stroke="rgb(0,0,0)" stroke-opacity="1" stroke-width="8" fill="rgb(0,0,0)" fill-opacity="1"></path></g></g><g><g transform="matrix(1,0,0,1,146.171875,20.328125)"><path transform="matrix(0.017,0,0,-0.017,0,0)" d="M604 241L604 300L364 300L364 538L305 538L305 300L65 300L65 241L305 241L305 0L364 0L364 241Z" stroke="rgb(0,0,0)" stroke-opacity="1" stroke-width="8" fill="rgb(0,0,0)" fill-opacity="1"></path></g></g><g><g transform="matrix(1,0,0,1,160.921875,20.328125)"><path transform="matrix(0.017,0,0,-0.017,0,0)" d="M418 -3L418 27L366 30C311 33 301 44 301 96L301 700L60 598L67 548L217 614L217 96C217 44 206 33 152 30L96 27L96 -3C250 0 250 0 261 0C292 0 402 -3 418 -3ZM667 345C626 326 609 315 587 294C549 256 529 211 529 159C529 56 612 -20 725 -20C855 -20 963 82 963 206C963 286 926 329 812 381C903 443 935 485 935 545C935 631 864 689 758 689C639 689 552 613 552 508C552 440 579 402 667 345ZM783 295C846 267 884 218 884 164C884 80 821 14 740 14C655 14 600 74 600 167C600 240 629 286 703 331ZM722 423C659 454 627 494 627 544C627 610 675 655 746 655C819 655 867 607 867 534C867 477 842 438 777 396Z" stroke="rgb(0,0,0)" stroke-opacity="1" stroke-width="8" fill="rgb(0,0,0)" fill-opacity="1"></path></g></g></g></g><g><g><g><g transform="matrix(1,0,0,1,79.046875,45.328125)"><path transform="matrix(0.017,0,0,-0.017,0,0)" d="M280 181L280 106C280 46 269 32 220 30L158 27L158 -3C291 0 291 0 315 0C339 0 339 0 472 -3L472 27L424 30C375 33 364 46 364 106L364 181C423 181 444 180 472 177L472 248L364 245L365 697L285 667L2 204L2 181ZM280 245L65 245L280 597ZM735 722L723 733C678 711 637 697 563 691L559 670L607 670C625 670 641 667 641 647C641 641 641 632 639 622L597 388C577 272 535 80 509 2L516 -9L585 7C593 64 607 164 647 236C692 317 795 414 837 414C848 414 859 407 859 393C859 375 854 342 844 303L793 107C787 85 780 55 780 31C780 6 790 -9 811 -9C843 -9 911 41 970 85L960 103L934 86C911 71 885 56 873 56C866 56 860 65 860 76C860 88 863 101 867 116L931 372C937 398 942 423 942 447C942 464 936 482 910 482C875 482 798 437 730 374C697 343 671 308 643 273L639 275Z" stroke="rgb(0,0,0)" stroke-opacity="1" stroke-width="8" fill="rgb(0,0,0)" fill-opacity="1"></path></g></g><g><g transform="matrix(1,0,0,1,99.40625,45.328125)"><path transform="matrix(0.017,0,0,-0.017,0,0)" d="M604 241L604 300L364 300L364 538L305 538L305 300L65 300L65 241L305 241L305 0L364 0L364 241Z" stroke="rgb(0,0,0)" stroke-opacity="1" stroke-width="8" fill="rgb(0,0,0)" fill-opacity="1"></path></g></g><g><g transform="matrix(1,0,0,1,114.15625,45.328125)"><path transform="matrix(0.017,0,0,-0.017,0,0)" d="M462 224C462 345 355 366 308 374C388 436 418 482 418 541C418 630 344 689 233 689C165 689 120 670 72 622L43 498L74 498L92 554C103 588 166 622 218 622C283 622 336 569 336 506C336 431 277 368 206 368C198 368 187 369 174 370L159 371L147 318L154 312C192 329 211 334 238 334C321 334 369 281 369 190C369 88 308 21 215 21C169 21 128 36 98 64C74 86 61 109 42 163L15 153C36 92 44 56 50 6C103 -12 147 -20 184 -20C307 -20 462 87 462 224Z" stroke="rgb(0,0,0)" stroke-opacity="1" stroke-width="8" fill="rgb(0,0,0)" fill-opacity="1"></path></g></g></g></g><line style="fill:none;stroke-width:1px;stroke:rgb(0, 0, 0);" x1="23.8125" y1="28.078125" x2="177.890625" y2="28.078125"></line></g><g><g transform="matrix(1,0,0,1,179.578125,32.328125)"><path transform="matrix(0.017,0,0,-0.017,0,0)" d="M483 722L471 733C419 707 383 698 311 691L307 670L355 670C379 670 389 663 389 646C389 638 388 629 387 622L359 468C329 477 302 482 277 482C208 482 114 410 68 323C37 265 17 170 17 86C17 21 32 -11 61 -11C88 -11 125 6 159 33C213 77 246 116 313 217L290 126C279 82 274 50 274 24C274 3 283 -9 300 -9C317 -9 341 3 375 28L456 88L446 107L402 76C388 66 372 59 363 59C355 59 349 68 349 82C349 90 350 99 357 128ZM114 59C98 59 89 73 89 98C89 224 135 380 184 418C197 428 216 433 243 433C287 433 316 427 349 410L337 351C300 171 159 59 114 59ZM735 722L723 733C678 711 637 697 563 691L559 670L607 670C625 670 641 667 641 647C641 641 641 632 639 622L597 388C577 272 535 80 509 2L516 -9L585 7C593 64 607 164 647 236C692 317 795 414 837 414C848 414 859 407 859 393C859 375 854 342 844 303L793 107C787 85 780 55 780 31C780 6 790 -9 811 -9C843 -9 911 41 970 85L960 103L934 86C911 71 885 56 873 56C866 56 860 65 860 76C860 88 863 101 867 116L931 372C937 398 942 423 942 447C942 464 936 482 910 482C875 482 798 437 730 374C697 343 671 308 643 273L639 275Z" stroke="rgb(0,0,0)" stroke-opacity="1" stroke-width="8" fill="rgb(0,0,0)" fill-opacity="1"></path></g></g></g></g></svg>