<svg xmlns="http://www.w3.org/2000/svg" xmlns:xlink="http://www.w3.org/1999/xlink" width="95.796875" height="51.28125" style="width:95.796875px;height:51.28125px;font-family:Asana-Math, Asana;background:transparent;"><g><g><g><g><g><g><svg x="2.890625" overflow="visible" y="4.015625" height="27" width="6.375"><path d=" M 4.71 1.27 c 0.00 -0.04 -0.03 -0.06 -0.06 -0.06 c -0.02 0.00 -0.04 0.01 -0.06 0.02 c -1.91 1.00 -3.48 2.80 -3.48 7.05 v 0.45 h 1.15 v -0.45 c 0.00 -2.42 0.48 -5.27 2.48 -6.79 c 0.09 -0.07 0.09 -0.14 0.09 -0.21 z   M 1.08 8.73 v 9.54 h 1.15 v -9.54 z" style="fill:rgb(0,0,0);fill-opacity:1;stroke-width:1px;stroke:none;stroke-opacity:1;"></path><path d=" M 4.71 25.73 c 0.00 0.04 -0.03 0.06 -0.06 0.06 c -0.02 0.00 -0.04 -0.01 -0.06 -0.02 c -1.91 -1.00 -3.48 -2.80 -3.48 -7.05 v -0.45 h 1.15 v 0.45 c 0.00 2.42 0.48 5.27 2.48 6.79 c 0.09 0.07 0.09 0.14 0.09 0.21 z" style="fill:rgb(0,0,0);fill-opacity:1;stroke-width:1px;stroke:none;stroke-opacity:1;"></path></svg></g><g><g><g><g><g transform="matrix(1,0,0,1,8.953125,13.328125)"><path transform="matrix(0.0095625,0,0,-0.0095625,0,0)" d="M409 603L47 -1L157 -1L497 659L497 689L44 689L44 477L74 477L81 533C89 595 96 603 142 603Z" stroke="rgb(0,0,0)" stroke-opacity="1" stroke-width="8" fill="rgb(0,0,0)" fill-opacity="1"></path></g></g></g></g><g><g><g><g transform="matrix(1,0,0,1,8.953125,26.328125)"><path transform="matrix(0.0095625,0,0,-0.0095625,0,0)" d="M16 23L16 -3C203 -3 203 0 239 0C275 0 275 -3 468 -3L468 82C353 77 307 81 122 77L304 270C401 373 431 428 431 503C431 618 353 689 226 689C154 689 105 669 56 619L39 483L68 483L81 529C97 587 133 612 200 612C286 612 341 558 341 473C341 398 299 324 186 204Z" stroke="rgb(0,0,0)" stroke-opacity="1" stroke-width="8" fill="rgb(0,0,0)" fill-opacity="1"></path></g></g></g></g><line style="fill:none;stroke-width:1px;stroke:rgb(0, 0, 0);" x1="8.953125" y1="17.671875" x2="13.734375" y2="17.671875"></line></g><g><g><g><g><g transform="matrix(1,0,0,1,27.4375,20.765625)"><path transform="matrix(0.01275,0,0,-0.01275,0,0)" d="M9 1C24 -7 40 -11 52 -11C85 -11 124 18 155 65L231 182L242 113C255 28 278 -11 314 -11C336 -11 368 6 400 35L449 79L440 98C404 68 379 53 363 53C348 53 335 63 325 83C316 102 305 139 300 168L282 269L317 318C364 383 391 406 422 406C438 406 450 398 455 383L469 387L484 472C472 479 463 482 454 482C414 482 374 446 312 354L275 299L269 347C257 446 230 482 171 482C145 482 123 474 114 461L56 378L73 368C103 402 123 416 142 416C175 416 197 375 214 277L225 215L185 153C142 86 108 54 80 54C65 54 54 58 52 63L41 91L21 88C21 53 13 27 9 1Z" stroke="rgb(0,0,0)" stroke-opacity="1" stroke-width="8" fill="rgb(0,0,0)" fill-opacity="1"></path></g></g></g></g><svg x="14.6875" overflow="visible" y="8.015625" height="12.75" width="19.125"><polygon points="0.2635658914728682,6.91686046511628 3.591085271317829,5.137790697674421 7.2745282618773635,12.94953694335382 12.272286821705425,0 19.125,0 19.125,0.7906976744186061 12.833660130718952,0.7906976744186061 6.8856589147286815,16.141666666666666 2.322674418604651,6.587403100775195 0.4777131782945736,7.279263565891475" style="fill:rgb(0,0,0);fill-opacity:1;stroke-width:1px;stroke:none;stroke-opacity:1;"></polygon></svg></g><g><g transform="matrix(1,0,0,1,33.8125,20.765625)"><path transform="matrix(0.01275,0,0,-0.01275,0,0)" d="M604 241L604 300L364 300L364 538L305 538L305 300L65 300L65 241L305 241L305 0L364 0L364 241ZM1086 -3L1086 27L1034 30C979 33 969 44 969 96L969 700L728 598L735 548L885 614L885 96C885 44 874 33 820 30L764 27L764 -3C918 0 918 0 929 0C960 0 1070 -3 1086 -3ZM1298 331C1319 512 1408 611 1588 665L1546 689C1450 657 1409 637 1358 593C1255 506 1199 384 1199 247C1199 82 1279 -20 1408 -20C1538 -20 1635 83 1635 219C1635 334 1566 409 1460 409C1383 409 1351 370 1298 331ZM1422 349C1498 349 1549 283 1549 184C1549 80 1498 13 1421 13C1336 13 1290 86 1290 220C1290 255 1294 274 1305 291C1327 325 1374 349 1422 349ZM1675 1C1690 -7 1706 -11 1718 -11C1751 -11 1790 18 1821 65L1897 182L1908 113C1921 28 1944 -11 1980 -11C2002 -11 2034 6 2066 35L2115 79L2106 98C2070 68 2045 53 2029 53C2014 53 2001 63 1991 83C1982 102 1971 139 1966 168L1948 269L1983 318C2030 383 2057 406 2088 406C2104 406 2116 398 2121 383L2135 387L2150 472C2138 479 2129 482 2120 482C2080 482 2040 446 1978 354L1941 299L1935 347C1923 446 1896 482 1837 482C1811 482 1789 474 1780 461L1722 378L1739 368C1769 402 1789 416 1808 416C1841 416 1863 375 1880 277L1891 215L1851 153C1808 86 1774 54 1746 54C1731 54 1720 58 1718 63L1707 91L1687 88C1687 53 1679 27 1675 1Z" stroke="rgb(0,0,0)" stroke-opacity="1" stroke-width="8" fill="rgb(0,0,0)" fill-opacity="1"></path></g></g><g><svg x="60.15625" overflow="visible" y="4.015625" height="27" width="6.375"><path d=" M 1.31 1.27 c 0.00 -0.04 0.03 -0.06 0.06 -0.06 c 0.02 0.00 0.04 0.01 0.06 0.02 c 1.91 1.00 3.48 2.80 3.48 7.05 v 0.45 h -1.15 v -0.45 c 0.00 -2.42 -0.48 -5.27 -2.48 -6.79 c -0.09 -0.07 -0.09 -0.14 -0.09 -0.21 z  M 4.94 8.73 v 9.54 h -1.15 v -9.54 z" style="fill:rgb(0,0,0);fill-opacity:1;stroke-width:1px;stroke:none;stroke-opacity:1;"></path><path d=" M 1.31 25.73 c 0.00 0.04 0.03 0.06 0.06 0.06 c 0.02 0.00 0.04 -0.01 0.06 -0.02 c 1.91 -1.00 3.48 -2.80 3.48 -7.05 v -0.45 h -1.15 v 0.45 c 0.00 2.42 -0.48 5.27 -2.48 6.79 c -0.09 0.07 -0.09 0.14 -0.09 0.21 z" style="fill:rgb(0,0,0);fill-opacity:1;stroke-width:1px;stroke:none;stroke-opacity:1;"></path></svg></g><g><g transform="matrix(1,0,0,1,67.421875,20.765625)"><path transform="matrix(0.01275,0,0,-0.01275,0,0)" d="M555 243L555 299L51 299L51 243ZM885 181L885 106C885 46 874 32 825 30L763 27L763 -3C896 0 896 0 920 0C944 0 944 0 1077 -3L1077 27L1029 30C980 33 969 46 969 106L969 181C1028 181 1049 180 1077 177L1077 248L969 245L970 697L890 667L607 204L607 181ZM885 245L670 245L885 597ZM1113 1C1128 -7 1144 -11 1156 -11C1189 -11 1228 18 1259 65L1335 182L1346 113C1359 28 1382 -11 1418 -11C1440 -11 1472 6 1504 35L1553 79L1544 98C1508 68 1483 53 1467 53C1452 53 1439 63 1429 83C1420 102 1409 139 1404 168L1386 269L1421 318C1468 383 1495 406 1526 406C1542 406 1554 398 1559 383L1573 387L1588 472C1576 479 1567 482 1558 482C1518 482 1478 446 1416 354L1379 299L1373 347C1361 446 1334 482 1275 482C1249 482 1227 474 1218 461L1160 378L1177 368C1207 402 1227 416 1246 416C1279 416 1301 375 1318 277L1329 215L1289 153C1246 86 1212 54 1184 54C1169 54 1158 58 1156 63L1145 91L1125 88C1125 53 1117 27 1113 1Z" stroke="rgb(0,0,0)" stroke-opacity="1" stroke-width="8" fill="rgb(0,0,0)" fill-opacity="1"></path></g></g><g><g><g><g><g transform="matrix(1,0,0,1,88.59375,17.440625)"><path transform="matrix(0.008925,0,0,-0.008925,0,0)" d="M16 23L16 -3C203 -3 203 0 239 0C275 0 275 -3 468 -3L468 82C353 77 307 81 122 77L304 270C401 373 431 428 431 503C431 618 353 689 226 689C154 689 105 669 56 619L39 483L68 483L81 529C97 587 133 612 200 612C286 612 341 558 341 473C341 398 299 324 186 204Z" stroke="rgb(0,0,0)" stroke-opacity="1" stroke-width="8" fill="rgb(0,0,0)" fill-opacity="1"></path></g></g></g></g></g></g></g><g><g><g><g transform="matrix(1,0,0,1,28.34375,46.78125)"><path transform="matrix(0.01275,0,0,-0.01275,0,0)" d="M409 603L47 -1L157 -1L497 659L497 689L44 689L44 477L74 477L81 533C89 595 96 603 142 603ZM508 1C523 -7 539 -11 551 -11C584 -11 623 18 654 65L730 182L741 113C754 28 777 -11 813 -11C835 -11 867 6 899 35L948 79L939 98C903 68 878 53 862 53C847 53 834 63 824 83C815 102 804 139 799 168L781 269L816 318C863 383 890 406 921 406C937 406 949 398 954 383L968 387L983 472C971 479 962 482 953 482C913 482 873 446 811 354L774 299L768 347C756 446 729 482 670 482C644 482 622 474 613 461L555 378L572 368C602 402 622 416 641 416C674 416 696 375 713 277L724 215L684 153C641 86 607 54 579 54C564 54 553 58 551 63L540 91L520 88C520 53 512 27 508 1ZM1553 243L1553 299L1049 299L1049 243ZM1883 181L1883 106C1883 46 1872 32 1823 30L1761 27L1761 -3C1894 0 1894 0 1918 0C1942 0 1942 0 2075 -3L2075 27L2027 30C1978 33 1967 46 1967 106L1967 181C2026 181 2047 180 2075 177L2075 248L1967 245L1968 697L1888 667L1605 204L1605 181ZM1883 245L1668 245L1883 597ZM2111 1C2126 -7 2142 -11 2154 -11C2187 -11 2226 18 2257 65L2333 182L2344 113C2357 28 2380 -11 2416 -11C2438 -11 2470 6 2502 35L2551 79L2542 98C2506 68 2481 53 2465 53C2450 53 2437 63 2427 83C2418 102 2407 139 2402 168L2384 269L2419 318C2466 383 2493 406 2524 406C2540 406 2552 398 2557 383L2571 387L2586 472C2574 479 2565 482 2556 482C2516 482 2476 446 2414 354L2377 299L2371 347C2359 446 2332 482 2273 482C2247 482 2225 474 2216 461L2158 378L2175 368C2205 402 2225 416 2244 416C2277 416 2299 375 2316 277L2327 215L2287 153C2244 86 2210 54 2182 54C2167 54 2156 58 2154 63L2143 91L2123 88C2123 53 2115 27 2111 1Z" stroke="rgb(0,0,0)" stroke-opacity="1" stroke-width="8" fill="rgb(0,0,0)" fill-opacity="1"></path></g></g><g><g><g><g><g transform="matrix(1,0,0,1,62.234375,43.45625)"><path transform="matrix(0.008925,0,0,-0.008925,0,0)" d="M16 23L16 -3C203 -3 203 0 239 0C275 0 275 -3 468 -3L468 82C353 77 307 81 122 77L304 270C401 373 431 428 431 503C431 618 353 689 226 689C154 689 105 669 56 619L39 483L68 483L81 529C97 587 133 612 200 612C286 612 341 558 341 473C341 398 299 324 186 204Z" stroke="rgb(0,0,0)" stroke-opacity="1" stroke-width="8" fill="rgb(0,0,0)" fill-opacity="1"></path></g></g></g></g></g></g></g><line style="fill:none;stroke-width:1px;stroke:rgb(0, 0, 0);" x1="2" y1="34.578125" x2="93.796875" y2="34.578125"></line></g></g></g></svg>