<svg xmlns="http://www.w3.org/2000/svg" xmlns:xlink="http://www.w3.org/1999/xlink" width="32.078125" height="24" style="width:32.078125px;height:24px;font-family:Asana-Math, Asana;background:transparent;"><g><g><g><g transform="matrix(1,0,0,1,2,19)"><path transform="matrix(0.017,0,0,-0.017,0,0)" d="M131 331C152 512 241 611 421 665L379 689C283 657 242 637 191 593C88 506 32 384 32 247C32 82 112 -20 241 -20C371 -20 468 83 468 219C468 334 399 409 293 409C216 409 184 370 131 331ZM255 349C331 349 382 283 382 184C382 80 331 13 254 13C169 13 123 86 123 220C123 255 127 274 138 291C160 325 207 349 255 349ZM961 224C961 345 854 366 807 374C887 436 917 482 917 541C917 630 843 689 732 689C664 689 619 670 571 622L542 498L573 498L591 554C602 588 665 622 717 622C782 622 835 569 835 506C835 431 776 368 705 368C697 368 686 369 673 370L658 371L646 318L653 312C691 329 710 334 737 334C820 334 868 281 868 190C868 88 807 21 714 21C668 21 627 36 597 64C573 86 560 109 541 163L514 153C535 92 543 56 549 6C602 -12 646 -20 683 -20C806 -20 961 87 961 224ZM1523 42C1467 42 1462 125 1463 166C1464 251 1492 333 1535 405L1597 418C1600 435 1606 452 1611 467C1457 461 1298 463 1143 466C1078 467 1064 389 1045 340C1044 332 1057 331 1061 328L1061 332C1104 395 1128 405 1203 405L1226 405C1186 266 1159 129 1096 -2L1096 -12C1116 -6 1151 1 1168 13C1209 141 1238 274 1266 405L1493 405C1436 318 1395 213 1393 108C1393 59 1408 -15 1469 -15C1510 -15 1566 25 1596 51L1596 66L1584 66L1584 67C1566 56 1546 42 1523 42Z" stroke="rgb(0,0,0)" stroke-opacity="1" stroke-width="8" fill="rgb(0,0,0)" fill-opacity="1"></path></g></g></g></g></svg>