<svg xmlns="http://www.w3.org/2000/svg" xmlns:xlink="http://www.w3.org/1999/xlink" width="53.828125" height="25.328125" style="width:53.828125px;height:25.328125px;font-family:Asana-Math, Asana;background:transparent;"><g><g><g><g transform="matrix(1,0,0,1,2,20.328125)"><path transform="matrix(0.017,0,0,-0.017,0,0)" d="M96 -20C207 16 255 39 309 85C406 168 457 283 457 417C457 586 376 689 244 689C116 689 20 589 20 455C20 340 95 256 199 256C233 256 272 267 290 282L360 340C352 172 243 49 62 5L62 -3ZM240 656C285 656 318 637 340 597C358 565 370 516 370 471C370 379 317 317 240 317C160 317 106 388 106 492C106 593 158 656 240 656ZM779 181L779 106C779 46 768 32 719 30L657 27L657 -3C790 0 790 0 814 0C838 0 838 0 971 -3L971 27L923 30C874 33 863 46 863 106L863 181C922 181 943 180 971 177L971 248L863 245L864 697L784 667L501 204L501 181ZM779 245L564 245L779 597ZM1122 111C1092 111 1065 83 1065 53C1065 23 1092 -5 1121 -5C1153 -5 1181 22 1181 53C1181 83 1153 111 1122 111ZM1263 23L1263 -3C1450 -3 1450 0 1486 0C1522 0 1522 -3 1715 -3L1715 82C1600 77 1554 81 1369 77L1551 270C1648 373 1678 428 1678 503C1678 618 1600 689 1473 689C1401 689 1352 669 1303 619L1286 483L1315 483L1328 529C1344 587 1380 612 1447 612C1533 612 1588 558 1588 473C1588 398 1546 324 1433 204ZM2476 103L2450 86C2421 67 2399 56 2389 56C2382 56 2376 65 2376 76C2376 86 2378 95 2383 116L2458 413C2462 430 2465 446 2465 454C2465 471 2455 482 2439 482C2410 482 2372 464 2311 421C2248 376 2213 341 2164 272L2194 409C2198 429 2201 444 2201 451C2201 470 2191 482 2175 482C2145 482 2099 460 2044 418C2000 384 1980 363 1915 275L1948 408C1952 424 1954 439 1954 451C1954 470 1945 482 1931 482C1910 482 1872 461 1798 408L1770 388L1777 368C1814 391 1849 414 1856 414C1867 414 1874 404 1874 389C1874 338 1833 145 1792 2L1795 -9L1863 6L1885 108C1909 219 1936 278 1991 338C2033 384 2078 414 2106 414C2113 414 2117 406 2117 393C2117 358 2095 244 2054 69L2038 2L2043 -9L2112 6L2133 113C2149 194 2183 269 2227 318C2282 379 2332 414 2364 414C2372 414 2377 405 2377 389C2377 365 2374 351 2352 264C2312 105 2296 84 2296 31C2296 6 2307 -9 2326 -9C2352 -9 2388 12 2486 85Z" stroke="rgb(0,0,0)" stroke-opacity="1" stroke-width="8" fill="rgb(0,0,0)" fill-opacity="1"></path></g></g><g><g><g><g><g transform="matrix(1,0,0,1,45.875,13.9)"><path transform="matrix(0.0119,0,0,-0.0119,0,0)" d="M16 23L16 -3C203 -3 203 0 239 0C275 0 275 -3 468 -3L468 82C353 77 307 81 122 77L304 270C401 373 431 428 431 503C431 618 353 689 226 689C154 689 105 669 56 619L39 483L68 483L81 529C97 587 133 612 200 612C286 612 341 558 341 473C341 398 299 324 186 204Z" stroke="rgb(0,0,0)" stroke-opacity="1" stroke-width="8" fill="rgb(0,0,0)" fill-opacity="1"></path></g></g></g></g></g></g></g></svg>