<svg xmlns="http://www.w3.org/2000/svg" xmlns:xlink="http://www.w3.org/1999/xlink" width="135.640625" height="25.328125" style="width:135.640625px;height:25.328125px;font-family:Asana-Math, Asana;background:transparent;"><g><g><g><g transform="matrix(1,0,0,1,2,20.328125)"><path transform="matrix(0.017,0,0,-0.017,0,0)" d="M555 243L555 299L51 299L51 243Z" stroke="rgb(0,0,0)" stroke-opacity="1" stroke-width="8" fill="rgb(0,0,0)" fill-opacity="1"></path></g></g><g><g transform="matrix(1,0,0,1,12.296875,20.328125)"><path transform="matrix(0.017,0,0,-0.017,0,0)" d="M462 224C462 345 355 366 308 374C388 436 418 482 418 541C418 630 344 689 233 689C165 689 120 670 72 622L43 498L74 498L92 554C103 588 166 622 218 622C283 622 336 569 336 506C336 431 277 368 206 368C198 368 187 369 174 370L159 371L147 318L154 312C192 329 211 334 238 334C321 334 369 281 369 190C369 88 308 21 215 21C169 21 128 36 98 64C74 86 61 109 42 163L15 153C36 92 44 56 50 6C103 -12 147 -20 184 -20C307 -20 462 87 462 224ZM508 1C523 -7 539 -11 551 -11C584 -11 623 18 654 65L730 182L741 113C754 28 777 -11 813 -11C835 -11 867 6 899 35L948 79L939 98C903 68 878 53 862 53C847 53 834 63 824 83C815 102 804 139 799 168L781 269L816 318C863 383 890 406 921 406C937 406 949 398 954 383L968 387L983 472C971 479 962 482 953 482C913 482 873 446 811 354L774 299L768 347C756 446 729 482 670 482C644 482 622 474 613 461L555 378L572 368C602 402 622 416 641 416C674 416 696 375 713 277L724 215L684 153C641 86 607 54 579 54C564 54 553 58 551 63L540 91L520 88C520 53 512 27 508 1Z" stroke="rgb(0,0,0)" stroke-opacity="1" stroke-width="8" fill="rgb(0,0,0)" fill-opacity="1"></path></g></g><g><g><g><g><g transform="matrix(1,0,0,1,30.234375,13.9)"><path transform="matrix(0.0119,0,0,-0.0119,0,0)" d="M418 -3L418 27L366 30C311 33 301 44 301 96L301 700L60 598L67 548L217 614L217 96C217 44 206 33 152 30L96 27L96 -3C250 0 250 0 261 0C292 0 402 -3 418 -3ZM515 23L515 -3C702 -3 702 0 738 0C774 0 774 -3 967 -3L967 82C852 77 806 81 621 77L803 270C900 373 930 428 930 503C930 618 852 689 725 689C653 689 604 669 555 619L538 483L567 483L580 529C596 587 632 612 699 612C785 612 840 558 840 473C840 398 798 324 685 204Z" stroke="rgb(0,0,0)" stroke-opacity="1" stroke-width="8" fill="rgb(0,0,0)" fill-opacity="1"></path></g></g></g></g></g><g><g transform="matrix(1,0,0,1,46.53125,20.328125)"><path transform="matrix(0.017,0,0,-0.017,0,0)" d="M555 243L555 299L51 299L51 243Z" stroke="rgb(0,0,0)" stroke-opacity="1" stroke-width="8" fill="rgb(0,0,0)" fill-opacity="1"></path></g></g><g><g transform="matrix(1,0,0,1,60.21875,20.328125)"><path transform="matrix(0.017,0,0,-0.017,0,0)" d="M459 253C459 366 378 446 264 446C216 446 180 443 127 396L127 605L432 604L432 689L75 690L75 322L95 316C142 363 169 377 218 377C314 377 374 309 374 201C374 90 310 25 201 25C147 25 97 43 83 69L37 151L13 137C36 80 48 48 62 4C90 -11 130 -20 173 -20C301 -20 459 89 459 253ZM508 1C523 -7 539 -11 551 -11C584 -11 623 18 654 65L730 182L741 113C754 28 777 -11 813 -11C835 -11 867 6 899 35L948 79L939 98C903 68 878 53 862 53C847 53 834 63 824 83C815 102 804 139 799 168L781 269L816 318C863 383 890 406 921 406C937 406 949 398 954 383L968 387L983 472C971 479 962 482 953 482C913 482 873 446 811 354L774 299L768 347C756 446 729 482 670 482C644 482 622 474 613 461L555 378L572 368C602 402 622 416 641 416C674 416 696 375 713 277L724 215L684 153C641 86 607 54 579 54C564 54 553 58 551 63L540 91L520 88C520 53 512 27 508 1Z" stroke="rgb(0,0,0)" stroke-opacity="1" stroke-width="8" fill="rgb(0,0,0)" fill-opacity="1"></path></g></g><g><g transform="matrix(1,0,0,1,80.578125,20.328125)"><path transform="matrix(0.017,0,0,-0.017,0,0)" d="M604 241L604 300L364 300L364 538L305 538L305 300L65 300L65 241L305 241L305 0L364 0L364 241Z" stroke="rgb(0,0,0)" stroke-opacity="1" stroke-width="8" fill="rgb(0,0,0)" fill-opacity="1"></path></g></g><g><g transform="matrix(1,0,0,1,95.328125,20.328125)"><path transform="matrix(0.017,0,0,-0.017,0,0)" d="M459 253C459 366 378 446 264 446C216 446 180 443 127 396L127 605L432 604L432 689L75 690L75 322L95 316C142 363 169 377 218 377C314 377 374 309 374 201C374 90 310 25 201 25C147 25 97 43 83 69L37 151L13 137C36 80 48 48 62 4C90 -11 130 -20 173 -20C301 -20 459 89 459 253Z" stroke="rgb(0,0,0)" stroke-opacity="1" stroke-width="8" fill="rgb(0,0,0)" fill-opacity="1"></path></g></g><g><g transform="matrix(1,0,0,1,107.203125,20.328125)"><path transform="matrix(0.017,0,0,-0.017,0,0)" d="M604 241L604 300L364 300L364 538L305 538L305 300L65 300L65 241L305 241L305 0L364 0L364 241Z" stroke="rgb(0,0,0)" stroke-opacity="1" stroke-width="8" fill="rgb(0,0,0)" fill-opacity="1"></path></g></g><g><g transform="matrix(1,0,0,1,121.953125,20.328125)"><path transform="matrix(0.017,0,0,-0.017,0,0)" d="M45 284C45 90 152 -18 343 -18C439 -18 510 5 600 67L610 103L600 110C506 53 454 35 376 35C219 35 133 131 133 309C133 447 190 653 418 653C489 653 541 639 597 603L597 519L624 519C629 576 637 619 651 665C575 694 518 706 456 706C276 706 45 578 45 284Z" stroke="rgb(0,0,0)" stroke-opacity="1" stroke-width="8" fill="rgb(0,0,0)" fill-opacity="1"></path></g></g></g></g></svg>