<svg xmlns="http://www.w3.org/2000/svg" xmlns:xlink="http://www.w3.org/1999/xlink" width="37.9375" height="46" style="width:37.9375px;height:46px;font-family:Asana-Math, Asana;background:transparent;"><g><g><g><g><g><g><g transform="matrix(1,0,0,1,2,19)"><path transform="matrix(0.017,0,0,-0.017,0,0)" d="M16 23L16 -3C203 -3 203 0 239 0C275 0 275 -3 468 -3L468 82C353 77 307 81 122 77L304 270C401 373 431 428 431 503C431 618 353 689 226 689C154 689 105 669 56 619L39 483L68 483L81 529C97 587 133 612 200 612C286 612 341 558 341 473C341 398 299 324 186 204ZM630 331C651 512 740 611 920 665L878 689C782 657 741 637 690 593C587 506 531 384 531 247C531 82 611 -20 740 -20C870 -20 967 83 967 219C967 334 898 409 792 409C715 409 683 370 630 331ZM754 349C830 349 881 283 881 184C881 80 830 13 753 13C668 13 622 86 622 220C622 255 626 274 637 291C659 325 706 349 754 349ZM1416 -3L1416 27L1364 30C1309 33 1299 44 1299 96L1299 700L1058 598L1065 548L1215 614L1215 96C1215 44 1204 33 1150 30L1094 27L1094 -3C1248 0 1248 0 1259 0C1290 0 1400 -3 1416 -3ZM1593 -20C1704 16 1752 39 1806 85C1903 168 1954 283 1954 417C1954 586 1873 689 1741 689C1613 689 1517 589 1517 455C1517 340 1592 256 1696 256C1730 256 1769 267 1787 282L1857 340C1849 172 1740 49 1559 5L1559 -3ZM1737 656C1782 656 1815 637 1837 597C1855 565 1867 516 1867 471C1867 379 1814 317 1737 317C1657 317 1603 388 1603 492C1603 593 1655 656 1737 656Z" stroke="rgb(0,0,0)" stroke-opacity="1" stroke-width="0" fill="rgb(0,0,0)" fill-opacity="1"></path></g></g></g></g><g><g><g><g transform="matrix(1,0,0,1,6.234375,44)"><path transform="matrix(0.017,0,0,-0.017,0,0)" d="M168 345C127 326 110 315 88 294C50 256 30 211 30 159C30 56 113 -20 226 -20C356 -20 464 82 464 206C464 286 427 329 313 381C404 443 436 485 436 545C436 631 365 689 259 689C140 689 53 613 53 508C53 440 80 402 168 345ZM284 295C347 267 385 218 385 164C385 80 322 14 241 14C156 14 101 74 101 167C101 240 130 286 204 331ZM223 423C160 454 128 494 128 544C128 610 176 655 247 655C320 655 368 607 368 534C368 477 343 438 278 396ZM630 331C651 512 740 611 920 665L878 689C782 657 741 637 690 593C587 506 531 384 531 247C531 82 611 -20 740 -20C870 -20 967 83 967 219C967 334 898 409 792 409C715 409 683 370 630 331ZM754 349C830 349 881 283 881 184C881 80 830 13 753 13C668 13 622 86 622 220C622 255 626 274 637 291C659 325 706 349 754 349ZM1094 -20C1205 16 1253 39 1307 85C1404 168 1455 283 1455 417C1455 586 1374 689 1242 689C1114 689 1018 589 1018 455C1018 340 1093 256 1197 256C1231 256 1270 267 1288 282L1358 340C1350 172 1241 49 1060 5L1060 -3ZM1238 656C1283 656 1316 637 1338 597C1356 565 1368 516 1368 471C1368 379 1315 317 1238 317C1158 317 1104 388 1104 492C1104 593 1156 656 1238 656Z" stroke="rgb(0,0,0)" stroke-opacity="1" stroke-width="0" fill="rgb(0,0,0)" fill-opacity="1"></path></g></g></g></g><line style="fill:none;stroke-width:1px;stroke:rgb(0, 0, 0);" x1="2" y1="26.75" x2="35.9375" y2="26.75"></line></g></g></g></svg>