<svg xmlns="http://www.w3.org/2000/svg" xmlns:xlink="http://www.w3.org/1999/xlink" width="145.765625" height="155.375" style="width:145.765625px;height:155.375px;font-family:Asana-Math, Asana;background:transparent;"><g><g><g><g><g><g><text x="2" y="5" style="white-space:pre;stroke:none;fill:rgb(0,0,0);fill-opacity:1;font-size:15px;font-family:Arial, Helvetica, sans-serif;font-weight:400;font-style:normal;dominant-baseline:text-before-edge;text-decoration:none solid rgb(0, 0, 0);">Consider the function</text></g></g></g></g></g><g><g><g transform="matrix(1,0,0,1,8.96875,53)"><path transform="matrix(0.017,0,0,-0.017,0,0)" d="M236 722L224 733C179 711 138 697 64 691L60 670L108 670C126 670 142 667 142 647C142 641 142 632 140 622L98 388C78 272 36 80 10 2L17 -9L86 7C94 64 108 164 148 236C193 317 296 414 338 414C349 414 360 407 360 393C360 375 355 342 345 303L294 107C288 85 281 55 281 31C281 6 291 -9 312 -9C344 -9 412 41 471 85L461 103L435 86C412 71 386 56 374 56C367 56 361 65 361 76C361 88 364 101 368 116L432 372C438 398 443 423 443 447C443 464 437 482 411 482C376 482 299 437 231 374C198 343 172 308 144 273L140 275Z" stroke="rgb(0,0,0)" stroke-opacity="1" stroke-width="8" fill="rgb(0,0,0)" fill-opacity="1"></path></g></g><g><g transform="matrix(1,0,0,1,17.453125,53)"><path transform="matrix(0.017,0,0,-0.017,0,0)" d="M146 266C146 526 243 632 301 700L282 726C225 675 60 542 60 266C60 159 85 58 133 -32C168 -99 200 -138 282 -215L301 -194C255 -137 146 -15 146 266Z" stroke="rgb(0,0,0)" stroke-opacity="1" stroke-width="8" fill="rgb(0,0,0)" fill-opacity="1"></path></g></g><g><g transform="matrix(1,0,0,1,23.109375,53)"><path transform="matrix(0.017,0,0,-0.017,0,0)" d="M125 390L69 107C68 99 56 61 56 31C56 6 67 -9 86 -9C121 -9 156 11 234 74L265 99L255 117L210 86C181 66 161 56 150 56C141 56 136 64 136 76C136 102 150 183 179 328L192 390L299 390L310 440C272 436 238 434 200 434C216 528 227 577 245 631L234 646C214 634 187 622 156 610L131 440C87 419 61 408 43 403L41 390Z" stroke="rgb(0,0,0)" stroke-opacity="1" stroke-width="8" fill="rgb(0,0,0)" fill-opacity="1"></path></g></g><g><g transform="matrix(1,0,0,1,28.765625,53)"><path transform="matrix(0.017,0,0,-0.017,0,0)" d="M51 726L32 700C87 636 187 526 187 266C187 -10 83 -131 32 -194L51 -215C104 -165 273 -23 273 265C273 542 108 675 51 726Z" stroke="rgb(0,0,0)" stroke-opacity="1" stroke-width="8" fill="rgb(0,0,0)" fill-opacity="1"></path></g></g><g><g transform="matrix(1,0,0,1,39.515625,53)"><path transform="matrix(0.017,0,0,-0.017,0,0)" d="M604 347L604 406L65 406L65 347ZM604 134L604 193L65 193L65 134Z" stroke="rgb(0,0,0)" stroke-opacity="1" stroke-width="8" fill="rgb(0,0,0)" fill-opacity="1"></path></g></g><g><g><g><g><g transform="matrix(1,0,0,1,57.65625,41)"><path transform="matrix(0.017,0,0,-0.017,0,0)" d="M418 -3L418 27L366 30C311 33 301 44 301 96L301 700L60 598L67 548L217 614L217 96C217 44 206 33 152 30L96 27L96 -3C250 0 250 0 261 0C292 0 402 -3 418 -3Z" stroke="rgb(0,0,0)" stroke-opacity="1" stroke-width="8" fill="rgb(0,0,0)" fill-opacity="1"></path></g></g></g></g><g><g><g><g transform="matrix(1,0,0,1,57.65625,66)"><path transform="matrix(0.017,0,0,-0.017,0,0)" d="M462 224C462 345 355 366 308 374C388 436 418 482 418 541C418 630 344 689 233 689C165 689 120 670 72 622L43 498L74 498L92 554C103 588 166 622 218 622C283 622 336 569 336 506C336 431 277 368 206 368C198 368 187 369 174 370L159 371L147 318L154 312C192 329 211 334 238 334C321 334 369 281 369 190C369 88 308 21 215 21C169 21 128 36 98 64C74 86 61 109 42 163L15 153C36 92 44 56 50 6C103 -12 147 -20 184 -20C307 -20 462 87 462 224Z" stroke="rgb(0,0,0)" stroke-opacity="1" stroke-width="8" fill="rgb(0,0,0)" fill-opacity="1"></path></g></g></g></g><line style="fill:none;stroke-width:1px;stroke:rgb(0, 0, 0);" x1="57.65625" y1="48.75" x2="66.140625" y2="48.75"></line></g><g><g><g transform="matrix(1,0,0,1,71.21875,53)"><path transform="matrix(0.017,0,0,-0.017,0,0)" d="M41 143C41 74 38 44 30 4C82 -13 121 -20 167 -20C298 -20 391 50 391 148C391 321 107 228 107 358C107 408 142 436 203 436C270 436 321 401 321 354L321 331L349 331C350 389 351 413 354 444C301 462 265 469 224 469C108 469 37 414 37 324C37 276 59 242 105 221C223 169 317 195 317 109C317 55 267 17 196 17C123 17 71 52 71 102L71 143ZM611 465L602 469C551 448 499 434 446 428L446 400L483 400C523 400 527 393 527 327L527 102C527 39 524 32 490 30L444 27L444 -3C544 0 544 0 569 0C594 0 594 0 694 -3L694 27L648 30C614 32 611 39 611 102ZM565 687C535 687 509 661 509 631C509 602 535 576 564 576C593 576 620 602 620 631C620 659 593 687 565 687ZM1123 -3C1184 0 1185 0 1202 0C1216 0 1216 0 1285 -3L1285 27L1244 30C1210 32 1207 38 1207 102L1207 295C1207 412 1152 469 1040 469C1003 469 982 462 961 444L885 378L885 465L876 469C825 448 773 434 720 428L720 400L757 400C797 400 801 393 801 327L801 102C801 39 798 32 764 30L719 27L719 -3C787 -1 814 0 843 0C872 0 899 -1 967 -3L967 27L922 30C888 32 885 39 885 102L885 314C885 359 951 408 1012 408C1079 408 1123 358 1123 281Z" stroke="rgb(0,0,0)" stroke-opacity="1" stroke-width="8" fill="rgb(0,0,0)" fill-opacity="1"></path></g></g></g><g><g transform="matrix(1,0,0,1,93.21875,53)"><path transform="matrix(0.017,0,0,-0.017,0,0)" d="M146 266C146 526 243 632 301 700L282 726C225 675 60 542 60 266C60 159 85 58 133 -32C168 -99 200 -138 282 -215L301 -194C255 -137 146 -15 146 266Z" stroke="rgb(0,0,0)" stroke-opacity="1" stroke-width="8" fill="rgb(0,0,0)" fill-opacity="1"></path></g></g><g><g transform="matrix(1,0,0,1,98.875,53)"><path transform="matrix(0.017,0,0,-0.017,0,0)" d="M125 390L69 107C68 99 56 61 56 31C56 6 67 -9 86 -9C121 -9 156 11 234 74L265 99L255 117L210 86C181 66 161 56 150 56C141 56 136 64 136 76C136 102 150 183 179 328L192 390L299 390L310 440C272 436 238 434 200 434C216 528 227 577 245 631L234 646C214 634 187 622 156 610L131 440C87 419 61 408 43 403L41 390Z" stroke="rgb(0,0,0)" stroke-opacity="1" stroke-width="8" fill="rgb(0,0,0)" fill-opacity="1"></path></g></g><g><g transform="matrix(1,0,0,1,104.53125,53)"><path transform="matrix(0.017,0,0,-0.017,0,0)" d="M51 726L32 700C87 636 187 526 187 266C187 -10 83 -131 32 -194L51 -215C104 -165 273 -23 273 265C273 542 108 675 51 726Z" stroke="rgb(0,0,0)" stroke-opacity="1" stroke-width="8" fill="rgb(0,0,0)" fill-opacity="1"></path></g></g><g><g transform="matrix(1,0,0,1,113.578125,53)"><path transform="matrix(0.017,0,0,-0.017,0,0)" d="M604 241L604 300L364 300L364 538L305 538L305 300L65 300L65 241L305 241L305 0L364 0L364 241Z" stroke="rgb(0,0,0)" stroke-opacity="1" stroke-width="8" fill="rgb(0,0,0)" fill-opacity="1"></path></g></g><g><g transform="matrix(1,0,0,1,128.328125,53)"><path transform="matrix(0.017,0,0,-0.017,0,0)" d="M418 -3L418 27L366 30C311 33 301 44 301 96L301 700L60 598L67 548L217 614L217 96C217 44 206 33 152 30L96 27L96 -3C250 0 250 0 261 0C292 0 402 -3 418 -3Z" stroke="rgb(0,0,0)" stroke-opacity="1" stroke-width="8" fill="rgb(0,0,0)" fill-opacity="1"></path></g></g></g><g><g><g><g><g><text x="36.90625" y="79.6875" style="white-space:pre;stroke:none;fill:rgb(0,0,0);fill-opacity:1;font-size:15px;font-family:Arial, Helvetica, sans-serif;font-weight:400;font-style:normal;dominant-baseline:text-before-edge;text-decoration:none solid rgb(0, 0, 0);">find</text></g></g></g></g><g><g transform="matrix(1,0,0,1,61.09375,93.6875)"><path transform="matrix(0.017,0,0,-0.017,0,0)" d="M485 722L473 733C428 711 387 697 313 691L309 670L357 670C375 670 391 667 391 647C391 641 391 632 389 622L347 388C327 272 285 80 259 2L266 -9L335 7C343 64 357 164 397 236C442 317 545 414 587 414C598 414 609 407 609 393C609 375 604 342 594 303L543 107C537 85 530 55 530 31C530 6 540 -9 561 -9C593 -9 661 41 720 85L710 103L684 86C661 71 635 56 623 56C616 56 610 65 610 76C610 88 613 101 617 116L681 372C687 398 692 423 692 447C692 464 686 482 660 482C625 482 548 437 480 374C447 343 421 308 393 273L389 275ZM979.80334 794.13126C979.80334 821.493 950.92302 841.25307 925.08278 841.25307C895.44268 841.25307 881.76181 812.37177 873.4023 788.05206L789.80044 545.60793C787.52013 539.52776 782.20072 525.08809 782.20072 517.48836C782.20072 510.64842 786.76036 500.76741 794.36008 500.76741C806.52042 500.76741 820.2013 517.48836 826.28147 526.60764L957.00319 734.09128C967.64398 750.81126 979.80334 772.85164 979.80334 794.13126Z" stroke="rgb(0,0,0)" stroke-opacity="1" stroke-width="8" fill="rgb(0,0,0)" fill-opacity="1"></path></g></g><g><svg x="79.578125" overflow="visible" y="67.6875" height="42" width="8.5"><path d=" M 6.27 1.70 c 0.00 -0.06 -0.04 -0.08 -0.08 -0.08 c -0.03 0.00 -0.06 0.01 -0.08 0.02 c -2.55 1.34 -4.65 3.73 -4.65 9.40 v 0.60 h 1.53 v -0.60 c 0.00 -3.23 0.64 -7.03 3.31 -9.06 c 0.12 -0.09 0.13 -0.19 0.13 -0.28 z   M 1.44 11.64 v 18.72 h 1.53 v -18.72 z" style="fill:rgb(0,0,0);fill-opacity:1;stroke-width:1px;stroke:none;stroke-opacity:1;"></path><path d=" M 6.27 40.30 c 0.00 0.06 -0.04 0.08 -0.08 0.08 c -0.03 0.00 -0.06 -0.01 -0.08 -0.02 c -2.55 -1.34 -4.65 -3.73 -4.65 -9.40 v -0.60 h 1.53 v 0.60 c 0.00 3.23 0.64 7.03 3.31 9.06 c 0.12 0.09 0.13 0.19 0.13 0.28 z" style="fill:rgb(0,0,0);fill-opacity:1;stroke-width:1px;stroke:none;stroke-opacity:1;"></path></svg></g><g><g><g><g><g transform="matrix(1,0,0,1,88.078125,81.6875)"><path transform="matrix(0.017,0,0,-0.017,0,0)" d="M525 42C469 42 464 125 465 166C466 251 494 333 537 405L599 418C602 435 608 452 613 467C459 461 300 463 145 466C80 467 66 389 47 340C46 332 59 331 63 328L63 332C106 395 130 405 205 405L228 405C188 266 161 129 98 -2L98 -12C118 -6 153 1 170 13C211 141 240 274 268 405L495 405C438 318 397 213 395 108C395 59 410 -15 471 -15C512 -15 568 25 598 51L598 66L586 66L586 67C568 56 548 42 525 42Z" stroke="rgb(0,0,0)" stroke-opacity="1" stroke-width="8" fill="rgb(0,0,0)" fill-opacity="1"></path></g></g></g></g><g><g><g><g transform="matrix(1,0,0,1,89.390625,106.6875)"><path transform="matrix(0.017,0,0,-0.017,0,0)" d="M462 224C462 345 355 366 308 374C388 436 418 482 418 541C418 630 344 689 233 689C165 689 120 670 72 622L43 498L74 498L92 554C103 588 166 622 218 622C283 622 336 569 336 506C336 431 277 368 206 368C198 368 187 369 174 370L159 371L147 318L154 312C192 329 211 334 238 334C321 334 369 281 369 190C369 88 308 21 215 21C169 21 128 36 98 64C74 86 61 109 42 163L15 153C36 92 44 56 50 6C103 -12 147 -20 184 -20C307 -20 462 87 462 224Z" stroke="rgb(0,0,0)" stroke-opacity="1" stroke-width="8" fill="rgb(0,0,0)" fill-opacity="1"></path></g></g></g></g><line style="fill:none;stroke-width:1px;stroke:rgb(0, 0, 0);" x1="88.078125" y1="89.4375" x2="99.1875" y2="89.4375"></line></g><g><svg x="99.1875" overflow="visible" y="67.6875" height="42" width="8.5"><path d=" M 1.75 1.70 c 0.00 -0.06 0.04 -0.08 0.08 -0.08 c 0.03 0.00 0.06 0.01 0.08 0.02 c 2.55 1.34 4.65 3.73 4.65 9.40 v 0.60 h -1.53 v -0.60 c 0.00 -3.23 -0.64 -7.03 -3.31 -9.06 c -0.12 -0.09 -0.13 -0.19 -0.13 -0.28 z  M 6.58 11.64 v 18.72 h -1.53 v -18.72 z" style="fill:rgb(0,0,0);fill-opacity:1;stroke-width:1px;stroke:none;stroke-opacity:1;"></path><path d=" M 1.75 40.30 c 0.00 0.06 0.04 0.08 0.08 0.08 c 0.03 0.00 0.06 -0.01 0.08 -0.02 c 2.55 -1.34 4.65 -3.73 4.65 -9.40 v -0.60 h -1.53 v 0.60 c 0.00 3.23 -0.64 7.03 -3.31 9.06 c -0.12 0.09 -0.13 0.19 -0.13 0.28 z" style="fill:rgb(0,0,0);fill-opacity:1;stroke-width:1px;stroke:none;stroke-opacity:1;"></path></svg></g></g><g><g><g><g><g><text x="4.9375" y="114.375" style="white-space:pre;stroke:none;fill:rgb(0,0,0);fill-opacity:1;font-size:15px;font-family:Arial, Helvetica, sans-serif;font-weight:400;font-style:normal;dominant-baseline:text-before-edge;text-decoration:none solid rgb(0, 0, 0);">Answer as a fraction</text></g></g></g></g></g><g></g></g></svg>