<svg xmlns="http://www.w3.org/2000/svg" xmlns:xlink="http://www.w3.org/1999/xlink" width="97.40625" height="39" style="width:97.40625px;height:39px;font-family:Asana-Math, Asana;background:transparent;"><g><g><g><g><g transform="matrix(1,0,0,1,2,29.900000000000002)"><path transform="matrix(0.0255,0,0,-0.0255,0,0)" d="M694 802C694 860 621 885 573 885C368 885 344 579 334 430C323 251 309 72 304 -108C301 -191 312 -410 184 -410C173 -410 159 -407 151 -397C153 -392 155 -384 155 -378C155 -347 114 -315 83 -315C59 -315 54 -340 54 -359C54 -418 125 -442 173 -442C348 -442 380 -190 395 -59C413 104 421 269 433 433C439 521 422 853 562 853C574 853 587 850 596 841C593 834 592 828 592 821C592 789 633 759 663 759C687 759 694 782 694 802Z" stroke="rgb(0,0,0)" stroke-opacity="1" stroke-width="8" fill="rgb(0,0,0)" fill-opacity="1"></path></g></g></g><g><g transform="matrix(1,0,0,1,22.125,30)"><path transform="matrix(0.017,0,0,-0.017,0,0)" d="M280 181L280 106C280 46 269 32 220 30L158 27L158 -3C291 0 291 0 315 0C339 0 339 0 472 -3L472 27L424 30C375 33 364 46 364 106L364 181C423 181 444 180 472 177L472 248L364 245L365 697L285 667L2 204L2 181ZM280 245L65 245L280 597ZM530 148C525 97 519 62 508 16C546 -2 580 -11 615 -11C664 -11 710 7 761 47C812 87 833 124 833 174C833 228 801 257 727 271L684 279C624 290 605 307 605 348C605 401 650 442 707 442C748 442 786 424 802 397L802 342L825 342C829 377 833 404 844 455C805 474 777 482 744 482C692 482 631 452 583 404C557 377 546 352 546 316C546 260 577 228 643 215L706 203C750 195 766 177 766 138C766 73 720 29 649 29C614 29 583 40 555 64L555 148ZM1215 111L1191 94C1138 56 1090 36 1054 36C1007 36 978 73 978 133C978 158 981 185 986 214C1003 218 1112 248 1137 259C1222 296 1261 342 1261 404C1261 451 1227 482 1177 482C1109 496 999 423 962 349C932 299 902 180 902 113C902 35 946 -11 1018 -11C1075 -11 1131 17 1223 92ZM1000 274C1017 343 1037 386 1066 412C1084 428 1115 440 1139 440C1168 440 1187 420 1187 388C1187 344 1152 297 1100 272C1072 258 1036 247 991 237ZM1617 330L1640 330C1648 395 1655 432 1664 458C1640 473 1605 482 1568 482C1523 483 1450 463 1393 400C1339 352 1300 241 1300 136C1300 40 1342 -11 1422 -11C1476 -11 1524 9 1579 54L1629 95L1621 115L1606 105C1534 57 1496 40 1461 40C1405 40 1376 80 1376 159C1376 267 1411 371 1460 409C1481 425 1505 433 1536 433C1581 433 1617 414 1617 390Z" stroke="rgb(0,0,0)" stroke-opacity="1" stroke-width="8" fill="rgb(0,0,0)" fill-opacity="1"></path></g></g><g><g><g><g><g transform="matrix(1,0,0,1,51.671875,23.571875)"><path transform="matrix(0.0119,0,0,-0.0119,0,0)" d="M16 23L16 -3C203 -3 203 0 239 0C275 0 275 -3 468 -3L468 82C353 77 307 81 122 77L304 270C401 373 431 428 431 503C431 618 353 689 226 689C154 689 105 669 56 619L39 483L68 483L81 529C97 587 133 612 200 612C286 612 341 558 341 473C341 398 299 324 186 204Z" stroke="rgb(0,0,0)" stroke-opacity="1" stroke-width="8" fill="rgb(0,0,0)" fill-opacity="1"></path></g></g></g></g></g><g><g transform="matrix(1,0,0,1,58.640625,30)"><path transform="matrix(0.017,0,0,-0.017,0,0)" d="M146 266C146 526 243 632 301 700L282 726C225 675 60 542 60 266C60 159 85 58 133 -32C168 -99 200 -138 282 -215L301 -194C255 -137 146 -15 146 266Z" stroke="rgb(0,0,0)" stroke-opacity="1" stroke-width="8" fill="rgb(0,0,0)" fill-opacity="1"></path></g></g><g><g transform="matrix(1,0,0,1,64.296875,30)"><path transform="matrix(0.017,0,0,-0.017,0,0)" d="M9 1C24 -7 40 -11 52 -11C85 -11 124 18 155 65L231 182L242 113C255 28 278 -11 314 -11C336 -11 368 6 400 35L449 79L440 98C404 68 379 53 363 53C348 53 335 63 325 83C316 102 305 139 300 168L282 269L317 318C364 383 391 406 422 406C438 406 450 398 455 383L469 387L484 472C472 479 463 482 454 482C414 482 374 446 312 354L275 299L269 347C257 446 230 482 171 482C145 482 123 474 114 461L56 378L73 368C103 402 123 416 142 416C175 416 197 375 214 277L225 215L185 153C142 86 108 54 80 54C65 54 54 58 52 63L41 91L21 88C21 53 13 27 9 1Z" stroke="rgb(0,0,0)" stroke-opacity="1" stroke-width="8" fill="rgb(0,0,0)" fill-opacity="1"></path></g></g><g><g transform="matrix(1,0,0,1,72.78125,30)"><path transform="matrix(0.017,0,0,-0.017,0,0)" d="M51 726L32 700C87 636 187 526 187 266C187 -10 83 -131 32 -194L51 -215C104 -165 273 -23 273 265C273 542 108 675 51 726Z" stroke="rgb(0,0,0)" stroke-opacity="1" stroke-width="8" fill="rgb(0,0,0)" fill-opacity="1"></path></g></g><g><g transform="matrix(1,0,0,1,78.4375,30)"><path transform="matrix(0.017,0,0,-0.017,0,0)" d="M483 722L471 733C419 707 383 698 311 691L307 670L355 670C379 670 389 663 389 646C389 638 388 629 387 622L359 468C329 477 302 482 277 482C208 482 114 410 68 323C37 265 17 170 17 86C17 21 32 -11 61 -11C88 -11 125 6 159 33C213 77 246 116 313 217L290 126C279 82 274 50 274 24C274 3 283 -9 300 -9C317 -9 341 3 375 28L456 88L446 107L402 76C388 66 372 59 363 59C355 59 349 68 349 82C349 90 350 99 357 128ZM114 59C98 59 89 73 89 98C89 224 135 380 184 418C197 428 216 433 243 433C287 433 316 427 349 410L337 351C300 171 159 59 114 59ZM508 1C523 -7 539 -11 551 -11C584 -11 623 18 654 65L730 182L741 113C754 28 777 -11 813 -11C835 -11 867 6 899 35L948 79L939 98C903 68 878 53 862 53C847 53 834 63 824 83C815 102 804 139 799 168L781 269L816 318C863 383 890 406 921 406C937 406 949 398 954 383L968 387L983 472C971 479 962 482 953 482C913 482 873 446 811 354L774 299L768 347C756 446 729 482 670 482C644 482 622 474 613 461L555 378L572 368C602 402 622 416 641 416C674 416 696 375 713 277L724 215L684 153C641 86 607 54 579 54C564 54 553 58 551 63L540 91L520 88C520 53 512 27 508 1Z" stroke="rgb(0,0,0)" stroke-opacity="1" stroke-width="8" fill="rgb(0,0,0)" fill-opacity="1"></path></g></g></g></g></svg>