<svg xmlns="http://www.w3.org/2000/svg" xmlns:xlink="http://www.w3.org/1999/xlink" width="29.453125" height="46" style="width:29.453125px;height:46px;font-family:Asana-Math, Asana;background:transparent;"><g><g><g><g><g><g><g transform="matrix(1,0,0,1,2,19)"><path transform="matrix(0.017,0,0,-0.017,0,0)" d="M16 23L16 -3C203 -3 203 0 239 0C275 0 275 -3 468 -3L468 82C353 77 307 81 122 77L304 270C401 373 431 428 431 503C431 618 353 689 226 689C154 689 105 669 56 619L39 483L68 483L81 529C97 587 133 612 200 612C286 612 341 558 341 473C341 398 299 324 186 204ZM515 23L515 -3C702 -3 702 0 738 0C774 0 774 -3 967 -3L967 82C852 77 806 81 621 77L803 270C900 373 930 428 930 503C930 618 852 689 725 689C653 689 604 669 555 619L538 483L567 483L580 529C596 587 632 612 699 612C785 612 840 558 840 473C840 398 798 324 685 204ZM1094 -20C1205 16 1253 39 1307 85C1404 168 1455 283 1455 417C1455 586 1374 689 1242 689C1114 689 1018 589 1018 455C1018 340 1093 256 1197 256C1231 256 1270 267 1288 282L1358 340C1350 172 1241 49 1060 5L1060 -3ZM1238 656C1283 656 1316 637 1338 597C1356 565 1368 516 1368 471C1368 379 1315 317 1238 317C1158 317 1104 388 1104 492C1104 593 1156 656 1238 656Z" stroke="rgb(0,0,0)" stroke-opacity="1" stroke-width="0" fill="rgb(0,0,0)" fill-opacity="1"></path></g></g></g></g><g><g><g><g transform="matrix(1,0,0,1,2,44)"><path transform="matrix(0.017,0,0,-0.017,0,0)" d="M418 -3L418 27L366 30C311 33 301 44 301 96L301 700L60 598L67 548L217 614L217 96C217 44 206 33 152 30L96 27L96 -3C250 0 250 0 261 0C292 0 402 -3 418 -3ZM595 -20C706 16 754 39 808 85C905 168 956 283 956 417C956 586 875 689 743 689C615 689 519 589 519 455C519 340 594 256 698 256C732 256 771 267 789 282L859 340C851 172 742 49 561 5L561 -3ZM739 656C784 656 817 637 839 597C857 565 869 516 869 471C869 379 816 317 739 317C659 317 605 388 605 492C605 593 657 656 739 656ZM1014 23L1014 -3C1201 -3 1201 0 1237 0C1273 0 1273 -3 1466 -3L1466 82C1351 77 1305 81 1120 77L1302 270C1399 373 1429 428 1429 503C1429 618 1351 689 1224 689C1152 689 1103 669 1054 619L1037 483L1066 483L1079 529C1095 587 1131 612 1198 612C1284 612 1339 558 1339 473C1339 398 1297 324 1184 204Z" stroke="rgb(0,0,0)" stroke-opacity="1" stroke-width="0" fill="rgb(0,0,0)" fill-opacity="1"></path></g></g></g></g><line style="fill:none;stroke-width:1px;stroke:rgb(0, 0, 0);" x1="2" y1="26.75" x2="27.453125" y2="26.75"></line></g></g></g></svg>