<svg xmlns="http://www.w3.org/2000/svg" xmlns:xlink="http://www.w3.org/1999/xlink" width="20.96875" height="24" style="width:20.96875px;height:24px;font-family:Asana-Math, Asana;background:transparent;"><g><g><g><g transform="matrix(1,0,0,1,2,19)"><path transform="matrix(0.017,0,0,-0.017,0,0)" d="M418 -3L418 27L366 30C311 33 301 44 301 96L301 700L60 598L67 548L217 614L217 96C217 44 206 33 152 30L96 27L96 -3C250 0 250 0 261 0C292 0 402 -3 418 -3ZM630 331C651 512 740 611 920 665L878 689C782 657 741 637 690 593C587 506 531 384 531 247C531 82 611 -20 740 -20C870 -20 967 83 967 219C967 334 898 409 792 409C715 409 683 370 630 331ZM754 349C830 349 881 283 881 184C881 80 830 13 753 13C668 13 622 86 622 220C622 255 626 274 637 291C659 325 706 349 754 349Z" stroke="rgb(0,0,0)" stroke-opacity="1" stroke-width="8" fill="rgb(0,0,0)" fill-opacity="1"></path></g></g></g></g></svg>