<svg xmlns="http://www.w3.org/2000/svg" xmlns:xlink="http://www.w3.org/1999/xlink" width="85.765625" height="40.875" style="width:85.765625px;height:40.875px;font-family:Asana-Math, Asana;background:transparent;"><g><g><g><svg x="2" overflow="visible" y="13.1875" height="24" width="7.640625"><path d=" M 5.98 1.70 l -0.10 -0.10 q -1.09 0.03 -2.16 0.03 q -1.02 0.00 -2.14 -0.03 l -0.15 0.22 q 0.15 0.58 0.15 3.15 v 0.85 h 1.43 v -0.85 q 0.00 -1.31 0.07 -2.14 q 0.05 -0.60 1.19 -0.60 h 1.65 l 0.07 -0.09 v -0.44 z  M 1.58 5.63 v 12.75 h 1.43 v -12.75 z " style="fill:rgb(0,0,0);fill-opacity:1;stroke-width:1px;stroke:none;stroke-opacity:1;"></path><path d=" M 5.98 22.30 l -0.10 0.10 q -1.09 -0.03 -2.16 -0.03 q -1.02 0.00 -2.14 0.03 l -0.15 -0.22 q 0.15 -0.58 0.15 -3.15 v -0.85 h 1.43 v 0.85 q 0.00 1.31 0.07 2.14 q 0.05 0.60 1.19 0.60 h 1.65 l 0.07 0.09 v 0.44 z" style="fill:rgb(0,0,0);fill-opacity:1;stroke-width:1px;stroke:none;stroke-opacity:1;"></path></svg></g><g><g transform="matrix(1,0,0,1,9.640625,31.1875)"><path transform="matrix(0.017,0,0,-0.017,0,0)" d="M462 224C462 345 355 366 308 374C388 436 418 482 418 541C418 630 344 689 233 689C165 689 120 670 72 622L43 498L74 498L92 554C103 588 166 622 218 622C283 622 336 569 336 506C336 431 277 368 206 368C198 368 187 369 174 370L159 371L147 318L154 312C192 329 211 334 238 334C321 334 369 281 369 190C369 88 308 21 215 21C169 21 128 36 98 64C74 86 61 109 42 163L15 153C36 92 44 56 50 6C103 -12 147 -20 184 -20C307 -20 462 87 462 224Z" stroke="rgb(0,0,0)" stroke-opacity="1" stroke-width="8" fill="rgb(0,0,0)" fill-opacity="1"></path></g></g><g><g><g><g><g transform="matrix(1,0,0,1,19.09375,24.759375)"><path transform="matrix(0.0119,0,0,-0.0119,0,0)" d="M9 1C24 -7 40 -11 52 -11C85 -11 124 18 155 65L231 182L242 113C255 28 278 -11 314 -11C336 -11 368 6 400 35L449 79L440 98C404 68 379 53 363 53C348 53 335 63 325 83C316 102 305 139 300 168L282 269L317 318C364 383 391 406 422 406C438 406 450 398 455 383L469 387L484 472C472 479 463 482 454 482C414 482 374 446 312 354L275 299L269 347C257 446 230 482 171 482C145 482 123 474 114 461L56 378L73 368C103 402 123 416 142 416C175 416 197 375 214 277L225 215L185 153C142 86 108 54 80 54C65 54 54 58 52 63L41 91L21 88C21 53 13 27 9 1Z" stroke="rgb(0,0,0)" stroke-opacity="1" stroke-width="8" fill="rgb(0,0,0)" fill-opacity="1"></path></g></g></g></g></g><g><g><g transform="matrix(1,0,0,1,29.453125,31.1875)"><path transform="matrix(0.017,0,0,-0.017,0,0)" d="M23 661L79 661C97 661 104 650 104 620L104 102C104 39 101 32 67 30L21 27L21 -3C121 0 121 0 146 0C171 0 171 0 271 -3L271 27L225 30C191 32 188 39 188 102L188 718L179 726C135 709 102 701 23 689ZM569 469C423 469 322 366 322 217C322 76 411 -20 540 -20C694 -20 804 87 804 237C804 372 706 469 569 469ZM551 436C643 436 711 336 711 200C711 85 660 13 579 13C481 13 415 109 415 251C415 371 463 436 551 436ZM890 289C890 215 936 164 1010 156L931 95C921 80 916 67 916 52C916 24 934 8 982 -6L895 -53C881 -61 867 -98 867 -129C867 -220 956 -283 1083 -283C1234 -283 1353 -188 1353 -66C1353 6 1305 56 1235 56L1075 56C1023 56 999 68 999 95C999 118 1028 135 1045 152C1055 151 1061 150 1069 150C1130 150 1273 197 1273 324C1273 344 1270 357 1262 378L1354 378L1379 419L1375 431L1233 427C1196 457 1160 469 1111 469C1036 469 890 424 890 289ZM1075 435C1143 435 1189 379 1189 294C1189 229 1147 184 1086 184C1019 184 974 236 974 313C974 390 1011 435 1075 435ZM1122 -14C1235 -14 1274 -37 1274 -102C1274 -188 1195 -252 1090 -252C1003 -252 943 -201 943 -127C943 -82 969 -41 1009 -24C1025 -16 1053 -14 1122 -14Z" stroke="rgb(0,0,0)" stroke-opacity="1" stroke-width="8" fill="rgb(0,0,0)" fill-opacity="1"></path></g></g></g><g><g transform="matrix(1,0,0,1,53.09375,31.1875)"><path transform="matrix(0.017,0,0,-0.017,0,0)" d="M146 266C146 526 243 632 301 700L282 726C225 675 60 542 60 266C60 159 85 58 133 -32C168 -99 200 -138 282 -215L301 -194C255 -137 146 -15 146 266Z" stroke="rgb(0,0,0)" stroke-opacity="1" stroke-width="8" fill="rgb(0,0,0)" fill-opacity="1"></path></g></g><g><g transform="matrix(1,0,0,1,58.75,31.1875)"><path transform="matrix(0.017,0,0,-0.017,0,0)" d="M9 1C24 -7 40 -11 52 -11C85 -11 124 18 155 65L231 182L242 113C255 28 278 -11 314 -11C336 -11 368 6 400 35L449 79L440 98C404 68 379 53 363 53C348 53 335 63 325 83C316 102 305 139 300 168L282 269L317 318C364 383 391 406 422 406C438 406 450 398 455 383L469 387L484 472C472 479 463 482 454 482C414 482 374 446 312 354L275 299L269 347C257 446 230 482 171 482C145 482 123 474 114 461L56 378L73 368C103 402 123 416 142 416C175 416 197 375 214 277L225 215L185 153C142 86 108 54 80 54C65 54 54 58 52 63L41 91L21 88C21 53 13 27 9 1Z" stroke="rgb(0,0,0)" stroke-opacity="1" stroke-width="8" fill="rgb(0,0,0)" fill-opacity="1"></path></g></g><g><g transform="matrix(1,0,0,1,67.234375,31.1875)"><path transform="matrix(0.017,0,0,-0.017,0,0)" d="M51 726L32 700C87 636 187 526 187 266C187 -10 83 -131 32 -194L51 -215C104 -165 273 -23 273 265C273 542 108 675 51 726Z" stroke="rgb(0,0,0)" stroke-opacity="1" stroke-width="8" fill="rgb(0,0,0)" fill-opacity="1"></path></g></g><g><svg x="72.890625" overflow="visible" y="13.1875" height="24" width="7.640625"><path d=" M 1.57 1.70 l 0.10 -0.10 q 1.09 0.03 2.16 0.03 q 1.02 0.00 2.14 -0.03 l 0.15 0.22 q -0.15 0.58 -0.15 3.15 v 0.85 h -1.43 v -0.85 q 0.00 -1.31 -0.07 -2.14 q -0.05 -0.60 -1.19 -0.60 h -1.65 l -0.07 -0.09 v -0.44 z  M 5.97 5.63 v 12.75 h -1.43 v -12.75 z" style="fill:rgb(0,0,0);fill-opacity:1;stroke-width:1px;stroke:none;stroke-opacity:1;"></path><path d=" M 1.57 22.30 l 0.10 0.10 q 1.09 -0.03 2.16 -0.03 q 1.02 0.00 2.14 0.03 l 0.15 -0.22 q -0.15 -0.58 -0.15 -3.15 v -0.85 h -1.43 v 0.85 q 0.00 1.31 -0.07 2.14 q -0.05 0.60 -1.19 0.60 h -1.65 l -0.07 0.09 v 0.44 z" style="fill:rgb(0,0,0);fill-opacity:1;stroke-width:1px;stroke:none;stroke-opacity:1;"></path></svg></g><g><g><g><g><g transform="matrix(1,0,0,1,79.1875,19)"><path transform="matrix(0.017,0,0,-0.017,0,0)" d="M231.80334 794.13126C231.80334 821.493 202.92302 841.25307 177.08278 841.25307C147.44268 841.25307 133.76181 812.37177 125.4023 788.05206L41.80044 545.60793C39.52013 539.52776 34.20072 525.08809 34.20072 517.48836C34.20072 510.64842 38.76036 500.76741 46.36008 500.76741C58.52042 500.76741 72.2013 517.48836 78.28147 526.60764L209.00319 734.09128C219.64398 750.81126 231.80334 772.85164 231.80334 794.13126Z" stroke="rgb(0,0,0)" stroke-opacity="1" stroke-width="8" fill="rgb(0,0,0)" fill-opacity="1"></path></g></g></g></g></g></g></g></svg>