<svg xmlns="http://www.w3.org/2000/svg" xmlns:xlink="http://www.w3.org/1999/xlink" width="423.21875" height="31.375" style="width:423.21875px;height:31.375px;font-family:Asana-Math, Asana;background:transparent;"><g><g><g><g><g><g><text x="2" y="7.6875" style="white-space:pre;stroke:none;fill:rgb(0,0,0);fill-opacity:1;font-size:15px;font-family:Arial, Helvetica, sans-serif;font-weight:400;font-style:normal;dominant-baseline:text-before-edge;text-decoration:none solid rgb(0, 0, 0);">Find the average value of</text></g></g></g></g><g><g transform="matrix(1,0,0,1,171.28125,21.6875)"><path transform="matrix(0.017,0,0,-0.017,0,0)" d="M535 646L641 650C703 650 743 641 744 626L752 537L776 537C779 600 786 651 797 689C775 691 747 692 730 692L689 691L524 689L495 689C470 689 430 690 392 691L343 692L340 664L396 662C420 661 431 652 431 635C431 621 427 589 422 559L347 125C330 33 330 32 289 28L253 25L249 -3L283 -2C323 -1 355 0 376 0C394 0 423 -1 462 -2L514 -3L517 25L453 28C426 29 417 37 417 57C417 63 418 74 419 78L455 301L572 301C599 301 630 300 678 298L704 297L723 342L719 349C638 345 578 343 500 343L463 343L509 614C512 630 513 635 518 646Z" stroke="rgb(0,0,0)" stroke-opacity="1" stroke-width="8" fill="rgb(0,0,0)" fill-opacity="1"></path></g></g><g><g transform="matrix(1,0,0,1,184.953125,21.6875)"><path transform="matrix(0.017,0,0,-0.017,0,0)" d="M146 266C146 526 243 632 301 700L282 726C225 675 60 542 60 266C60 159 85 58 133 -32C168 -99 200 -138 282 -215L301 -194C255 -137 146 -15 146 266Z" stroke="rgb(0,0,0)" stroke-opacity="1" stroke-width="8" fill="rgb(0,0,0)" fill-opacity="1"></path></g></g><g><g transform="matrix(1,0,0,1,190.609375,21.6875)"><path transform="matrix(0.017,0,0,-0.017,0,0)" d="M9 1C24 -7 40 -11 52 -11C85 -11 124 18 155 65L231 182L242 113C255 28 278 -11 314 -11C336 -11 368 6 400 35L449 79L440 98C404 68 379 53 363 53C348 53 335 63 325 83C316 102 305 139 300 168L282 269L317 318C364 383 391 406 422 406C438 406 450 398 455 383L469 387L484 472C472 479 463 482 454 482C414 482 374 446 312 354L275 299L269 347C257 446 230 482 171 482C145 482 123 474 114 461L56 378L73 368C103 402 123 416 142 416C175 416 197 375 214 277L225 215L185 153C142 86 108 54 80 54C65 54 54 58 52 63L41 91L21 88C21 53 13 27 9 1Z" stroke="rgb(0,0,0)" stroke-opacity="1" stroke-width="8" fill="rgb(0,0,0)" fill-opacity="1"></path></g></g><g><g transform="matrix(1,0,0,1,199.09375,21.6875)"><path transform="matrix(0.017,0,0,-0.017,0,0)" d="M51 726L32 700C87 636 187 526 187 266C187 -10 83 -131 32 -194L51 -215C104 -165 273 -23 273 265C273 542 108 675 51 726Z" stroke="rgb(0,0,0)" stroke-opacity="1" stroke-width="8" fill="rgb(0,0,0)" fill-opacity="1"></path></g></g><g><g transform="matrix(1,0,0,1,209.84375,21.6875)"><path transform="matrix(0.017,0,0,-0.017,0,0)" d="M604 347L604 406L65 406L65 347ZM604 134L604 193L65 193L65 134Z" stroke="rgb(0,0,0)" stroke-opacity="1" stroke-width="8" fill="rgb(0,0,0)" fill-opacity="1"></path></g></g><g><g><g transform="matrix(1,0,0,1,226.296875,21.6875)"><path transform="matrix(0.017,0,0,-0.017,0,0)" d="M23 661L79 661C97 661 104 650 104 620L104 102C104 39 101 32 67 30L21 27L21 -3C121 0 121 0 146 0C171 0 171 0 271 -3L271 27L225 30C191 32 188 39 188 102L188 718L179 726C135 709 102 701 23 689ZM700 -3C761 0 762 0 779 0C793 0 793 0 862 -3L862 27L821 30C787 32 784 38 784 102L784 295C784 412 729 469 617 469C580 469 559 462 538 444L462 378L462 465L453 469C402 448 350 434 297 428L297 400L334 400C374 400 378 393 378 327L378 102C378 39 375 32 341 30L296 27L296 -3C364 -1 391 0 420 0C449 0 476 -1 544 -3L544 27L499 30C465 32 462 39 462 102L462 314C462 359 528 408 589 408C656 408 700 358 700 281Z" stroke="rgb(0,0,0)" stroke-opacity="1" stroke-width="8" fill="rgb(0,0,0)" fill-opacity="1"></path></g></g></g><g><g transform="matrix(1,0,0,1,241.109375,21.6875)"><path transform="matrix(0.017,0,0,-0.017,0,0)" d="M146 266C146 526 243 632 301 700L282 726C225 675 60 542 60 266C60 159 85 58 133 -32C168 -99 200 -138 282 -215L301 -194C255 -137 146 -15 146 266Z" stroke="rgb(0,0,0)" stroke-opacity="1" stroke-width="8" fill="rgb(0,0,0)" fill-opacity="1"></path></g></g><g><g transform="matrix(1,0,0,1,246.765625,21.6875)"><path transform="matrix(0.017,0,0,-0.017,0,0)" d="M9 1C24 -7 40 -11 52 -11C85 -11 124 18 155 65L231 182L242 113C255 28 278 -11 314 -11C336 -11 368 6 400 35L449 79L440 98C404 68 379 53 363 53C348 53 335 63 325 83C316 102 305 139 300 168L282 269L317 318C364 383 391 406 422 406C438 406 450 398 455 383L469 387L484 472C472 479 463 482 454 482C414 482 374 446 312 354L275 299L269 347C257 446 230 482 171 482C145 482 123 474 114 461L56 378L73 368C103 402 123 416 142 416C175 416 197 375 214 277L225 215L185 153C142 86 108 54 80 54C65 54 54 58 52 63L41 91L21 88C21 53 13 27 9 1Z" stroke="rgb(0,0,0)" stroke-opacity="1" stroke-width="8" fill="rgb(0,0,0)" fill-opacity="1"></path></g></g><g><g transform="matrix(1,0,0,1,255.25,21.6875)"><path transform="matrix(0.017,0,0,-0.017,0,0)" d="M51 726L32 700C87 636 187 526 187 266C187 -10 83 -131 32 -194L51 -215C104 -165 273 -23 273 265C273 542 108 675 51 726Z" stroke="rgb(0,0,0)" stroke-opacity="1" stroke-width="8" fill="rgb(0,0,0)" fill-opacity="1"></path></g></g><g><g><g><g><text x="260.90625" y="7.6875" style="white-space:pre;stroke:none;fill:rgb(0,0,0);fill-opacity:1;font-size:15px;font-family:Arial, Helvetica, sans-serif;font-weight:400;font-style:normal;dominant-baseline:text-before-edge;text-decoration:none solid rgb(0, 0, 0);"> over the interval </text></g></g></g></g><g><svg x="377.15625" overflow="visible" y="3.6875" height="24" width="7.640625"><path d=" M 5.98 1.70 l -0.10 -0.10 q -1.09 0.03 -2.16 0.03 q -1.02 0.00 -2.14 -0.03 l -0.15 0.22 q 0.15 0.58 0.15 3.15 v 0.85 h 1.43 v -0.85 q 0.00 -1.31 0.07 -2.14 q 0.05 -0.60 1.19 -0.60 h 1.65 l 0.07 -0.09 v -0.44 z  M 1.58 5.63 v 12.75 h 1.43 v -12.75 z " style="fill:rgb(0,0,0);fill-opacity:1;stroke-width:1px;stroke:none;stroke-opacity:1;"></path><path d=" M 5.98 22.30 l -0.10 0.10 q -1.09 -0.03 -2.16 -0.03 q -1.02 0.00 -2.14 0.03 l -0.15 -0.22 q 0.15 -0.58 0.15 -3.15 v -0.85 h 1.43 v 0.85 q 0.00 1.31 0.07 2.14 q 0.05 0.60 1.19 0.60 h 1.65 l 0.07 0.09 v 0.44 z" style="fill:rgb(0,0,0);fill-opacity:1;stroke-width:1px;stroke:none;stroke-opacity:1;"></path></svg></g><g><g transform="matrix(1,0,0,1,384.796875,21.6875)"><path transform="matrix(0.017,0,0,-0.017,0,0)" d="M328 111L304 94C251 56 203 36 167 36C120 36 91 73 91 133C91 158 94 185 99 214C116 218 225 248 250 259C335 296 374 342 374 404C374 451 340 482 290 482C222 496 112 423 75 349C45 299 15 180 15 113C15 35 59 -11 131 -11C188 -11 244 17 336 92ZM113 274C130 343 150 386 179 412C197 428 228 440 252 440C281 440 300 420 300 388C300 344 265 297 213 272C185 258 149 247 104 237Z" stroke="rgb(0,0,0)" stroke-opacity="1" stroke-width="8" fill="rgb(0,0,0)" fill-opacity="1"></path></g></g><g><g transform="matrix(1,0,0,1,391.40625,21.6875)"><path transform="matrix(0.017,0,0,-0.017,0,0)" d="M204 123C177 114 159 108 106 93C99 17 74 -48 16 -144L30 -155L71 -136C152 -31 190 32 218 109Z" stroke="rgb(0,0,0)" stroke-opacity="1" stroke-width="8" fill="rgb(0,0,0)" fill-opacity="1"></path></g></g><g><g transform="matrix(1,0,0,1,399.03125,21.6875)"><path transform="matrix(0.017,0,0,-0.017,0,0)" d="M328 111L304 94C251 56 203 36 167 36C120 36 91 73 91 133C91 158 94 185 99 214C116 218 225 248 250 259C335 296 374 342 374 404C374 451 340 482 290 482C222 496 112 423 75 349C45 299 15 180 15 113C15 35 59 -11 131 -11C188 -11 244 17 336 92ZM113 274C130 343 150 386 179 412C197 428 228 440 252 440C281 440 300 420 300 388C300 344 265 297 213 272C185 258 149 247 104 237Z" stroke="rgb(0,0,0)" stroke-opacity="1" stroke-width="8" fill="rgb(0,0,0)" fill-opacity="1"></path></g></g><g><g><g><g><g transform="matrix(1,0,0,1,406.609375,15.259375)"><path transform="matrix(0.0119,0,0,-0.0119,0,0)" d="M16 23L16 -3C203 -3 203 0 239 0C275 0 275 -3 468 -3L468 82C353 77 307 81 122 77L304 270C401 373 431 428 431 503C431 618 353 689 226 689C154 689 105 669 56 619L39 483L68 483L81 529C97 587 133 612 200 612C286 612 341 558 341 473C341 398 299 324 186 204Z" stroke="rgb(0,0,0)" stroke-opacity="1" stroke-width="8" fill="rgb(0,0,0)" fill-opacity="1"></path></g></g></g></g></g><g><svg x="413.578125" overflow="visible" y="3.6875" height="24" width="7.640625"><path d=" M 1.57 1.70 l 0.10 -0.10 q 1.09 0.03 2.16 0.03 q 1.02 0.00 2.14 -0.03 l 0.15 0.22 q -0.15 0.58 -0.15 3.15 v 0.85 h -1.43 v -0.85 q 0.00 -1.31 -0.07 -2.14 q -0.05 -0.60 -1.19 -0.60 h -1.65 l -0.07 -0.09 v -0.44 z  M 5.97 5.63 v 12.75 h -1.43 v -12.75 z" style="fill:rgb(0,0,0);fill-opacity:1;stroke-width:1px;stroke:none;stroke-opacity:1;"></path><path d=" M 1.57 22.30 l 0.10 0.10 q 1.09 -0.03 2.16 -0.03 q 1.02 0.00 2.14 0.03 l 0.15 -0.22 q -0.15 -0.58 -0.15 -3.15 v -0.85 h -1.43 v 0.85 q 0.00 1.31 -0.07 2.14 q -0.05 0.60 -1.19 0.60 h -1.65 l -0.07 0.09 v 0.44 z" style="fill:rgb(0,0,0);fill-opacity:1;stroke-width:1px;stroke:none;stroke-opacity:1;"></path></svg></g></g></g></svg>