<svg xmlns="http://www.w3.org/2000/svg" xmlns:xlink="http://www.w3.org/1999/xlink" width="99.3125" height="42" style="width:99.3125px;height:42px;font-family:Asana-Math, Asana;background:transparent;"><g><g><g><g transform="matrix(1,0,0,1,2,27)"><path transform="matrix(0.017,0,0,-0.017,0,0)" d="M275 482C208 482 55 419 55 259C55 182 100 136 177 136C185 136 196 136 207 137L166 99C150 84 139 66 139 52C139 42 146 31 160 19C91 -4 -37 -48 -37 -159C-37 -230 33 -276 142 -276C271 -276 384 -204 384 -121C384 -85 363 -49 320 -14L260 35C226 62 213 81 213 100C213 114 228 128 240 146C338 170 409 253 409 342C409 357 406 376 405 380C422 378 430 378 439 378C456 378 466 379 489 382L498 427L495 433C467 426 447 424 393 424C393 425 369 482 275 482ZM176 1L253 -58C299 -94 318 -121 318 -154C318 -206 249 -248 166 -248C84 -248 27 -206 27 -145C27 -43 137 -11 176 1ZM250 448C308 448 337 412 337 341C337 238 289 168 219 168C158 168 126 209 126 288C126 383 177 448 250 448Z" stroke="rgb(0,0,0)" stroke-opacity="1" stroke-width="8" fill="rgb(0,0,0)" fill-opacity="1"></path></g></g><g><g transform="matrix(1,0,0,1,10.484375,27)"><path transform="matrix(0.017,0,0,-0.017,0,0)" d="M146 266C146 526 243 632 301 700L282 726C225 675 60 542 60 266C60 159 85 58 133 -32C168 -99 200 -138 282 -215L301 -194C255 -137 146 -15 146 266Z" stroke="rgb(0,0,0)" stroke-opacity="1" stroke-width="8" fill="rgb(0,0,0)" fill-opacity="1"></path></g></g><g><g transform="matrix(1,0,0,1,16.140625,27)"><path transform="matrix(0.017,0,0,-0.017,0,0)" d="M9 1C24 -7 40 -11 52 -11C85 -11 124 18 155 65L231 182L242 113C255 28 278 -11 314 -11C336 -11 368 6 400 35L449 79L440 98C404 68 379 53 363 53C348 53 335 63 325 83C316 102 305 139 300 168L282 269L317 318C364 383 391 406 422 406C438 406 450 398 455 383L469 387L484 472C472 479 463 482 454 482C414 482 374 446 312 354L275 299L269 347C257 446 230 482 171 482C145 482 123 474 114 461L56 378L73 368C103 402 123 416 142 416C175 416 197 375 214 277L225 215L185 153C142 86 108 54 80 54C65 54 54 58 52 63L41 91L21 88C21 53 13 27 9 1Z" stroke="rgb(0,0,0)" stroke-opacity="1" stroke-width="8" fill="rgb(0,0,0)" fill-opacity="1"></path></g></g><g><g transform="matrix(1,0,0,1,24.625,27)"><path transform="matrix(0.017,0,0,-0.017,0,0)" d="M51 726L32 700C87 636 187 526 187 266C187 -10 83 -131 32 -194L51 -215C104 -165 273 -23 273 265C273 542 108 675 51 726Z" stroke="rgb(0,0,0)" stroke-opacity="1" stroke-width="8" fill="rgb(0,0,0)" fill-opacity="1"></path></g></g><g><g transform="matrix(1,0,0,1,35.375,27)"><path transform="matrix(0.017,0,0,-0.017,0,0)" d="M604 347L604 406L65 406L65 347ZM604 134L604 193L65 193L65 134Z" stroke="rgb(0,0,0)" stroke-opacity="1" stroke-width="8" fill="rgb(0,0,0)" fill-opacity="1"></path></g></g><g><g><g><g><g><g transform="matrix(1,0,0,1,53.515625,15)"><path transform="matrix(0.017,0,0,-0.017,0,0)" d="M399 311C399 357 404 398 413 434C381 478 338 497 293 497C169 497 25 361 25 224C25 219 26 215 26 210C26 75 121 -20 255 -20C307 -20 382 -1 392 14L413 46L403 61C366 41 334 32 298 32C187 32 114 118 114 250C114 357 164 417 254 417C298 417 346 397 364 372L371 311ZM722 469C576 469 475 366 475 217C475 76 564 -20 693 -20C847 -20 957 87 957 237C957 372 859 469 722 469ZM704 436C796 436 864 336 864 200C864 85 813 13 732 13C634 13 568 109 568 251C568 371 616 436 704 436ZM1029 143C1029 74 1026 44 1018 4C1070 -13 1109 -20 1155 -20C1286 -20 1379 50 1379 148C1379 321 1095 228 1095 358C1095 408 1130 436 1191 436C1258 436 1309 401 1309 354L1309 331L1337 331C1338 389 1339 413 1342 444C1289 462 1253 469 1212 469C1096 469 1025 414 1025 324C1025 276 1047 242 1093 221C1211 169 1305 195 1305 109C1305 55 1255 17 1184 17C1111 17 1059 52 1059 102L1059 143Z" stroke="rgb(0,0,0)" stroke-opacity="1" stroke-width="8" fill="rgb(0,0,0)" fill-opacity="1"></path></g></g></g><g><g transform="matrix(1,0,0,1,77.515625,15)"><path transform="matrix(0.017,0,0,-0.017,0,0)" d="M146 266C146 526 243 632 301 700L282 726C225 675 60 542 60 266C60 159 85 58 133 -32C168 -99 200 -138 282 -215L301 -194C255 -137 146 -15 146 266Z" stroke="rgb(0,0,0)" stroke-opacity="1" stroke-width="8" fill="rgb(0,0,0)" fill-opacity="1"></path></g></g><g><g transform="matrix(1,0,0,1,83.171875,15)"><path transform="matrix(0.017,0,0,-0.017,0,0)" d="M9 1C24 -7 40 -11 52 -11C85 -11 124 18 155 65L231 182L242 113C255 28 278 -11 314 -11C336 -11 368 6 400 35L449 79L440 98C404 68 379 53 363 53C348 53 335 63 325 83C316 102 305 139 300 168L282 269L317 318C364 383 391 406 422 406C438 406 450 398 455 383L469 387L484 472C472 479 463 482 454 482C414 482 374 446 312 354L275 299L269 347C257 446 230 482 171 482C145 482 123 474 114 461L56 378L73 368C103 402 123 416 142 416C175 416 197 375 214 277L225 215L185 153C142 86 108 54 80 54C65 54 54 58 52 63L41 91L21 88C21 53 13 27 9 1Z" stroke="rgb(0,0,0)" stroke-opacity="1" stroke-width="8" fill="rgb(0,0,0)" fill-opacity="1"></path></g></g><g><g transform="matrix(1,0,0,1,91.65625,15)"><path transform="matrix(0.017,0,0,-0.017,0,0)" d="M51 726L32 700C87 636 187 526 187 266C187 -10 83 -131 32 -194L51 -215C104 -165 273 -23 273 265C273 542 108 675 51 726Z" stroke="rgb(0,0,0)" stroke-opacity="1" stroke-width="8" fill="rgb(0,0,0)" fill-opacity="1"></path></g></g></g></g><g><g><g><g transform="matrix(1,0,0,1,71.171875,40)"><path transform="matrix(0.017,0,0,-0.017,0,0)" d="M462 224C462 345 355 366 308 374C388 436 418 482 418 541C418 630 344 689 233 689C165 689 120 670 72 622L43 498L74 498L92 554C103 588 166 622 218 622C283 622 336 569 336 506C336 431 277 368 206 368C198 368 187 369 174 370L159 371L147 318L154 312C192 329 211 334 238 334C321 334 369 281 369 190C369 88 308 21 215 21C169 21 128 36 98 64C74 86 61 109 42 163L15 153C36 92 44 56 50 6C103 -12 147 -20 184 -20C307 -20 462 87 462 224Z" stroke="rgb(0,0,0)" stroke-opacity="1" stroke-width="8" fill="rgb(0,0,0)" fill-opacity="1"></path></g></g></g></g><line style="fill:none;stroke-width:1px;stroke:rgb(0, 0, 0);" x1="53.515625" y1="22.75" x2="97.3125" y2="22.75"></line></g></g></g></svg>