<svg xmlns="http://www.w3.org/2000/svg" xmlns:xlink="http://www.w3.org/1999/xlink" width="29.453125" height="24" style="width:29.453125px;height:24px;font-family:Asana-Math, Asana;background:transparent;"><g><g><g><g transform="matrix(1,0,0,1,2,19)"><path transform="matrix(0.017,0,0,-0.017,0,0)" d="M16 23L16 -3C203 -3 203 0 239 0C275 0 275 -3 468 -3L468 82C353 77 307 81 122 77L304 270C401 373 431 428 431 503C431 618 353 689 226 689C154 689 105 669 56 619L39 483L68 483L81 529C97 587 133 612 200 612C286 612 341 558 341 473C341 398 299 324 186 204ZM958 253C958 366 877 446 763 446C715 446 679 443 626 396L626 605L931 604L931 689L574 690L574 322L594 316C641 363 668 377 717 377C813 377 873 309 873 201C873 90 809 25 700 25C646 25 596 43 582 69L536 151L512 137C535 80 547 48 561 4C589 -11 629 -20 672 -20C800 -20 958 89 958 253ZM1261 689C1106 689 1027 566 1027 324C1027 207 1048 106 1083 57C1118 8 1174 -20 1236 -20C1387 -20 1463 110 1463 366C1463 585 1398 689 1261 689ZM1243 654C1340 654 1379 556 1379 316C1379 103 1341 15 1249 15C1152 15 1111 116 1111 360C1111 571 1148 654 1243 654Z" stroke="rgb(0,0,0)" stroke-opacity="1" stroke-width="0" fill="rgb(0,0,0)" fill-opacity="1"></path></g></g></g></g></svg>