<svg xmlns="http://www.w3.org/2000/svg" xmlns:xlink="http://www.w3.org/1999/xlink" width="82.203125" height="24" style="width:82.203125px;height:24px;font-family:Asana-Math, Asana;background:transparent;"><g><g><g><g transform="matrix(1,0,0,1,2,19)"><path transform="matrix(0.017,0,0,-0.017,0,0)" d="M168 345C127 326 110 315 88 294C50 256 30 211 30 159C30 56 113 -20 226 -20C356 -20 464 82 464 206C464 286 427 329 313 381C404 443 436 485 436 545C436 631 365 689 259 689C140 689 53 613 53 508C53 440 80 402 168 345ZM284 295C347 267 385 218 385 164C385 80 322 14 241 14C156 14 101 74 101 167C101 240 130 286 204 331ZM223 423C160 454 128 494 128 544C128 610 176 655 247 655C320 655 368 607 368 534C368 477 343 438 278 396ZM530 148C525 97 519 62 508 16C546 -2 580 -11 615 -11C664 -11 710 7 761 47C812 87 833 124 833 174C833 228 801 257 727 271L684 279C624 290 605 307 605 348C605 401 650 442 707 442C748 442 786 424 802 397L802 342L825 342C829 377 833 404 844 455C805 474 777 482 744 482C692 482 631 452 583 404C557 377 546 352 546 316C546 260 577 228 643 215L706 203C750 195 766 177 766 138C766 73 720 29 649 29C614 29 583 40 555 64L555 148ZM1215 111L1191 94C1138 56 1090 36 1054 36C1007 36 978 73 978 133C978 158 981 185 986 214C1003 218 1112 248 1137 259C1222 296 1261 342 1261 404C1261 451 1227 482 1177 482C1109 496 999 423 962 349C932 299 902 180 902 113C902 35 946 -11 1018 -11C1075 -11 1131 17 1223 92ZM1000 274C1017 343 1037 386 1066 412C1084 428 1115 440 1139 440C1168 440 1187 420 1187 388C1187 344 1152 297 1100 272C1072 258 1036 247 991 237ZM1617 330L1640 330C1648 395 1655 432 1664 458C1640 473 1605 482 1568 482C1523 483 1450 463 1393 400C1339 352 1300 241 1300 136C1300 40 1342 -11 1422 -11C1476 -11 1524 9 1579 54L1629 95L1621 115L1606 105C1534 57 1496 40 1461 40C1405 40 1376 80 1376 159C1376 267 1411 371 1460 409C1481 425 1505 433 1536 433C1581 433 1617 414 1617 390Z" stroke="rgb(0,0,0)" stroke-opacity="1" stroke-width="8" fill="rgb(0,0,0)" fill-opacity="1"></path></g></g><g><g transform="matrix(1,0,0,1,30.578125,19)"><path transform="matrix(0.017,0,0,-0.017,0,0)" d="M146 266C146 526 243 632 301 700L282 726C225 675 60 542 60 266C60 159 85 58 133 -32C168 -99 200 -138 282 -215L301 -194C255 -137 146 -15 146 266Z" stroke="rgb(0,0,0)" stroke-opacity="1" stroke-width="8" fill="rgb(0,0,0)" fill-opacity="1"></path></g></g><g><g transform="matrix(1,0,0,1,36.234375,19)"><path transform="matrix(0.017,0,0,-0.017,0,0)" d="M9 1C24 -7 40 -11 52 -11C85 -11 124 18 155 65L231 182L242 113C255 28 278 -11 314 -11C336 -11 368 6 400 35L449 79L440 98C404 68 379 53 363 53C348 53 335 63 325 83C316 102 305 139 300 168L282 269L317 318C364 383 391 406 422 406C438 406 450 398 455 383L469 387L484 472C472 479 463 482 454 482C414 482 374 446 312 354L275 299L269 347C257 446 230 482 171 482C145 482 123 474 114 461L56 378L73 368C103 402 123 416 142 416C175 416 197 375 214 277L225 215L185 153C142 86 108 54 80 54C65 54 54 58 52 63L41 91L21 88C21 53 13 27 9 1Z" stroke="rgb(0,0,0)" stroke-opacity="1" stroke-width="8" fill="rgb(0,0,0)" fill-opacity="1"></path></g></g><g><g transform="matrix(1,0,0,1,44.71875,19)"><path transform="matrix(0.017,0,0,-0.017,0,0)" d="M51 726L32 700C87 636 187 526 187 266C187 -10 83 -131 32 -194L51 -215C104 -165 273 -23 273 265C273 542 108 675 51 726Z" stroke="rgb(0,0,0)" stroke-opacity="1" stroke-width="8" fill="rgb(0,0,0)" fill-opacity="1"></path></g></g><g><g transform="matrix(1,0,0,1,53.765625,19)"><path transform="matrix(0.017,0,0,-0.017,0,0)" d="M604 241L604 300L364 300L364 538L305 538L305 300L65 300L65 241L305 241L305 0L364 0L364 241Z" stroke="rgb(0,0,0)" stroke-opacity="1" stroke-width="8" fill="rgb(0,0,0)" fill-opacity="1"></path></g></g><g><g transform="matrix(1,0,0,1,68.515625,19)"><path transform="matrix(0.017,0,0,-0.017,0,0)" d="M45 284C45 90 152 -18 343 -18C439 -18 510 5 600 67L610 103L600 110C506 53 454 35 376 35C219 35 133 131 133 309C133 447 190 653 418 653C489 653 541 639 597 603L597 519L624 519C629 576 637 619 651 665C575 694 518 706 456 706C276 706 45 578 45 284Z" stroke="rgb(0,0,0)" stroke-opacity="1" stroke-width="8" fill="rgb(0,0,0)" fill-opacity="1"></path></g></g></g></g></svg>