<svg xmlns="http://www.w3.org/2000/svg" xmlns:xlink="http://www.w3.org/1999/xlink" width="469.078125" height="200.65625" style="width:469.078125px;height:200.65625px;font-family:Asana-Math, Asana;background:transparent;"><g><g><g><g><g><g><text x="2" y="6.328125" style="white-space:pre;stroke:none;fill:rgb(0,0,0);fill-opacity:1;font-size:15px;font-family:Arial, Helvetica, sans-serif;font-weight:400;font-style:normal;dominant-baseline:text-before-edge;text-decoration:none solid rgb(0, 0, 0);">The area bounded by the functions</text></g></g></g></g><g><g transform="matrix(1,0,0,1,233.84375,20.328125)"><path transform="matrix(0.017,0,0,-0.017,0,0)" d="M594 437L578 437L599 549C615 635 643 673 689 673C719 673 746 658 761 634L771 638C776 654 786 685 794 705L799 720C783 727 752 733 729 733C718 733 702 730 694 726C670 715 588 654 565 630C543 608 531 578 520 521L505 442C464 422 444 414 419 405L414 383L495 383L486 327C456 132 419 -54 397 -123C379 -182 349 -213 313 -213C290 -213 279 -206 261 -184L247 -188C243 -211 229 -259 224 -268C233 -273 248 -276 259 -276C300 -276 354 -245 393 -198C464 -114 484 -18 568 383L672 383C676 402 683 425 689 439L685 446C656 439 657 437 594 437Z" stroke="rgb(0,0,0)" stroke-opacity="1" stroke-width="0" fill="rgb(0,0,0)" fill-opacity="1"></path></g></g><g><g transform="matrix(1,0,0,1,247.4375,20.328125)"><path transform="matrix(0.017,0,0,-0.017,0,0)" d="M146 266C146 526 243 632 301 700L282 726C225 675 60 542 60 266C60 159 85 58 133 -32C168 -99 200 -138 282 -215L301 -194C255 -137 146 -15 146 266Z" stroke="rgb(0,0,0)" stroke-opacity="1" stroke-width="0" fill="rgb(0,0,0)" fill-opacity="1"></path></g></g><g><g transform="matrix(1,0,0,1,253.09375,20.328125)"><path transform="matrix(0.017,0,0,-0.017,0,0)" d="M9 1C24 -7 40 -11 52 -11C85 -11 124 18 155 65L231 182L242 113C255 28 278 -11 314 -11C336 -11 368 6 400 35L449 79L440 98C404 68 379 53 363 53C348 53 335 63 325 83C316 102 305 139 300 168L282 269L317 318C364 383 391 406 422 406C438 406 450 398 455 383L469 387L484 472C472 479 463 482 454 482C414 482 374 446 312 354L275 299L269 347C257 446 230 482 171 482C145 482 123 474 114 461L56 378L73 368C103 402 123 416 142 416C175 416 197 375 214 277L225 215L185 153C142 86 108 54 80 54C65 54 54 58 52 63L41 91L21 88C21 53 13 27 9 1Z" stroke="rgb(0,0,0)" stroke-opacity="1" stroke-width="0" fill="rgb(0,0,0)" fill-opacity="1"></path></g></g><g><g transform="matrix(1,0,0,1,261.578125,20.328125)"><path transform="matrix(0.017,0,0,-0.017,0,0)" d="M51 726L32 700C87 636 187 526 187 266C187 -10 83 -131 32 -194L51 -215C104 -165 273 -23 273 265C273 542 108 675 51 726Z" stroke="rgb(0,0,0)" stroke-opacity="1" stroke-width="0" fill="rgb(0,0,0)" fill-opacity="1"></path></g></g><g><g transform="matrix(1,0,0,1,272.328125,20.328125)"><path transform="matrix(0.017,0,0,-0.017,0,0)" d="M604 347L604 406L65 406L65 347ZM604 134L604 193L65 193L65 134Z" stroke="rgb(0,0,0)" stroke-opacity="1" stroke-width="0" fill="rgb(0,0,0)" fill-opacity="1"></path></g></g><g><g transform="matrix(1,0,0,1,288.78125,20.328125)"><path transform="matrix(0.017,0,0,-0.017,0,0)" d="M9 1C24 -7 40 -11 52 -11C85 -11 124 18 155 65L231 182L242 113C255 28 278 -11 314 -11C336 -11 368 6 400 35L449 79L440 98C404 68 379 53 363 53C348 53 335 63 325 83C316 102 305 139 300 168L282 269L317 318C364 383 391 406 422 406C438 406 450 398 455 383L469 387L484 472C472 479 463 482 454 482C414 482 374 446 312 354L275 299L269 347C257 446 230 482 171 482C145 482 123 474 114 461L56 378L73 368C103 402 123 416 142 416C175 416 197 375 214 277L225 215L185 153C142 86 108 54 80 54C65 54 54 58 52 63L41 91L21 88C21 53 13 27 9 1Z" stroke="rgb(0,0,0)" stroke-opacity="1" stroke-width="0" fill="rgb(0,0,0)" fill-opacity="1"></path></g></g><g><g><g><g><g transform="matrix(1,0,0,1,298.234375,13.9)"><path transform="matrix(0.0119,0,0,-0.0119,0,0)" d="M462 224C462 345 355 366 308 374C388 436 418 482 418 541C418 630 344 689 233 689C165 689 120 670 72 622L43 498L74 498L92 554C103 588 166 622 218 622C283 622 336 569 336 506C336 431 277 368 206 368C198 368 187 369 174 370L159 371L147 318L154 312C192 329 211 334 238 334C321 334 369 281 369 190C369 88 308 21 215 21C169 21 128 36 98 64C74 86 61 109 42 163L15 153C36 92 44 56 50 6C103 -12 147 -20 184 -20C307 -20 462 87 462 224Z" stroke="rgb(0,0,0)" stroke-opacity="1" stroke-width="0" fill="rgb(0,0,0)" fill-opacity="1"></path></g></g></g></g></g><g><g transform="matrix(1,0,0,1,308.59375,20.328125)"><path transform="matrix(0.017,0,0,-0.017,0,0)" d="M604 241L604 300L364 300L364 538L305 538L305 300L65 300L65 241L305 241L305 0L364 0L364 241Z" stroke="rgb(0,0,0)" stroke-opacity="1" stroke-width="0" fill="rgb(0,0,0)" fill-opacity="1"></path></g></g><g><g transform="matrix(1,0,0,1,323.34375,20.328125)"><path transform="matrix(0.017,0,0,-0.017,0,0)" d="M16 23L16 -3C203 -3 203 0 239 0C275 0 275 -3 468 -3L468 82C353 77 307 81 122 77L304 270C401 373 431 428 431 503C431 618 353 689 226 689C154 689 105 669 56 619L39 483L68 483L81 529C97 587 133 612 200 612C286 612 341 558 341 473C341 398 299 324 186 204ZM508 1C523 -7 539 -11 551 -11C584 -11 623 18 654 65L730 182L741 113C754 28 777 -11 813 -11C835 -11 867 6 899 35L948 79L939 98C903 68 878 53 862 53C847 53 834 63 824 83C815 102 804 139 799 168L781 269L816 318C863 383 890 406 921 406C937 406 949 398 954 383L968 387L983 472C971 479 962 482 953 482C913 482 873 446 811 354L774 299L768 347C756 446 729 482 670 482C644 482 622 474 613 461L555 378L572 368C602 402 622 416 641 416C674 416 696 375 713 277L724 215L684 153C641 86 607 54 579 54C564 54 553 58 551 63L540 91L520 88C520 53 512 27 508 1Z" stroke="rgb(0,0,0)" stroke-opacity="1" stroke-width="0" fill="rgb(0,0,0)" fill-opacity="1"></path></g></g><g><g><g><g><text x="344.546875" y="6.328125" style="white-space:pre;stroke:none;fill:rgb(0,0,0);fill-opacity:1;font-size:15px;font-family:Arial, Helvetica, sans-serif;font-weight:400;font-style:normal;dominant-baseline:text-before-edge;text-decoration:none solid rgb(0, 0, 0);">, </text></g></g></g></g><g><g transform="matrix(1,0,0,1,352.890625,20.328125)"><path transform="matrix(0.017,0,0,-0.017,0,0)" d="M236 722L224 733C179 711 138 697 64 691L60 670L108 670C126 670 142 667 142 647C142 641 142 632 140 622L98 388C78 272 36 80 10 2L17 -9L86 7C94 64 108 164 148 236C193 317 296 414 338 414C349 414 360 407 360 393C360 375 355 342 345 303L294 107C288 85 281 55 281 31C281 6 291 -9 312 -9C344 -9 412 41 471 85L461 103L435 86C412 71 386 56 374 56C367 56 361 65 361 76C361 88 364 101 368 116L432 372C438 398 443 423 443 447C443 464 437 482 411 482C376 482 299 437 231 374C198 343 172 308 144 273L140 275Z" stroke="rgb(0,0,0)" stroke-opacity="1" stroke-width="0" fill="rgb(0,0,0)" fill-opacity="1"></path></g></g><g><g transform="matrix(1,0,0,1,361.375,20.328125)"><path transform="matrix(0.017,0,0,-0.017,0,0)" d="M146 266C146 526 243 632 301 700L282 726C225 675 60 542 60 266C60 159 85 58 133 -32C168 -99 200 -138 282 -215L301 -194C255 -137 146 -15 146 266Z" stroke="rgb(0,0,0)" stroke-opacity="1" stroke-width="0" fill="rgb(0,0,0)" fill-opacity="1"></path></g></g><g><g transform="matrix(1,0,0,1,367.03125,20.328125)"><path transform="matrix(0.017,0,0,-0.017,0,0)" d="M9 1C24 -7 40 -11 52 -11C85 -11 124 18 155 65L231 182L242 113C255 28 278 -11 314 -11C336 -11 368 6 400 35L449 79L440 98C404 68 379 53 363 53C348 53 335 63 325 83C316 102 305 139 300 168L282 269L317 318C364 383 391 406 422 406C438 406 450 398 455 383L469 387L484 472C472 479 463 482 454 482C414 482 374 446 312 354L275 299L269 347C257 446 230 482 171 482C145 482 123 474 114 461L56 378L73 368C103 402 123 416 142 416C175 416 197 375 214 277L225 215L185 153C142 86 108 54 80 54C65 54 54 58 52 63L41 91L21 88C21 53 13 27 9 1Z" stroke="rgb(0,0,0)" stroke-opacity="1" stroke-width="0" fill="rgb(0,0,0)" fill-opacity="1"></path></g></g><g><g transform="matrix(1,0,0,1,375.515625,20.328125)"><path transform="matrix(0.017,0,0,-0.017,0,0)" d="M51 726L32 700C87 636 187 526 187 266C187 -10 83 -131 32 -194L51 -215C104 -165 273 -23 273 265C273 542 108 675 51 726Z" stroke="rgb(0,0,0)" stroke-opacity="1" stroke-width="0" fill="rgb(0,0,0)" fill-opacity="1"></path></g></g><g><g transform="matrix(1,0,0,1,386.265625,20.328125)"><path transform="matrix(0.017,0,0,-0.017,0,0)" d="M604 347L604 406L65 406L65 347ZM604 134L604 193L65 193L65 134Z" stroke="rgb(0,0,0)" stroke-opacity="1" stroke-width="0" fill="rgb(0,0,0)" fill-opacity="1"></path></g></g><g><g transform="matrix(1,0,0,1,406.109375,20.328125)"><path transform="matrix(0.017,0,0,-0.017,0,0)" d="M555 243L555 299L51 299L51 243Z" stroke="rgb(0,0,0)" stroke-opacity="1" stroke-width="0" fill="rgb(0,0,0)" fill-opacity="1"></path></g></g><g><g transform="matrix(1,0,0,1,419.796875,20.328125)"><path transform="matrix(0.017,0,0,-0.017,0,0)" d="M9 1C24 -7 40 -11 52 -11C85 -11 124 18 155 65L231 182L242 113C255 28 278 -11 314 -11C336 -11 368 6 400 35L449 79L440 98C404 68 379 53 363 53C348 53 335 63 325 83C316 102 305 139 300 168L282 269L317 318C364 383 391 406 422 406C438 406 450 398 455 383L469 387L484 472C472 479 463 482 454 482C414 482 374 446 312 354L275 299L269 347C257 446 230 482 171 482C145 482 123 474 114 461L56 378L73 368C103 402 123 416 142 416C175 416 197 375 214 277L225 215L185 153C142 86 108 54 80 54C65 54 54 58 52 63L41 91L21 88C21 53 13 27 9 1Z" stroke="rgb(0,0,0)" stroke-opacity="1" stroke-width="0" fill="rgb(0,0,0)" fill-opacity="1"></path></g></g><g><g><g><g><g transform="matrix(1,0,0,1,429.25,13.9)"><path transform="matrix(0.0119,0,0,-0.0119,0,0)" d="M16 23L16 -3C203 -3 203 0 239 0C275 0 275 -3 468 -3L468 82C353 77 307 81 122 77L304 270C401 373 431 428 431 503C431 618 353 689 226 689C154 689 105 669 56 619L39 483L68 483L81 529C97 587 133 612 200 612C286 612 341 558 341 473C341 398 299 324 186 204Z" stroke="rgb(0,0,0)" stroke-opacity="1" stroke-width="0" fill="rgb(0,0,0)" fill-opacity="1"></path></g></g></g></g></g><g><g transform="matrix(1,0,0,1,439.609375,20.328125)"><path transform="matrix(0.017,0,0,-0.017,0,0)" d="M604 241L604 300L364 300L364 538L305 538L305 300L65 300L65 241L305 241L305 0L364 0L364 241Z" stroke="rgb(0,0,0)" stroke-opacity="1" stroke-width="0" fill="rgb(0,0,0)" fill-opacity="1"></path></g></g><g><g transform="matrix(1,0,0,1,454.359375,20.328125)"><path transform="matrix(0.017,0,0,-0.017,0,0)" d="M462 224C462 345 355 366 308 374C388 436 418 482 418 541C418 630 344 689 233 689C165 689 120 670 72 622L43 498L74 498L92 554C103 588 166 622 218 622C283 622 336 569 336 506C336 431 277 368 206 368C198 368 187 369 174 370L159 371L147 318L154 312C192 329 211 334 238 334C321 334 369 281 369 190C369 88 308 21 215 21C169 21 128 36 98 64C74 86 61 109 42 163L15 153C36 92 44 56 50 6C103 -12 147 -20 184 -20C307 -20 462 87 462 224Z" stroke="rgb(0,0,0)" stroke-opacity="1" stroke-width="0" fill="rgb(0,0,0)" fill-opacity="1"></path></g></g></g><g><g><g><g><g><text x="76.671875" y="28.328125" style="white-space:pre;stroke:none;fill:rgb(0,0,0);fill-opacity:1;font-size:15px;font-family:Arial, Helvetica, sans-serif;font-weight:400;font-style:normal;dominant-baseline:text-before-edge;text-decoration:none solid rgb(0, 0, 0);">and the lines </text></g></g></g></g><g><g transform="matrix(1,0,0,1,165.90625,42.328125)"><path transform="matrix(0.017,0,0,-0.017,0,0)" d="M9 1C24 -7 40 -11 52 -11C85 -11 124 18 155 65L231 182L242 113C255 28 278 -11 314 -11C336 -11 368 6 400 35L449 79L440 98C404 68 379 53 363 53C348 53 335 63 325 83C316 102 305 139 300 168L282 269L317 318C364 383 391 406 422 406C438 406 450 398 455 383L469 387L484 472C472 479 463 482 454 482C414 482 374 446 312 354L275 299L269 347C257 446 230 482 171 482C145 482 123 474 114 461L56 378L73 368C103 402 123 416 142 416C175 416 197 375 214 277L225 215L185 153C142 86 108 54 80 54C65 54 54 58 52 63L41 91L21 88C21 53 13 27 9 1Z" stroke="rgb(0,0,0)" stroke-opacity="1" stroke-width="0" fill="rgb(0,0,0)" fill-opacity="1"></path></g></g><g><g transform="matrix(1,0,0,1,179.484375,42.328125)"><path transform="matrix(0.017,0,0,-0.017,0,0)" d="M604 347L604 406L65 406L65 347ZM604 134L604 193L65 193L65 134Z" stroke="rgb(0,0,0)" stroke-opacity="1" stroke-width="0" fill="rgb(0,0,0)" fill-opacity="1"></path></g></g><g><g transform="matrix(1,0,0,1,195.9375,42.328125)"><path transform="matrix(0.017,0,0,-0.017,0,0)" d="M263 689C108 689 29 566 29 324C29 207 50 106 85 57C120 8 176 -20 238 -20C389 -20 465 110 465 366C465 585 400 689 263 689ZM245 654C342 654 381 556 381 316C381 103 343 15 251 15C154 15 113 116 113 360C113 571 150 654 245 654Z" stroke="rgb(0,0,0)" stroke-opacity="1" stroke-width="0" fill="rgb(0,0,0)" fill-opacity="1"></path></g></g><g><g><g><g><text x="208.65625" y="28.328125" style="white-space:pre;stroke:none;fill:rgb(0,0,0);fill-opacity:1;font-size:15px;font-family:Arial, Helvetica, sans-serif;font-weight:400;font-style:normal;dominant-baseline:text-before-edge;text-decoration:none solid rgb(0, 0, 0);">and</text></g></g></g></g><g><g transform="matrix(1,0,0,1,233.6875,42.328125)"><path transform="matrix(0.017,0,0,-0.017,0,0)" d="M258 1C273 -7 289 -11 301 -11C334 -11 373 18 404 65L480 182L491 113C504 28 527 -11 563 -11C585 -11 617 6 649 35L698 79L689 98C653 68 628 53 612 53C597 53 584 63 574 83C565 102 554 139 549 168L531 269L566 318C613 383 640 406 671 406C687 406 699 398 704 383L718 387L733 472C721 479 712 482 703 482C663 482 623 446 561 354L524 299L518 347C506 446 479 482 420 482C394 482 372 474 363 461L305 378L322 368C352 402 372 416 391 416C424 416 446 375 463 277L474 215L434 153C391 86 357 54 329 54C314 54 303 58 301 63L290 91L270 88C270 53 262 27 258 1Z" stroke="rgb(0,0,0)" stroke-opacity="1" stroke-width="0" fill="rgb(0,0,0)" fill-opacity="1"></path></g></g><g><g transform="matrix(1,0,0,1,251.5,42.328125)"><path transform="matrix(0.017,0,0,-0.017,0,0)" d="M604 347L604 406L65 406L65 347ZM604 134L604 193L65 193L65 134Z" stroke="rgb(0,0,0)" stroke-opacity="1" stroke-width="0" fill="rgb(0,0,0)" fill-opacity="1"></path></g></g><g><g transform="matrix(1,0,0,1,267.953125,42.328125)"><path transform="matrix(0.017,0,0,-0.017,0,0)" d="M459 253C459 366 378 446 264 446C216 446 180 443 127 396L127 605L432 604L432 689L75 690L75 322L95 316C142 363 169 377 218 377C314 377 374 309 374 201C374 90 310 25 201 25C147 25 97 43 83 69L37 151L13 137C36 80 48 48 62 4C90 -11 130 -20 173 -20C301 -20 459 89 459 253Z" stroke="rgb(0,0,0)" stroke-opacity="1" stroke-width="0" fill="rgb(0,0,0)" fill-opacity="1"></path></g></g><g><g><g><g><text x="280.671875" y="28.328125" style="white-space:pre;stroke:none;fill:rgb(0,0,0);fill-opacity:1;font-size:15px;font-family:Arial, Helvetica, sans-serif;font-weight:400;font-style:normal;dominant-baseline:text-before-edge;text-decoration:none solid rgb(0, 0, 0);">is a base of solid</text></g></g></g></g></g><g><g><g><g><g><text x="194.046875" y="50.328125" style="white-space:pre;stroke:none;fill:rgb(0,0,0);fill-opacity:1;font-size:15px;font-family:Arial, Helvetica, sans-serif;font-weight:400;font-style:normal;dominant-baseline:text-before-edge;text-decoration:none solid rgb(0, 0, 0);">defined as</text></g></g></g></g><g><g transform="matrix(1,0,0,1,263.28125,64.328125)"><path transform="matrix(0.017,0,0,-0.017,0,0)" d="M571 -11C583 -11 592 -9 621 -1C632 61 640 95 651 142L629 142L607 82C601 64 589 57 568 57C556 57 540 59 519 64L501 68C468 75 434 80 415 80C383 80 356 74 320 59L659 441L665 473L656 482L633 459C623 449 613 445 599 445C565 445 513 453 465 466L447 471C419 478 399 482 385 482C368 482 348 479 324 472L292 350L313 350L343 408C360 412 369 413 382 413C423 413 455 398 508 398C544 398 568 404 601 421L248 21L257 -6C286 17 313 26 348 26C411 26 502 -11 571 -11Z" stroke="rgb(0,0,0)" stroke-opacity="1" stroke-width="0" fill="rgb(0,0,0)" fill-opacity="1"></path></g></g></g><g><g><g><g><g><text x="25.953125" y="72.328125" style="white-space:pre;stroke:none;fill:rgb(0,0,0);fill-opacity:1;font-size:15px;font-family:Arial, Helvetica, sans-serif;font-weight:400;font-style:normal;dominant-baseline:text-before-edge;text-decoration:none solid rgb(0, 0, 0);">For each value of</text></g></g></g></g><g><g transform="matrix(1,0,0,1,141.859375,86.328125)"><path transform="matrix(0.017,0,0,-0.017,0,0)" d="M258 1C273 -7 289 -11 301 -11C334 -11 373 18 404 65L480 182L491 113C504 28 527 -11 563 -11C585 -11 617 6 649 35L698 79L689 98C653 68 628 53 612 53C597 53 584 63 574 83C565 102 554 139 549 168L531 269L566 318C613 383 640 406 671 406C687 406 699 398 704 383L718 387L733 472C721 479 712 482 703 482C663 482 623 446 561 354L524 299L518 347C506 446 479 482 420 482C394 482 372 474 363 461L305 378L322 368C352 402 372 416 391 416C424 416 446 375 463 277L474 215L434 153C391 86 357 54 329 54C314 54 303 58 301 63L290 91L270 88C270 53 262 27 258 1Z" stroke="rgb(0,0,0)" stroke-opacity="1" stroke-width="0" fill="rgb(0,0,0)" fill-opacity="1"></path></g></g><g><g><g><g><text x="158.8125" y="72.328125" style="white-space:pre;stroke:none;fill:rgb(0,0,0);fill-opacity:1;font-size:15px;font-family:Arial, Helvetica, sans-serif;font-weight:400;font-style:normal;dominant-baseline:text-before-edge;text-decoration:none solid rgb(0, 0, 0);">the cross section of the solid perpendicular</text></g></g></g></g></g><g><g><g><g><g><text x="92.6875" y="94.328125" style="white-space:pre;stroke:none;fill:rgb(0,0,0);fill-opacity:1;font-size:15px;font-family:Arial, Helvetica, sans-serif;font-weight:400;font-style:normal;dominant-baseline:text-before-edge;text-decoration:none solid rgb(0, 0, 0);">to the </text></g></g></g></g><g><g transform="matrix(1,0,0,1,134.390625,108.328125)"><path transform="matrix(0.017,0,0,-0.017,0,0)" d="M9 1C24 -7 40 -11 52 -11C85 -11 124 18 155 65L231 182L242 113C255 28 278 -11 314 -11C336 -11 368 6 400 35L449 79L440 98C404 68 379 53 363 53C348 53 335 63 325 83C316 102 305 139 300 168L282 269L317 318C364 383 391 406 422 406C438 406 450 398 455 383L469 387L484 472C472 479 463 482 454 482C414 482 374 446 312 354L275 299L269 347C257 446 230 482 171 482C145 482 123 474 114 461L56 378L73 368C103 402 123 416 142 416C175 416 197 375 214 277L225 215L185 153C142 86 108 54 80 54C65 54 54 58 52 63L41 91L21 88C21 53 13 27 9 1Z" stroke="rgb(0,0,0)" stroke-opacity="1" stroke-width="0" fill="rgb(0,0,0)" fill-opacity="1"></path></g></g><g><g><g><g><text x="147.109375" y="94.328125" style="white-space:pre;stroke:none;fill:rgb(0,0,0);fill-opacity:1;font-size:15px;font-family:Arial, Helvetica, sans-serif;font-weight:400;font-style:normal;dominant-baseline:text-before-edge;text-decoration:none solid rgb(0, 0, 0);">axis is a rectangle with a base that</text></g></g></g></g></g><g><g><g><g><g><text x="145.71875" y="129.65625" style="white-space:pre;stroke:none;fill:rgb(0,0,0);fill-opacity:1;font-size:15px;font-family:Arial, Helvetica, sans-serif;font-weight:400;font-style:normal;dominant-baseline:text-before-edge;text-decoration:none solid rgb(0, 0, 0);">lies in</text></g></g></g></g><g><g transform="matrix(1,0,0,1,184.078125,143.65625)"><path transform="matrix(0.017,0,0,-0.017,0,0)" d="M571 -11C583 -11 592 -9 621 -1C632 61 640 95 651 142L629 142L607 82C601 64 589 57 568 57C556 57 540 59 519 64L501 68C468 75 434 80 415 80C383 80 356 74 320 59L659 441L665 473L656 482L633 459C623 449 613 445 599 445C565 445 513 453 465 466L447 471C419 478 399 482 385 482C368 482 348 479 324 472L292 350L313 350L343 408C360 412 369 413 382 413C423 413 455 398 508 398C544 398 568 404 601 421L248 21L257 -6C286 17 313 26 348 26C411 26 502 -11 571 -11Z" stroke="rgb(0,0,0)" stroke-opacity="1" stroke-width="0" fill="rgb(0,0,0)" fill-opacity="1"></path></g></g><g><g><g><g><text x="200.078125" y="129.65625" style="white-space:pre;stroke:none;fill:rgb(0,0,0);fill-opacity:1;font-size:15px;font-family:Arial, Helvetica, sans-serif;font-weight:400;font-style:normal;dominant-baseline:text-before-edge;text-decoration:none solid rgb(0, 0, 0);">and a height of</text></g></g></g></g><g><g transform="matrix(1,0,0,1,299.34375,143.65625)"><path transform="matrix(0.017,0,0,-0.017,0,0)" d="" stroke="rgb(0,0,0)" stroke-opacity="1" stroke-width="0" fill="rgb(0,0,0)" fill-opacity="1"></path></g></g><g><g><g><g><g transform="matrix(1,0,0,1,305.265625,131.65625)"><path transform="matrix(0.017,0,0,-0.017,0,0)" d="M9 1C24 -7 40 -11 52 -11C85 -11 124 18 155 65L231 182L242 113C255 28 278 -11 314 -11C336 -11 368 6 400 35L449 79L440 98C404 68 379 53 363 53C348 53 335 63 325 83C316 102 305 139 300 168L282 269L317 318C364 383 391 406 422 406C438 406 450 398 455 383L469 387L484 472C472 479 463 482 454 482C414 482 374 446 312 354L275 299L269 347C257 446 230 482 171 482C145 482 123 474 114 461L56 378L73 368C103 402 123 416 142 416C175 416 197 375 214 277L225 215L185 153C142 86 108 54 80 54C65 54 54 58 52 63L41 91L21 88C21 53 13 27 9 1Z" stroke="rgb(0,0,0)" stroke-opacity="1" stroke-width="0" fill="rgb(0,0,0)" fill-opacity="1"></path></g></g><g><g><g><g><g transform="matrix(1,0,0,1,314.71875,125.228125)"><path transform="matrix(0.0119,0,0,-0.0119,0,0)" d="M16 23L16 -3C203 -3 203 0 239 0C275 0 275 -3 468 -3L468 82C353 77 307 81 122 77L304 270C401 373 431 428 431 503C431 618 353 689 226 689C154 689 105 669 56 619L39 483L68 483L81 529C97 587 133 612 200 612C286 612 341 558 341 473C341 398 299 324 186 204Z" stroke="rgb(0,0,0)" stroke-opacity="1" stroke-width="0" fill="rgb(0,0,0)" fill-opacity="1"></path></g></g></g></g></g></g></g><g><g><g><g transform="matrix(1,0,0,1,309.234375,156.65625)"><path transform="matrix(0.017,0,0,-0.017,0,0)" d="M16 23L16 -3C203 -3 203 0 239 0C275 0 275 -3 468 -3L468 82C353 77 307 81 122 77L304 270C401 373 431 428 431 503C431 618 353 689 226 689C154 689 105 669 56 619L39 483L68 483L81 529C97 587 133 612 200 612C286 612 341 558 341 473C341 398 299 324 186 204Z" stroke="rgb(0,0,0)" stroke-opacity="1" stroke-width="0" fill="rgb(0,0,0)" fill-opacity="1"></path></g></g></g></g><line style="fill:none;stroke-width:1px;stroke:rgb(0, 0, 0);" x1="305.265625" y1="139.40625" x2="321.6875" y2="139.40625"></line></g></g><g><g><g><g><g><text x="132.40625" y="159.65625" style="white-space:pre;stroke:none;fill:rgb(0,0,0);fill-opacity:1;font-size:15px;font-family:Arial, Helvetica, sans-serif;font-weight:400;font-style:normal;dominant-baseline:text-before-edge;text-decoration:none solid rgb(0, 0, 0);">What is the volume of the solid</text></g></g></g></g></g><g></g></g></svg>