<svg xmlns="http://www.w3.org/2000/svg" xmlns:xlink="http://www.w3.org/1999/xlink" width="20.96875" height="24" style="width:20.96875px;height:24px;font-family:Asana-Math, Asana;background:transparent;"><g><g><g><g transform="matrix(1,0,0,1,2,19)"><path transform="matrix(0.017,0,0,-0.017,0,0)" d="M418 -3L418 27L366 30C311 33 301 44 301 96L301 700L60 598L67 548L217 614L217 96C217 44 206 33 152 30L96 27L96 -3C250 0 250 0 261 0C292 0 402 -3 418 -3ZM779 181L779 106C779 46 768 32 719 30L657 27L657 -3C790 0 790 0 814 0C838 0 838 0 971 -3L971 27L923 30C874 33 863 46 863 106L863 181C922 181 943 180 971 177L971 248L863 245L864 697L784 667L501 204L501 181ZM779 245L564 245L779 597Z" stroke="rgb(0,0,0)" stroke-opacity="1" stroke-width="8" fill="rgb(0,0,0)" fill-opacity="1"></path></g></g></g></g></svg>