<svg xmlns="http://www.w3.org/2000/svg" xmlns:xlink="http://www.w3.org/1999/xlink" width="23.59375" height="24" style="width:23.59375px;height:24px;font-family:Asana-Math, Asana;background:transparent;"><g><g><g><g transform="matrix(1,0,0,1,2,19)"><path transform="matrix(0.017,0,0,-0.017,0,0)" d="M280 181L280 106C280 46 269 32 220 30L158 27L158 -3C291 0 291 0 315 0C339 0 339 0 472 -3L472 27L424 30C375 33 364 46 364 106L364 181C423 181 444 180 472 177L472 248L364 245L365 697L285 667L2 204L2 181ZM280 245L65 245L280 597ZM1024 42C968 42 963 125 964 166C965 251 993 333 1036 405L1098 418C1101 435 1107 452 1112 467C958 461 799 463 644 466C579 467 565 389 546 340C545 332 558 331 562 328L562 332C605 395 629 405 704 405L727 405C687 266 660 129 597 -2L597 -12C617 -6 652 1 669 13C710 141 739 274 767 405L994 405C937 318 896 213 894 108C894 59 909 -15 970 -15C1011 -15 1067 25 1097 51L1097 66L1085 66L1085 67C1067 56 1047 42 1024 42Z" stroke="rgb(0,0,0)" stroke-opacity="1" stroke-width="8" fill="rgb(0,0,0)" fill-opacity="1"></path></g></g></g></g></svg>