<svg xmlns="http://www.w3.org/2000/svg" xmlns:xlink="http://www.w3.org/1999/xlink" width="462.59375" height="86" style="width:462.59375px;height:86px;font-family:Asana-Math, Asana;background:transparent;"><g><g><g><g><g><g><text x="28.171875" y="13" style="white-space:pre;stroke:none;fill:rgb(0,0,0);fill-opacity:1;font-size:15px;font-family:Arial, Helvetica, sans-serif;font-weight:400;font-style:normal;dominant-baseline:text-before-edge;text-decoration:none solid rgb(0, 0, 0);">Patrick&#x27;s train is moving with a velocity of </text></g></g></g></g><g><g transform="matrix(1,0,0,1,303.640625,27)"><path transform="matrix(0.017,0,0,-0.017,0,0)" d="M166 420C187 420 203 421 229 424C118 304 76 221 76 121C76 44 122 -11 186 -11C324 -11 477 236 477 384C477 441 451 482 415 482C402 482 390 478 382 470L332 423L343 404C352 410 361 413 370 413C397 413 413 390 413 350C413 202 316 39 228 39C179 39 148 81 148 146C148 251 187 342 285 464L275 482C255 473 242 470 214 470C186 470 144 472 115 475L103 476C97 477 92 477 91 477C79 477 70 475 59 470C45 443 34 407 21 352L43 352L60 394C67 411 87 422 111 422C144 422 128 420 166 420Z" stroke="rgb(0,0,0)" stroke-opacity="1" stroke-width="8" fill="rgb(0,0,0)" fill-opacity="1"></path></g></g><g><g transform="matrix(1,0,0,1,312.125,27)"><path transform="matrix(0.017,0,0,-0.017,0,0)" d="M146 266C146 526 243 632 301 700L282 726C225 675 60 542 60 266C60 159 85 58 133 -32C168 -99 200 -138 282 -215L301 -194C255 -137 146 -15 146 266Z" stroke="rgb(0,0,0)" stroke-opacity="1" stroke-width="8" fill="rgb(0,0,0)" fill-opacity="1"></path></g></g><g><g transform="matrix(1,0,0,1,317.78125,27)"><path transform="matrix(0.017,0,0,-0.017,0,0)" d="M125 390L69 107C68 99 56 61 56 31C56 6 67 -9 86 -9C121 -9 156 11 234 74L265 99L255 117L210 86C181 66 161 56 150 56C141 56 136 64 136 76C136 102 150 183 179 328L192 390L299 390L310 440C272 436 238 434 200 434C216 528 227 577 245 631L234 646C214 634 187 622 156 610L131 440C87 419 61 408 43 403L41 390Z" stroke="rgb(0,0,0)" stroke-opacity="1" stroke-width="8" fill="rgb(0,0,0)" fill-opacity="1"></path></g></g><g><g transform="matrix(1,0,0,1,323.4375,27)"><path transform="matrix(0.017,0,0,-0.017,0,0)" d="M51 726L32 700C87 636 187 526 187 266C187 -10 83 -131 32 -194L51 -215C104 -165 273 -23 273 265C273 542 108 675 51 726Z" stroke="rgb(0,0,0)" stroke-opacity="1" stroke-width="8" fill="rgb(0,0,0)" fill-opacity="1"></path></g></g><g><g transform="matrix(1,0,0,1,334.1875,27)"><path transform="matrix(0.017,0,0,-0.017,0,0)" d="M604 347L604 406L65 406L65 347ZM604 134L604 193L65 193L65 134Z" stroke="rgb(0,0,0)" stroke-opacity="1" stroke-width="8" fill="rgb(0,0,0)" fill-opacity="1"></path></g></g><g><g transform="matrix(1,0,0,1,350.640625,27)"><path transform="matrix(0.017,0,0,-0.017,0,0)" d="M125 390L69 107C68 99 56 61 56 31C56 6 67 -9 86 -9C121 -9 156 11 234 74L265 99L255 117L210 86C181 66 161 56 150 56C141 56 136 64 136 76C136 102 150 183 179 328L192 390L299 390L310 440C272 436 238 434 200 434C216 528 227 577 245 631L234 646C214 634 187 622 156 610L131 440C87 419 61 408 43 403L41 390Z" stroke="rgb(0,0,0)" stroke-opacity="1" stroke-width="8" fill="rgb(0,0,0)" fill-opacity="1"></path></g></g><g><g><g><g><g transform="matrix(1,0,0,1,357.265625,20.571875)"><path transform="matrix(0.0119,0,0,-0.0119,0,0)" d="M16 23L16 -3C203 -3 203 0 239 0C275 0 275 -3 468 -3L468 82C353 77 307 81 122 77L304 270C401 373 431 428 431 503C431 618 353 689 226 689C154 689 105 669 56 619L39 483L68 483L81 529C97 587 133 612 200 612C286 612 341 558 341 473C341 398 299 324 186 204Z" stroke="rgb(0,0,0)" stroke-opacity="1" stroke-width="8" fill="rgb(0,0,0)" fill-opacity="1"></path></g></g></g></g></g><g><g transform="matrix(1,0,0,1,367.625,27)"><path transform="matrix(0.017,0,0,-0.017,0,0)" d="M604 241L604 300L364 300L364 538L305 538L305 300L65 300L65 241L305 241L305 0L364 0L364 241Z" stroke="rgb(0,0,0)" stroke-opacity="1" stroke-width="8" fill="rgb(0,0,0)" fill-opacity="1"></path></g></g><g><g transform="matrix(1,0,0,1,382.375,27)"><path transform="matrix(0.017,0,0,-0.017,0,0)" d="M125 390L69 107C68 99 56 61 56 31C56 6 67 -9 86 -9C121 -9 156 11 234 74L265 99L255 117L210 86C181 66 161 56 150 56C141 56 136 64 136 76C136 102 150 183 179 328L192 390L299 390L310 440C272 436 238 434 200 434C216 528 227 577 245 631L234 646C214 634 187 622 156 610L131 440C87 419 61 408 43 403L41 390Z" stroke="rgb(0,0,0)" stroke-opacity="1" stroke-width="8" fill="rgb(0,0,0)" fill-opacity="1"></path></g></g><g><g transform="matrix(1,0,0,1,391.421875,27)"><path transform="matrix(0.017,0,0,-0.017,0,0)" d="M555 243L555 299L51 299L51 243Z" stroke="rgb(0,0,0)" stroke-opacity="1" stroke-width="8" fill="rgb(0,0,0)" fill-opacity="1"></path></g></g><g><g transform="matrix(1,0,0,1,405.109375,27)"><path transform="matrix(0.017,0,0,-0.017,0,0)" d="M459 253C459 366 378 446 264 446C216 446 180 443 127 396L127 605L432 604L432 689L75 690L75 322L95 316C142 363 169 377 218 377C314 377 374 309 374 201C374 90 310 25 201 25C147 25 97 43 83 69L37 151L13 137C36 80 48 48 62 4C90 -11 130 -20 173 -20C301 -20 459 89 459 253Z" stroke="rgb(0,0,0)" stroke-opacity="1" stroke-width="8" fill="rgb(0,0,0)" fill-opacity="1"></path></g></g><g><g><g><g><g transform="matrix(1,0,0,1,419.515625,15)"><path transform="matrix(0.017,0,0,-0.017,0,0)" d="M730 103L704 86C675 67 653 56 643 56C636 56 630 65 630 76C630 86 632 95 637 116L712 413C716 430 719 446 719 454C719 471 709 482 693 482C664 482 626 464 565 421C502 376 467 341 418 272L448 409C452 429 455 444 455 451C455 470 445 482 429 482C399 482 353 460 298 418C254 384 234 363 169 275L202 408C206 424 208 439 208 451C208 470 199 482 185 482C164 482 126 461 52 408L24 388L31 368C68 391 103 414 110 414C121 414 128 404 128 389C128 338 87 145 46 2L49 -9L117 6L139 108C163 219 190 278 245 338C287 384 332 414 360 414C367 414 371 406 371 393C371 358 349 244 308 69L292 2L297 -9L366 6L387 113C403 194 437 269 481 318C536 379 586 414 618 414C626 414 631 405 631 389C631 365 628 351 606 264C566 105 550 84 550 31C550 6 561 -9 580 -9C606 -9 642 12 740 85Z" stroke="rgb(0,0,0)" stroke-opacity="1" stroke-width="8" fill="rgb(0,0,0)" fill-opacity="1"></path></g></g></g></g><g><g><g><g transform="matrix(1,0,0,1,422.8125,40)"><path transform="matrix(0.017,0,0,-0.017,0,0)" d="M31 148C26 97 20 62 9 16C47 -2 81 -11 116 -11C165 -11 211 7 262 47C313 87 334 124 334 174C334 228 302 257 228 271L185 279C125 290 106 307 106 348C106 401 151 442 208 442C249 442 287 424 303 397L303 342L326 342C330 377 334 404 345 455C306 474 278 482 245 482C193 482 132 452 84 404C58 377 47 352 47 316C47 260 78 228 144 215L207 203C251 195 267 177 267 138C267 73 221 29 150 29C115 29 84 40 56 64L56 148Z" stroke="rgb(0,0,0)" stroke-opacity="1" stroke-width="8" fill="rgb(0,0,0)" fill-opacity="1"></path></g></g></g></g><line style="fill:none;stroke-width:1px;stroke:rgb(0, 0, 0);" x1="419.515625" y1="22.75" x2="432.734375" y2="22.75"></line></g></g><g><g><g><g><g><text x="2" y="43" style="white-space:pre;stroke:none;fill:rgb(0,0,0);fill-opacity:1;font-size:15px;font-family:Arial, Helvetica, sans-serif;font-weight:400;font-style:normal;dominant-baseline:text-before-edge;text-decoration:none solid rgb(0, 0, 0);">At</text></g></g></g></g><g><g transform="matrix(1,0,0,1,16.1875,57)"><path transform="matrix(0.017,0,0,-0.017,0,0)" d="M374 390L318 107C317 99 305 61 305 31C305 6 316 -9 335 -9C370 -9 405 11 483 74L514 99L504 117L459 86C430 66 410 56 399 56C390 56 385 64 385 76C385 102 399 183 428 328L441 390L548 390L559 440C521 436 487 434 449 434C465 528 476 577 494 631L483 646C463 634 436 622 405 610L380 440C336 419 310 408 292 403L290 390Z" stroke="rgb(0,0,0)" stroke-opacity="1" stroke-width="8" fill="rgb(0,0,0)" fill-opacity="1"></path></g></g><g><g transform="matrix(1,0,0,1,31.171875,57)"><path transform="matrix(0.017,0,0,-0.017,0,0)" d="M604 347L604 406L65 406L65 347ZM604 134L604 193L65 193L65 134Z" stroke="rgb(0,0,0)" stroke-opacity="1" stroke-width="8" fill="rgb(0,0,0)" fill-opacity="1"></path></g></g><g><g transform="matrix(1,0,0,1,47.625,57)"><path transform="matrix(0.017,0,0,-0.017,0,0)" d="M462 224C462 345 355 366 308 374C388 436 418 482 418 541C418 630 344 689 233 689C165 689 120 670 72 622L43 498L74 498L92 554C103 588 166 622 218 622C283 622 336 569 336 506C336 431 277 368 206 368C198 368 187 369 174 370L159 371L147 318L154 312C192 329 211 334 238 334C321 334 369 281 369 190C369 88 308 21 215 21C169 21 128 36 98 64C74 86 61 109 42 163L15 153C36 92 44 56 50 6C103 -12 147 -20 184 -20C307 -20 462 87 462 224Z" stroke="rgb(0,0,0)" stroke-opacity="1" stroke-width="8" fill="rgb(0,0,0)" fill-opacity="1"></path></g></g><g><g><g><g><text x="60.34375" y="43" style="white-space:pre;stroke:none;fill:rgb(0,0,0);fill-opacity:1;font-size:15px;font-family:Arial, Helvetica, sans-serif;font-weight:400;font-style:normal;dominant-baseline:text-before-edge;text-decoration:none solid rgb(0, 0, 0);">the distance of the train from the starting station was</text></g></g></g></g><g><g transform="matrix(1,0,0,1,408.03125,57)"><path transform="matrix(0.017,0,0,-0.017,0,0)" d="" stroke="rgb(0,0,0)" stroke-opacity="1" stroke-width="8" fill="rgb(0,0,0)" fill-opacity="1"></path></g></g><g><g transform="matrix(1,0,0,1,415.65625,57)"><path transform="matrix(0.017,0,0,-0.017,0,0)" d="M604 241L604 300L364 300L364 538L305 538L305 300L65 300L65 241L305 241L305 0L364 0L364 241Z" stroke="rgb(0,0,0)" stroke-opacity="1" stroke-width="8" fill="rgb(0,0,0)" fill-opacity="1"></path></g></g><g><g transform="matrix(1,0,0,1,430.40625,57)"><path transform="matrix(0.017,0,0,-0.017,0,0)" d="M16 23L16 -3C203 -3 203 0 239 0C275 0 275 -3 468 -3L468 82C353 77 307 81 122 77L304 270C401 373 431 428 431 503C431 618 353 689 226 689C154 689 105 669 56 619L39 483L68 483L81 529C97 587 133 612 200 612C286 612 341 558 341 473C341 398 299 324 186 204ZM762 689C607 689 528 566 528 324C528 207 549 106 584 57C619 8 675 -20 737 -20C888 -20 964 110 964 366C964 585 899 689 762 689ZM744 654C841 654 880 556 880 316C880 103 842 15 750 15C653 15 612 116 612 360C612 571 649 654 744 654ZM1728 103L1702 86C1673 67 1651 56 1641 56C1634 56 1628 65 1628 76C1628 86 1630 95 1635 116L1710 413C1714 430 1717 446 1717 454C1717 471 1707 482 1691 482C1662 482 1624 464 1563 421C1500 376 1465 341 1416 272L1446 409C1450 429 1453 444 1453 451C1453 470 1443 482 1427 482C1397 482 1351 460 1296 418C1252 384 1232 363 1167 275L1200 408C1204 424 1206 439 1206 451C1206 470 1197 482 1183 482C1162 482 1124 461 1050 408L1022 388L1029 368C1066 391 1101 414 1108 414C1119 414 1126 404 1126 389C1126 338 1085 145 1044 2L1047 -9L1115 6L1137 108C1161 219 1188 278 1243 338C1285 384 1330 414 1358 414C1365 414 1369 406 1369 393C1369 358 1347 244 1306 69L1290 2L1295 -9L1364 6L1385 113C1401 194 1435 269 1479 318C1534 379 1584 414 1616 414C1624 414 1629 405 1629 389C1629 365 1626 351 1604 264C1564 105 1548 84 1548 31C1548 6 1559 -9 1578 -9C1604 -9 1640 12 1738 85Z" stroke="rgb(0,0,0)" stroke-opacity="1" stroke-width="8" fill="rgb(0,0,0)" fill-opacity="1"></path></g></g></g><g><g><g><g><g><text x="61.203125" y="65" style="white-space:pre;stroke:none;fill:rgb(0,0,0);fill-opacity:1;font-size:15px;font-family:Arial, Helvetica, sans-serif;font-weight:400;font-style:normal;dominant-baseline:text-before-edge;text-decoration:none solid rgb(0, 0, 0);">Find the displacement of train from </text></g></g></g></g><g><g transform="matrix(1,0,0,1,296.3125,79)"><path transform="matrix(0.017,0,0,-0.017,0,0)" d="M125 390L69 107C68 99 56 61 56 31C56 6 67 -9 86 -9C121 -9 156 11 234 74L265 99L255 117L210 86C181 66 161 56 150 56C141 56 136 64 136 76C136 102 150 183 179 328L192 390L299 390L310 440C272 436 238 434 200 434C216 528 227 577 245 631L234 646C214 634 187 622 156 610L131 440C87 419 61 408 43 403L41 390Z" stroke="rgb(0,0,0)" stroke-opacity="1" stroke-width="8" fill="rgb(0,0,0)" fill-opacity="1"></path></g></g><g><g transform="matrix(1,0,0,1,311.296875,79)"><path transform="matrix(0.017,0,0,-0.017,0,0)" d="M604 347L604 406L65 406L65 347ZM604 134L604 193L65 193L65 134Z" stroke="rgb(0,0,0)" stroke-opacity="1" stroke-width="8" fill="rgb(0,0,0)" fill-opacity="1"></path></g></g><g><g transform="matrix(1,0,0,1,327.75,79)"><path transform="matrix(0.017,0,0,-0.017,0,0)" d="M462 224C462 345 355 366 308 374C388 436 418 482 418 541C418 630 344 689 233 689C165 689 120 670 72 622L43 498L74 498L92 554C103 588 166 622 218 622C283 622 336 569 336 506C336 431 277 368 206 368C198 368 187 369 174 370L159 371L147 318L154 312C192 329 211 334 238 334C321 334 369 281 369 190C369 88 308 21 215 21C169 21 128 36 98 64C74 86 61 109 42 163L15 153C36 92 44 56 50 6C103 -12 147 -20 184 -20C307 -20 462 87 462 224Z" stroke="rgb(0,0,0)" stroke-opacity="1" stroke-width="8" fill="rgb(0,0,0)" fill-opacity="1"></path></g></g><g><g><g><g><text x="340.46875" y="65" style="white-space:pre;stroke:none;fill:rgb(0,0,0);fill-opacity:1;font-size:15px;font-family:Arial, Helvetica, sans-serif;font-weight:400;font-style:normal;dominant-baseline:text-before-edge;text-decoration:none solid rgb(0, 0, 0);">to</text></g></g></g></g><g><g transform="matrix(1,0,0,1,352.984375,79)"><path transform="matrix(0.017,0,0,-0.017,0,0)" d="M374 390L318 107C317 99 305 61 305 31C305 6 316 -9 335 -9C370 -9 405 11 483 74L514 99L504 117L459 86C430 66 410 56 399 56C390 56 385 64 385 76C385 102 399 183 428 328L441 390L548 390L559 440C521 436 487 434 449 434C465 528 476 577 494 631L483 646C463 634 436 622 405 610L380 440C336 419 310 408 292 403L290 390Z" stroke="rgb(0,0,0)" stroke-opacity="1" stroke-width="8" fill="rgb(0,0,0)" fill-opacity="1"></path></g></g><g><g transform="matrix(1,0,0,1,367.96875,79)"><path transform="matrix(0.017,0,0,-0.017,0,0)" d="M604 347L604 406L65 406L65 347ZM604 134L604 193L65 193L65 134Z" stroke="rgb(0,0,0)" stroke-opacity="1" stroke-width="8" fill="rgb(0,0,0)" fill-opacity="1"></path></g></g><g><g transform="matrix(1,0,0,1,384.421875,79)"><path transform="matrix(0.017,0,0,-0.017,0,0)" d="M418 -3L418 27L366 30C311 33 301 44 301 96L301 700L60 598L67 548L217 614L217 96C217 44 206 33 152 30L96 27L96 -3C250 0 250 0 261 0C292 0 402 -3 418 -3ZM762 689C607 689 528 566 528 324C528 207 549 106 584 57C619 8 675 -20 737 -20C888 -20 964 110 964 366C964 585 899 689 762 689ZM744 654C841 654 880 556 880 316C880 103 842 15 750 15C653 15 612 116 612 360C612 571 649 654 744 654Z" stroke="rgb(0,0,0)" stroke-opacity="1" stroke-width="8" fill="rgb(0,0,0)" fill-opacity="1"></path></g></g></g></g></svg>