<svg xmlns="http://www.w3.org/2000/svg" xmlns:xlink="http://www.w3.org/1999/xlink" width="345.609375" height="70" style="width:345.609375px;height:70px;font-family:Asana-Math, Asana;background:transparent;"><g><g><g><g><g><g><text x="19.375" y="5" style="white-space:pre;stroke:none;fill:rgb(0,0,0);fill-opacity:1;font-size:15px;font-family:Arial, Helvetica, sans-serif;font-weight:400;font-style:normal;dominant-baseline:text-before-edge;text-decoration:none solid rgb(0, 0, 0);">Look for the highest derivative in the equation.</text></g></g></g></g></g><g><g><g><g><g><text x="8.875" y="27" style="white-space:pre;stroke:none;fill:rgb(0,0,0);fill-opacity:1;font-size:15px;font-family:Arial, Helvetica, sans-serif;font-weight:400;font-style:normal;dominant-baseline:text-before-edge;text-decoration:none solid rgb(0, 0, 0);">In this case it is</text></g></g></g></g><g><g transform="matrix(1,0,0,1,111.421875,41)"><path transform="matrix(0.017,0,0,-0.017,0,0)" d="M242 -180C241 -187 241 -193 241 -198C241 -241 278 -276 323 -276C429 -276 539 -152 598 33L739 473L728 482C699 471 676 465 654 463L619 331C607 284 572 211 539 162C504 111 455 67 433 67C421 67 412 90 413 115L429 322C431 353 433 391 433 419C433 464 426 482 409 482C396 482 382 475 334 442L252 386L263 368L313 398C318 401 329 410 338 410C352 410 360 391 360 358C360 357 360 351 359 343L342 100L341 60C341 18 359 -11 384 -11C421 -11 505 74 580 187L531 16C480 -161 430 -234 360 -234C325 -234 298 -207 298 -172C298 -167 299 -159 300 -150L290 -146ZM979.80334 794.13126C979.80334 821.493 950.92302 841.25307 925.08278 841.25307C895.44268 841.25307 881.76181 812.37177 873.4023 788.05206L789.80044 545.60793C787.52013 539.52776 782.20072 525.08809 782.20072 517.48836C782.20072 510.64842 786.76036 500.76741 794.36008 500.76741C806.52042 500.76741 820.2013 517.48836 826.28147 526.60764L957.00319 734.09128C967.64398 750.81126 979.80334 772.85164 979.80334 794.13126ZM1248.80334 794.13126C1248.80334 821.493 1219.92302 841.25307 1194.08278 841.25307C1164.44268 841.25307 1150.76181 812.37177 1142.4023 788.05206L1058.80044 545.60793C1056.52013 539.52776 1051.20072 525.08809 1051.20072 517.48836C1051.20072 510.64842 1055.76036 500.76741 1063.36008 500.76741C1075.52042 500.76741 1089.2013 517.48836 1095.28147 526.60764L1226.00319 734.09128C1236.64398 750.81126 1248.80334 772.85164 1248.80334 794.13126Z" stroke="rgb(0,0,0)" stroke-opacity="1" stroke-width="8" fill="rgb(0,0,0)" fill-opacity="1"></path></g></g><g><g><g><g><text x="133.296875" y="27" style="white-space:pre;stroke:none;fill:rgb(0,0,0);fill-opacity:1;font-size:15px;font-family:Arial, Helvetica, sans-serif;font-weight:400;font-style:normal;dominant-baseline:text-before-edge;text-decoration:none solid rgb(0, 0, 0);"> which is the second derivative</text></g></g></g></g></g><g><g><g><g><g><text x="2" y="49" style="white-space:pre;stroke:none;fill:rgb(0,0,0);fill-opacity:1;font-size:15px;font-family:Arial, Helvetica, sans-serif;font-weight:400;font-style:normal;dominant-baseline:text-before-edge;text-decoration:none solid rgb(0, 0, 0);">therefore this is a second order differential equation</text></g></g></g></g></g></g></svg>