<svg xmlns="http://www.w3.org/2000/svg" xmlns:xlink="http://www.w3.org/1999/xlink" width="33.6875" height="24" style="width:33.6875px;height:24px;font-family:Asana-Math, Asana;background:transparent;"><g><g><g><g transform="matrix(1,0,0,1,2,19)"><path transform="matrix(0.017,0,0,-0.017,0,0)" d="M16 23L16 -3C203 -3 203 0 239 0C275 0 275 -3 468 -3L468 82C353 77 307 81 122 77L304 270C401 373 431 428 431 503C431 618 353 689 226 689C154 689 105 669 56 619L39 483L68 483L81 529C97 587 133 612 200 612C286 612 341 558 341 473C341 398 299 324 186 204ZM917 -3L917 27L865 30C810 33 800 44 800 96L800 700L559 598L566 548L716 614L716 96C716 44 705 33 651 30L595 27L595 -3C749 0 749 0 760 0C791 0 901 -3 917 -3ZM1122 111C1092 111 1065 83 1065 53C1065 23 1092 -5 1121 -5C1153 -5 1181 22 1181 53C1181 83 1153 111 1122 111ZM1709 224C1709 345 1602 366 1555 374C1635 436 1665 482 1665 541C1665 630 1591 689 1480 689C1412 689 1367 670 1319 622L1290 498L1321 498L1339 554C1350 588 1413 622 1465 622C1530 622 1583 569 1583 506C1583 431 1524 368 1453 368C1445 368 1434 369 1421 370L1406 371L1394 318L1401 312C1439 329 1458 334 1485 334C1568 334 1616 281 1616 190C1616 88 1555 21 1462 21C1416 21 1375 36 1345 64C1321 86 1308 109 1289 163L1262 153C1283 92 1291 56 1297 6C1350 -12 1394 -20 1431 -20C1554 -20 1709 87 1709 224Z" stroke="rgb(0,0,0)" stroke-opacity="1" stroke-width="8" fill="rgb(0,0,0)" fill-opacity="1"></path></g></g></g></g></svg>