<svg xmlns="http://www.w3.org/2000/svg" xmlns:xlink="http://www.w3.org/1999/xlink" width="203.53125" height="65.3125" style="width:203.53125px;height:65.3125px;font-family:Asana-Math, Asana;background:transparent;"><g><g><g><g><g><g><svg x="2.890625" overflow="visible" y="4.25" height="32" width="6.375"><path d=" M 4.71 1.27 c 0.00 -0.04 -0.03 -0.06 -0.06 -0.06 c -0.02 0.00 -0.04 0.01 -0.06 0.02 c -1.91 1.00 -3.48 2.80 -3.48 7.05 v 0.45 h 1.15 v -0.45 c 0.00 -2.42 0.48 -5.27 2.48 -6.79 c 0.09 -0.07 0.09 -0.14 0.09 -0.21 z   M 1.08 8.73 v 14.54 h 1.15 v -14.54 z" style="fill:rgb(0,0,0);fill-opacity:1;stroke-width:1px;stroke:none;stroke-opacity:1;"></path><path d=" M 4.71 30.73 c 0.00 0.04 -0.03 0.06 -0.06 0.06 c -0.02 0.00 -0.04 -0.01 -0.06 -0.02 c -1.91 -1.00 -3.48 -2.80 -3.48 -7.05 v -0.45 h 1.15 v 0.45 c 0.00 2.42 0.48 5.27 2.48 6.79 c 0.09 0.07 0.09 0.14 0.09 0.21 z" style="fill:rgb(0,0,0);fill-opacity:1;stroke-width:1px;stroke:none;stroke-opacity:1;"></path></svg></g><g><g><g><g><g transform="matrix(1,0,0,1,8.953125,18.5625)"><path transform="matrix(0.0095625,0,0,-0.0095625,0,0)" d="M418 -3L418 27L366 30C311 33 301 44 301 96L301 700L60 598L67 548L217 614L217 96C217 44 206 33 152 30L96 27L96 -3C250 0 250 0 261 0C292 0 402 -3 418 -3Z" stroke="rgb(0,0,0)" stroke-opacity="1" stroke-width="8" fill="rgb(0,0,0)" fill-opacity="1"></path></g></g></g></g><g><g><g><g transform="matrix(1,0,0,1,8.953125,31.5625)"><path transform="matrix(0.0095625,0,0,-0.0095625,0,0)" d="M16 23L16 -3C203 -3 203 0 239 0C275 0 275 -3 468 -3L468 82C353 77 307 81 122 77L304 270C401 373 431 428 431 503C431 618 353 689 226 689C154 689 105 669 56 619L39 483L68 483L81 529C97 587 133 612 200 612C286 612 341 558 341 473C341 398 299 324 186 204Z" stroke="rgb(0,0,0)" stroke-opacity="1" stroke-width="8" fill="rgb(0,0,0)" fill-opacity="1"></path></g></g></g></g><line style="fill:none;stroke-width:1px;stroke:rgb(0, 0, 0);" x1="8.953125" y1="22.90625" x2="13.734375" y2="22.90625"></line></g><g><g transform="matrix(1,0,0,1,14.6875,26)"><path transform="matrix(0.01275,0,0,-0.01275,0,0)" d="M9 1C24 -7 40 -11 52 -11C85 -11 124 18 155 65L231 182L242 113C255 28 278 -11 314 -11C336 -11 368 6 400 35L449 79L440 98C404 68 379 53 363 53C348 53 335 63 325 83C316 102 305 139 300 168L282 269L317 318C364 383 391 406 422 406C438 406 450 398 455 383L469 387L484 472C472 479 463 482 454 482C414 482 374 446 312 354L275 299L269 347C257 446 230 482 171 482C145 482 123 474 114 461L56 378L73 368C103 402 123 416 142 416C175 416 197 375 214 277L225 215L185 153C142 86 108 54 80 54C65 54 54 58 52 63L41 91L21 88C21 53 13 27 9 1Z" stroke="rgb(0,0,0)" stroke-opacity="1" stroke-width="8" fill="rgb(0,0,0)" fill-opacity="1"></path></g></g><g><g><g><g><g transform="matrix(1,0,0,1,21.78125,16.675)"><path transform="matrix(0.008925,0,0,-0.008925,0,0)" d="M555 243L555 299L51 299L51 243Z" stroke="rgb(0,0,0)" stroke-opacity="1" stroke-width="8" fill="rgb(0,0,0)" fill-opacity="1"></path></g></g><g><g><g><g><g transform="matrix(1,0,0,1,28.078125,10.675)"><path transform="matrix(0.008925,0,0,-0.008925,0,0)" d="M418 -3L418 27L366 30C311 33 301 44 301 96L301 700L60 598L67 548L217 614L217 96C217 44 206 33 152 30L96 27L96 -3C250 0 250 0 261 0C292 0 402 -3 418 -3Z" stroke="rgb(0,0,0)" stroke-opacity="1" stroke-width="8" fill="rgb(0,0,0)" fill-opacity="1"></path></g></g></g></g><g><g><g><g transform="matrix(1,0,0,1,28.078125,22.675)"><path transform="matrix(0.008925,0,0,-0.008925,0,0)" d="M16 23L16 -3C203 -3 203 0 239 0C275 0 275 -3 468 -3L468 82C353 77 307 81 122 77L304 270C401 373 431 428 431 503C431 618 353 689 226 689C154 689 105 669 56 619L39 483L68 483L81 529C97 587 133 612 200 612C286 612 341 558 341 473C341 398 299 324 186 204Z" stroke="rgb(0,0,0)" stroke-opacity="1" stroke-width="8" fill="rgb(0,0,0)" fill-opacity="1"></path></g></g></g></g><line style="fill:none;stroke-width:1px;stroke:rgb(0, 0, 0);" x1="28.078125" y1="14.53125" x2="32.53125" y2="14.53125"></line></g></g></g></g><g><g transform="matrix(1,0,0,1,34.171875,26)"><path transform="matrix(0.01275,0,0,-0.01275,0,0)" d="M604 241L604 300L364 300L364 538L305 538L305 300L65 300L65 241L305 241L305 0L364 0L364 241ZM684 23L684 -3C871 -3 871 0 907 0C943 0 943 -3 1136 -3L1136 82C1021 77 975 81 790 77L972 270C1069 373 1099 428 1099 503C1099 618 1021 689 894 689C822 689 773 669 724 619L707 483L736 483L749 529C765 587 801 612 868 612C954 612 1009 558 1009 473C1009 398 967 324 854 204Z" stroke="rgb(0,0,0)" stroke-opacity="1" stroke-width="8" fill="rgb(0,0,0)" fill-opacity="1"></path></g></g><g><svg x="47.796875" overflow="visible" y="4.25" height="32" width="6.375"><path d=" M 1.31 1.27 c 0.00 -0.04 0.03 -0.06 0.06 -0.06 c 0.02 0.00 0.04 0.01 0.06 0.02 c 1.91 1.00 3.48 2.80 3.48 7.05 v 0.45 h -1.15 v -0.45 c 0.00 -2.42 -0.48 -5.27 -2.48 -6.79 c -0.09 -0.07 -0.09 -0.14 -0.09 -0.21 z  M 4.94 8.73 v 14.54 h -1.15 v -14.54 z" style="fill:rgb(0,0,0);fill-opacity:1;stroke-width:1px;stroke:none;stroke-opacity:1;"></path><path d=" M 1.31 30.73 c 0.00 0.04 0.03 0.06 0.06 0.06 c 0.02 0.00 0.04 -0.01 0.06 -0.02 c 1.91 -1.00 3.48 -2.80 3.48 -7.05 v -0.45 h -1.15 v 0.45 c 0.00 2.42 -0.48 5.27 -2.48 6.79 c -0.09 0.07 -0.09 0.14 -0.09 0.21 z" style="fill:rgb(0,0,0);fill-opacity:1;stroke-width:1px;stroke:none;stroke-opacity:1;"></path></svg></g><g><svg x="55.953125" overflow="visible" y="13.25" height="21" width="6.375"><path d=" M 4.71 1.27 c 0.00 -0.04 -0.03 -0.06 -0.06 -0.06 c -0.02 0.00 -0.04 0.01 -0.06 0.02 c -1.91 1.00 -3.48 2.80 -3.48 7.05 v 0.45 h 1.15 v -0.45 c 0.00 -2.42 0.48 -5.27 2.48 -6.79 c 0.09 -0.07 0.09 -0.14 0.09 -0.21 z   M 1.08 8.73 v 3.54 h 1.15 v -3.54 z" style="fill:rgb(0,0,0);fill-opacity:1;stroke-width:1px;stroke:none;stroke-opacity:1;"></path><path d=" M 4.71 19.73 c 0.00 0.04 -0.03 0.06 -0.06 0.06 c -0.02 0.00 -0.04 -0.01 -0.06 -0.02 c -1.91 -1.00 -3.48 -2.80 -3.48 -7.05 v -0.45 h 1.15 v 0.45 c 0.00 2.42 0.48 5.27 2.48 6.79 c 0.09 0.07 0.09 0.14 0.09 0.21 z" style="fill:rgb(0,0,0);fill-opacity:1;stroke-width:1px;stroke:none;stroke-opacity:1;"></path></svg></g><g><g transform="matrix(1,0,0,1,61.0625,26)"><path transform="matrix(0.01275,0,0,-0.01275,0,0)" d="M409 603L47 -1L157 -1L497 659L497 689L44 689L44 477L74 477L81 533C89 595 96 603 142 603ZM508 1C523 -7 539 -11 551 -11C584 -11 623 18 654 65L730 182L741 113C754 28 777 -11 813 -11C835 -11 867 6 899 35L948 79L939 98C903 68 878 53 862 53C847 53 834 63 824 83C815 102 804 139 799 168L781 269L816 318C863 383 890 406 921 406C937 406 949 398 954 383L968 387L983 472C971 479 962 482 953 482C913 482 873 446 811 354L774 299L768 347C756 446 729 482 670 482C644 482 622 474 613 461L555 378L572 368C602 402 622 416 641 416C674 416 696 375 713 277L724 215L684 153C641 86 607 54 579 54C564 54 553 58 551 63L540 91L520 88C520 53 512 27 508 1ZM1553 243L1553 299L1049 299L1049 243ZM1883 181L1883 106C1883 46 1872 32 1823 30L1761 27L1761 -3C1894 0 1894 0 1918 0C1942 0 1942 0 2075 -3L2075 27L2027 30C1978 33 1967 46 1967 106L1967 181C2026 181 2047 180 2075 177L2075 248L1967 245L1968 697L1888 667L1605 204L1605 181ZM1883 245L1668 245L1883 597ZM2111 1C2126 -7 2142 -11 2154 -11C2187 -11 2226 18 2257 65L2333 182L2344 113C2357 28 2380 -11 2416 -11C2438 -11 2470 6 2502 35L2551 79L2542 98C2506 68 2481 53 2465 53C2450 53 2437 63 2427 83C2418 102 2407 139 2402 168L2384 269L2419 318C2466 383 2493 406 2524 406C2540 406 2552 398 2557 383L2571 387L2586 472C2574 479 2565 482 2556 482C2516 482 2476 446 2414 354L2377 299L2371 347C2359 446 2332 482 2273 482C2247 482 2225 474 2216 461L2158 378L2175 368C2205 402 2225 416 2244 416C2277 416 2299 375 2316 277L2327 215L2287 153C2244 86 2210 54 2182 54C2167 54 2156 58 2154 63L2143 91L2123 88C2123 53 2115 27 2111 1Z" stroke="rgb(0,0,0)" stroke-opacity="1" stroke-width="8" fill="rgb(0,0,0)" fill-opacity="1"></path></g></g><g><g><g><g><g transform="matrix(1,0,0,1,94.953125,22.065625)"><path transform="matrix(0.008925,0,0,-0.008925,0,0)" d="M16 23L16 -3C203 -3 203 0 239 0C275 0 275 -3 468 -3L468 82C353 77 307 81 122 77L304 270C401 373 431 428 431 503C431 618 353 689 226 689C154 689 105 669 56 619L39 483L68 483L81 529C97 587 133 612 200 612C286 612 341 558 341 473C341 398 299 324 186 204Z" stroke="rgb(0,0,0)" stroke-opacity="1" stroke-width="8" fill="rgb(0,0,0)" fill-opacity="1"></path></g></g></g></g><g><g></g></g></g><g><svg x="98.890625" overflow="visible" y="13.25" height="21" width="6.375"><path d=" M 1.31 1.27 c 0.00 -0.04 0.03 -0.06 0.06 -0.06 c 0.02 0.00 0.04 0.01 0.06 0.02 c 1.91 1.00 3.48 2.80 3.48 7.05 v 0.45 h -1.15 v -0.45 c 0.00 -2.42 -0.48 -5.27 -2.48 -6.79 c -0.09 -0.07 -0.09 -0.14 -0.09 -0.21 z  M 4.94 8.73 v 3.54 h -1.15 v -3.54 z" style="fill:rgb(0,0,0);fill-opacity:1;stroke-width:1px;stroke:none;stroke-opacity:1;"></path><path d=" M 1.31 19.73 c 0.00 0.04 0.03 0.06 0.06 0.06 c 0.02 0.00 0.04 -0.01 0.06 -0.02 c 1.91 -1.00 3.48 -2.80 3.48 -7.05 v -0.45 h -1.15 v 0.45 c 0.00 2.42 -0.48 5.27 -2.48 6.79 c -0.09 0.07 -0.09 0.14 -0.09 0.21 z" style="fill:rgb(0,0,0);fill-opacity:1;stroke-width:1px;stroke:none;stroke-opacity:1;"></path></svg></g><g><g transform="matrix(1,0,0,1,106.15625,26)"><path transform="matrix(0.01275,0,0,-0.01275,0,0)" d="M555 243L555 299L51 299L51 243Z" stroke="rgb(0,0,0)" stroke-opacity="1" stroke-width="8" fill="rgb(0,0,0)" fill-opacity="1"></path></g></g><g><svg x="114.765625" overflow="visible" y="12.25" height="20" width="6.375"><path d=" M 4.71 1.27 c 0.00 -0.04 -0.03 -0.06 -0.06 -0.06 c -0.02 0.00 -0.04 0.01 -0.06 0.02 c -1.91 1.00 -3.48 2.80 -3.48 7.05 v 0.45 h 1.15 v -0.45 c 0.00 -2.42 0.48 -5.27 2.48 -6.79 c 0.09 -0.07 0.09 -0.14 0.09 -0.21 z   M 1.08 8.73 v 2.54 h 1.15 v -2.54 z" style="fill:rgb(0,0,0);fill-opacity:1;stroke-width:1px;stroke:none;stroke-opacity:1;"></path><path d=" M 4.71 18.73 c 0.00 0.04 -0.03 0.06 -0.06 0.06 c -0.02 0.00 -0.04 -0.01 -0.06 -0.02 c -1.91 -1.00 -3.48 -2.80 -3.48 -7.05 v -0.45 h 1.15 v 0.45 c 0.00 2.42 0.48 5.27 2.48 6.79 c 0.09 0.07 0.09 0.14 0.09 0.21 z" style="fill:rgb(0,0,0);fill-opacity:1;stroke-width:1px;stroke:none;stroke-opacity:1;"></path></svg></g><g><g><g><g><g transform="matrix(1,0,0,1,132.625,26)"><path transform="matrix(0.01275,0,0,-0.01275,0,0)" d="M9 1C24 -7 40 -11 52 -11C85 -11 124 18 155 65L231 182L242 113C255 28 278 -11 314 -11C336 -11 368 6 400 35L449 79L440 98C404 68 379 53 363 53C348 53 335 63 325 83C316 102 305 139 300 168L282 269L317 318C364 383 391 406 422 406C438 406 450 398 455 383L469 387L484 472C472 479 463 482 454 482C414 482 374 446 312 354L275 299L269 347C257 446 230 482 171 482C145 482 123 474 114 461L56 378L73 368C103 402 123 416 142 416C175 416 197 375 214 277L225 215L185 153C142 86 108 54 80 54C65 54 54 58 52 63L41 91L21 88C21 53 13 27 9 1Z" stroke="rgb(0,0,0)" stroke-opacity="1" stroke-width="8" fill="rgb(0,0,0)" fill-opacity="1"></path></g></g></g></g><svg x="119.875" overflow="visible" y="13.25" height="12.75" width="19.125"><polygon points="0.2635658914728682,6.91686046511628 3.591085271317829,5.137790697674421 7.2745282618773635,12.94953694335382 12.272286821705425,0 19.125,0 19.125,0.7906976744186061 12.833660130718952,0.7906976744186061 6.8856589147286815,16.141666666666666 2.322674418604651,6.587403100775195 0.4777131782945736,7.279263565891475" style="fill:rgb(0,0,0);fill-opacity:1;stroke-width:1px;stroke:none;stroke-opacity:1;"></polygon></svg></g><g><g transform="matrix(1,0,0,1,139,26)"><path transform="matrix(0.01275,0,0,-0.01275,0,0)" d="M604 241L604 300L364 300L364 538L305 538L305 300L65 300L65 241L305 241L305 0L364 0L364 241ZM684 23L684 -3C871 -3 871 0 907 0C943 0 943 -3 1136 -3L1136 82C1021 77 975 81 790 77L972 270C1069 373 1099 428 1099 503C1099 618 1021 689 894 689C822 689 773 669 724 619L707 483L736 483L749 529C765 587 801 612 868 612C954 612 1009 558 1009 473C1009 398 967 324 854 204ZM1176 1C1191 -7 1207 -11 1219 -11C1252 -11 1291 18 1322 65L1398 182L1409 113C1422 28 1445 -11 1481 -11C1503 -11 1535 6 1567 35L1616 79L1607 98C1571 68 1546 53 1530 53C1515 53 1502 63 1492 83C1483 102 1472 139 1467 168L1449 269L1484 318C1531 383 1558 406 1589 406C1605 406 1617 398 1622 383L1636 387L1651 472C1639 479 1630 482 1621 482C1581 482 1541 446 1479 354L1442 299L1436 347C1424 446 1397 482 1338 482C1312 482 1290 474 1281 461L1223 378L1240 368C1270 402 1290 416 1309 416C1342 416 1364 375 1381 277L1392 215L1352 153C1309 86 1275 54 1247 54C1232 54 1221 58 1219 63L1208 91L1188 88C1188 53 1180 27 1176 1Z" stroke="rgb(0,0,0)" stroke-opacity="1" stroke-width="8" fill="rgb(0,0,0)" fill-opacity="1"></path></g></g><g><svg x="158.984375" overflow="visible" y="12.25" height="20" width="6.375"><path d=" M 1.31 1.27 c 0.00 -0.04 0.03 -0.06 0.06 -0.06 c 0.02 0.00 0.04 0.01 0.06 0.02 c 1.91 1.00 3.48 2.80 3.48 7.05 v 0.45 h -1.15 v -0.45 c 0.00 -2.42 -0.48 -5.27 -2.48 -6.79 c -0.09 -0.07 -0.09 -0.14 -0.09 -0.21 z  M 4.94 8.73 v 2.54 h -1.15 v -2.54 z" style="fill:rgb(0,0,0);fill-opacity:1;stroke-width:1px;stroke:none;stroke-opacity:1;"></path><path d=" M 1.31 18.73 c 0.00 0.04 0.03 0.06 0.06 0.06 c 0.02 0.00 0.04 -0.01 0.06 -0.02 c 1.91 -1.00 3.48 -2.80 3.48 -7.05 v -0.45 h -1.15 v 0.45 c 0.00 2.42 -0.48 5.27 -2.48 6.79 c -0.09 0.07 -0.09 0.14 -0.09 0.21 z" style="fill:rgb(0,0,0);fill-opacity:1;stroke-width:1px;stroke:none;stroke-opacity:1;"></path></svg></g><g><g transform="matrix(1,0,0,1,166.25,27)"><path transform="matrix(0.01275,0,0,-0.01275,0,0)" d="M146 266C146 526 243 632 301 700L282 726C225 675 60 542 60 266C60 159 85 58 133 -32C168 -99 200 -138 282 -215L301 -194C255 -137 146 -15 146 266Z" stroke="rgb(0,0,0)" stroke-opacity="1" stroke-width="8" fill="rgb(0,0,0)" fill-opacity="1"></path></g></g><g><g transform="matrix(1,0,0,1,170.484375,26)"><path transform="matrix(0.01275,0,0,-0.01275,0,0)" d="M409 603L47 -1L157 -1L497 659L497 689L44 689L44 477L74 477L81 533C89 595 96 603 142 603ZM1054 243L1054 299L550 299L550 243ZM1272 345C1231 326 1214 315 1192 294C1154 256 1134 211 1134 159C1134 56 1217 -20 1330 -20C1460 -20 1568 82 1568 206C1568 286 1531 329 1417 381C1508 443 1540 485 1540 545C1540 631 1469 689 1363 689C1244 689 1157 613 1157 508C1157 440 1184 402 1272 345ZM1388 295C1451 267 1489 218 1489 164C1489 80 1426 14 1345 14C1260 14 1205 74 1205 167C1205 240 1234 286 1308 331ZM1327 423C1264 454 1232 494 1232 544C1232 610 1280 655 1351 655C1424 655 1472 607 1472 534C1472 477 1447 438 1382 396ZM1612 1C1627 -7 1643 -11 1655 -11C1688 -11 1727 18 1758 65L1834 182L1845 113C1858 28 1881 -11 1917 -11C1939 -11 1971 6 2003 35L2052 79L2043 98C2007 68 1982 53 1966 53C1951 53 1938 63 1928 83C1919 102 1908 139 1903 168L1885 269L1920 318C1967 383 1994 406 2025 406C2041 406 2053 398 2058 383L2072 387L2087 472C2075 479 2066 482 2057 482C2017 482 1977 446 1915 354L1878 299L1872 347C1860 446 1833 482 1774 482C1748 482 1726 474 1717 461L1659 378L1676 368C1706 402 1726 416 1745 416C1778 416 1800 375 1817 277L1828 215L1788 153C1745 86 1711 54 1683 54C1668 54 1657 58 1655 63L1644 91L1624 88C1624 53 1616 27 1612 1Z" stroke="rgb(0,0,0)" stroke-opacity="1" stroke-width="8" fill="rgb(0,0,0)" fill-opacity="1"></path></g></g><g><g transform="matrix(1,0,0,1,197.296875,27)"><path transform="matrix(0.01275,0,0,-0.01275,0,0)" d="M51 726L32 700C87 636 187 526 187 266C187 -10 83 -131 32 -194L51 -215C104 -165 273 -23 273 265C273 542 108 675 51 726Z" stroke="rgb(0,0,0)" stroke-opacity="1" stroke-width="8" fill="rgb(0,0,0)" fill-opacity="1"></path></g></g></g></g><g><g><g><svg x="74.96875" overflow="visible" y="43.796875" height="19" width="6.375"><path d=" M 4.71 1.27 c 0.00 -0.04 -0.03 -0.06 -0.06 -0.06 c -0.02 0.00 -0.04 0.01 -0.06 0.02 c -1.91 1.00 -3.48 2.80 -3.48 7.05 v 0.45 h 1.15 v -0.45 c 0.00 -2.42 0.48 -5.27 2.48 -6.79 c 0.09 -0.07 0.09 -0.14 0.09 -0.21 z   M 1.08 8.73 v 1.54 h 1.15 v -1.54 z" style="fill:rgb(0,0,0);fill-opacity:1;stroke-width:1px;stroke:none;stroke-opacity:1;"></path><path d=" M 4.71 17.73 c 0.00 0.04 -0.03 0.06 -0.06 0.06 c -0.02 0.00 -0.04 -0.01 -0.06 -0.02 c -1.91 -1.00 -3.48 -2.80 -3.48 -7.05 v -0.45 h 1.15 v 0.45 c 0.00 2.42 0.48 5.27 2.48 6.79 c 0.09 0.07 0.09 0.14 0.09 0.21 z" style="fill:rgb(0,0,0);fill-opacity:1;stroke-width:1px;stroke:none;stroke-opacity:1;"></path></svg></g><g><g transform="matrix(1,0,0,1,80.078125,56.546875)"><path transform="matrix(0.01275,0,0,-0.01275,0,0)" d="M409 603L47 -1L157 -1L497 659L497 689L44 689L44 477L74 477L81 533C89 595 96 603 142 603ZM508 1C523 -7 539 -11 551 -11C584 -11 623 18 654 65L730 182L741 113C754 28 777 -11 813 -11C835 -11 867 6 899 35L948 79L939 98C903 68 878 53 862 53C847 53 834 63 824 83C815 102 804 139 799 168L781 269L816 318C863 383 890 406 921 406C937 406 949 398 954 383L968 387L983 472C971 479 962 482 953 482C913 482 873 446 811 354L774 299L768 347C756 446 729 482 670 482C644 482 622 474 613 461L555 378L572 368C602 402 622 416 641 416C674 416 696 375 713 277L724 215L684 153C641 86 607 54 579 54C564 54 553 58 551 63L540 91L520 88C520 53 512 27 508 1ZM1553 243L1553 299L1049 299L1049 243ZM1883 181L1883 106C1883 46 1872 32 1823 30L1761 27L1761 -3C1894 0 1894 0 1918 0C1942 0 1942 0 2075 -3L2075 27L2027 30C1978 33 1967 46 1967 106L1967 181C2026 181 2047 180 2075 177L2075 248L1967 245L1968 697L1888 667L1605 204L1605 181ZM1883 245L1668 245L1883 597ZM2111 1C2126 -7 2142 -11 2154 -11C2187 -11 2226 18 2257 65L2333 182L2344 113C2357 28 2380 -11 2416 -11C2438 -11 2470 6 2502 35L2551 79L2542 98C2506 68 2481 53 2465 53C2450 53 2437 63 2427 83C2418 102 2407 139 2402 168L2384 269L2419 318C2466 383 2493 406 2524 406C2540 406 2552 398 2557 383L2571 387L2586 472C2574 479 2565 482 2556 482C2516 482 2476 446 2414 354L2377 299L2371 347C2359 446 2332 482 2273 482C2247 482 2225 474 2216 461L2158 378L2175 368C2205 402 2225 416 2244 416C2277 416 2299 375 2316 277L2327 215L2287 153C2244 86 2210 54 2182 54C2167 54 2156 58 2154 63L2143 91L2123 88C2123 53 2115 27 2111 1Z" stroke="rgb(0,0,0)" stroke-opacity="1" stroke-width="8" fill="rgb(0,0,0)" fill-opacity="1"></path></g></g><g><g><g><g><g transform="matrix(1,0,0,1,113.96875,53.221875)"><path transform="matrix(0.008925,0,0,-0.008925,0,0)" d="M16 23L16 -3C203 -3 203 0 239 0C275 0 275 -3 468 -3L468 82C353 77 307 81 122 77L304 270C401 373 431 428 431 503C431 618 353 689 226 689C154 689 105 669 56 619L39 483L68 483L81 529C97 587 133 612 200 612C286 612 341 558 341 473C341 398 299 324 186 204Z" stroke="rgb(0,0,0)" stroke-opacity="1" stroke-width="8" fill="rgb(0,0,0)" fill-opacity="1"></path></g></g></g></g></g><g><svg x="117.90625" overflow="visible" y="43.796875" height="19" width="6.375"><path d=" M 1.31 1.27 c 0.00 -0.04 0.03 -0.06 0.06 -0.06 c 0.02 0.00 0.04 0.01 0.06 0.02 c 1.91 1.00 3.48 2.80 3.48 7.05 v 0.45 h -1.15 v -0.45 c 0.00 -2.42 -0.48 -5.27 -2.48 -6.79 c -0.09 -0.07 -0.09 -0.14 -0.09 -0.21 z  M 4.94 8.73 v 1.54 h -1.15 v -1.54 z" style="fill:rgb(0,0,0);fill-opacity:1;stroke-width:1px;stroke:none;stroke-opacity:1;"></path><path d=" M 1.31 17.73 c 0.00 0.04 0.03 0.06 0.06 0.06 c 0.02 0.00 0.04 -0.01 0.06 -0.02 c 1.91 -1.00 3.48 -2.80 3.48 -7.05 v -0.45 h -1.15 v 0.45 c 0.00 2.42 -0.48 5.27 -2.48 6.79 c -0.09 0.07 -0.09 0.14 -0.09 0.21 z" style="fill:rgb(0,0,0);fill-opacity:1;stroke-width:1px;stroke:none;stroke-opacity:1;"></path></svg></g><g><g><g><g><g transform="matrix(1,0,0,1,124.25,48.690625)"><path transform="matrix(0.008925,0,0,-0.008925,0,0)" d="M16 23L16 -3C203 -3 203 0 239 0C275 0 275 -3 468 -3L468 82C353 77 307 81 122 77L304 270C401 373 431 428 431 503C431 618 353 689 226 689C154 689 105 669 56 619L39 483L68 483L81 529C97 587 133 612 200 612C286 612 341 558 341 473C341 398 299 324 186 204Z" stroke="rgb(0,0,0)" stroke-opacity="1" stroke-width="8" fill="rgb(0,0,0)" fill-opacity="1"></path></g></g></g></g></g></g></g><line style="fill:none;stroke-width:1px;stroke:rgb(0, 0, 0);" x1="2" y1="39.8125" x2="201.53125" y2="39.8125"></line></g></g></g></svg>