<svg xmlns="http://www.w3.org/2000/svg" xmlns:xlink="http://www.w3.org/1999/xlink" width="236.921875" height="48" style="width:236.921875px;height:48px;font-family:Asana-Math, Asana;background:transparent;"><g><g><g><g><g><g><g transform="matrix(1,0,0,1,22.34375,13.9)"><path transform="matrix(0.0119,0,0,-0.0119,0,0)" d="M462 224C462 345 355 366 308 374C388 436 418 482 418 541C418 630 344 689 233 689C165 689 120 670 72 622L43 498L74 498L92 554C103 588 166 622 218 622C283 622 336 569 336 506C336 431 277 368 206 368C198 368 187 369 174 370L159 371L147 318L154 312C192 329 211 334 238 334C321 334 369 281 369 190C369 88 308 21 215 21C169 21 128 36 98 64C74 86 61 109 42 163L15 153C36 92 44 56 50 6C103 -12 147 -20 184 -20C307 -20 462 87 462 224Z" stroke="rgb(0,0,0)" stroke-opacity="1" stroke-width="0" fill="rgb(0,0,0)" fill-opacity="1"></path></g></g></g></g><g><g><g><g transform="matrix(1,0,0,1,13.890625,43.9)"><path transform="matrix(0.0119,0,0,-0.0119,0,0)" d="M418 -3L418 27L366 30C311 33 301 44 301 96L301 700L60 598L67 548L217 614L217 96C217 44 206 33 152 30L96 27L96 -3C250 0 250 0 261 0C292 0 402 -3 418 -3Z" stroke="rgb(0,0,0)" stroke-opacity="1" stroke-width="0" fill="rgb(0,0,0)" fill-opacity="1"></path></g></g></g></g><g><g transform="matrix(1,0,0,1,2,31.900000000000002)"><path transform="matrix(0.0255,0,0,-0.0255,0,0)" d="M694 802C694 860 621 885 573 885C368 885 344 579 334 430C323 251 309 72 304 -108C301 -191 312 -410 184 -410C173 -410 159 -407 151 -397C153 -392 155 -384 155 -378C155 -347 114 -315 83 -315C59 -315 54 -340 54 -359C54 -418 125 -442 173 -442C348 -442 380 -190 395 -59C413 104 421 269 433 433C439 521 422 853 562 853C574 853 587 850 596 841C593 834 592 828 592 821C592 789 633 759 663 759C687 759 694 782 694 802Z" stroke="rgb(0,0,0)" stroke-opacity="1" stroke-width="0" fill="rgb(0,0,0)" fill-opacity="1"></path></g></g></g><g><svg x="29.484375" overflow="visible" y="12" height="27" width="7.640625"><path d=" M 5.98 1.70 l -0.10 -0.10 q -1.09 0.03 -2.16 0.03 q -1.02 0.00 -2.14 -0.03 l -0.15 0.22 q 0.15 0.58 0.15 3.15 v 0.85 h 1.43 v -0.85 q 0.00 -1.31 0.07 -2.14 q 0.05 -0.60 1.19 -0.60 h 1.65 l 0.07 -0.09 v -0.44 z  M 1.58 5.63 v 15.75 h 1.43 v -15.75 z " style="fill:rgb(0,0,0);fill-opacity:1;stroke-width:1px;stroke:none;stroke-opacity:1;"></path><path d=" M 5.98 25.30 l -0.10 0.10 q -1.09 -0.03 -2.16 -0.03 q -1.02 0.00 -2.14 0.03 l -0.15 -0.22 q 0.15 -0.58 0.15 -3.15 v -0.85 h 1.43 v 0.85 q 0.00 1.31 0.07 2.14 q 0.05 0.60 1.19 0.60 h 1.65 l 0.07 0.09 v 0.44 z" style="fill:rgb(0,0,0);fill-opacity:1;stroke-width:1px;stroke:none;stroke-opacity:1;"></path></svg></g><g><g transform="matrix(1,0,0,1,37.125,32)"><path transform="matrix(0.017,0,0,-0.017,0,0)" d="M146 266C146 526 243 632 301 700L282 726C225 675 60 542 60 266C60 159 85 58 133 -32C168 -99 200 -138 282 -215L301 -194C255 -137 146 -15 146 266Z" stroke="rgb(0,0,0)" stroke-opacity="1" stroke-width="0" fill="rgb(0,0,0)" fill-opacity="1"></path></g></g><g><g transform="matrix(1,0,0,1,42.78125,32)"><path transform="matrix(0.017,0,0,-0.017,0,0)" d="M251 722L239 733C187 707 151 698 79 691L75 670L123 670C147 670 157 663 157 648C157 645 157 640 154 622C143 567 70 182 55 132C42 82 36 52 36 31C36 6 47 -9 66 -9C92 -9 128 12 226 85L216 103L190 86C161 67 139 56 129 56C122 56 116 66 116 76C116 82 117 89 120 104ZM294 152C294 46 339 -11 422 -11C477 -11 537 15 582 57C644 116 688 230 688 331C688 425 638 482 555 482C451 482 294 382 294 152ZM518 444C579 444 612 399 612 315C612 219 581 113 537 60C519 39 493 27 462 27C404 27 370 72 370 151C370 264 409 387 458 427C471 438 494 444 518 444ZM995 482C928 482 775 419 775 259C775 182 820 136 897 136C905 136 916 136 927 137L886 99C870 84 859 66 859 52C859 42 866 31 880 19C811 -4 683 -48 683 -159C683 -230 753 -276 862 -276C991 -276 1104 -204 1104 -121C1104 -85 1083 -49 1040 -14L980 35C946 62 933 81 933 100C933 114 948 128 960 146C1058 170 1129 253 1129 342C1129 357 1126 376 1125 380C1142 378 1150 378 1159 378C1176 378 1186 379 1209 382L1218 427L1215 433C1187 426 1167 424 1113 424C1113 425 1089 482 995 482ZM896 1L973 -58C1019 -94 1038 -121 1038 -154C1038 -206 969 -248 886 -248C804 -248 747 -206 747 -145C747 -43 857 -11 896 1ZM970 448C1028 448 1057 412 1057 341C1057 238 1009 168 939 168C878 168 846 209 846 288C846 383 897 448 970 448Z" stroke="rgb(0,0,0)" stroke-opacity="1" stroke-width="0" fill="rgb(0,0,0)" fill-opacity="1"></path></g></g><g><g transform="matrix(1,0,0,1,63.515625,32)"><path transform="matrix(0.017,0,0,-0.017,0,0)" d="M146 266C146 526 243 632 301 700L282 726C225 675 60 542 60 266C60 159 85 58 133 -32C168 -99 200 -138 282 -215L301 -194C255 -137 146 -15 146 266Z" stroke="rgb(0,0,0)" stroke-opacity="1" stroke-width="0" fill="rgb(0,0,0)" fill-opacity="1"></path></g></g><g><g transform="matrix(1,0,0,1,69.171875,32)"><path transform="matrix(0.017,0,0,-0.017,0,0)" d="M9 1C24 -7 40 -11 52 -11C85 -11 124 18 155 65L231 182L242 113C255 28 278 -11 314 -11C336 -11 368 6 400 35L449 79L440 98C404 68 379 53 363 53C348 53 335 63 325 83C316 102 305 139 300 168L282 269L317 318C364 383 391 406 422 406C438 406 450 398 455 383L469 387L484 472C472 479 463 482 454 482C414 482 374 446 312 354L275 299L269 347C257 446 230 482 171 482C145 482 123 474 114 461L56 378L73 368C103 402 123 416 142 416C175 416 197 375 214 277L225 215L185 153C142 86 108 54 80 54C65 54 54 58 52 63L41 91L21 88C21 53 13 27 9 1Z" stroke="rgb(0,0,0)" stroke-opacity="1" stroke-width="0" fill="rgb(0,0,0)" fill-opacity="1"></path></g></g><g><g transform="matrix(1,0,0,1,77.65625,32)"><path transform="matrix(0.017,0,0,-0.017,0,0)" d="M51 726L32 700C87 636 187 526 187 266C187 -10 83 -131 32 -194L51 -215C104 -165 273 -23 273 265C273 542 108 675 51 726Z" stroke="rgb(0,0,0)" stroke-opacity="1" stroke-width="0" fill="rgb(0,0,0)" fill-opacity="1"></path></g></g><g><g transform="matrix(1,0,0,1,86.703125,32)"><path transform="matrix(0.017,0,0,-0.017,0,0)" d="M604 241L604 300L364 300L364 538L305 538L305 300L65 300L65 241L305 241L305 0L364 0L364 241Z" stroke="rgb(0,0,0)" stroke-opacity="1" stroke-width="0" fill="rgb(0,0,0)" fill-opacity="1"></path></g></g><g><g transform="matrix(1,0,0,1,101.453125,32)"><path transform="matrix(0.017,0,0,-0.017,0,0)" d="M462 224C462 345 355 366 308 374C388 436 418 482 418 541C418 630 344 689 233 689C165 689 120 670 72 622L43 498L74 498L92 554C103 588 166 622 218 622C283 622 336 569 336 506C336 431 277 368 206 368C198 368 187 369 174 370L159 371L147 318L154 312C192 329 211 334 238 334C321 334 369 281 369 190C369 88 308 21 215 21C169 21 128 36 98 64C74 86 61 109 42 163L15 153C36 92 44 56 50 6C103 -12 147 -20 184 -20C307 -20 462 87 462 224Z" stroke="rgb(0,0,0)" stroke-opacity="1" stroke-width="0" fill="rgb(0,0,0)" fill-opacity="1"></path></g></g><g><g transform="matrix(1,0,0,1,109.9375,32)"><path transform="matrix(0.017,0,0,-0.017,0,0)" d="M51 726L32 700C87 636 187 526 187 266C187 -10 83 -131 32 -194L51 -215C104 -165 273 -23 273 265C273 542 108 675 51 726Z" stroke="rgb(0,0,0)" stroke-opacity="1" stroke-width="0" fill="rgb(0,0,0)" fill-opacity="1"></path></g></g><g><g transform="matrix(1,0,0,1,118.984375,32)"><path transform="matrix(0.017,0,0,-0.017,0,0)" d="M555 243L555 299L51 299L51 243Z" stroke="rgb(0,0,0)" stroke-opacity="1" stroke-width="0" fill="rgb(0,0,0)" fill-opacity="1"></path></g></g><g><svg x="133.859375" overflow="visible" y="14" height="24" width="8.5"><path d=" M 6.27 1.70 c 0.00 -0.06 -0.04 -0.08 -0.08 -0.08 c -0.03 0.00 -0.06 0.01 -0.08 0.02 c -2.55 1.34 -4.65 3.73 -4.65 9.40 v 0.60 h 1.53 v -0.60 c 0.00 -3.23 0.64 -7.03 3.31 -9.06 c 0.12 -0.09 0.13 -0.19 0.13 -0.28 z   M 1.44 11.64 v 0.72 h 1.53 v -0.72 z" style="fill:rgb(0,0,0);fill-opacity:1;stroke-width:1px;stroke:none;stroke-opacity:1;"></path><path d=" M 6.27 22.30 c 0.00 0.06 -0.04 0.08 -0.08 0.08 c -0.03 0.00 -0.06 -0.01 -0.08 -0.02 c -2.55 -1.34 -4.65 -3.73 -4.65 -9.40 v -0.60 h 1.53 v 0.60 c 0.00 3.23 0.64 7.03 3.31 9.06 c 0.12 0.09 0.13 0.19 0.13 0.28 z" style="fill:rgb(0,0,0);fill-opacity:1;stroke-width:1px;stroke:none;stroke-opacity:1;"></path></svg></g><g><g transform="matrix(1,0,0,1,140.671875,32)"><path transform="matrix(0.017,0,0,-0.017,0,0)" d="M9 1C24 -7 40 -11 52 -11C85 -11 124 18 155 65L231 182L242 113C255 28 278 -11 314 -11C336 -11 368 6 400 35L449 79L440 98C404 68 379 53 363 53C348 53 335 63 325 83C316 102 305 139 300 168L282 269L317 318C364 383 391 406 422 406C438 406 450 398 455 383L469 387L484 472C472 479 463 482 454 482C414 482 374 446 312 354L275 299L269 347C257 446 230 482 171 482C145 482 123 474 114 461L56 378L73 368C103 402 123 416 142 416C175 416 197 375 214 277L225 215L185 153C142 86 108 54 80 54C65 54 54 58 52 63L41 91L21 88C21 53 13 27 9 1Z" stroke="rgb(0,0,0)" stroke-opacity="1" stroke-width="0" fill="rgb(0,0,0)" fill-opacity="1"></path></g></g><g><g><g><g><g transform="matrix(1,0,0,1,150.125,25.571875)"><path transform="matrix(0.0119,0,0,-0.0119,0,0)" d="M16 23L16 -3C203 -3 203 0 239 0C275 0 275 -3 468 -3L468 82C353 77 307 81 122 77L304 270C401 373 431 428 431 503C431 618 353 689 226 689C154 689 105 669 56 619L39 483L68 483L81 529C97 587 133 612 200 612C286 612 341 558 341 473C341 398 299 324 186 204Z" stroke="rgb(0,0,0)" stroke-opacity="1" stroke-width="0" fill="rgb(0,0,0)" fill-opacity="1"></path></g></g></g></g></g><g><g transform="matrix(1,0,0,1,160.484375,32)"><path transform="matrix(0.017,0,0,-0.017,0,0)" d="M555 243L555 299L51 299L51 243Z" stroke="rgb(0,0,0)" stroke-opacity="1" stroke-width="0" fill="rgb(0,0,0)" fill-opacity="1"></path></g></g><g><g transform="matrix(1,0,0,1,174.171875,32)"><path transform="matrix(0.017,0,0,-0.017,0,0)" d="M462 224C462 345 355 366 308 374C388 436 418 482 418 541C418 630 344 689 233 689C165 689 120 670 72 622L43 498L74 498L92 554C103 588 166 622 218 622C283 622 336 569 336 506C336 431 277 368 206 368C198 368 187 369 174 370L159 371L147 318L154 312C192 329 211 334 238 334C321 334 369 281 369 190C369 88 308 21 215 21C169 21 128 36 98 64C74 86 61 109 42 163L15 153C36 92 44 56 50 6C103 -12 147 -20 184 -20C307 -20 462 87 462 224Z" stroke="rgb(0,0,0)" stroke-opacity="1" stroke-width="0" fill="rgb(0,0,0)" fill-opacity="1"></path></g></g><g><svg x="180.96875" overflow="visible" y="14" height="24" width="8.5"><path d=" M 1.75 1.70 c 0.00 -0.06 0.04 -0.08 0.08 -0.08 c 0.03 0.00 0.06 0.01 0.08 0.02 c 2.55 1.34 4.65 3.73 4.65 9.40 v 0.60 h -1.53 v -0.60 c 0.00 -3.23 -0.64 -7.03 -3.31 -9.06 c -0.12 -0.09 -0.13 -0.19 -0.13 -0.28 z  M 6.58 11.64 v 0.72 h -1.53 v -0.72 z" style="fill:rgb(0,0,0);fill-opacity:1;stroke-width:1px;stroke:none;stroke-opacity:1;"></path><path d=" M 1.75 22.30 c 0.00 0.06 0.04 0.08 0.08 0.08 c 0.03 0.00 0.06 -0.01 0.08 -0.02 c 2.55 -1.34 4.65 -3.73 4.65 -9.40 v -0.60 h -1.53 v 0.60 c 0.00 3.23 -0.64 7.03 -3.31 9.06 c -0.12 0.09 -0.13 0.19 -0.13 0.28 z" style="fill:rgb(0,0,0);fill-opacity:1;stroke-width:1px;stroke:none;stroke-opacity:1;"></path></svg></g><g><svg x="190.65625" overflow="visible" y="12" height="27" width="7.640625"><path d=" M 1.57 1.70 l 0.10 -0.10 q 1.09 0.03 2.16 0.03 q 1.02 0.00 2.14 -0.03 l 0.15 0.22 q -0.15 0.58 -0.15 3.15 v 0.85 h -1.43 v -0.85 q 0.00 -1.31 -0.07 -2.14 q -0.05 -0.60 -1.19 -0.60 h -1.65 l -0.07 -0.09 v -0.44 z  M 5.97 5.63 v 15.75 h -1.43 v -15.75 z" style="fill:rgb(0,0,0);fill-opacity:1;stroke-width:1px;stroke:none;stroke-opacity:1;"></path><path d=" M 1.57 25.30 l 0.10 0.10 q 1.09 -0.03 2.16 -0.03 q 1.02 0.00 2.14 0.03 l 0.15 -0.22 q -0.15 -0.58 -0.15 -3.15 v -0.85 h -1.43 v 0.85 q 0.00 1.31 -0.07 2.14 q -0.05 0.60 -1.19 0.60 h -1.65 l -0.07 0.09 v 0.44 z" style="fill:rgb(0,0,0);fill-opacity:1;stroke-width:1px;stroke:none;stroke-opacity:1;"></path></svg></g><g><g transform="matrix(1,0,0,1,199.484375,32)"><path transform="matrix(0.017,0,0,-0.017,0,0)" d="M168 267L37 213L32 204L68 153L78 153L184 241L202 99L212 95L280 121L280 131L212 253L350 233L359 241L359 303L353 307L214 283L283 408L280 423L218 442L209 438L183 295L88 393L78 393L34 341L37 331Z" stroke="rgb(0,0,0)" stroke-opacity="1" stroke-width="0" fill="rgb(0,0,0)" fill-opacity="1"></path></g></g><g><g><g><g><g transform="matrix(1,0,0,1,207.78125,20)"><path transform="matrix(0.017,0,0,-0.017,0,0)" d="M9 1C24 -7 40 -11 52 -11C85 -11 124 18 155 65L231 182L242 113C255 28 278 -11 314 -11C336 -11 368 6 400 35L449 79L440 98C404 68 379 53 363 53C348 53 335 63 325 83C316 102 305 139 300 168L282 269L317 318C364 383 391 406 422 406C438 406 450 398 455 383L469 387L484 472C472 479 463 482 454 482C414 482 374 446 312 354L275 299L269 347C257 446 230 482 171 482C145 482 123 474 114 461L56 378L73 368C103 402 123 416 142 416C175 416 197 375 214 277L225 215L185 153C142 86 108 54 80 54C65 54 54 58 52 63L41 91L21 88C21 53 13 27 9 1Z" stroke="rgb(0,0,0)" stroke-opacity="1" stroke-width="0" fill="rgb(0,0,0)" fill-opacity="1"></path></g></g></g></g><g><g><g><g transform="matrix(1,0,0,1,207.78125,45)"><path transform="matrix(0.017,0,0,-0.017,0,0)" d="M462 224C462 345 355 366 308 374C388 436 418 482 418 541C418 630 344 689 233 689C165 689 120 670 72 622L43 498L74 498L92 554C103 588 166 622 218 622C283 622 336 569 336 506C336 431 277 368 206 368C198 368 187 369 174 370L159 371L147 318L154 312C192 329 211 334 238 334C321 334 369 281 369 190C369 88 308 21 215 21C169 21 128 36 98 64C74 86 61 109 42 163L15 153C36 92 44 56 50 6C103 -12 147 -20 184 -20C307 -20 462 87 462 224Z" stroke="rgb(0,0,0)" stroke-opacity="1" stroke-width="0" fill="rgb(0,0,0)" fill-opacity="1"></path></g></g></g></g><line style="fill:none;stroke-width:1px;stroke:rgb(0, 0, 0);" x1="207.78125" y1="27.75" x2="216.265625" y2="27.75"></line></g><g><g transform="matrix(1,0,0,1,217.953125,32)"><path transform="matrix(0.017,0,0,-0.017,0,0)" d="M483 722L471 733C419 707 383 698 311 691L307 670L355 670C379 670 389 663 389 646C389 638 388 629 387 622L359 468C329 477 302 482 277 482C208 482 114 410 68 323C37 265 17 170 17 86C17 21 32 -11 61 -11C88 -11 125 6 159 33C213 77 246 116 313 217L290 126C279 82 274 50 274 24C274 3 283 -9 300 -9C317 -9 341 3 375 28L456 88L446 107L402 76C388 66 372 59 363 59C355 59 349 68 349 82C349 90 350 99 357 128ZM114 59C98 59 89 73 89 98C89 224 135 380 184 418C197 428 216 433 243 433C287 433 316 427 349 410L337 351C300 171 159 59 114 59ZM508 1C523 -7 539 -11 551 -11C584 -11 623 18 654 65L730 182L741 113C754 28 777 -11 813 -11C835 -11 867 6 899 35L948 79L939 98C903 68 878 53 862 53C847 53 834 63 824 83C815 102 804 139 799 168L781 269L816 318C863 383 890 406 921 406C937 406 949 398 954 383L968 387L983 472C971 479 962 482 953 482C913 482 873 446 811 354L774 299L768 347C756 446 729 482 670 482C644 482 622 474 613 461L555 378L572 368C602 402 622 416 641 416C674 416 696 375 713 277L724 215L684 153C641 86 607 54 579 54C564 54 553 58 551 63L540 91L520 88C520 53 512 27 508 1Z" stroke="rgb(0,0,0)" stroke-opacity="1" stroke-width="0" fill="rgb(0,0,0)" fill-opacity="1"></path></g></g></g></g></svg>