<svg xmlns="http://www.w3.org/2000/svg" xmlns:xlink="http://www.w3.org/1999/xlink" width="53.828125" height="25.328125" style="width:53.828125px;height:25.328125px;font-family:Asana-Math, Asana;background:transparent;"><g><g><g><g transform="matrix(1,0,0,1,2,20.328125)"><path transform="matrix(0.017,0,0,-0.017,0,0)" d="M131 331C152 512 241 611 421 665L379 689C283 657 242 637 191 593C88 506 32 384 32 247C32 82 112 -20 241 -20C371 -20 468 83 468 219C468 334 399 409 293 409C216 409 184 370 131 331ZM255 349C331 349 382 283 382 184C382 80 331 13 254 13C169 13 123 86 123 220C123 255 127 274 138 291C160 325 207 349 255 349ZM667 345C626 326 609 315 587 294C549 256 529 211 529 159C529 56 612 -20 725 -20C855 -20 963 82 963 206C963 286 926 329 812 381C903 443 935 485 935 545C935 631 864 689 758 689C639 689 552 613 552 508C552 440 579 402 667 345ZM783 295C846 267 884 218 884 164C884 80 821 14 740 14C655 14 600 74 600 167C600 240 629 286 703 331ZM722 423C659 454 627 494 627 544C627 610 675 655 746 655C819 655 867 607 867 534C867 477 842 438 777 396ZM1122 111C1092 111 1065 83 1065 53C1065 23 1092 -5 1121 -5C1153 -5 1181 22 1181 53C1181 83 1153 111 1122 111ZM1656 603L1294 -1L1404 -1L1744 659L1744 689L1291 689L1291 477L1321 477L1328 533C1336 595 1343 603 1389 603ZM2476 103L2450 86C2421 67 2399 56 2389 56C2382 56 2376 65 2376 76C2376 86 2378 95 2383 116L2458 413C2462 430 2465 446 2465 454C2465 471 2455 482 2439 482C2410 482 2372 464 2311 421C2248 376 2213 341 2164 272L2194 409C2198 429 2201 444 2201 451C2201 470 2191 482 2175 482C2145 482 2099 460 2044 418C2000 384 1980 363 1915 275L1948 408C1952 424 1954 439 1954 451C1954 470 1945 482 1931 482C1910 482 1872 461 1798 408L1770 388L1777 368C1814 391 1849 414 1856 414C1867 414 1874 404 1874 389C1874 338 1833 145 1792 2L1795 -9L1863 6L1885 108C1909 219 1936 278 1991 338C2033 384 2078 414 2106 414C2113 414 2117 406 2117 393C2117 358 2095 244 2054 69L2038 2L2043 -9L2112 6L2133 113C2149 194 2183 269 2227 318C2282 379 2332 414 2364 414C2372 414 2377 405 2377 389C2377 365 2374 351 2352 264C2312 105 2296 84 2296 31C2296 6 2307 -9 2326 -9C2352 -9 2388 12 2486 85Z" stroke="rgb(0,0,0)" stroke-opacity="1" stroke-width="8" fill="rgb(0,0,0)" fill-opacity="1"></path></g></g><g><g><g><g><g transform="matrix(1,0,0,1,45.875,13.9)"><path transform="matrix(0.0119,0,0,-0.0119,0,0)" d="M16 23L16 -3C203 -3 203 0 239 0C275 0 275 -3 468 -3L468 82C353 77 307 81 122 77L304 270C401 373 431 428 431 503C431 618 353 689 226 689C154 689 105 669 56 619L39 483L68 483L81 529C97 587 133 612 200 612C286 612 341 558 341 473C341 398 299 324 186 204Z" stroke="rgb(0,0,0)" stroke-opacity="1" stroke-width="8" fill="rgb(0,0,0)" fill-opacity="1"></path></g></g></g></g></g></g></g></svg>