<svg xmlns="http://www.w3.org/2000/svg" xmlns:xlink="http://www.w3.org/1999/xlink" width="169.171875" height="31.375" style="width:169.171875px;height:31.375px;font-family:Asana-Math, Asana;background:transparent;"><g><g><g><svg x="2" overflow="visible" y="3.6875" height="24" width="8.5"><path d=" M 6.27 1.70 c 0.00 -0.06 -0.04 -0.08 -0.08 -0.08 c -0.03 0.00 -0.06 0.01 -0.08 0.02 c -2.55 1.34 -4.65 3.73 -4.65 9.40 v 0.60 h 1.53 v -0.60 c 0.00 -3.23 0.64 -7.03 3.31 -9.06 c 0.12 -0.09 0.13 -0.19 0.13 -0.28 z   M 1.44 11.64 v 0.72 h 1.53 v -0.72 z" style="fill:rgb(0,0,0);fill-opacity:1;stroke-width:1px;stroke:none;stroke-opacity:1;"></path><path d=" M 6.27 22.30 c 0.00 0.06 -0.04 0.08 -0.08 0.08 c -0.03 0.00 -0.06 -0.01 -0.08 -0.02 c -2.55 -1.34 -4.65 -3.73 -4.65 -9.40 v -0.60 h 1.53 v 0.60 c 0.00 3.23 0.64 7.03 3.31 9.06 c 0.12 0.09 0.13 0.19 0.13 0.28 z" style="fill:rgb(0,0,0);fill-opacity:1;stroke-width:1px;stroke:none;stroke-opacity:1;"></path></svg></g><g><g transform="matrix(1,0,0,1,8.8125,21.6875)"><path transform="matrix(0.017,0,0,-0.017,0,0)" d="M131 331C152 512 241 611 421 665L379 689C283 657 242 637 191 593C88 506 32 384 32 247C32 82 112 -20 241 -20C371 -20 468 83 468 219C468 334 399 409 293 409C216 409 184 370 131 331ZM255 349C331 349 382 283 382 184C382 80 331 13 254 13C169 13 123 86 123 220C123 255 127 274 138 291C160 325 207 349 255 349ZM508 1C523 -7 539 -11 551 -11C584 -11 623 18 654 65L730 182L741 113C754 28 777 -11 813 -11C835 -11 867 6 899 35L948 79L939 98C903 68 878 53 862 53C847 53 834 63 824 83C815 102 804 139 799 168L781 269L816 318C863 383 890 406 921 406C937 406 949 398 954 383L968 387L983 472C971 479 962 482 953 482C913 482 873 446 811 354L774 299L768 347C756 446 729 482 670 482C644 482 622 474 613 461L555 378L572 368C602 402 622 416 641 416C674 416 696 375 713 277L724 215L684 153C641 86 607 54 579 54C564 54 553 58 551 63L540 91L520 88C520 53 512 27 508 1Z" stroke="rgb(0,0,0)" stroke-opacity="1" stroke-width="8" fill="rgb(0,0,0)" fill-opacity="1"></path></g></g><g><g><g><g><g transform="matrix(1,0,0,1,26.75,15.259375)"><path transform="matrix(0.0119,0,0,-0.0119,0,0)" d="M16 23L16 -3C203 -3 203 0 239 0C275 0 275 -3 468 -3L468 82C353 77 307 81 122 77L304 270C401 373 431 428 431 503C431 618 353 689 226 689C154 689 105 669 56 619L39 483L68 483L81 529C97 587 133 612 200 612C286 612 341 558 341 473C341 398 299 324 186 204Z" stroke="rgb(0,0,0)" stroke-opacity="1" stroke-width="8" fill="rgb(0,0,0)" fill-opacity="1"></path></g></g></g></g></g><g><g transform="matrix(1,0,0,1,37.109375,21.6875)"><path transform="matrix(0.017,0,0,-0.017,0,0)" d="M604 241L604 300L364 300L364 538L305 538L305 300L65 300L65 241L305 241L305 0L364 0L364 241Z" stroke="rgb(0,0,0)" stroke-opacity="1" stroke-width="8" fill="rgb(0,0,0)" fill-opacity="1"></path></g></g><g><g transform="matrix(1,0,0,1,51.859375,21.6875)"><path transform="matrix(0.017,0,0,-0.017,0,0)" d="M280 181L280 106C280 46 269 32 220 30L158 27L158 -3C291 0 291 0 315 0C339 0 339 0 472 -3L472 27L424 30C375 33 364 46 364 106L364 181C423 181 444 180 472 177L472 248L364 245L365 697L285 667L2 204L2 181ZM280 245L65 245L280 597Z" stroke="rgb(0,0,0)" stroke-opacity="1" stroke-width="8" fill="rgb(0,0,0)" fill-opacity="1"></path></g></g><g><svg x="58.65625" overflow="visible" y="3.6875" height="24" width="8.5"><path d=" M 1.75 1.70 c 0.00 -0.06 0.04 -0.08 0.08 -0.08 c 0.03 0.00 0.06 0.01 0.08 0.02 c 2.55 1.34 4.65 3.73 4.65 9.40 v 0.60 h -1.53 v -0.60 c 0.00 -3.23 -0.64 -7.03 -3.31 -9.06 c -0.12 -0.09 -0.13 -0.19 -0.13 -0.28 z  M 6.58 11.64 v 0.72 h -1.53 v -0.72 z" style="fill:rgb(0,0,0);fill-opacity:1;stroke-width:1px;stroke:none;stroke-opacity:1;"></path><path d=" M 1.75 22.30 c 0.00 0.06 0.04 0.08 0.08 0.08 c 0.03 0.00 0.06 -0.01 0.08 -0.02 c 2.55 -1.34 4.65 -3.73 4.65 -9.40 v -0.60 h -1.53 v 0.60 c 0.00 3.23 -0.64 7.03 -3.31 9.06 c -0.12 0.09 -0.13 0.19 -0.13 0.28 z" style="fill:rgb(0,0,0);fill-opacity:1;stroke-width:1px;stroke:none;stroke-opacity:1;"></path></svg></g><g><g><g transform="matrix(1,0,0,1,68.34375,21.6875)"><path transform="matrix(0.017,0,0,-0.017,0,0)" d="M399 311C399 357 404 398 413 434C381 478 338 497 293 497C169 497 25 361 25 224C25 219 26 215 26 210C26 75 121 -20 255 -20C307 -20 382 -1 392 14L413 46L403 61C366 41 334 32 298 32C187 32 114 118 114 250C114 357 164 417 254 417C298 417 346 397 364 372L371 311ZM722 469C576 469 475 366 475 217C475 76 564 -20 693 -20C847 -20 957 87 957 237C957 372 859 469 722 469ZM704 436C796 436 864 336 864 200C864 85 813 13 732 13C634 13 568 109 568 251C568 371 616 436 704 436ZM1029 143C1029 74 1026 44 1018 4C1070 -13 1109 -20 1155 -20C1286 -20 1379 50 1379 148C1379 321 1095 228 1095 358C1095 408 1130 436 1191 436C1258 436 1309 401 1309 354L1309 331L1337 331C1338 389 1339 413 1342 444C1289 462 1253 469 1212 469C1096 469 1025 414 1025 324C1025 276 1047 242 1093 221C1211 169 1305 195 1305 109C1305 55 1255 17 1184 17C1111 17 1059 52 1059 102L1059 143Z" stroke="rgb(0,0,0)" stroke-opacity="1" stroke-width="8" fill="rgb(0,0,0)" fill-opacity="1"></path></g></g></g><g><svg x="93.53125" overflow="visible" y="3.6875" height="24" width="8.5"><path d=" M 6.27 1.70 c 0.00 -0.06 -0.04 -0.08 -0.08 -0.08 c -0.03 0.00 -0.06 0.01 -0.08 0.02 c -2.55 1.34 -4.65 3.73 -4.65 9.40 v 0.60 h 1.53 v -0.60 c 0.00 -3.23 0.64 -7.03 3.31 -9.06 c 0.12 -0.09 0.13 -0.19 0.13 -0.28 z   M 1.44 11.64 v 0.72 h 1.53 v -0.72 z" style="fill:rgb(0,0,0);fill-opacity:1;stroke-width:1px;stroke:none;stroke-opacity:1;"></path><path d=" M 6.27 22.30 c 0.00 0.06 -0.04 0.08 -0.08 0.08 c -0.03 0.00 -0.06 -0.01 -0.08 -0.02 c -2.55 -1.34 -4.65 -3.73 -4.65 -9.40 v -0.60 h 1.53 v 0.60 c 0.00 3.23 0.64 7.03 3.31 9.06 c 0.12 0.09 0.13 0.19 0.13 0.28 z" style="fill:rgb(0,0,0);fill-opacity:1;stroke-width:1px;stroke:none;stroke-opacity:1;"></path></svg></g><g><g transform="matrix(1,0,0,1,100.34375,21.6875)"><path transform="matrix(0.017,0,0,-0.017,0,0)" d="M16 23L16 -3C203 -3 203 0 239 0C275 0 275 -3 468 -3L468 82C353 77 307 81 122 77L304 270C401 373 431 428 431 503C431 618 353 689 226 689C154 689 105 669 56 619L39 483L68 483L81 529C97 587 133 612 200 612C286 612 341 558 341 473C341 398 299 324 186 204ZM508 1C523 -7 539 -11 551 -11C584 -11 623 18 654 65L730 182L741 113C754 28 777 -11 813 -11C835 -11 867 6 899 35L948 79L939 98C903 68 878 53 862 53C847 53 834 63 824 83C815 102 804 139 799 168L781 269L816 318C863 383 890 406 921 406C937 406 949 398 954 383L968 387L983 472C971 479 962 482 953 482C913 482 873 446 811 354L774 299L768 347C756 446 729 482 670 482C644 482 622 474 613 461L555 378L572 368C602 402 622 416 641 416C674 416 696 375 713 277L724 215L684 153C641 86 607 54 579 54C564 54 553 58 551 63L540 91L520 88C520 53 512 27 508 1Z" stroke="rgb(0,0,0)" stroke-opacity="1" stroke-width="8" fill="rgb(0,0,0)" fill-opacity="1"></path></g></g><g><g><g><g><g transform="matrix(1,0,0,1,118.28125,15.259375)"><path transform="matrix(0.0119,0,0,-0.0119,0,0)" d="M462 224C462 345 355 366 308 374C388 436 418 482 418 541C418 630 344 689 233 689C165 689 120 670 72 622L43 498L74 498L92 554C103 588 166 622 218 622C283 622 336 569 336 506C336 431 277 368 206 368C198 368 187 369 174 370L159 371L147 318L154 312C192 329 211 334 238 334C321 334 369 281 369 190C369 88 308 21 215 21C169 21 128 36 98 64C74 86 61 109 42 163L15 153C36 92 44 56 50 6C103 -12 147 -20 184 -20C307 -20 462 87 462 224Z" stroke="rgb(0,0,0)" stroke-opacity="1" stroke-width="8" fill="rgb(0,0,0)" fill-opacity="1"></path></g></g></g></g></g><g><g transform="matrix(1,0,0,1,128.640625,21.6875)"><path transform="matrix(0.017,0,0,-0.017,0,0)" d="M604 241L604 300L364 300L364 538L305 538L305 300L65 300L65 241L305 241L305 0L364 0L364 241Z" stroke="rgb(0,0,0)" stroke-opacity="1" stroke-width="8" fill="rgb(0,0,0)" fill-opacity="1"></path></g></g><g><g transform="matrix(1,0,0,1,143.390625,21.6875)"><path transform="matrix(0.017,0,0,-0.017,0,0)" d="M280 181L280 106C280 46 269 32 220 30L158 27L158 -3C291 0 291 0 315 0C339 0 339 0 472 -3L472 27L424 30C375 33 364 46 364 106L364 181C423 181 444 180 472 177L472 248L364 245L365 697L285 667L2 204L2 181ZM280 245L65 245L280 597ZM508 1C523 -7 539 -11 551 -11C584 -11 623 18 654 65L730 182L741 113C754 28 777 -11 813 -11C835 -11 867 6 899 35L948 79L939 98C903 68 878 53 862 53C847 53 834 63 824 83C815 102 804 139 799 168L781 269L816 318C863 383 890 406 921 406C937 406 949 398 954 383L968 387L983 472C971 479 962 482 953 482C913 482 873 446 811 354L774 299L768 347C756 446 729 482 670 482C644 482 622 474 613 461L555 378L572 368C602 402 622 416 641 416C674 416 696 375 713 277L724 215L684 153C641 86 607 54 579 54C564 54 553 58 551 63L540 91L520 88C520 53 512 27 508 1Z" stroke="rgb(0,0,0)" stroke-opacity="1" stroke-width="8" fill="rgb(0,0,0)" fill-opacity="1"></path></g></g><g><svg x="158.671875" overflow="visible" y="3.6875" height="24" width="8.5"><path d=" M 1.75 1.70 c 0.00 -0.06 0.04 -0.08 0.08 -0.08 c 0.03 0.00 0.06 0.01 0.08 0.02 c 2.55 1.34 4.65 3.73 4.65 9.40 v 0.60 h -1.53 v -0.60 c 0.00 -3.23 -0.64 -7.03 -3.31 -9.06 c -0.12 -0.09 -0.13 -0.19 -0.13 -0.28 z  M 6.58 11.64 v 0.72 h -1.53 v -0.72 z" style="fill:rgb(0,0,0);fill-opacity:1;stroke-width:1px;stroke:none;stroke-opacity:1;"></path><path d=" M 1.75 22.30 c 0.00 0.06 0.04 0.08 0.08 0.08 c 0.03 0.00 0.06 -0.01 0.08 -0.02 c 2.55 -1.34 4.65 -3.73 4.65 -9.40 v -0.60 h -1.53 v 0.60 c 0.00 3.23 -0.64 7.03 -3.31 9.06 c -0.12 0.09 -0.13 0.19 -0.13 0.28 z" style="fill:rgb(0,0,0);fill-opacity:1;stroke-width:1px;stroke:none;stroke-opacity:1;"></path></svg></g></g></g></svg>