<svg xmlns="http://www.w3.org/2000/svg" xmlns:xlink="http://www.w3.org/1999/xlink" width="468.796875" height="68" style="width:468.796875px;height:68px;font-family:Asana-Math, Asana;background:transparent;"><g><g><g><g><g><g><text x="2" y="5" style="white-space:pre;stroke:none;fill:rgb(0,0,0);fill-opacity:1;font-size:15px;font-family:Arial, Helvetica, sans-serif;font-weight:400;font-style:normal;dominant-baseline:text-before-edge;text-decoration:none solid rgb(0, 0, 0);">Find the area between the graphs of </text></g></g></g></g><g><g transform="matrix(1,0,0,1,247.171875,19)"><path transform="matrix(0.017,0,0,-0.017,0,0)" d="M345 437L329 437L350 549C366 635 394 673 440 673C470 673 497 658 512 634L522 638C527 654 537 685 545 705L550 720C534 727 503 733 480 733C469 733 453 730 445 726C421 715 339 654 316 630C294 608 282 578 271 521L256 442C215 422 195 414 170 405L165 383L246 383L237 327C207 132 170 -54 148 -123C130 -182 100 -213 64 -213C41 -213 30 -206 12 -184L-2 -188C-6 -211 -20 -259 -25 -268C-16 -273 -1 -276 10 -276C51 -276 105 -245 144 -198C215 -114 235 -18 319 383L423 383C427 402 434 425 440 439L436 446C407 439 408 437 345 437Z" stroke="rgb(0,0,0)" stroke-opacity="1" stroke-width="0" fill="rgb(0,0,0)" fill-opacity="1"></path></g></g><g><g transform="matrix(1,0,0,1,256.53125,19)"><path transform="matrix(0.017,0,0,-0.017,0,0)" d="M146 266C146 526 243 632 301 700L282 726C225 675 60 542 60 266C60 159 85 58 133 -32C168 -99 200 -138 282 -215L301 -194C255 -137 146 -15 146 266Z" stroke="rgb(0,0,0)" stroke-opacity="1" stroke-width="0" fill="rgb(0,0,0)" fill-opacity="1"></path></g></g><g><g transform="matrix(1,0,0,1,262.1875,19)"><path transform="matrix(0.017,0,0,-0.017,0,0)" d="M9 1C24 -7 40 -11 52 -11C85 -11 124 18 155 65L231 182L242 113C255 28 278 -11 314 -11C336 -11 368 6 400 35L449 79L440 98C404 68 379 53 363 53C348 53 335 63 325 83C316 102 305 139 300 168L282 269L317 318C364 383 391 406 422 406C438 406 450 398 455 383L469 387L484 472C472 479 463 482 454 482C414 482 374 446 312 354L275 299L269 347C257 446 230 482 171 482C145 482 123 474 114 461L56 378L73 368C103 402 123 416 142 416C175 416 197 375 214 277L225 215L185 153C142 86 108 54 80 54C65 54 54 58 52 63L41 91L21 88C21 53 13 27 9 1Z" stroke="rgb(0,0,0)" stroke-opacity="1" stroke-width="0" fill="rgb(0,0,0)" fill-opacity="1"></path></g></g><g><g transform="matrix(1,0,0,1,270.671875,19)"><path transform="matrix(0.017,0,0,-0.017,0,0)" d="M51 726L32 700C87 636 187 526 187 266C187 -10 83 -131 32 -194L51 -215C104 -165 273 -23 273 265C273 542 108 675 51 726Z" stroke="rgb(0,0,0)" stroke-opacity="1" stroke-width="0" fill="rgb(0,0,0)" fill-opacity="1"></path></g></g><g><g transform="matrix(1,0,0,1,281.421875,19)"><path transform="matrix(0.017,0,0,-0.017,0,0)" d="M604 347L604 406L65 406L65 347ZM604 134L604 193L65 193L65 134Z" stroke="rgb(0,0,0)" stroke-opacity="1" stroke-width="0" fill="rgb(0,0,0)" fill-opacity="1"></path></g></g><g><g><g transform="matrix(1,0,0,1,297.875,19)"><path transform="matrix(0.017,0,0,-0.017,0,0)" d="M41 143C41 74 38 44 30 4C82 -13 121 -20 167 -20C298 -20 391 50 391 148C391 321 107 228 107 358C107 408 142 436 203 436C270 436 321 401 321 354L321 331L349 331C350 389 351 413 354 444C301 462 265 469 224 469C108 469 37 414 37 324C37 276 59 242 105 221C223 169 317 195 317 109C317 55 267 17 196 17C123 17 71 52 71 102L71 143ZM611 465L602 469C551 448 499 434 446 428L446 400L483 400C523 400 527 393 527 327L527 102C527 39 524 32 490 30L444 27L444 -3C544 0 544 0 569 0C594 0 594 0 694 -3L694 27L648 30C614 32 611 39 611 102ZM565 687C535 687 509 661 509 631C509 602 535 576 564 576C593 576 620 602 620 631C620 659 593 687 565 687ZM1123 -3C1184 0 1185 0 1202 0C1216 0 1216 0 1285 -3L1285 27L1244 30C1210 32 1207 38 1207 102L1207 295C1207 412 1152 469 1040 469C1003 469 982 462 961 444L885 378L885 465L876 469C825 448 773 434 720 428L720 400L757 400C797 400 801 393 801 327L801 102C801 39 798 32 764 30L719 27L719 -3C787 -1 814 0 843 0C872 0 899 -1 967 -3L967 27L922 30C888 32 885 39 885 102L885 314C885 359 951 408 1012 408C1079 408 1123 358 1123 281Z" stroke="rgb(0,0,0)" stroke-opacity="1" stroke-width="0" fill="rgb(0,0,0)" fill-opacity="1"></path></g></g></g><g><g transform="matrix(1,0,0,1,319.875,19)"><path transform="matrix(0.017,0,0,-0.017,0,0)" d="M146 266C146 526 243 632 301 700L282 726C225 675 60 542 60 266C60 159 85 58 133 -32C168 -99 200 -138 282 -215L301 -194C255 -137 146 -15 146 266Z" stroke="rgb(0,0,0)" stroke-opacity="1" stroke-width="0" fill="rgb(0,0,0)" fill-opacity="1"></path></g></g><g><g transform="matrix(1,0,0,1,325.53125,19)"><path transform="matrix(0.017,0,0,-0.017,0,0)" d="M9 1C24 -7 40 -11 52 -11C85 -11 124 18 155 65L231 182L242 113C255 28 278 -11 314 -11C336 -11 368 6 400 35L449 79L440 98C404 68 379 53 363 53C348 53 335 63 325 83C316 102 305 139 300 168L282 269L317 318C364 383 391 406 422 406C438 406 450 398 455 383L469 387L484 472C472 479 463 482 454 482C414 482 374 446 312 354L275 299L269 347C257 446 230 482 171 482C145 482 123 474 114 461L56 378L73 368C103 402 123 416 142 416C175 416 197 375 214 277L225 215L185 153C142 86 108 54 80 54C65 54 54 58 52 63L41 91L21 88C21 53 13 27 9 1Z" stroke="rgb(0,0,0)" stroke-opacity="1" stroke-width="0" fill="rgb(0,0,0)" fill-opacity="1"></path></g></g><g><g transform="matrix(1,0,0,1,334.015625,19)"><path transform="matrix(0.017,0,0,-0.017,0,0)" d="M51 726L32 700C87 636 187 526 187 266C187 -10 83 -131 32 -194L51 -215C104 -165 273 -23 273 265C273 542 108 675 51 726Z" stroke="rgb(0,0,0)" stroke-opacity="1" stroke-width="0" fill="rgb(0,0,0)" fill-opacity="1"></path></g></g><g><g transform="matrix(1,0,0,1,339.671875,19)"><path transform="matrix(0.017,0,0,-0.017,0,0)" d="" stroke="rgb(0,0,0)" stroke-opacity="1" stroke-width="0" fill="rgb(0,0,0)" fill-opacity="1"></path></g></g><g><g><g><g><text x="343.90625" y="5" style="white-space:pre;stroke:none;fill:rgb(0,0,0);fill-opacity:1;font-size:15px;font-family:Arial, Helvetica, sans-serif;font-weight:400;font-style:normal;dominant-baseline:text-before-edge;text-decoration:none solid rgb(0, 0, 0);">and</text></g></g></g></g><g><g transform="matrix(1,0,0,1,368.9375,19)"><path transform="matrix(0.017,0,0,-0.017,0,0)" d="M524 482C457 482 304 419 304 259C304 182 349 136 426 136C434 136 445 136 456 137L415 99C399 84 388 66 388 52C388 42 395 31 409 19C340 -4 212 -48 212 -159C212 -230 282 -276 391 -276C520 -276 633 -204 633 -121C633 -85 612 -49 569 -14L509 35C475 62 462 81 462 100C462 114 477 128 489 146C587 170 658 253 658 342C658 357 655 376 654 380C671 378 679 378 688 378C705 378 715 379 738 382L747 427L744 433C716 426 696 424 642 424C642 425 618 482 524 482ZM425 1L502 -58C548 -94 567 -121 567 -154C567 -206 498 -248 415 -248C333 -248 276 -206 276 -145C276 -43 386 -11 425 1ZM499 448C557 448 586 412 586 341C586 238 538 168 468 168C407 168 375 209 375 288C375 383 426 448 499 448Z" stroke="rgb(0,0,0)" stroke-opacity="1" stroke-width="0" fill="rgb(0,0,0)" fill-opacity="1"></path></g></g><g><g transform="matrix(1,0,0,1,381.65625,19)"><path transform="matrix(0.017,0,0,-0.017,0,0)" d="M146 266C146 526 243 632 301 700L282 726C225 675 60 542 60 266C60 159 85 58 133 -32C168 -99 200 -138 282 -215L301 -194C255 -137 146 -15 146 266Z" stroke="rgb(0,0,0)" stroke-opacity="1" stroke-width="0" fill="rgb(0,0,0)" fill-opacity="1"></path></g></g><g><g transform="matrix(1,0,0,1,387.3125,19)"><path transform="matrix(0.017,0,0,-0.017,0,0)" d="M9 1C24 -7 40 -11 52 -11C85 -11 124 18 155 65L231 182L242 113C255 28 278 -11 314 -11C336 -11 368 6 400 35L449 79L440 98C404 68 379 53 363 53C348 53 335 63 325 83C316 102 305 139 300 168L282 269L317 318C364 383 391 406 422 406C438 406 450 398 455 383L469 387L484 472C472 479 463 482 454 482C414 482 374 446 312 354L275 299L269 347C257 446 230 482 171 482C145 482 123 474 114 461L56 378L73 368C103 402 123 416 142 416C175 416 197 375 214 277L225 215L185 153C142 86 108 54 80 54C65 54 54 58 52 63L41 91L21 88C21 53 13 27 9 1Z" stroke="rgb(0,0,0)" stroke-opacity="1" stroke-width="0" fill="rgb(0,0,0)" fill-opacity="1"></path></g></g><g><g transform="matrix(1,0,0,1,395.796875,19)"><path transform="matrix(0.017,0,0,-0.017,0,0)" d="M51 726L32 700C87 636 187 526 187 266C187 -10 83 -131 32 -194L51 -215C104 -165 273 -23 273 265C273 542 108 675 51 726Z" stroke="rgb(0,0,0)" stroke-opacity="1" stroke-width="0" fill="rgb(0,0,0)" fill-opacity="1"></path></g></g><g><g transform="matrix(1,0,0,1,406.546875,19)"><path transform="matrix(0.017,0,0,-0.017,0,0)" d="M604 347L604 406L65 406L65 347ZM604 134L604 193L65 193L65 134Z" stroke="rgb(0,0,0)" stroke-opacity="1" stroke-width="0" fill="rgb(0,0,0)" fill-opacity="1"></path></g></g><g><g><g transform="matrix(1,0,0,1,423,19)"><path transform="matrix(0.017,0,0,-0.017,0,0)" d="M399 311C399 357 404 398 413 434C381 478 338 497 293 497C169 497 25 361 25 224C25 219 26 215 26 210C26 75 121 -20 255 -20C307 -20 382 -1 392 14L413 46L403 61C366 41 334 32 298 32C187 32 114 118 114 250C114 357 164 417 254 417C298 417 346 397 364 372L371 311ZM722 469C576 469 475 366 475 217C475 76 564 -20 693 -20C847 -20 957 87 957 237C957 372 859 469 722 469ZM704 436C796 436 864 336 864 200C864 85 813 13 732 13C634 13 568 109 568 251C568 371 616 436 704 436ZM1029 143C1029 74 1026 44 1018 4C1070 -13 1109 -20 1155 -20C1286 -20 1379 50 1379 148C1379 321 1095 228 1095 358C1095 408 1130 436 1191 436C1258 436 1309 401 1309 354L1309 331L1337 331C1338 389 1339 413 1342 444C1289 462 1253 469 1212 469C1096 469 1025 414 1025 324C1025 276 1047 242 1093 221C1211 169 1305 195 1305 109C1305 55 1255 17 1184 17C1111 17 1059 52 1059 102L1059 143Z" stroke="rgb(0,0,0)" stroke-opacity="1" stroke-width="0" fill="rgb(0,0,0)" fill-opacity="1"></path></g></g></g><g><g transform="matrix(1,0,0,1,447,19)"><path transform="matrix(0.017,0,0,-0.017,0,0)" d="M146 266C146 526 243 632 301 700L282 726C225 675 60 542 60 266C60 159 85 58 133 -32C168 -99 200 -138 282 -215L301 -194C255 -137 146 -15 146 266Z" stroke="rgb(0,0,0)" stroke-opacity="1" stroke-width="0" fill="rgb(0,0,0)" fill-opacity="1"></path></g></g><g><g transform="matrix(1,0,0,1,452.65625,19)"><path transform="matrix(0.017,0,0,-0.017,0,0)" d="M9 1C24 -7 40 -11 52 -11C85 -11 124 18 155 65L231 182L242 113C255 28 278 -11 314 -11C336 -11 368 6 400 35L449 79L440 98C404 68 379 53 363 53C348 53 335 63 325 83C316 102 305 139 300 168L282 269L317 318C364 383 391 406 422 406C438 406 450 398 455 383L469 387L484 472C472 479 463 482 454 482C414 482 374 446 312 354L275 299L269 347C257 446 230 482 171 482C145 482 123 474 114 461L56 378L73 368C103 402 123 416 142 416C175 416 197 375 214 277L225 215L185 153C142 86 108 54 80 54C65 54 54 58 52 63L41 91L21 88C21 53 13 27 9 1Z" stroke="rgb(0,0,0)" stroke-opacity="1" stroke-width="0" fill="rgb(0,0,0)" fill-opacity="1"></path></g></g><g><g transform="matrix(1,0,0,1,461.140625,19)"><path transform="matrix(0.017,0,0,-0.017,0,0)" d="M51 726L32 700C87 636 187 526 187 266C187 -10 83 -131 32 -194L51 -215C104 -165 273 -23 273 265C273 542 108 675 51 726Z" stroke="rgb(0,0,0)" stroke-opacity="1" stroke-width="0" fill="rgb(0,0,0)" fill-opacity="1"></path></g></g></g><g><g><g><g><g><text x="188.09375" y="39" style="white-space:pre;stroke:none;fill:rgb(0,0,0);fill-opacity:1;font-size:15px;font-family:Arial, Helvetica, sans-serif;font-weight:400;font-style:normal;dominant-baseline:text-before-edge;text-decoration:none solid rgb(0, 0, 0);">from </text></g></g></g></g><g><g><g><g><g transform="matrix(1,0,0,1,223.953125,41)"><path transform="matrix(0.017,0,0,-0.017,0,0)" d="M525 42C469 42 464 125 465 166C466 251 494 333 537 405L599 418C602 435 608 452 613 467C459 461 300 463 145 466C80 467 66 389 47 340C46 332 59 331 63 328L63 332C106 395 130 405 205 405L228 405C188 266 161 129 98 -2L98 -12C118 -6 153 1 170 13C211 141 240 274 268 405L495 405C438 318 397 213 395 108C395 59 410 -15 471 -15C512 -15 568 25 598 51L598 66L586 66L586 67C568 56 548 42 525 42Z" stroke="rgb(0,0,0)" stroke-opacity="1" stroke-width="0" fill="rgb(0,0,0)" fill-opacity="1"></path></g></g></g></g><g><g><g><g transform="matrix(1,0,0,1,225.265625,66)"><path transform="matrix(0.017,0,0,-0.017,0,0)" d="M280 181L280 106C280 46 269 32 220 30L158 27L158 -3C291 0 291 0 315 0C339 0 339 0 472 -3L472 27L424 30C375 33 364 46 364 106L364 181C423 181 444 180 472 177L472 248L364 245L365 697L285 667L2 204L2 181ZM280 245L65 245L280 597Z" stroke="rgb(0,0,0)" stroke-opacity="1" stroke-width="0" fill="rgb(0,0,0)" fill-opacity="1"></path></g></g></g></g><line style="fill:none;stroke-width:1px;stroke:rgb(0, 0, 0);" x1="223.953125" y1="48.75" x2="235.0625" y2="48.75"></line></g><g><g transform="matrix(1,0,0,1,236.75,53)"><path transform="matrix(0.017,0,0,-0.017,0,0)" d="" stroke="rgb(0,0,0)" stroke-opacity="1" stroke-width="0" fill="rgb(0,0,0)" fill-opacity="1"></path></g></g><g><g><g><g><text x="240.984375" y="39" style="white-space:pre;stroke:none;fill:rgb(0,0,0);fill-opacity:1;font-size:15px;font-family:Arial, Helvetica, sans-serif;font-weight:400;font-style:normal;dominant-baseline:text-before-edge;text-decoration:none solid rgb(0, 0, 0);">to</text></g></g></g></g><g><g transform="matrix(1,0,0,1,253.5,53)"><path transform="matrix(0.017,0,0,-0.017,0,0)" d="" stroke="rgb(0,0,0)" stroke-opacity="1" stroke-width="0" fill="rgb(0,0,0)" fill-opacity="1"></path></g></g><g><g><g><g><g transform="matrix(1,0,0,1,259.421875,41)"><path transform="matrix(0.017,0,0,-0.017,0,0)" d="M459 253C459 366 378 446 264 446C216 446 180 443 127 396L127 605L432 604L432 689L75 690L75 322L95 316C142 363 169 377 218 377C314 377 374 309 374 201C374 90 310 25 201 25C147 25 97 43 83 69L37 151L13 137C36 80 48 48 62 4C90 -11 130 -20 173 -20C301 -20 459 89 459 253ZM1024 42C968 42 963 125 964 166C965 251 993 333 1036 405L1098 418C1101 435 1107 452 1112 467C958 461 799 463 644 466C579 467 565 389 546 340C545 332 558 331 562 328L562 332C605 395 629 405 704 405L727 405C687 266 660 129 597 -2L597 -12C617 -6 652 1 669 13C710 141 739 274 767 405L994 405C937 318 896 213 894 108C894 59 909 -15 970 -15C1011 -15 1067 25 1097 51L1097 66L1085 66L1085 67C1067 56 1047 42 1024 42Z" stroke="rgb(0,0,0)" stroke-opacity="1" stroke-width="0" fill="rgb(0,0,0)" fill-opacity="1"></path></g></g></g></g><g><g><g><g transform="matrix(1,0,0,1,264.96875,66)"><path transform="matrix(0.017,0,0,-0.017,0,0)" d="M280 181L280 106C280 46 269 32 220 30L158 27L158 -3C291 0 291 0 315 0C339 0 339 0 472 -3L472 27L424 30C375 33 364 46 364 106L364 181C423 181 444 180 472 177L472 248L364 245L365 697L285 667L2 204L2 181ZM280 245L65 245L280 597Z" stroke="rgb(0,0,0)" stroke-opacity="1" stroke-width="0" fill="rgb(0,0,0)" fill-opacity="1"></path></g></g></g></g><line style="fill:none;stroke-width:1px;stroke:rgb(0, 0, 0);" x1="259.421875" y1="48.75" x2="279.015625" y2="48.75"></line></g></g></g></svg>