<svg xmlns="http://www.w3.org/2000/svg" xmlns:xlink="http://www.w3.org/1999/xlink" width="33.765625" height="46" style="width:33.765625px;height:46px;font-family:Asana-Math, Asana;background:transparent;"><g><g><g><g><g><g><g transform="matrix(1,0,0,1,2,19)"><path transform="matrix(0.017,0,0,-0.017,0,0)" d="M418 -3L418 27L366 30C311 33 301 44 301 96L301 700L60 598L67 548L217 614L217 96C217 44 206 33 152 30L96 27L96 -3C250 0 250 0 261 0C292 0 402 -3 418 -3ZM961 224C961 345 854 366 807 374C887 436 917 482 917 541C917 630 843 689 732 689C664 689 619 670 571 622L542 498L573 498L591 554C602 588 665 622 717 622C782 622 835 569 835 506C835 431 776 368 705 368C697 368 686 369 673 370L658 371L646 318L653 312C691 329 710 334 737 334C820 334 868 281 868 190C868 88 807 21 714 21C668 21 627 36 597 64C573 86 560 109 541 163L514 153C535 92 543 56 549 6C602 -12 646 -20 683 -20C806 -20 961 87 961 224Z" stroke="rgb(0,0,0)" stroke-opacity="1" stroke-width="8" fill="rgb(0,0,0)" fill-opacity="1"></path></g></g></g></g><g><g><g><g transform="matrix(1,0,0,1,6.234375,44)"><path transform="matrix(0.017,0,0,-0.017,0,0)" d="M131 331C152 512 241 611 421 665L379 689C283 657 242 637 191 593C88 506 32 384 32 247C32 82 112 -20 241 -20C371 -20 468 83 468 219C468 334 399 409 293 409C216 409 184 370 131 331ZM255 349C331 349 382 283 382 184C382 80 331 13 254 13C169 13 123 86 123 220C123 255 127 274 138 291C160 325 207 349 255 349Z" stroke="rgb(0,0,0)" stroke-opacity="1" stroke-width="8" fill="rgb(0,0,0)" fill-opacity="1"></path></g></g></g></g><line style="fill:none;stroke-width:1px;stroke:rgb(0, 0, 0);" x1="2" y1="26.75" x2="18.96875" y2="26.75"></line></g><g><g transform="matrix(1,0,0,1,20.65625,31)"><path transform="matrix(0.017,0,0,-0.017,0,0)" d="M525 42C469 42 464 125 465 166C466 251 494 333 537 405L599 418C602 435 608 452 613 467C459 461 300 463 145 466C80 467 66 389 47 340C46 332 59 331 63 328L63 332C106 395 130 405 205 405L228 405C188 266 161 129 98 -2L98 -12C118 -6 153 1 170 13C211 141 240 274 268 405L495 405C438 318 397 213 395 108C395 59 410 -15 471 -15C512 -15 568 25 598 51L598 66L586 66L586 67C568 56 548 42 525 42Z" stroke="rgb(0,0,0)" stroke-opacity="1" stroke-width="8" fill="rgb(0,0,0)" fill-opacity="1"></path></g></g></g></g></svg>