<svg xmlns="http://www.w3.org/2000/svg" xmlns:xlink="http://www.w3.org/1999/xlink" width="15.109375" height="42" style="width:15.109375px;height:42px;font-family:Asana-Math, Asana;background:transparent;"><g><g><g><g><g><g><g transform="matrix(1,0,0,1,2,15)"><path transform="matrix(0.017,0,0,-0.017,0,0)" d="M525 42C469 42 464 125 465 166C466 251 494 333 537 405L599 418C602 435 608 452 613 467C459 461 300 463 145 466C80 467 66 389 47 340C46 332 59 331 63 328L63 332C106 395 130 405 205 405L228 405C188 266 161 129 98 -2L98 -12C118 -6 153 1 170 13C211 141 240 274 268 405L495 405C438 318 397 213 395 108C395 59 410 -15 471 -15C512 -15 568 25 598 51L598 66L586 66L586 67C568 56 548 42 525 42Z" stroke="rgb(0,0,0)" stroke-opacity="1" stroke-width="0" fill="rgb(0,0,0)" fill-opacity="1"></path></g></g></g></g><g><g><g><g transform="matrix(1,0,0,1,3.3125,40)"><path transform="matrix(0.017,0,0,-0.017,0,0)" d="M96 -20C207 16 255 39 309 85C406 168 457 283 457 417C457 586 376 689 244 689C116 689 20 589 20 455C20 340 95 256 199 256C233 256 272 267 290 282L360 340C352 172 243 49 62 5L62 -3ZM240 656C285 656 318 637 340 597C358 565 370 516 370 471C370 379 317 317 240 317C160 317 106 388 106 492C106 593 158 656 240 656Z" stroke="rgb(0,0,0)" stroke-opacity="1" stroke-width="0" fill="rgb(0,0,0)" fill-opacity="1"></path></g></g></g></g><line style="fill:none;stroke-width:1px;stroke:rgb(0, 0, 0);" x1="2" y1="22.75" x2="13.109375" y2="22.75"></line></g></g></g></svg>