<svg xmlns="http://www.w3.org/2000/svg" xmlns:xlink="http://www.w3.org/1999/xlink" width="70.171875" height="47.328125" style="width:70.171875px;height:47.328125px;font-family:Asana-Math, Asana;background:transparent;"><g><g><g><g><g><g><g transform="matrix(1,0,0,1,2,20.328125)"><path transform="matrix(0.017,0,0,-0.017,0,0)" d="M328 111L304 94C251 56 203 36 167 36C120 36 91 73 91 133C91 158 94 185 99 214C116 218 225 248 250 259C335 296 374 342 374 404C374 451 340 482 290 482C222 496 112 423 75 349C45 299 15 180 15 113C15 35 59 -11 131 -11C188 -11 244 17 336 92ZM113 274C130 343 150 386 179 412C197 428 228 440 252 440C281 440 300 420 300 388C300 344 265 297 213 272C185 258 149 247 104 237Z" stroke="rgb(0,0,0)" stroke-opacity="1" stroke-width="8" fill="rgb(0,0,0)" fill-opacity="1"></path></g></g><g><g><g><g><g transform="matrix(1,0,0,1,9.578125,13.9)"><path transform="matrix(0.0119,0,0,-0.0119,0,0)" d="M9 1C24 -7 40 -11 52 -11C85 -11 124 18 155 65L231 182L242 113C255 28 278 -11 314 -11C336 -11 368 6 400 35L449 79L440 98C404 68 379 53 363 53C348 53 335 63 325 83C316 102 305 139 300 168L282 269L317 318C364 383 391 406 422 406C438 406 450 398 455 383L469 387L484 472C472 479 463 482 454 482C414 482 374 446 312 354L275 299L269 347C257 446 230 482 171 482C145 482 123 474 114 461L56 378L73 368C103 402 123 416 142 416C175 416 197 375 214 277L225 215L185 153C142 86 108 54 80 54C65 54 54 58 52 63L41 91L21 88C21 53 13 27 9 1Z" stroke="rgb(0,0,0)" stroke-opacity="1" stroke-width="8" fill="rgb(0,0,0)" fill-opacity="1"></path></g></g></g></g></g></g></g><g><g><g><g transform="matrix(1,0,0,1,5.03125,45.328125)"><path transform="matrix(0.017,0,0,-0.017,0,0)" d="M459 253C459 366 378 446 264 446C216 446 180 443 127 396L127 605L432 604L432 689L75 690L75 322L95 316C142 363 169 377 218 377C314 377 374 309 374 201C374 90 310 25 201 25C147 25 97 43 83 69L37 151L13 137C36 80 48 48 62 4C90 -11 130 -20 173 -20C301 -20 459 89 459 253Z" stroke="rgb(0,0,0)" stroke-opacity="1" stroke-width="8" fill="rgb(0,0,0)" fill-opacity="1"></path></g></g></g></g><line style="fill:none;stroke-width:1px;stroke:rgb(0, 0, 0);" x1="2" y1="28.078125" x2="16.546875" y2="28.078125"></line></g><g><g transform="matrix(1,0,0,1,21.625,32.328125)"><path transform="matrix(0.017,0,0,-0.017,0,0)" d="M555 243L555 299L51 299L51 243Z" stroke="rgb(0,0,0)" stroke-opacity="1" stroke-width="8" fill="rgb(0,0,0)" fill-opacity="1"></path></g></g><g><g transform="matrix(1,0,0,1,35.3125,32.328125)"><path transform="matrix(0.017,0,0,-0.017,0,0)" d="M251 722L239 733C187 707 151 698 79 691L75 670L123 670C147 670 157 663 157 648C157 645 157 640 154 622C143 567 70 182 55 132C42 82 36 52 36 31C36 6 47 -9 66 -9C92 -9 128 12 226 85L216 103L190 86C161 67 139 56 129 56C122 56 116 66 116 76C116 82 117 89 120 104ZM301 388L308 368L340 389C377 412 380 414 387 414C398 414 405 404 405 389C405 338 364 145 323 2L330 -9C355 -2 378 4 400 8C419 134 440 199 486 268C540 352 615 414 660 414C671 414 677 405 677 390C677 372 674 351 666 319L614 107C605 70 601 47 601 31C601 6 612 -9 631 -9C657 -9 693 12 791 85L781 103L755 86C726 67 704 56 694 56C687 56 681 65 681 76C681 81 682 92 683 96L749 372C756 401 760 429 760 446C760 469 749 482 729 482C687 482 618 444 559 389C521 354 493 320 441 247L479 408C483 426 485 438 485 449C485 470 477 482 462 482C441 482 402 460 329 408Z" stroke="rgb(0,0,0)" stroke-opacity="1" stroke-width="8" fill="rgb(0,0,0)" fill-opacity="1"></path></g></g><g><g transform="matrix(1,0,0,1,49.46875,32.328125)"><path transform="matrix(0.017,0,0,-0.017,0,0)" d="M179.50274 -172L179.50274 713L120.50274 713L120.50274 -172Z" stroke="rgb(0,0,0)" stroke-opacity="1" stroke-width="8" fill="rgb(0,0,0)" fill-opacity="1"></path></g></g><g><g transform="matrix(1,0,0,1,54.578125,32.328125)"><path transform="matrix(0.017,0,0,-0.017,0,0)" d="M9 1C24 -7 40 -11 52 -11C85 -11 124 18 155 65L231 182L242 113C255 28 278 -11 314 -11C336 -11 368 6 400 35L449 79L440 98C404 68 379 53 363 53C348 53 335 63 325 83C316 102 305 139 300 168L282 269L317 318C364 383 391 406 422 406C438 406 450 398 455 383L469 387L484 472C472 479 463 482 454 482C414 482 374 446 312 354L275 299L269 347C257 446 230 482 171 482C145 482 123 474 114 461L56 378L73 368C103 402 123 416 142 416C175 416 197 375 214 277L225 215L185 153C142 86 108 54 80 54C65 54 54 58 52 63L41 91L21 88C21 53 13 27 9 1Z" stroke="rgb(0,0,0)" stroke-opacity="1" stroke-width="8" fill="rgb(0,0,0)" fill-opacity="1"></path></g></g><g><g transform="matrix(1,0,0,1,63.0625,32.328125)"><path transform="matrix(0.017,0,0,-0.017,0,0)" d="M179.50274 -172L179.50274 713L120.50274 713L120.50274 -172Z" stroke="rgb(0,0,0)" stroke-opacity="1" stroke-width="8" fill="rgb(0,0,0)" fill-opacity="1"></path></g></g></g></g></svg>