<svg xmlns="http://www.w3.org/2000/svg" xmlns:xlink="http://www.w3.org/1999/xlink" width="94.203125" height="39" style="width:94.203125px;height:39px;font-family:Asana-Math, Asana;background:transparent;"><g><g><g><g><g transform="matrix(1,0,0,1,2,29.900000000000002)"><path transform="matrix(0.0255,0,0,-0.0255,0,0)" d="M694 802C694 860 621 885 573 885C368 885 344 579 334 430C323 251 309 72 304 -108C301 -191 312 -410 184 -410C173 -410 159 -407 151 -397C153 -392 155 -384 155 -378C155 -347 114 -315 83 -315C59 -315 54 -340 54 -359C54 -418 125 -442 173 -442C348 -442 380 -190 395 -59C413 104 421 269 433 433C439 521 422 853 562 853C574 853 587 850 596 841C593 834 592 828 592 821C592 789 633 759 663 759C687 759 694 782 694 802Z" stroke="rgb(0,0,0)" stroke-opacity="1" stroke-width="8" fill="rgb(0,0,0)" fill-opacity="1"></path></g></g></g><g><g><g transform="matrix(1,0,0,1,25.515625,30)"><path transform="matrix(0.017,0,0,-0.017,0,0)" d="M98 382L98 94C98 20 131 -12 208 -12C231 -12 255 -7 261 0L309 53L296 70C271 56 256 51 237 51C198 51 182 71 182 120L182 382L310 382L319 436L182 430L182 468C182 510 185 546 193 610L181 621C157 606 127 593 96 583C99 553 100 534 100 504L100 434L22 399L22 378ZM649 82L644 -3C709 0 709 0 722 0C727 0 752 -1 796 -3L796 27L757 29C733 30 729 38 729 87L729 270C729 416 687 469 571 469C528 469 488 458 450 435L397 403L397 338L423 331L436 362C457 409 467 416 513 416C607 416 646 379 649 288L550 270C414 245 357 198 357 111C357 33 404 -12 483 -12C501 -12 518 -9 525 -4ZM649 124C620 83 557 45 518 45C478 45 443 82 443 125C443 162 463 197 493 216C518 231 573 245 649 256ZM1234 -3C1295 0 1296 0 1313 0C1327 0 1327 0 1396 -3L1396 27L1355 30C1321 32 1318 38 1318 102L1318 295C1318 412 1263 469 1151 469C1114 469 1093 462 1072 444L996 378L996 465L987 469C936 448 884 434 831 428L831 400L868 400C908 400 912 393 912 327L912 102C912 39 909 32 875 30L830 27L830 -3C898 -1 925 0 954 0C983 0 1010 -1 1078 -3L1078 27L1033 30C999 32 996 39 996 102L996 314C996 359 1062 408 1123 408C1190 408 1234 358 1234 281Z" stroke="rgb(0,0,0)" stroke-opacity="1" stroke-width="8" fill="rgb(0,0,0)" fill-opacity="1"></path></g></g></g><g><g><g><g><g transform="matrix(1,0,0,1,50.375,23.65)"><path transform="matrix(0.0119,0,0,-0.0119,0,0)" d="M16 23L16 -3C203 -3 203 0 239 0C275 0 275 -3 468 -3L468 82C353 77 307 81 122 77L304 270C401 373 431 428 431 503C431 618 353 689 226 689C154 689 105 669 56 619L39 483L68 483L81 529C97 587 133 612 200 612C286 612 341 558 341 473C341 398 299 324 186 204Z" stroke="rgb(0,0,0)" stroke-opacity="1" stroke-width="8" fill="rgb(0,0,0)" fill-opacity="1"></path></g></g></g></g></g><g><g transform="matrix(1,0,0,1,57.34375,30)"><path transform="matrix(0.017,0,0,-0.017,0,0)" d="M146 266C146 526 243 632 301 700L282 726C225 675 60 542 60 266C60 159 85 58 133 -32C168 -99 200 -138 282 -215L301 -194C255 -137 146 -15 146 266Z" stroke="rgb(0,0,0)" stroke-opacity="1" stroke-width="8" fill="rgb(0,0,0)" fill-opacity="1"></path></g></g><g><g transform="matrix(1,0,0,1,63,30)"><path transform="matrix(0.017,0,0,-0.017,0,0)" d="M322 -11C334 -11 343 -9 372 -1C383 61 391 95 402 142L380 142L358 82C352 64 340 57 319 57C307 57 291 59 270 64L252 68C219 75 185 80 166 80C134 80 107 74 71 59L410 441L416 473L407 482L384 459C374 449 364 445 350 445C316 445 264 453 216 466L198 471C170 478 150 482 136 482C119 482 99 479 75 472L43 350L64 350L94 408C111 412 120 413 133 413C174 413 206 398 259 398C295 398 319 404 352 421L-1 21L8 -6C37 17 64 26 99 26C162 26 253 -11 322 -11Z" stroke="rgb(0,0,0)" stroke-opacity="1" stroke-width="8" fill="rgb(0,0,0)" fill-opacity="1"></path></g></g><g><g transform="matrix(1,0,0,1,70.53125,30)"><path transform="matrix(0.017,0,0,-0.017,0,0)" d="M51 726L32 700C87 636 187 526 187 266C187 -10 83 -131 32 -194L51 -215C104 -165 273 -23 273 265C273 542 108 675 51 726Z" stroke="rgb(0,0,0)" stroke-opacity="1" stroke-width="8" fill="rgb(0,0,0)" fill-opacity="1"></path></g></g><g><g transform="matrix(1,0,0,1,76.1875,30)"><path transform="matrix(0.017,0,0,-0.017,0,0)" d="M483 722L471 733C419 707 383 698 311 691L307 670L355 670C379 670 389 663 389 646C389 638 388 629 387 622L359 468C329 477 302 482 277 482C208 482 114 410 68 323C37 265 17 170 17 86C17 21 32 -11 61 -11C88 -11 125 6 159 33C213 77 246 116 313 217L290 126C279 82 274 50 274 24C274 3 283 -9 300 -9C317 -9 341 3 375 28L456 88L446 107L402 76C388 66 372 59 363 59C355 59 349 68 349 82C349 90 350 99 357 128ZM114 59C98 59 89 73 89 98C89 224 135 380 184 418C197 428 216 433 243 433C287 433 316 427 349 410L337 351C300 171 159 59 114 59ZM821 -11C833 -11 842 -9 871 -1C882 61 890 95 901 142L879 142L857 82C851 64 839 57 818 57C806 57 790 59 769 64L751 68C718 75 684 80 665 80C633 80 606 74 570 59L909 441L915 473L906 482L883 459C873 449 863 445 849 445C815 445 763 453 715 466L697 471C669 478 649 482 635 482C618 482 598 479 574 472L542 350L563 350L593 408C610 412 619 413 632 413C673 413 705 398 758 398C794 398 818 404 851 421L498 21L507 -6C536 17 563 26 598 26C661 26 752 -11 821 -11Z" stroke="rgb(0,0,0)" stroke-opacity="1" stroke-width="8" fill="rgb(0,0,0)" fill-opacity="1"></path></g></g></g></g></svg>