<svg xmlns="http://www.w3.org/2000/svg" xmlns:xlink="http://www.w3.org/1999/xlink" width="89.390625" height="24" style="width:89.390625px;height:24px;font-family:Asana-Math, Asana;background:transparent;"><g><g><g><g transform="matrix(1,0,0,1,2,19)"><path transform="matrix(0.017,0,0,-0.017,0,0)" d="M459 253C459 366 378 446 264 446C216 446 180 443 127 396L127 605L432 604L432 689L75 690L75 322L95 316C142 363 169 377 218 377C314 377 374 309 374 201C374 90 310 25 201 25C147 25 97 43 83 69L37 151L13 137C36 80 48 48 62 4C90 -11 130 -20 173 -20C301 -20 459 89 459 253Z" stroke="rgb(0,0,0)" stroke-opacity="1" stroke-width="8" fill="rgb(0,0,0)" fill-opacity="1"></path></g></g><g><g><g transform="matrix(1,0,0,1,13.875,19)"><path transform="matrix(0.017,0,0,-0.017,0,0)" d="M98 382L98 94C98 20 131 -12 208 -12C231 -12 255 -7 261 0L309 53L296 70C271 56 256 51 237 51C198 51 182 71 182 120L182 382L310 382L319 436L182 430L182 468C182 510 185 546 193 610L181 621C157 606 127 593 96 583C99 553 100 534 100 504L100 434L22 399L22 378ZM649 82L644 -3C709 0 709 0 722 0C727 0 752 -1 796 -3L796 27L757 29C733 30 729 38 729 87L729 270C729 416 687 469 571 469C528 469 488 458 450 435L397 403L397 338L423 331L436 362C457 409 467 416 513 416C607 416 646 379 649 288L550 270C414 245 357 198 357 111C357 33 404 -12 483 -12C501 -12 518 -9 525 -4ZM649 124C620 83 557 45 518 45C478 45 443 82 443 125C443 162 463 197 493 216C518 231 573 245 649 256ZM1234 -3C1295 0 1296 0 1313 0C1327 0 1327 0 1396 -3L1396 27L1355 30C1321 32 1318 38 1318 102L1318 295C1318 412 1263 469 1151 469C1114 469 1093 462 1072 444L996 378L996 465L987 469C936 448 884 434 831 428L831 400L868 400C908 400 912 393 912 327L912 102C912 39 909 32 875 30L830 27L830 -3C898 -1 925 0 954 0C983 0 1010 -1 1078 -3L1078 27L1033 30C999 32 996 39 996 102L996 314C996 359 1062 408 1123 408C1190 408 1234 358 1234 281Z" stroke="rgb(0,0,0)" stroke-opacity="1" stroke-width="8" fill="rgb(0,0,0)" fill-opacity="1"></path></g></g></g><g><g transform="matrix(1,0,0,1,37.765625,19)"><path transform="matrix(0.017,0,0,-0.017,0,0)" d="M146 266C146 526 243 632 301 700L282 726C225 675 60 542 60 266C60 159 85 58 133 -32C168 -99 200 -138 282 -215L301 -194C255 -137 146 -15 146 266Z" stroke="rgb(0,0,0)" stroke-opacity="1" stroke-width="8" fill="rgb(0,0,0)" fill-opacity="1"></path></g></g><g><g transform="matrix(1,0,0,1,43.421875,19)"><path transform="matrix(0.017,0,0,-0.017,0,0)" d="M9 1C24 -7 40 -11 52 -11C85 -11 124 18 155 65L231 182L242 113C255 28 278 -11 314 -11C336 -11 368 6 400 35L449 79L440 98C404 68 379 53 363 53C348 53 335 63 325 83C316 102 305 139 300 168L282 269L317 318C364 383 391 406 422 406C438 406 450 398 455 383L469 387L484 472C472 479 463 482 454 482C414 482 374 446 312 354L275 299L269 347C257 446 230 482 171 482C145 482 123 474 114 461L56 378L73 368C103 402 123 416 142 416C175 416 197 375 214 277L225 215L185 153C142 86 108 54 80 54C65 54 54 58 52 63L41 91L21 88C21 53 13 27 9 1Z" stroke="rgb(0,0,0)" stroke-opacity="1" stroke-width="8" fill="rgb(0,0,0)" fill-opacity="1"></path></g></g><g><g transform="matrix(1,0,0,1,51.90625,19)"><path transform="matrix(0.017,0,0,-0.017,0,0)" d="M51 726L32 700C87 636 187 526 187 266C187 -10 83 -131 32 -194L51 -215C104 -165 273 -23 273 265C273 542 108 675 51 726Z" stroke="rgb(0,0,0)" stroke-opacity="1" stroke-width="8" fill="rgb(0,0,0)" fill-opacity="1"></path></g></g><g><g transform="matrix(1,0,0,1,60.953125,19)"><path transform="matrix(0.017,0,0,-0.017,0,0)" d="M604 241L604 300L364 300L364 538L305 538L305 300L65 300L65 241L305 241L305 0L364 0L364 241Z" stroke="rgb(0,0,0)" stroke-opacity="1" stroke-width="8" fill="rgb(0,0,0)" fill-opacity="1"></path></g></g><g><g transform="matrix(1,0,0,1,75.703125,19)"><path transform="matrix(0.017,0,0,-0.017,0,0)" d="M45 284C45 90 152 -18 343 -18C439 -18 510 5 600 67L610 103L600 110C506 53 454 35 376 35C219 35 133 131 133 309C133 447 190 653 418 653C489 653 541 639 597 603L597 519L624 519C629 576 637 619 651 665C575 694 518 706 456 706C276 706 45 578 45 284Z" stroke="rgb(0,0,0)" stroke-opacity="1" stroke-width="8" fill="rgb(0,0,0)" fill-opacity="1"></path></g></g></g></g></svg>