<svg xmlns="http://www.w3.org/2000/svg" xmlns:xlink="http://www.w3.org/1999/xlink" width="240.640625" height="68" style="width:240.640625px;height:68px;font-family:Asana-Math, Asana;background:transparent;"><g><g><g><g><g><g><text x="2" y="5" style="white-space:pre;stroke:none;fill:rgb(0,0,0);fill-opacity:1;font-size:15px;font-family:Arial, Helvetica, sans-serif;font-weight:400;font-style:normal;dominant-baseline:text-before-edge;text-decoration:none solid rgb(0, 0, 0);">Let</text></g></g></g></g><g><g transform="matrix(1,0,0,1,22.859375,19)"><path transform="matrix(0.017,0,0,-0.017,0,0)" d="M524 482C457 482 304 419 304 259C304 182 349 136 426 136C434 136 445 136 456 137L415 99C399 84 388 66 388 52C388 42 395 31 409 19C340 -4 212 -48 212 -159C212 -230 282 -276 391 -276C520 -276 633 -204 633 -121C633 -85 612 -49 569 -14L509 35C475 62 462 81 462 100C462 114 477 128 489 146C587 170 658 253 658 342C658 357 655 376 654 380C671 378 679 378 688 378C705 378 715 379 738 382L747 427L744 433C716 426 696 424 642 424C642 425 618 482 524 482ZM425 1L502 -58C548 -94 567 -121 567 -154C567 -206 498 -248 415 -248C333 -248 276 -206 276 -145C276 -43 386 -11 425 1ZM499 448C557 448 586 412 586 341C586 238 538 168 468 168C407 168 375 209 375 288C375 383 426 448 499 448Z" stroke="rgb(0,0,0)" stroke-opacity="1" stroke-width="8" fill="rgb(0,0,0)" fill-opacity="1"></path></g></g><g><g transform="matrix(1,0,0,1,35.578125,19)"><path transform="matrix(0.017,0,0,-0.017,0,0)" d="M146 266C146 526 243 632 301 700L282 726C225 675 60 542 60 266C60 159 85 58 133 -32C168 -99 200 -138 282 -215L301 -194C255 -137 146 -15 146 266Z" stroke="rgb(0,0,0)" stroke-opacity="1" stroke-width="8" fill="rgb(0,0,0)" fill-opacity="1"></path></g></g><g><g transform="matrix(1,0,0,1,41.234375,19)"><path transform="matrix(0.017,0,0,-0.017,0,0)" d="M96 -20C207 16 255 39 309 85C406 168 457 283 457 417C457 586 376 689 244 689C116 689 20 589 20 455C20 340 95 256 199 256C233 256 272 267 290 282L360 340C352 172 243 49 62 5L62 -3ZM240 656C285 656 318 637 340 597C358 565 370 516 370 471C370 379 317 317 240 317C160 317 106 388 106 492C106 593 158 656 240 656Z" stroke="rgb(0,0,0)" stroke-opacity="1" stroke-width="8" fill="rgb(0,0,0)" fill-opacity="1"></path></g></g><g><g transform="matrix(1,0,0,1,49.71875,19)"><path transform="matrix(0.017,0,0,-0.017,0,0)" d="M51 726L32 700C87 636 187 526 187 266C187 -10 83 -131 32 -194L51 -215C104 -165 273 -23 273 265C273 542 108 675 51 726Z" stroke="rgb(0,0,0)" stroke-opacity="1" stroke-width="8" fill="rgb(0,0,0)" fill-opacity="1"></path></g></g><g><g transform="matrix(1,0,0,1,60.46875,19)"><path transform="matrix(0.017,0,0,-0.017,0,0)" d="M604 347L604 406L65 406L65 347ZM604 134L604 193L65 193L65 134Z" stroke="rgb(0,0,0)" stroke-opacity="1" stroke-width="8" fill="rgb(0,0,0)" fill-opacity="1"></path></g></g><g><g transform="matrix(1,0,0,1,76.921875,19)"><path transform="matrix(0.017,0,0,-0.017,0,0)" d="M131 331C152 512 241 611 421 665L379 689C283 657 242 637 191 593C88 506 32 384 32 247C32 82 112 -20 241 -20C371 -20 468 83 468 219C468 334 399 409 293 409C216 409 184 370 131 331ZM255 349C331 349 382 283 382 184C382 80 331 13 254 13C169 13 123 86 123 220C123 255 127 274 138 291C160 325 207 349 255 349Z" stroke="rgb(0,0,0)" stroke-opacity="1" stroke-width="8" fill="rgb(0,0,0)" fill-opacity="1"></path></g></g><g><g transform="matrix(1,0,0,1,85.40625,19)"><path transform="matrix(0.017,0,0,-0.017,0,0)" d="M204 123C177 114 159 108 106 93C99 17 74 -48 16 -144L30 -155L71 -136C152 -31 190 32 218 109Z" stroke="rgb(0,0,0)" stroke-opacity="1" stroke-width="8" fill="rgb(0,0,0)" fill-opacity="1"></path></g></g><g><g transform="matrix(1,0,0,1,93.03125,19)"><path transform="matrix(0.017,0,0,-0.017,0,0)" d="M275 482C208 482 55 419 55 259C55 182 100 136 177 136C185 136 196 136 207 137L166 99C150 84 139 66 139 52C139 42 146 31 160 19C91 -4 -37 -48 -37 -159C-37 -230 33 -276 142 -276C271 -276 384 -204 384 -121C384 -85 363 -49 320 -14L260 35C226 62 213 81 213 100C213 114 228 128 240 146C338 170 409 253 409 342C409 357 406 376 405 380C422 378 430 378 439 378C456 378 466 379 489 382L498 427L495 433C467 426 447 424 393 424C393 425 369 482 275 482ZM176 1L253 -58C299 -94 318 -121 318 -154C318 -206 249 -248 166 -248C84 -248 27 -206 27 -145C27 -43 137 -11 176 1ZM250 448C308 448 337 412 337 341C337 238 289 168 219 168C158 168 126 209 126 288C126 383 177 448 250 448ZM730.80334 794.13126C730.80334 821.493 701.92302 841.25307 676.08278 841.25307C646.44268 841.25307 632.76181 812.37177 624.4023 788.05206L540.80044 545.60793C538.52013 539.52776 533.20072 525.08809 533.20072 517.48836C533.20072 510.64842 537.76036 500.76741 545.36008 500.76741C557.52042 500.76741 571.2013 517.48836 577.28147 526.60764L708.00319 734.09128C718.64398 750.81126 730.80334 772.85164 730.80334 794.13126Z" stroke="rgb(0,0,0)" stroke-opacity="1" stroke-width="8" fill="rgb(0,0,0)" fill-opacity="1"></path></g></g><g><g transform="matrix(1,0,0,1,106.09375,19)"><path transform="matrix(0.017,0,0,-0.017,0,0)" d="M146 266C146 526 243 632 301 700L282 726C225 675 60 542 60 266C60 159 85 58 133 -32C168 -99 200 -138 282 -215L301 -194C255 -137 146 -15 146 266Z" stroke="rgb(0,0,0)" stroke-opacity="1" stroke-width="8" fill="rgb(0,0,0)" fill-opacity="1"></path></g></g><g><g transform="matrix(1,0,0,1,111.75,19)"><path transform="matrix(0.017,0,0,-0.017,0,0)" d="M96 -20C207 16 255 39 309 85C406 168 457 283 457 417C457 586 376 689 244 689C116 689 20 589 20 455C20 340 95 256 199 256C233 256 272 267 290 282L360 340C352 172 243 49 62 5L62 -3ZM240 656C285 656 318 637 340 597C358 565 370 516 370 471C370 379 317 317 240 317C160 317 106 388 106 492C106 593 158 656 240 656Z" stroke="rgb(0,0,0)" stroke-opacity="1" stroke-width="8" fill="rgb(0,0,0)" fill-opacity="1"></path></g></g><g><g transform="matrix(1,0,0,1,120.234375,19)"><path transform="matrix(0.017,0,0,-0.017,0,0)" d="M51 726L32 700C87 636 187 526 187 266C187 -10 83 -131 32 -194L51 -215C104 -165 273 -23 273 265C273 542 108 675 51 726Z" stroke="rgb(0,0,0)" stroke-opacity="1" stroke-width="8" fill="rgb(0,0,0)" fill-opacity="1"></path></g></g><g><g transform="matrix(1,0,0,1,130.984375,19)"><path transform="matrix(0.017,0,0,-0.017,0,0)" d="M604 347L604 406L65 406L65 347ZM604 134L604 193L65 193L65 134Z" stroke="rgb(0,0,0)" stroke-opacity="1" stroke-width="8" fill="rgb(0,0,0)" fill-opacity="1"></path></g></g><g><g transform="matrix(1,0,0,1,147.4375,19)"><path transform="matrix(0.017,0,0,-0.017,0,0)" d="M263 689C108 689 29 566 29 324C29 207 50 106 85 57C120 8 176 -20 238 -20C389 -20 465 110 465 366C465 585 400 689 263 689ZM245 654C342 654 381 556 381 316C381 103 343 15 251 15C154 15 113 116 113 360C113 571 150 654 245 654Z" stroke="rgb(0,0,0)" stroke-opacity="1" stroke-width="8" fill="rgb(0,0,0)" fill-opacity="1"></path></g></g><g><g transform="matrix(1,0,0,1,155.921875,19)"><path transform="matrix(0.017,0,0,-0.017,0,0)" d="M204 123C177 114 159 108 106 93C99 17 74 -48 16 -144L30 -155L71 -136C152 -31 190 32 218 109Z" stroke="rgb(0,0,0)" stroke-opacity="1" stroke-width="8" fill="rgb(0,0,0)" fill-opacity="1"></path></g></g><g><g transform="matrix(1,0,0,1,163.546875,19)"><path transform="matrix(0.017,0,0,-0.017,0,0)" d="M275 482C208 482 55 419 55 259C55 182 100 136 177 136C185 136 196 136 207 137L166 99C150 84 139 66 139 52C139 42 146 31 160 19C91 -4 -37 -48 -37 -159C-37 -230 33 -276 142 -276C271 -276 384 -204 384 -121C384 -85 363 -49 320 -14L260 35C226 62 213 81 213 100C213 114 228 128 240 146C338 170 409 253 409 342C409 357 406 376 405 380C422 378 430 378 439 378C456 378 466 379 489 382L498 427L495 433C467 426 447 424 393 424C393 425 369 482 275 482ZM176 1L253 -58C299 -94 318 -121 318 -154C318 -206 249 -248 166 -248C84 -248 27 -206 27 -145C27 -43 137 -11 176 1ZM250 448C308 448 337 412 337 341C337 238 289 168 219 168C158 168 126 209 126 288C126 383 177 448 250 448ZM730.80334 794.13126C730.80334 821.493 701.92302 841.25307 676.08278 841.25307C646.44268 841.25307 632.76181 812.37177 624.4023 788.05206L540.80044 545.60793C538.52013 539.52776 533.20072 525.08809 533.20072 517.48836C533.20072 510.64842 537.76036 500.76741 545.36008 500.76741C557.52042 500.76741 571.2013 517.48836 577.28147 526.60764L708.00319 734.09128C718.64398 750.81126 730.80334 772.85164 730.80334 794.13126ZM999.80334 794.13126C999.80334 821.493 970.92302 841.25307 945.08278 841.25307C915.44268 841.25307 901.76181 812.37177 893.4023 788.05206L809.80044 545.60793C807.52013 539.52776 802.20072 525.08809 802.20072 517.48836C802.20072 510.64842 806.76036 500.76741 814.36008 500.76741C826.52042 500.76741 840.2013 517.48836 846.28147 526.60764L977.00319 734.09128C987.64398 750.81126 999.80334 772.85164 999.80334 794.13126Z" stroke="rgb(0,0,0)" stroke-opacity="1" stroke-width="8" fill="rgb(0,0,0)" fill-opacity="1"></path></g></g><g><g transform="matrix(1,0,0,1,181.1875,19)"><path transform="matrix(0.017,0,0,-0.017,0,0)" d="M146 266C146 526 243 632 301 700L282 726C225 675 60 542 60 266C60 159 85 58 133 -32C168 -99 200 -138 282 -215L301 -194C255 -137 146 -15 146 266Z" stroke="rgb(0,0,0)" stroke-opacity="1" stroke-width="8" fill="rgb(0,0,0)" fill-opacity="1"></path></g></g><g><g transform="matrix(1,0,0,1,186.84375,19)"><path transform="matrix(0.017,0,0,-0.017,0,0)" d="M96 -20C207 16 255 39 309 85C406 168 457 283 457 417C457 586 376 689 244 689C116 689 20 589 20 455C20 340 95 256 199 256C233 256 272 267 290 282L360 340C352 172 243 49 62 5L62 -3ZM240 656C285 656 318 637 340 597C358 565 370 516 370 471C370 379 317 317 240 317C160 317 106 388 106 492C106 593 158 656 240 656Z" stroke="rgb(0,0,0)" stroke-opacity="1" stroke-width="8" fill="rgb(0,0,0)" fill-opacity="1"></path></g></g><g><g transform="matrix(1,0,0,1,195.328125,19)"><path transform="matrix(0.017,0,0,-0.017,0,0)" d="M51 726L32 700C87 636 187 526 187 266C187 -10 83 -131 32 -194L51 -215C104 -165 273 -23 273 265C273 542 108 675 51 726Z" stroke="rgb(0,0,0)" stroke-opacity="1" stroke-width="8" fill="rgb(0,0,0)" fill-opacity="1"></path></g></g><g><g transform="matrix(1,0,0,1,206.078125,19)"><path transform="matrix(0.017,0,0,-0.017,0,0)" d="M604 347L604 406L65 406L65 347ZM604 134L604 193L65 193L65 134Z" stroke="rgb(0,0,0)" stroke-opacity="1" stroke-width="8" fill="rgb(0,0,0)" fill-opacity="1"></path></g></g><g><g transform="matrix(1,0,0,1,222.53125,19)"><path transform="matrix(0.017,0,0,-0.017,0,0)" d="M263 689C108 689 29 566 29 324C29 207 50 106 85 57C120 8 176 -20 238 -20C389 -20 465 110 465 366C465 585 400 689 263 689ZM245 654C342 654 381 556 381 316C381 103 343 15 251 15C154 15 113 116 113 360C113 571 150 654 245 654Z" stroke="rgb(0,0,0)" stroke-opacity="1" stroke-width="8" fill="rgb(0,0,0)" fill-opacity="1"></path></g></g><g><g transform="matrix(1,0,0,1,231.015625,19)"><path transform="matrix(0.017,0,0,-0.017,0,0)" d="M204 123C177 114 159 108 106 93C99 17 74 -48 16 -144L30 -155L71 -136C152 -31 190 32 218 109Z" stroke="rgb(0,0,0)" stroke-opacity="1" stroke-width="8" fill="rgb(0,0,0)" fill-opacity="1"></path></g></g></g><g><g><g><g><g><text x="4.015625" y="26" style="white-space:pre;stroke:none;fill:rgb(0,0,0);fill-opacity:1;font-size:15px;font-family:Arial, Helvetica, sans-serif;font-weight:400;font-style:normal;dominant-baseline:text-before-edge;text-decoration:none solid rgb(0, 0, 0);">Which of the following is true about</text></g></g><g><g><text x="4.015625" y="47" style="white-space:pre;stroke:none;fill:rgb(0,0,0);fill-opacity:1;font-size:15px;font-family:Arial, Helvetica, sans-serif;font-weight:400;font-style:normal;dominant-baseline:text-before-edge;text-decoration:none solid rgb(0, 0, 0);">the function</text></g></g></g></g></g></g></svg>