<svg xmlns="http://www.w3.org/2000/svg" xmlns:xlink="http://www.w3.org/1999/xlink" width="111.4375" height="51.65625" style="width:111.4375px;height:51.65625px;font-family:Asana-Math, Asana;background:transparent;"><g><g><g><g><g><g><g transform="matrix(1,0,0,1,2,20.328125)"><path transform="matrix(0.017,0,0,-0.017,0,0)" d="M16 23L16 -3C203 -3 203 0 239 0C275 0 275 -3 468 -3L468 82C353 77 307 81 122 77L304 270C401 373 431 428 431 503C431 618 353 689 226 689C154 689 105 669 56 619L39 483L68 483L81 529C97 587 133 612 200 612C286 612 341 558 341 473C341 398 299 324 186 204ZM779 181L779 106C779 46 768 32 719 30L657 27L657 -3C790 0 790 0 814 0C838 0 838 0 971 -3L971 27L923 30C874 33 863 46 863 106L863 181C922 181 943 180 971 177L971 248L863 245L864 697L784 667L501 204L501 181ZM779 245L564 245L779 597ZM1234 722L1222 733C1177 711 1136 697 1062 691L1058 670L1106 670C1124 670 1140 667 1140 647C1140 641 1140 632 1138 622L1096 388C1076 272 1034 80 1008 2L1015 -9L1084 7C1092 64 1106 164 1146 236C1191 317 1294 414 1336 414C1347 414 1358 407 1358 393C1358 375 1353 342 1343 303L1292 107C1286 85 1279 55 1279 31C1279 6 1289 -9 1310 -9C1342 -9 1410 41 1469 85L1459 103L1433 86C1410 71 1384 56 1372 56C1365 56 1359 65 1359 76C1359 88 1362 101 1366 116L1430 372C1436 398 1441 423 1441 447C1441 464 1435 482 1409 482C1374 482 1297 437 1229 374C1196 343 1170 308 1142 273L1138 275Z" stroke="rgb(0,0,0)" stroke-opacity="1" stroke-width="8" fill="rgb(0,0,0)" fill-opacity="1"></path></g></g><g><g><g><g><g transform="matrix(1,0,0,1,28.421875,13.9)"><path transform="matrix(0.0119,0,0,-0.0119,0,0)" d="M16 23L16 -3C203 -3 203 0 239 0C275 0 275 -3 468 -3L468 82C353 77 307 81 122 77L304 270C401 373 431 428 431 503C431 618 353 689 226 689C154 689 105 669 56 619L39 483L68 483L81 529C97 587 133 612 200 612C286 612 341 558 341 473C341 398 299 324 186 204Z" stroke="rgb(0,0,0)" stroke-opacity="1" stroke-width="8" fill="rgb(0,0,0)" fill-opacity="1"></path></g></g></g></g></g><g><g transform="matrix(1,0,0,1,38.78125,20.328125)"><path transform="matrix(0.017,0,0,-0.017,0,0)" d="M555 243L555 299L51 299L51 243Z" stroke="rgb(0,0,0)" stroke-opacity="1" stroke-width="8" fill="rgb(0,0,0)" fill-opacity="1"></path></g></g><g><g transform="matrix(1,0,0,1,52.46875,20.328125)"><path transform="matrix(0.017,0,0,-0.017,0,0)" d="M16 23L16 -3C203 -3 203 0 239 0C275 0 275 -3 468 -3L468 82C353 77 307 81 122 77L304 270C401 373 431 428 431 503C431 618 353 689 226 689C154 689 105 669 56 619L39 483L68 483L81 529C97 587 133 612 200 612C286 612 341 558 341 473C341 398 299 324 186 204ZM515 23L515 -3C702 -3 702 0 738 0C774 0 774 -3 967 -3L967 82C852 77 806 81 621 77L803 270C900 373 930 428 930 503C930 618 852 689 725 689C653 689 604 669 555 619L538 483L567 483L580 529C596 587 632 612 699 612C785 612 840 558 840 473C840 398 798 324 685 204ZM1234 722L1222 733C1177 711 1136 697 1062 691L1058 670L1106 670C1124 670 1140 667 1140 647C1140 641 1140 632 1138 622L1096 388C1076 272 1034 80 1008 2L1015 -9L1084 7C1092 64 1106 164 1146 236C1191 317 1294 414 1336 414C1347 414 1358 407 1358 393C1358 375 1353 342 1343 303L1292 107C1286 85 1279 55 1279 31C1279 6 1289 -9 1310 -9C1342 -9 1410 41 1469 85L1459 103L1433 86C1410 71 1384 56 1372 56C1365 56 1359 65 1359 76C1359 88 1362 101 1366 116L1430 372C1436 398 1441 423 1441 447C1441 464 1435 482 1409 482C1374 482 1297 437 1229 374C1196 343 1170 308 1142 273L1138 275Z" stroke="rgb(0,0,0)" stroke-opacity="1" stroke-width="8" fill="rgb(0,0,0)" fill-opacity="1"></path></g></g></g></g><g><g><g><g transform="matrix(1,0,0,1,27.5,46.65625)"><path transform="matrix(0.017,0,0,-0.017,0,0)" d="M459 253C459 366 378 446 264 446C216 446 180 443 127 396L127 605L432 604L432 689L75 690L75 322L95 316C142 363 169 377 218 377C314 377 374 309 374 201C374 90 310 25 201 25C147 25 97 43 83 69L37 151L13 137C36 80 48 48 62 4C90 -11 130 -20 173 -20C301 -20 459 89 459 253ZM735 722L723 733C678 711 637 697 563 691L559 670L607 670C625 670 641 667 641 647C641 641 641 632 639 622L597 388C577 272 535 80 509 2L516 -9L585 7C593 64 607 164 647 236C692 317 795 414 837 414C848 414 859 407 859 393C859 375 854 342 844 303L793 107C787 85 780 55 780 31C780 6 790 -9 811 -9C843 -9 911 41 970 85L960 103L934 86C911 71 885 56 873 56C866 56 860 65 860 76C860 88 863 101 867 116L931 372C937 398 942 423 942 447C942 464 936 482 910 482C875 482 798 437 730 374C697 343 671 308 643 273L639 275Z" stroke="rgb(0,0,0)" stroke-opacity="1" stroke-width="8" fill="rgb(0,0,0)" fill-opacity="1"></path></g></g><g><g><g><g><g transform="matrix(1,0,0,1,45.4375,40.228125)"><path transform="matrix(0.0119,0,0,-0.0119,0,0)" d="M462 224C462 345 355 366 308 374C388 436 418 482 418 541C418 630 344 689 233 689C165 689 120 670 72 622L43 498L74 498L92 554C103 588 166 622 218 622C283 622 336 569 336 506C336 431 277 368 206 368C198 368 187 369 174 370L159 371L147 318L154 312C192 329 211 334 238 334C321 334 369 281 369 190C369 88 308 21 215 21C169 21 128 36 98 64C74 86 61 109 42 163L15 153C36 92 44 56 50 6C103 -12 147 -20 184 -20C307 -20 462 87 462 224Z" stroke="rgb(0,0,0)" stroke-opacity="1" stroke-width="8" fill="rgb(0,0,0)" fill-opacity="1"></path></g></g></g></g></g></g></g><line style="fill:none;stroke-width:1px;stroke:rgb(0, 0, 0);" x1="2" y1="28.078125" x2="77.921875" y2="28.078125"></line></g><g><g transform="matrix(1,0,0,1,83,32.328125)"><path transform="matrix(0.017,0,0,-0.017,0,0)" d="M604 241L604 300L364 300L364 538L305 538L305 300L65 300L65 241L305 241L305 0L364 0L364 241Z" stroke="rgb(0,0,0)" stroke-opacity="1" stroke-width="8" fill="rgb(0,0,0)" fill-opacity="1"></path></g></g><g><g transform="matrix(1,0,0,1,97.75,32.328125)"><path transform="matrix(0.017,0,0,-0.017,0,0)" d="M45 284C45 90 152 -18 343 -18C439 -18 510 5 600 67L610 103L600 110C506 53 454 35 376 35C219 35 133 131 133 309C133 447 190 653 418 653C489 653 541 639 597 603L597 519L624 519C629 576 637 619 651 665C575 694 518 706 456 706C276 706 45 578 45 284Z" stroke="rgb(0,0,0)" stroke-opacity="1" stroke-width="8" fill="rgb(0,0,0)" fill-opacity="1"></path></g></g></g></g></svg>