<svg xmlns="http://www.w3.org/2000/svg" xmlns:xlink="http://www.w3.org/1999/xlink" width="62.296875" height="25.328125" style="width:62.296875px;height:25.328125px;font-family:Asana-Math, Asana;background:transparent;"><g><g><g><g transform="matrix(1,0,0,1,2,20.328125)"><path transform="matrix(0.017,0,0,-0.017,0,0)" d="M462 224C462 345 355 366 308 374C388 436 418 482 418 541C418 630 344 689 233 689C165 689 120 670 72 622L43 498L74 498L92 554C103 588 166 622 218 622C283 622 336 569 336 506C336 431 277 368 206 368C198 368 187 369 174 370L159 371L147 318L154 312C192 329 211 334 238 334C321 334 369 281 369 190C369 88 308 21 215 21C169 21 128 36 98 64C74 86 61 109 42 163L15 153C36 92 44 56 50 6C103 -12 147 -20 184 -20C307 -20 462 87 462 224ZM961 224C961 345 854 366 807 374C887 436 917 482 917 541C917 630 843 689 732 689C664 689 619 670 571 622L542 498L573 498L591 554C602 588 665 622 717 622C782 622 835 569 835 506C835 431 776 368 705 368C697 368 686 369 673 370L658 371L646 318L653 312C691 329 710 334 737 334C820 334 868 281 868 190C868 88 807 21 714 21C668 21 627 36 597 64C573 86 560 109 541 163L514 153C535 92 543 56 549 6C602 -12 646 -20 683 -20C806 -20 961 87 961 224ZM1166 345C1125 326 1108 315 1086 294C1048 256 1028 211 1028 159C1028 56 1111 -20 1224 -20C1354 -20 1462 82 1462 206C1462 286 1425 329 1311 381C1402 443 1434 485 1434 545C1434 631 1363 689 1257 689C1138 689 1051 613 1051 508C1051 440 1078 402 1166 345ZM1282 295C1345 267 1383 218 1383 164C1383 80 1320 14 1239 14C1154 14 1099 74 1099 167C1099 240 1128 286 1202 331ZM1221 423C1158 454 1126 494 1126 544C1126 610 1174 655 1245 655C1318 655 1366 607 1366 534C1366 477 1341 438 1276 396ZM1621 111C1591 111 1564 83 1564 53C1564 23 1591 -5 1620 -5C1652 -5 1680 22 1680 53C1680 83 1652 111 1621 111ZM1842 -20C1953 16 2001 39 2055 85C2152 168 2203 283 2203 417C2203 586 2122 689 1990 689C1862 689 1766 589 1766 455C1766 340 1841 256 1945 256C1979 256 2018 267 2036 282L2106 340C2098 172 1989 49 1808 5L1808 -3ZM1986 656C2031 656 2064 637 2086 597C2104 565 2116 516 2116 471C2116 379 2063 317 1986 317C1906 317 1852 388 1852 492C1852 593 1904 656 1986 656ZM2975 103L2949 86C2920 67 2898 56 2888 56C2881 56 2875 65 2875 76C2875 86 2877 95 2882 116L2957 413C2961 430 2964 446 2964 454C2964 471 2954 482 2938 482C2909 482 2871 464 2810 421C2747 376 2712 341 2663 272L2693 409C2697 429 2700 444 2700 451C2700 470 2690 482 2674 482C2644 482 2598 460 2543 418C2499 384 2479 363 2414 275L2447 408C2451 424 2453 439 2453 451C2453 470 2444 482 2430 482C2409 482 2371 461 2297 408L2269 388L2276 368C2313 391 2348 414 2355 414C2366 414 2373 404 2373 389C2373 338 2332 145 2291 2L2294 -9L2362 6L2384 108C2408 219 2435 278 2490 338C2532 384 2577 414 2605 414C2612 414 2616 406 2616 393C2616 358 2594 244 2553 69L2537 2L2542 -9L2611 6L2632 113C2648 194 2682 269 2726 318C2781 379 2831 414 2863 414C2871 414 2876 405 2876 389C2876 365 2873 351 2851 264C2811 105 2795 84 2795 31C2795 6 2806 -9 2825 -9C2851 -9 2887 12 2985 85Z" stroke="rgb(0,0,0)" stroke-opacity="1" stroke-width="8" fill="rgb(0,0,0)" fill-opacity="1"></path></g></g><g><g><g><g><g transform="matrix(1,0,0,1,54.34375,13.9)"><path transform="matrix(0.0119,0,0,-0.0119,0,0)" d="M16 23L16 -3C203 -3 203 0 239 0C275 0 275 -3 468 -3L468 82C353 77 307 81 122 77L304 270C401 373 431 428 431 503C431 618 353 689 226 689C154 689 105 669 56 619L39 483L68 483L81 529C97 587 133 612 200 612C286 612 341 558 341 473C341 398 299 324 186 204Z" stroke="rgb(0,0,0)" stroke-opacity="1" stroke-width="8" fill="rgb(0,0,0)" fill-opacity="1"></path></g></g></g></g></g></g></g></svg>