<svg xmlns="http://www.w3.org/2000/svg" xmlns:xlink="http://www.w3.org/1999/xlink" width="127.359375" height="25.25" style="width:127.359375px;height:25.25px;font-family:Asana-Math, Asana;background:transparent;"><g><g><g><g><g transform="matrix(1,0,0,1,2,20.25)"><path transform="matrix(0.017,0,0,-0.017,0,0)" d="M399 311C399 357 404 398 413 434C381 478 338 497 293 497C169 497 25 361 25 224C25 219 26 215 26 210C26 75 121 -20 255 -20C307 -20 382 -1 392 14L413 46L403 61C366 41 334 32 298 32C187 32 114 118 114 250C114 357 164 417 254 417C298 417 346 397 364 372L371 311ZM722 469C576 469 475 366 475 217C475 76 564 -20 693 -20C847 -20 957 87 957 237C957 372 859 469 722 469ZM704 436C796 436 864 336 864 200C864 85 813 13 732 13C634 13 568 109 568 251C568 371 616 436 704 436ZM1029 143C1029 74 1026 44 1018 4C1070 -13 1109 -20 1155 -20C1286 -20 1379 50 1379 148C1379 321 1095 228 1095 358C1095 408 1130 436 1191 436C1258 436 1309 401 1309 354L1309 331L1337 331C1338 389 1339 413 1342 444C1289 462 1253 469 1212 469C1096 469 1025 414 1025 324C1025 276 1047 242 1093 221C1211 169 1305 195 1305 109C1305 55 1255 17 1184 17C1111 17 1059 52 1059 102L1059 143Z" stroke="rgb(0,0,0)" stroke-opacity="1" stroke-width="8" fill="rgb(0,0,0)" fill-opacity="1"></path></g></g></g><g><g><g><g><g transform="matrix(1,0,0,1,26.96875,13.9)"><path transform="matrix(0.0119,0,0,-0.0119,0,0)" d="M280 181L280 106C280 46 269 32 220 30L158 27L158 -3C291 0 291 0 315 0C339 0 339 0 472 -3L472 27L424 30C375 33 364 46 364 106L364 181C423 181 444 180 472 177L472 248L364 245L365 697L285 667L2 204L2 181ZM280 245L65 245L280 597Z" stroke="rgb(0,0,0)" stroke-opacity="1" stroke-width="8" fill="rgb(0,0,0)" fill-opacity="1"></path></g></g></g></g></g><g><g transform="matrix(1,0,0,1,33.9375,20.25)"><path transform="matrix(0.017,0,0,-0.017,0,0)" d="M146 266C146 526 243 632 301 700L282 726C225 675 60 542 60 266C60 159 85 58 133 -32C168 -99 200 -138 282 -215L301 -194C255 -137 146 -15 146 266Z" stroke="rgb(0,0,0)" stroke-opacity="1" stroke-width="8" fill="rgb(0,0,0)" fill-opacity="1"></path></g></g><g><g transform="matrix(1,0,0,1,39.59375,20.25)"><path transform="matrix(0.017,0,0,-0.017,0,0)" d="M9 1C24 -7 40 -11 52 -11C85 -11 124 18 155 65L231 182L242 113C255 28 278 -11 314 -11C336 -11 368 6 400 35L449 79L440 98C404 68 379 53 363 53C348 53 335 63 325 83C316 102 305 139 300 168L282 269L317 318C364 383 391 406 422 406C438 406 450 398 455 383L469 387L484 472C472 479 463 482 454 482C414 482 374 446 312 354L275 299L269 347C257 446 230 482 171 482C145 482 123 474 114 461L56 378L73 368C103 402 123 416 142 416C175 416 197 375 214 277L225 215L185 153C142 86 108 54 80 54C65 54 54 58 52 63L41 91L21 88C21 53 13 27 9 1Z" stroke="rgb(0,0,0)" stroke-opacity="1" stroke-width="8" fill="rgb(0,0,0)" fill-opacity="1"></path></g></g><g><g transform="matrix(1,0,0,1,48.078125,20.25)"><path transform="matrix(0.017,0,0,-0.017,0,0)" d="M51 726L32 700C87 636 187 526 187 266C187 -10 83 -131 32 -194L51 -215C104 -165 273 -23 273 265C273 542 108 675 51 726Z" stroke="rgb(0,0,0)" stroke-opacity="1" stroke-width="8" fill="rgb(0,0,0)" fill-opacity="1"></path></g></g><g><g><g transform="matrix(1,0,0,1,53.734375,20.25)"><path transform="matrix(0.017,0,0,-0.017,0,0)" d="M41 143C41 74 38 44 30 4C82 -13 121 -20 167 -20C298 -20 391 50 391 148C391 321 107 228 107 358C107 408 142 436 203 436C270 436 321 401 321 354L321 331L349 331C350 389 351 413 354 444C301 462 265 469 224 469C108 469 37 414 37 324C37 276 59 242 105 221C223 169 317 195 317 109C317 55 267 17 196 17C123 17 71 52 71 102L71 143ZM611 465L602 469C551 448 499 434 446 428L446 400L483 400C523 400 527 393 527 327L527 102C527 39 524 32 490 30L444 27L444 -3C544 0 544 0 569 0C594 0 594 0 694 -3L694 27L648 30C614 32 611 39 611 102ZM565 687C535 687 509 661 509 631C509 602 535 576 564 576C593 576 620 602 620 631C620 659 593 687 565 687ZM1123 -3C1184 0 1185 0 1202 0C1216 0 1216 0 1285 -3L1285 27L1244 30C1210 32 1207 38 1207 102L1207 295C1207 412 1152 469 1040 469C1003 469 982 462 961 444L885 378L885 465L876 469C825 448 773 434 720 428L720 400L757 400C797 400 801 393 801 327L801 102C801 39 798 32 764 30L719 27L719 -3C787 -1 814 0 843 0C872 0 899 -1 967 -3L967 27L922 30C888 32 885 39 885 102L885 314C885 359 951 408 1012 408C1079 408 1123 358 1123 281Z" stroke="rgb(0,0,0)" stroke-opacity="1" stroke-width="8" fill="rgb(0,0,0)" fill-opacity="1"></path></g></g></g><g><g transform="matrix(1,0,0,1,75.734375,20.25)"><path transform="matrix(0.017,0,0,-0.017,0,0)" d="M146 266C146 526 243 632 301 700L282 726C225 675 60 542 60 266C60 159 85 58 133 -32C168 -99 200 -138 282 -215L301 -194C255 -137 146 -15 146 266Z" stroke="rgb(0,0,0)" stroke-opacity="1" stroke-width="8" fill="rgb(0,0,0)" fill-opacity="1"></path></g></g><g><g transform="matrix(1,0,0,1,81.390625,20.25)"><path transform="matrix(0.017,0,0,-0.017,0,0)" d="M9 1C24 -7 40 -11 52 -11C85 -11 124 18 155 65L231 182L242 113C255 28 278 -11 314 -11C336 -11 368 6 400 35L449 79L440 98C404 68 379 53 363 53C348 53 335 63 325 83C316 102 305 139 300 168L282 269L317 318C364 383 391 406 422 406C438 406 450 398 455 383L469 387L484 472C472 479 463 482 454 482C414 482 374 446 312 354L275 299L269 347C257 446 230 482 171 482C145 482 123 474 114 461L56 378L73 368C103 402 123 416 142 416C175 416 197 375 214 277L225 215L185 153C142 86 108 54 80 54C65 54 54 58 52 63L41 91L21 88C21 53 13 27 9 1Z" stroke="rgb(0,0,0)" stroke-opacity="1" stroke-width="8" fill="rgb(0,0,0)" fill-opacity="1"></path></g></g><g><g transform="matrix(1,0,0,1,89.875,20.25)"><path transform="matrix(0.017,0,0,-0.017,0,0)" d="M51 726L32 700C87 636 187 526 187 266C187 -10 83 -131 32 -194L51 -215C104 -165 273 -23 273 265C273 542 108 675 51 726Z" stroke="rgb(0,0,0)" stroke-opacity="1" stroke-width="8" fill="rgb(0,0,0)" fill-opacity="1"></path></g></g><g><g transform="matrix(1,0,0,1,98.921875,20.25)"><path transform="matrix(0.017,0,0,-0.017,0,0)" d="M604 241L604 300L364 300L364 538L305 538L305 300L65 300L65 241L305 241L305 0L364 0L364 241Z" stroke="rgb(0,0,0)" stroke-opacity="1" stroke-width="8" fill="rgb(0,0,0)" fill-opacity="1"></path></g></g><g><g transform="matrix(1,0,0,1,113.671875,20.25)"><path transform="matrix(0.017,0,0,-0.017,0,0)" d="M45 284C45 90 152 -18 343 -18C439 -18 510 5 600 67L610 103L600 110C506 53 454 35 376 35C219 35 133 131 133 309C133 447 190 653 418 653C489 653 541 639 597 603L597 519L624 519C629 576 637 619 651 665C575 694 518 706 456 706C276 706 45 578 45 284Z" stroke="rgb(0,0,0)" stroke-opacity="1" stroke-width="8" fill="rgb(0,0,0)" fill-opacity="1"></path></g></g></g></g></svg>