<svg xmlns="http://www.w3.org/2000/svg" xmlns:xlink="http://www.w3.org/1999/xlink" width="45.34375" height="25.328125" style="width:45.34375px;height:25.328125px;font-family:Asana-Math, Asana;background:transparent;"><g><g><g><g transform="matrix(1,0,0,1,2,20.328125)"><path transform="matrix(0.017,0,0,-0.017,0,0)" d="M459 253C459 366 378 446 264 446C216 446 180 443 127 396L127 605L432 604L432 689L75 690L75 322L95 316C142 363 169 377 218 377C314 377 374 309 374 201C374 90 310 25 201 25C147 25 97 43 83 69L37 151L13 137C36 80 48 48 62 4C90 -11 130 -20 173 -20C301 -20 459 89 459 253ZM623 111C593 111 566 83 566 53C566 23 593 -5 622 -5C654 -5 682 22 682 53C682 83 654 111 623 111ZM879 331C900 512 989 611 1169 665L1127 689C1031 657 990 637 939 593C836 506 780 384 780 247C780 82 860 -20 989 -20C1119 -20 1216 83 1216 219C1216 334 1147 409 1041 409C964 409 932 370 879 331ZM1003 349C1079 349 1130 283 1130 184C1130 80 1079 13 1002 13C917 13 871 86 871 220C871 255 875 274 886 291C908 325 955 349 1003 349ZM1977 103L1951 86C1922 67 1900 56 1890 56C1883 56 1877 65 1877 76C1877 86 1879 95 1884 116L1959 413C1963 430 1966 446 1966 454C1966 471 1956 482 1940 482C1911 482 1873 464 1812 421C1749 376 1714 341 1665 272L1695 409C1699 429 1702 444 1702 451C1702 470 1692 482 1676 482C1646 482 1600 460 1545 418C1501 384 1481 363 1416 275L1449 408C1453 424 1455 439 1455 451C1455 470 1446 482 1432 482C1411 482 1373 461 1299 408L1271 388L1278 368C1315 391 1350 414 1357 414C1368 414 1375 404 1375 389C1375 338 1334 145 1293 2L1296 -9L1364 6L1386 108C1410 219 1437 278 1492 338C1534 384 1579 414 1607 414C1614 414 1618 406 1618 393C1618 358 1596 244 1555 69L1539 2L1544 -9L1613 6L1634 113C1650 194 1684 269 1728 318C1783 379 1833 414 1865 414C1873 414 1878 405 1878 389C1878 365 1875 351 1853 264C1813 105 1797 84 1797 31C1797 6 1808 -9 1827 -9C1853 -9 1889 12 1987 85Z" stroke="rgb(0,0,0)" stroke-opacity="1" stroke-width="8" fill="rgb(0,0,0)" fill-opacity="1"></path></g></g><g><g><g><g><g transform="matrix(1,0,0,1,37.390625,13.9)"><path transform="matrix(0.0119,0,0,-0.0119,0,0)" d="M16 23L16 -3C203 -3 203 0 239 0C275 0 275 -3 468 -3L468 82C353 77 307 81 122 77L304 270C401 373 431 428 431 503C431 618 353 689 226 689C154 689 105 669 56 619L39 483L68 483L81 529C97 587 133 612 200 612C286 612 341 558 341 473C341 398 299 324 186 204Z" stroke="rgb(0,0,0)" stroke-opacity="1" stroke-width="8" fill="rgb(0,0,0)" fill-opacity="1"></path></g></g></g></g></g></g></g></svg>