<svg xmlns="http://www.w3.org/2000/svg" xmlns:xlink="http://www.w3.org/1999/xlink" width="29.453125" height="24" style="width:29.453125px;height:24px;font-family:Asana-Math, Asana;background:transparent;"><g><g><g><g transform="matrix(1,0,0,1,2,19)"><path transform="matrix(0.017,0,0,-0.017,0,0)" d="M16 23L16 -3C203 -3 203 0 239 0C275 0 275 -3 468 -3L468 82C353 77 307 81 122 77L304 270C401 373 431 428 431 503C431 618 353 689 226 689C154 689 105 669 56 619L39 483L68 483L81 529C97 587 133 612 200 612C286 612 341 558 341 473C341 398 299 324 186 204ZM917 -3L917 27L865 30C810 33 800 44 800 96L800 700L559 598L566 548L716 614L716 96C716 44 705 33 651 30L595 27L595 -3C749 0 749 0 760 0C791 0 901 -3 917 -3ZM1129 331C1150 512 1239 611 1419 665L1377 689C1281 657 1240 637 1189 593C1086 506 1030 384 1030 247C1030 82 1110 -20 1239 -20C1369 -20 1466 83 1466 219C1466 334 1397 409 1291 409C1214 409 1182 370 1129 331ZM1253 349C1329 349 1380 283 1380 184C1380 80 1329 13 1252 13C1167 13 1121 86 1121 220C1121 255 1125 274 1136 291C1158 325 1205 349 1253 349Z" stroke="rgb(0,0,0)" stroke-opacity="1" stroke-width="0" fill="rgb(0,0,0)" fill-opacity="1"></path></g></g></g></g></svg>