<svg xmlns="http://www.w3.org/2000/svg" xmlns:xlink="http://www.w3.org/1999/xlink" width="66.546875" height="48" style="width:66.546875px;height:48px;font-family:Asana-Math, Asana;background:transparent;"><g><g><g><g><g><g><g transform="matrix(1,0,0,1,22.34375,13.9)"><path transform="matrix(0.0119,0,0,-0.0119,0,0)" d="M843 284C843 380 792 461 687 461C600 461 516 378 463 315C419 387 334 463 245 463C129 463 55 352 55 244C55 148 109 66 213 66C296 66 389 152 436 216C485 143 561 65 655 65C771 65 843 179 843 284ZM783 236C783 166 748 108 673 108C594 108 522 226 481 284C513 332 597 409 656 409C740 409 783 307 783 236ZM418 245C387 198 301 122 243 122C159 122 117 224 117 296C117 366 153 424 229 424C300 424 387 304 418 245Z" stroke="rgb(0,0,0)" stroke-opacity="1" stroke-width="8" fill="rgb(0,0,0)" fill-opacity="1"></path></g></g></g></g><g><g><g><g transform="matrix(1,0,0,1,13.890625,43.9)"><path transform="matrix(0.0119,0,0,-0.0119,0,0)" d="M16 23L16 -3C203 -3 203 0 239 0C275 0 275 -3 468 -3L468 82C353 77 307 81 122 77L304 270C401 373 431 428 431 503C431 618 353 689 226 689C154 689 105 669 56 619L39 483L68 483L81 529C97 587 133 612 200 612C286 612 341 558 341 473C341 398 299 324 186 204Z" stroke="rgb(0,0,0)" stroke-opacity="1" stroke-width="8" fill="rgb(0,0,0)" fill-opacity="1"></path></g></g></g></g><g><g transform="matrix(1,0,0,1,2,31.900000000000002)"><path transform="matrix(0.0255,0,0,-0.0255,0,0)" d="M694 802C694 860 621 885 573 885C368 885 344 579 334 430C323 251 309 72 304 -108C301 -191 312 -410 184 -410C173 -410 159 -407 151 -397C153 -392 155 -384 155 -378C155 -347 114 -315 83 -315C59 -315 54 -340 54 -359C54 -418 125 -442 173 -442C348 -442 380 -190 395 -59C413 104 421 269 433 433C439 521 422 853 562 853C574 853 587 850 596 841C593 834 592 828 592 821C592 789 633 759 663 759C687 759 694 782 694 802Z" stroke="rgb(0,0,0)" stroke-opacity="1" stroke-width="8" fill="rgb(0,0,0)" fill-opacity="1"></path></g></g></g><g><g transform="matrix(1,0,0,1,33.03125,32)"><path transform="matrix(0.017,0,0,-0.017,0,0)" d="M328 111L304 94C251 56 203 36 167 36C120 36 91 73 91 133C91 158 94 185 99 214C116 218 225 248 250 259C335 296 374 342 374 404C374 451 340 482 290 482C222 496 112 423 75 349C45 299 15 180 15 113C15 35 59 -11 131 -11C188 -11 244 17 336 92ZM113 274C130 343 150 386 179 412C197 428 228 440 252 440C281 440 300 420 300 388C300 344 265 297 213 272C185 258 149 247 104 237Z" stroke="rgb(0,0,0)" stroke-opacity="1" stroke-width="8" fill="rgb(0,0,0)" fill-opacity="1"></path></g></g><g><g><g><g><g transform="matrix(1,0,0,1,40.609375,25.571875)"><path transform="matrix(0.0119,0,0,-0.0119,0,0)" d="M9 1C24 -7 40 -11 52 -11C85 -11 124 18 155 65L231 182L242 113C255 28 278 -11 314 -11C336 -11 368 6 400 35L449 79L440 98C404 68 379 53 363 53C348 53 335 63 325 83C316 102 305 139 300 168L282 269L317 318C364 383 391 406 422 406C438 406 450 398 455 383L469 387L484 472C472 479 463 482 454 482C414 482 374 446 312 354L275 299L269 347C257 446 230 482 171 482C145 482 123 474 114 461L56 378L73 368C103 402 123 416 142 416C175 416 197 375 214 277L225 215L185 153C142 86 108 54 80 54C65 54 54 58 52 63L41 91L21 88C21 53 13 27 9 1Z" stroke="rgb(0,0,0)" stroke-opacity="1" stroke-width="8" fill="rgb(0,0,0)" fill-opacity="1"></path></g></g></g></g></g><g><g transform="matrix(1,0,0,1,47.578125,32)"><path transform="matrix(0.017,0,0,-0.017,0,0)" d="M483 722L471 733C419 707 383 698 311 691L307 670L355 670C379 670 389 663 389 646C389 638 388 629 387 622L359 468C329 477 302 482 277 482C208 482 114 410 68 323C37 265 17 170 17 86C17 21 32 -11 61 -11C88 -11 125 6 159 33C213 77 246 116 313 217L290 126C279 82 274 50 274 24C274 3 283 -9 300 -9C317 -9 341 3 375 28L456 88L446 107L402 76C388 66 372 59 363 59C355 59 349 68 349 82C349 90 350 99 357 128ZM114 59C98 59 89 73 89 98C89 224 135 380 184 418C197 428 216 433 243 433C287 433 316 427 349 410L337 351C300 171 159 59 114 59ZM508 1C523 -7 539 -11 551 -11C584 -11 623 18 654 65L730 182L741 113C754 28 777 -11 813 -11C835 -11 867 6 899 35L948 79L939 98C903 68 878 53 862 53C847 53 834 63 824 83C815 102 804 139 799 168L781 269L816 318C863 383 890 406 921 406C937 406 949 398 954 383L968 387L983 472C971 479 962 482 953 482C913 482 873 446 811 354L774 299L768 347C756 446 729 482 670 482C644 482 622 474 613 461L555 378L572 368C602 402 622 416 641 416C674 416 696 375 713 277L724 215L684 153C641 86 607 54 579 54C564 54 553 58 551 63L540 91L520 88C520 53 512 27 508 1Z" stroke="rgb(0,0,0)" stroke-opacity="1" stroke-width="8" fill="rgb(0,0,0)" fill-opacity="1"></path></g></g></g></g></svg>