<svg xmlns="http://www.w3.org/2000/svg" xmlns:xlink="http://www.w3.org/1999/xlink" width="116.015625" height="25.328125" style="width:116.015625px;height:25.328125px;font-family:Asana-Math, Asana;background:transparent;"><g><g><g><g><g transform="matrix(1,0,0,1,2,20.328125)"><path transform="matrix(0.017,0,0,-0.017,0,0)" d="M41 143C41 74 38 44 30 4C82 -13 121 -20 167 -20C298 -20 391 50 391 148C391 321 107 228 107 358C107 408 142 436 203 436C270 436 321 401 321 354L321 331L349 331C350 389 351 413 354 444C301 462 265 469 224 469C108 469 37 414 37 324C37 276 59 242 105 221C223 169 317 195 317 109C317 55 267 17 196 17C123 17 71 52 71 102L71 143ZM673 -20C738 -20 828 18 840 36L860 70L847 80C783 42 760 33 717 33C652 33 598 62 570 111C551 144 544 172 542 230C563 227 593 226 627 226C713 226 822 234 869 244C870 258 871 267 871 279C871 394 797 469 685 469C648 469 603 464 563 440C481 392 449 323 449 219C449 25 584 -20 673 -20ZM782 267C758 264 707 261 656 261C613 261 570 264 544 270C544 317 548 339 561 365C582 409 625 436 673 436C706 436 732 423 750 396C772 363 779 334 782 267ZM1300 311C1300 357 1305 398 1314 434C1282 478 1239 497 1194 497C1070 497 926 361 926 224C926 219 927 215 927 210C927 75 1022 -20 1156 -20C1208 -20 1283 -1 1293 14L1314 46L1304 61C1267 41 1235 32 1199 32C1088 32 1015 118 1015 250C1015 357 1065 417 1155 417C1199 417 1247 397 1265 372L1272 311Z" stroke="rgb(0,0,0)" stroke-opacity="1" stroke-width="8" fill="rgb(0,0,0)" fill-opacity="1"></path></g></g></g><g><g><g><g><g transform="matrix(1,0,0,1,25.828125,13.978125)"><path transform="matrix(0.0119,0,0,-0.0119,0,0)" d="M16 23L16 -3C203 -3 203 0 239 0C275 0 275 -3 468 -3L468 82C353 77 307 81 122 77L304 270C401 373 431 428 431 503C431 618 353 689 226 689C154 689 105 669 56 619L39 483L68 483L81 529C97 587 133 612 200 612C286 612 341 558 341 473C341 398 299 324 186 204Z" stroke="rgb(0,0,0)" stroke-opacity="1" stroke-width="8" fill="rgb(0,0,0)" fill-opacity="1"></path></g></g></g></g></g><g><g transform="matrix(1,0,0,1,32.796875,20.328125)"><path transform="matrix(0.017,0,0,-0.017,0,0)" d="M146 266C146 526 243 632 301 700L282 726C225 675 60 542 60 266C60 159 85 58 133 -32C168 -99 200 -138 282 -215L301 -194C255 -137 146 -15 146 266Z" stroke="rgb(0,0,0)" stroke-opacity="1" stroke-width="8" fill="rgb(0,0,0)" fill-opacity="1"></path></g></g><g><g transform="matrix(1,0,0,1,38.453125,20.328125)"><path transform="matrix(0.017,0,0,-0.017,0,0)" d="M322 -11C334 -11 343 -9 372 -1C383 61 391 95 402 142L380 142L358 82C352 64 340 57 319 57C307 57 291 59 270 64L252 68C219 75 185 80 166 80C134 80 107 74 71 59L410 441L416 473L407 482L384 459C374 449 364 445 350 445C316 445 264 453 216 466L198 471C170 478 150 482 136 482C119 482 99 479 75 472L43 350L64 350L94 408C111 412 120 413 133 413C174 413 206 398 259 398C295 398 319 404 352 421L-1 21L8 -6C37 17 64 26 99 26C162 26 253 -11 322 -11Z" stroke="rgb(0,0,0)" stroke-opacity="1" stroke-width="8" fill="rgb(0,0,0)" fill-opacity="1"></path></g></g><g><g transform="matrix(1,0,0,1,45.984375,20.328125)"><path transform="matrix(0.017,0,0,-0.017,0,0)" d="M51 726L32 700C87 636 187 526 187 266C187 -10 83 -131 32 -194L51 -215C104 -165 273 -23 273 265C273 542 108 675 51 726Z" stroke="rgb(0,0,0)" stroke-opacity="1" stroke-width="8" fill="rgb(0,0,0)" fill-opacity="1"></path></g></g><g><g transform="matrix(1,0,0,1,55.03125,20.328125)"><path transform="matrix(0.017,0,0,-0.017,0,0)" d="M555 243L555 299L51 299L51 243Z" stroke="rgb(0,0,0)" stroke-opacity="1" stroke-width="8" fill="rgb(0,0,0)" fill-opacity="1"></path></g></g><g><g transform="matrix(1,0,0,1,68.71875,20.328125)"><path transform="matrix(0.017,0,0,-0.017,0,0)" d="M322 -11C334 -11 343 -9 372 -1C383 61 391 95 402 142L380 142L358 82C352 64 340 57 319 57C307 57 291 59 270 64L252 68C219 75 185 80 166 80C134 80 107 74 71 59L410 441L416 473L407 482L384 459C374 449 364 445 350 445C316 445 264 453 216 466L198 471C170 478 150 482 136 482C119 482 99 479 75 472L43 350L64 350L94 408C111 412 120 413 133 413C174 413 206 398 259 398C295 398 319 404 352 421L-1 21L8 -6C37 17 64 26 99 26C162 26 253 -11 322 -11Z" stroke="rgb(0,0,0)" stroke-opacity="1" stroke-width="8" fill="rgb(0,0,0)" fill-opacity="1"></path></g></g><g><g><g><g><g transform="matrix(1,0,0,1,77.21875,13.9)"><path transform="matrix(0.0119,0,0,-0.0119,0,0)" d="M16 23L16 -3C203 -3 203 0 239 0C275 0 275 -3 468 -3L468 82C353 77 307 81 122 77L304 270C401 373 431 428 431 503C431 618 353 689 226 689C154 689 105 669 56 619L39 483L68 483L81 529C97 587 133 612 200 612C286 612 341 558 341 473C341 398 299 324 186 204Z" stroke="rgb(0,0,0)" stroke-opacity="1" stroke-width="8" fill="rgb(0,0,0)" fill-opacity="1"></path></g></g></g></g></g><g><g transform="matrix(1,0,0,1,87.578125,20.328125)"><path transform="matrix(0.017,0,0,-0.017,0,0)" d="M604 241L604 300L364 300L364 538L305 538L305 300L65 300L65 241L305 241L305 0L364 0L364 241Z" stroke="rgb(0,0,0)" stroke-opacity="1" stroke-width="8" fill="rgb(0,0,0)" fill-opacity="1"></path></g></g><g><g transform="matrix(1,0,0,1,102.328125,20.328125)"><path transform="matrix(0.017,0,0,-0.017,0,0)" d="M45 284C45 90 152 -18 343 -18C439 -18 510 5 600 67L610 103L600 110C506 53 454 35 376 35C219 35 133 131 133 309C133 447 190 653 418 653C489 653 541 639 597 603L597 519L624 519C629 576 637 619 651 665C575 694 518 706 456 706C276 706 45 578 45 284Z" stroke="rgb(0,0,0)" stroke-opacity="1" stroke-width="8" fill="rgb(0,0,0)" fill-opacity="1"></path></g></g></g></g></svg>