<svg xmlns="http://www.w3.org/2000/svg" xmlns:xlink="http://www.w3.org/1999/xlink" width="42.25" height="46" style="width:42.25px;height:46px;font-family:Asana-Math, Asana;background:transparent;"><g><g><g><g><g><g><g transform="matrix(1,0,0,1,2,19)"><path transform="matrix(0.017,0,0,-0.017,0,0)" d="M418 -3L418 27L366 30C311 33 301 44 301 96L301 700L60 598L67 548L217 614L217 96C217 44 206 33 152 30L96 27L96 -3C250 0 250 0 261 0C292 0 402 -3 418 -3ZM515 23L515 -3C702 -3 702 0 738 0C774 0 774 -3 967 -3L967 82C852 77 806 81 621 77L803 270C900 373 930 428 930 503C930 618 852 689 725 689C653 689 604 669 555 619L538 483L567 483L580 529C596 587 632 612 699 612C785 612 840 558 840 473C840 398 798 324 685 204ZM1416 -3L1416 27L1364 30C1309 33 1299 44 1299 96L1299 700L1058 598L1065 548L1215 614L1215 96C1215 44 1204 33 1150 30L1094 27L1094 -3C1248 0 1248 0 1259 0C1290 0 1400 -3 1416 -3Z" stroke="rgb(0,0,0)" stroke-opacity="1" stroke-width="8" fill="rgb(0,0,0)" fill-opacity="1"></path></g></g></g></g><g><g><g><g transform="matrix(1,0,0,1,6.234375,44)"><path transform="matrix(0.017,0,0,-0.017,0,0)" d="M280 181L280 106C280 46 269 32 220 30L158 27L158 -3C291 0 291 0 315 0C339 0 339 0 472 -3L472 27L424 30C375 33 364 46 364 106L364 181C423 181 444 180 472 177L472 248L364 245L365 697L285 667L2 204L2 181ZM280 245L65 245L280 597ZM762 689C607 689 528 566 528 324C528 207 549 106 584 57C619 8 675 -20 737 -20C888 -20 964 110 964 366C964 585 899 689 762 689ZM744 654C841 654 880 556 880 316C880 103 842 15 750 15C653 15 612 116 612 360C612 571 649 654 744 654Z" stroke="rgb(0,0,0)" stroke-opacity="1" stroke-width="8" fill="rgb(0,0,0)" fill-opacity="1"></path></g></g></g></g><line style="fill:none;stroke-width:1px;stroke:rgb(0, 0, 0);" x1="2" y1="26.75" x2="27.453125" y2="26.75"></line></g><g><g transform="matrix(1,0,0,1,29.140625,31)"><path transform="matrix(0.017,0,0,-0.017,0,0)" d="M525 42C469 42 464 125 465 166C466 251 494 333 537 405L599 418C602 435 608 452 613 467C459 461 300 463 145 466C80 467 66 389 47 340C46 332 59 331 63 328L63 332C106 395 130 405 205 405L228 405C188 266 161 129 98 -2L98 -12C118 -6 153 1 170 13C211 141 240 274 268 405L495 405C438 318 397 213 395 108C395 59 410 -15 471 -15C512 -15 568 25 598 51L598 66L586 66L586 67C568 56 548 42 525 42Z" stroke="rgb(0,0,0)" stroke-opacity="1" stroke-width="8" fill="rgb(0,0,0)" fill-opacity="1"></path></g></g></g></g></svg>