<svg xmlns="http://www.w3.org/2000/svg" xmlns:xlink="http://www.w3.org/1999/xlink" width="37.953125" height="24" style="width:37.953125px;height:24px;font-family:Asana-Math, Asana;background:transparent;"><g><g><g><g transform="matrix(1,0,0,1,2,19)"><path transform="matrix(0.017,0,0,-0.017,0,0)" d="M251 722L239 733C187 707 151 698 79 691L75 670L123 670C147 670 157 663 157 648C157 645 157 640 154 622C143 567 70 182 55 132C42 82 36 52 36 31C36 6 47 -9 66 -9C92 -9 128 12 226 85L216 103L190 86C161 67 139 56 129 56C122 56 116 66 116 76C116 82 117 89 120 104ZM301 388L308 368L340 389C377 412 380 414 387 414C398 414 405 404 405 389C405 338 364 145 323 2L330 -9C355 -2 378 4 400 8C419 134 440 199 486 268C540 352 615 414 660 414C671 414 677 405 677 390C677 372 674 351 666 319L614 107C605 70 601 47 601 31C601 6 612 -9 631 -9C657 -9 693 12 791 85L781 103L755 86C726 67 704 56 694 56C687 56 681 65 681 76C681 81 682 92 683 96L749 372C756 401 760 429 760 446C760 469 749 482 729 482C687 482 618 444 559 389C521 354 493 320 441 247L479 408C483 426 485 438 485 449C485 470 477 482 462 482C441 482 402 460 329 408Z" stroke="rgb(0,0,0)" stroke-opacity="1" stroke-width="8" fill="rgb(0,0,0)" fill-opacity="1"></path></g></g><g><g transform="matrix(1,0,0,1,16.15625,19)"><path transform="matrix(0.017,0,0,-0.017,0,0)" d="M146 266C146 526 243 632 301 700L282 726C225 675 60 542 60 266C60 159 85 58 133 -32C168 -99 200 -138 282 -215L301 -194C255 -137 146 -15 146 266Z" stroke="rgb(0,0,0)" stroke-opacity="1" stroke-width="8" fill="rgb(0,0,0)" fill-opacity="1"></path></g></g><g><g transform="matrix(1,0,0,1,21.8125,19)"><path transform="matrix(0.017,0,0,-0.017,0,0)" d="M16 23L16 -3C203 -3 203 0 239 0C275 0 275 -3 468 -3L468 82C353 77 307 81 122 77L304 270C401 373 431 428 431 503C431 618 353 689 226 689C154 689 105 669 56 619L39 483L68 483L81 529C97 587 133 612 200 612C286 612 341 558 341 473C341 398 299 324 186 204Z" stroke="rgb(0,0,0)" stroke-opacity="1" stroke-width="8" fill="rgb(0,0,0)" fill-opacity="1"></path></g></g><g><g transform="matrix(1,0,0,1,30.296875,19)"><path transform="matrix(0.017,0,0,-0.017,0,0)" d="M51 726L32 700C87 636 187 526 187 266C187 -10 83 -131 32 -194L51 -215C104 -165 273 -23 273 265C273 542 108 675 51 726Z" stroke="rgb(0,0,0)" stroke-opacity="1" stroke-width="8" fill="rgb(0,0,0)" fill-opacity="1"></path></g></g></g></g></svg>