<svg xmlns="http://www.w3.org/2000/svg" xmlns:xlink="http://www.w3.org/1999/xlink" width="60.6875" height="24" style="width:60.6875px;height:24px;font-family:Asana-Math, Asana;background:transparent;"><g><g><g><g transform="matrix(1,0,0,1,2,19)"><path transform="matrix(0.017,0,0,-0.017,0,0)" d="M16 23L16 -3C203 -3 203 0 239 0C275 0 275 -3 468 -3L468 82C353 77 307 81 122 77L304 270C401 373 431 428 431 503C431 618 353 689 226 689C154 689 105 669 56 619L39 483L68 483L81 529C97 587 133 612 200 612C286 612 341 558 341 473C341 398 299 324 186 204ZM750 722L738 733C686 707 650 698 578 691L574 670L622 670C646 670 656 663 656 648C656 645 656 640 653 622C642 567 569 182 554 132C541 82 535 52 535 31C535 6 546 -9 565 -9C591 -9 627 12 725 85L715 103L689 86C660 67 638 56 628 56C621 56 615 66 615 76C615 82 616 89 619 104ZM800 388L807 368L839 389C876 412 879 414 886 414C897 414 904 404 904 389C904 338 863 145 822 2L829 -9C854 -2 877 4 899 8C918 134 939 199 985 268C1039 352 1114 414 1159 414C1170 414 1176 405 1176 390C1176 372 1173 351 1165 319L1113 107C1104 70 1100 47 1100 31C1100 6 1111 -9 1130 -9C1156 -9 1192 12 1290 85L1280 103L1254 86C1225 67 1203 56 1193 56C1186 56 1180 65 1180 76C1180 81 1181 92 1182 96L1248 372C1255 401 1259 429 1259 446C1259 469 1248 482 1228 482C1186 482 1117 444 1058 389C1020 354 992 320 940 247L978 408C982 426 984 438 984 449C984 470 976 482 961 482C940 482 901 460 828 408ZM1340 1C1355 -7 1371 -11 1383 -11C1416 -11 1455 18 1486 65L1562 182L1573 113C1586 28 1609 -11 1645 -11C1667 -11 1699 6 1731 35L1780 79L1771 98C1735 68 1710 53 1694 53C1679 53 1666 63 1656 83C1647 102 1636 139 1631 168L1613 269L1648 318C1695 383 1722 406 1753 406C1769 406 1781 398 1786 383L1800 387L1815 472C1803 479 1794 482 1785 482C1745 482 1705 446 1643 354L1606 299L1600 347C1588 446 1561 482 1502 482C1476 482 1454 474 1445 461L1387 378L1404 368C1434 402 1454 416 1473 416C1506 416 1528 375 1545 277L1556 215L1516 153C1473 86 1439 54 1411 54C1396 54 1385 58 1383 63L1372 91L1352 88C1352 53 1344 27 1340 1Z" stroke="rgb(0,0,0)" stroke-opacity="1" stroke-width="8" fill="rgb(0,0,0)" fill-opacity="1"></path></g></g><g><g transform="matrix(1,0,0,1,36.515625,19)"><path transform="matrix(0.017,0,0,-0.017,0,0)" d="M555 243L555 299L51 299L51 243Z" stroke="rgb(0,0,0)" stroke-opacity="1" stroke-width="8" fill="rgb(0,0,0)" fill-opacity="1"></path></g></g><g><g transform="matrix(1,0,0,1,50.203125,19)"><path transform="matrix(0.017,0,0,-0.017,0,0)" d="M168 345C127 326 110 315 88 294C50 256 30 211 30 159C30 56 113 -20 226 -20C356 -20 464 82 464 206C464 286 427 329 313 381C404 443 436 485 436 545C436 631 365 689 259 689C140 689 53 613 53 508C53 440 80 402 168 345ZM284 295C347 267 385 218 385 164C385 80 322 14 241 14C156 14 101 74 101 167C101 240 130 286 204 331ZM223 423C160 454 128 494 128 544C128 610 176 655 247 655C320 655 368 607 368 534C368 477 343 438 278 396Z" stroke="rgb(0,0,0)" stroke-opacity="1" stroke-width="8" fill="rgb(0,0,0)" fill-opacity="1"></path></g></g></g></g></svg>