<svg xmlns="http://www.w3.org/2000/svg" xmlns:xlink="http://www.w3.org/1999/xlink" width="40.5625" height="24" style="width:40.5625px;height:24px;font-family:Asana-Math, Asana;background:transparent;"><g><g><g><g transform="matrix(1,0,0,1,2,19)"><path transform="matrix(0.017,0,0,-0.017,0,0)" d="M131 331C152 512 241 611 421 665L379 689C283 657 242 637 191 593C88 506 32 384 32 247C32 82 112 -20 241 -20C371 -20 468 83 468 219C468 334 399 409 293 409C216 409 184 370 131 331ZM255 349C331 349 382 283 382 184C382 80 331 13 254 13C169 13 123 86 123 220C123 255 127 274 138 291C160 325 207 349 255 349ZM515 23L515 -3C702 -3 702 0 738 0C774 0 774 -3 967 -3L967 82C852 77 806 81 621 77L803 270C900 373 930 428 930 503C930 618 852 689 725 689C653 689 604 669 555 619L538 483L567 483L580 529C596 587 632 612 699 612C785 612 840 558 840 473C840 398 798 324 685 204ZM1278 181L1278 106C1278 46 1267 32 1218 30L1156 27L1156 -3C1289 0 1289 0 1313 0C1337 0 1337 0 1470 -3L1470 27L1422 30C1373 33 1362 46 1362 106L1362 181C1421 181 1442 180 1470 177L1470 248L1362 245L1363 697L1283 667L1000 204L1000 181ZM1278 245L1063 245L1278 597ZM2022 42C1966 42 1961 125 1962 166C1963 251 1991 333 2034 405L2096 418C2099 435 2105 452 2110 467C1956 461 1797 463 1642 466C1577 467 1563 389 1544 340C1543 332 1556 331 1560 328L1560 332C1603 395 1627 405 1702 405L1725 405C1685 266 1658 129 1595 -2L1595 -12C1615 -6 1650 1 1667 13C1708 141 1737 274 1765 405L1992 405C1935 318 1894 213 1892 108C1892 59 1907 -15 1968 -15C2009 -15 2065 25 2095 51L2095 66L2083 66L2083 67C2065 56 2045 42 2022 42Z" stroke="rgb(0,0,0)" stroke-opacity="1" stroke-width="8" fill="rgb(0,0,0)" fill-opacity="1"></path></g></g></g></g></svg>