<svg xmlns="http://www.w3.org/2000/svg" xmlns:xlink="http://www.w3.org/1999/xlink" width="518.203125" height="131.328125" style="width:518.203125px;height:131.328125px;font-family:Asana-Math, Asana;background:transparent;"><g><g><g><g><g><g><text x="15.9375" y="6.328125" style="white-space:pre;stroke:none;fill:rgb(0,0,0);fill-opacity:1;font-size:15px;font-family:Arial, Helvetica, sans-serif;font-weight:400;font-style:normal;dominant-baseline:text-before-edge;text-decoration:none solid rgb(0, 0, 0);">The area bounded by the functions </text></g></g></g></g><g><g transform="matrix(1,0,0,1,251.953125,20.328125)"><path transform="matrix(0.017,0,0,-0.017,0,0)" d="M345 437L329 437L350 549C366 635 394 673 440 673C470 673 497 658 512 634L522 638C527 654 537 685 545 705L550 720C534 727 503 733 480 733C469 733 453 730 445 726C421 715 339 654 316 630C294 608 282 578 271 521L256 442C215 422 195 414 170 405L165 383L246 383L237 327C207 132 170 -54 148 -123C130 -182 100 -213 64 -213C41 -213 30 -206 12 -184L-2 -188C-6 -211 -20 -259 -25 -268C-16 -273 -1 -276 10 -276C51 -276 105 -245 144 -198C215 -114 235 -18 319 383L423 383C427 402 434 425 440 439L436 446C407 439 408 437 345 437Z" stroke="rgb(0,0,0)" stroke-opacity="1" stroke-width="0" fill="rgb(0,0,0)" fill-opacity="1"></path></g></g><g><g transform="matrix(1,0,0,1,261.3125,20.328125)"><path transform="matrix(0.017,0,0,-0.017,0,0)" d="M146 266C146 526 243 632 301 700L282 726C225 675 60 542 60 266C60 159 85 58 133 -32C168 -99 200 -138 282 -215L301 -194C255 -137 146 -15 146 266Z" stroke="rgb(0,0,0)" stroke-opacity="1" stroke-width="0" fill="rgb(0,0,0)" fill-opacity="1"></path></g></g><g><g transform="matrix(1,0,0,1,266.96875,20.328125)"><path transform="matrix(0.017,0,0,-0.017,0,0)" d="M9 1C24 -7 40 -11 52 -11C85 -11 124 18 155 65L231 182L242 113C255 28 278 -11 314 -11C336 -11 368 6 400 35L449 79L440 98C404 68 379 53 363 53C348 53 335 63 325 83C316 102 305 139 300 168L282 269L317 318C364 383 391 406 422 406C438 406 450 398 455 383L469 387L484 472C472 479 463 482 454 482C414 482 374 446 312 354L275 299L269 347C257 446 230 482 171 482C145 482 123 474 114 461L56 378L73 368C103 402 123 416 142 416C175 416 197 375 214 277L225 215L185 153C142 86 108 54 80 54C65 54 54 58 52 63L41 91L21 88C21 53 13 27 9 1Z" stroke="rgb(0,0,0)" stroke-opacity="1" stroke-width="0" fill="rgb(0,0,0)" fill-opacity="1"></path></g></g><g><g transform="matrix(1,0,0,1,275.453125,20.328125)"><path transform="matrix(0.017,0,0,-0.017,0,0)" d="M51 726L32 700C87 636 187 526 187 266C187 -10 83 -131 32 -194L51 -215C104 -165 273 -23 273 265C273 542 108 675 51 726Z" stroke="rgb(0,0,0)" stroke-opacity="1" stroke-width="0" fill="rgb(0,0,0)" fill-opacity="1"></path></g></g><g><g transform="matrix(1,0,0,1,286.203125,20.328125)"><path transform="matrix(0.017,0,0,-0.017,0,0)" d="M604 347L604 406L65 406L65 347ZM604 134L604 193L65 193L65 134Z" stroke="rgb(0,0,0)" stroke-opacity="1" stroke-width="0" fill="rgb(0,0,0)" fill-opacity="1"></path></g></g><g><g><g transform="matrix(1,0,0,1,302.65625,20.328125)"><path transform="matrix(0.017,0,0,-0.017,0,0)" d="M23 661L79 661C97 661 104 650 104 620L104 102C104 39 101 32 67 30L21 27L21 -3C121 0 121 0 146 0C171 0 171 0 271 -3L271 27L225 30C191 32 188 39 188 102L188 718L179 726C135 709 102 701 23 689ZM569 469C423 469 322 366 322 217C322 76 411 -20 540 -20C694 -20 804 87 804 237C804 372 706 469 569 469ZM551 436C643 436 711 336 711 200C711 85 660 13 579 13C481 13 415 109 415 251C415 371 463 436 551 436ZM890 289C890 215 936 164 1010 156L931 95C921 80 916 67 916 52C916 24 934 8 982 -6L895 -53C881 -61 867 -98 867 -129C867 -220 956 -283 1083 -283C1234 -283 1353 -188 1353 -66C1353 6 1305 56 1235 56L1075 56C1023 56 999 68 999 95C999 118 1028 135 1045 152C1055 151 1061 150 1069 150C1130 150 1273 197 1273 324C1273 344 1270 357 1262 378L1354 378L1379 419L1375 431L1233 427C1196 457 1160 469 1111 469C1036 469 890 424 890 289ZM1075 435C1143 435 1189 379 1189 294C1189 229 1147 184 1086 184C1019 184 974 236 974 313C974 390 1011 435 1075 435ZM1122 -14C1235 -14 1274 -37 1274 -102C1274 -188 1195 -252 1090 -252C1003 -252 943 -201 943 -127C943 -82 969 -41 1009 -24C1025 -16 1053 -14 1122 -14Z" stroke="rgb(0,0,0)" stroke-opacity="1" stroke-width="0" fill="rgb(0,0,0)" fill-opacity="1"></path></g></g></g><g><g transform="matrix(1,0,0,1,326.296875,20.328125)"><path transform="matrix(0.017,0,0,-0.017,0,0)" d="M146 266C146 526 243 632 301 700L282 726C225 675 60 542 60 266C60 159 85 58 133 -32C168 -99 200 -138 282 -215L301 -194C255 -137 146 -15 146 266Z" stroke="rgb(0,0,0)" stroke-opacity="1" stroke-width="0" fill="rgb(0,0,0)" fill-opacity="1"></path></g></g><g><g transform="matrix(1,0,0,1,331.953125,20.328125)"><path transform="matrix(0.017,0,0,-0.017,0,0)" d="M9 1C24 -7 40 -11 52 -11C85 -11 124 18 155 65L231 182L242 113C255 28 278 -11 314 -11C336 -11 368 6 400 35L449 79L440 98C404 68 379 53 363 53C348 53 335 63 325 83C316 102 305 139 300 168L282 269L317 318C364 383 391 406 422 406C438 406 450 398 455 383L469 387L484 472C472 479 463 482 454 482C414 482 374 446 312 354L275 299L269 347C257 446 230 482 171 482C145 482 123 474 114 461L56 378L73 368C103 402 123 416 142 416C175 416 197 375 214 277L225 215L185 153C142 86 108 54 80 54C65 54 54 58 52 63L41 91L21 88C21 53 13 27 9 1Z" stroke="rgb(0,0,0)" stroke-opacity="1" stroke-width="0" fill="rgb(0,0,0)" fill-opacity="1"></path></g></g><g><g transform="matrix(1,0,0,1,340.4375,20.328125)"><path transform="matrix(0.017,0,0,-0.017,0,0)" d="M51 726L32 700C87 636 187 526 187 266C187 -10 83 -131 32 -194L51 -215C104 -165 273 -23 273 265C273 542 108 675 51 726Z" stroke="rgb(0,0,0)" stroke-opacity="1" stroke-width="0" fill="rgb(0,0,0)" fill-opacity="1"></path></g></g><g><g transform="matrix(1,0,0,1,349.484375,20.328125)"><path transform="matrix(0.017,0,0,-0.017,0,0)" d="M604 241L604 300L364 300L364 538L305 538L305 300L65 300L65 241L305 241L305 0L364 0L364 241Z" stroke="rgb(0,0,0)" stroke-opacity="1" stroke-width="0" fill="rgb(0,0,0)" fill-opacity="1"></path></g></g><g><g transform="matrix(1,0,0,1,364.234375,20.328125)"><path transform="matrix(0.017,0,0,-0.017,0,0)" d="M462 224C462 345 355 366 308 374C388 436 418 482 418 541C418 630 344 689 233 689C165 689 120 670 72 622L43 498L74 498L92 554C103 588 166 622 218 622C283 622 336 569 336 506C336 431 277 368 206 368C198 368 187 369 174 370L159 371L147 318L154 312C192 329 211 334 238 334C321 334 369 281 369 190C369 88 308 21 215 21C169 21 128 36 98 64C74 86 61 109 42 163L15 153C36 92 44 56 50 6C103 -12 147 -20 184 -20C307 -20 462 87 462 224Z" stroke="rgb(0,0,0)" stroke-opacity="1" stroke-width="0" fill="rgb(0,0,0)" fill-opacity="1"></path></g></g><g><g><g><g><text x="376.953125" y="6.328125" style="white-space:pre;stroke:none;fill:rgb(0,0,0);fill-opacity:1;font-size:15px;font-family:Arial, Helvetica, sans-serif;font-weight:400;font-style:normal;dominant-baseline:text-before-edge;text-decoration:none solid rgb(0, 0, 0);">and</text></g></g></g></g><g><g transform="matrix(1,0,0,1,401.984375,20.328125)"><path transform="matrix(0.017,0,0,-0.017,0,0)" d="M524 482C457 482 304 419 304 259C304 182 349 136 426 136C434 136 445 136 456 137L415 99C399 84 388 66 388 52C388 42 395 31 409 19C340 -4 212 -48 212 -159C212 -230 282 -276 391 -276C520 -276 633 -204 633 -121C633 -85 612 -49 569 -14L509 35C475 62 462 81 462 100C462 114 477 128 489 146C587 170 658 253 658 342C658 357 655 376 654 380C671 378 679 378 688 378C705 378 715 379 738 382L747 427L744 433C716 426 696 424 642 424C642 425 618 482 524 482ZM425 1L502 -58C548 -94 567 -121 567 -154C567 -206 498 -248 415 -248C333 -248 276 -206 276 -145C276 -43 386 -11 425 1ZM499 448C557 448 586 412 586 341C586 238 538 168 468 168C407 168 375 209 375 288C375 383 426 448 499 448Z" stroke="rgb(0,0,0)" stroke-opacity="1" stroke-width="0" fill="rgb(0,0,0)" fill-opacity="1"></path></g></g><g><g transform="matrix(1,0,0,1,414.703125,20.328125)"><path transform="matrix(0.017,0,0,-0.017,0,0)" d="M146 266C146 526 243 632 301 700L282 726C225 675 60 542 60 266C60 159 85 58 133 -32C168 -99 200 -138 282 -215L301 -194C255 -137 146 -15 146 266Z" stroke="rgb(0,0,0)" stroke-opacity="1" stroke-width="0" fill="rgb(0,0,0)" fill-opacity="1"></path></g></g><g><g transform="matrix(1,0,0,1,420.359375,20.328125)"><path transform="matrix(0.017,0,0,-0.017,0,0)" d="M9 1C24 -7 40 -11 52 -11C85 -11 124 18 155 65L231 182L242 113C255 28 278 -11 314 -11C336 -11 368 6 400 35L449 79L440 98C404 68 379 53 363 53C348 53 335 63 325 83C316 102 305 139 300 168L282 269L317 318C364 383 391 406 422 406C438 406 450 398 455 383L469 387L484 472C472 479 463 482 454 482C414 482 374 446 312 354L275 299L269 347C257 446 230 482 171 482C145 482 123 474 114 461L56 378L73 368C103 402 123 416 142 416C175 416 197 375 214 277L225 215L185 153C142 86 108 54 80 54C65 54 54 58 52 63L41 91L21 88C21 53 13 27 9 1Z" stroke="rgb(0,0,0)" stroke-opacity="1" stroke-width="0" fill="rgb(0,0,0)" fill-opacity="1"></path></g></g><g><g transform="matrix(1,0,0,1,428.84375,20.328125)"><path transform="matrix(0.017,0,0,-0.017,0,0)" d="M51 726L32 700C87 636 187 526 187 266C187 -10 83 -131 32 -194L51 -215C104 -165 273 -23 273 265C273 542 108 675 51 726Z" stroke="rgb(0,0,0)" stroke-opacity="1" stroke-width="0" fill="rgb(0,0,0)" fill-opacity="1"></path></g></g><g><g transform="matrix(1,0,0,1,439.59375,20.328125)"><path transform="matrix(0.017,0,0,-0.017,0,0)" d="M604 347L604 406L65 406L65 347ZM604 134L604 193L65 193L65 134Z" stroke="rgb(0,0,0)" stroke-opacity="1" stroke-width="0" fill="rgb(0,0,0)" fill-opacity="1"></path></g></g><g><g transform="matrix(1,0,0,1,456.046875,20.328125)"><path transform="matrix(0.017,0,0,-0.017,0,0)" d="M9 1C24 -7 40 -11 52 -11C85 -11 124 18 155 65L231 182L242 113C255 28 278 -11 314 -11C336 -11 368 6 400 35L449 79L440 98C404 68 379 53 363 53C348 53 335 63 325 83C316 102 305 139 300 168L282 269L317 318C364 383 391 406 422 406C438 406 450 398 455 383L469 387L484 472C472 479 463 482 454 482C414 482 374 446 312 354L275 299L269 347C257 446 230 482 171 482C145 482 123 474 114 461L56 378L73 368C103 402 123 416 142 416C175 416 197 375 214 277L225 215L185 153C142 86 108 54 80 54C65 54 54 58 52 63L41 91L21 88C21 53 13 27 9 1Z" stroke="rgb(0,0,0)" stroke-opacity="1" stroke-width="0" fill="rgb(0,0,0)" fill-opacity="1"></path></g></g><g><g><g><g><g transform="matrix(1,0,0,1,465.5,13.9)"><path transform="matrix(0.0119,0,0,-0.0119,0,0)" d="M16 23L16 -3C203 -3 203 0 239 0C275 0 275 -3 468 -3L468 82C353 77 307 81 122 77L304 270C401 373 431 428 431 503C431 618 353 689 226 689C154 689 105 669 56 619L39 483L68 483L81 529C97 587 133 612 200 612C286 612 341 558 341 473C341 398 299 324 186 204Z" stroke="rgb(0,0,0)" stroke-opacity="1" stroke-width="0" fill="rgb(0,0,0)" fill-opacity="1"></path></g></g></g></g></g><g><g transform="matrix(1,0,0,1,475.859375,20.328125)"><path transform="matrix(0.017,0,0,-0.017,0,0)" d="M555 243L555 299L51 299L51 243Z" stroke="rgb(0,0,0)" stroke-opacity="1" stroke-width="0" fill="rgb(0,0,0)" fill-opacity="1"></path></g></g><g><g transform="matrix(1,0,0,1,489.546875,20.328125)"><path transform="matrix(0.017,0,0,-0.017,0,0)" d="M462 224C462 345 355 366 308 374C388 436 418 482 418 541C418 630 344 689 233 689C165 689 120 670 72 622L43 498L74 498L92 554C103 588 166 622 218 622C283 622 336 569 336 506C336 431 277 368 206 368C198 368 187 369 174 370L159 371L147 318L154 312C192 329 211 334 238 334C321 334 369 281 369 190C369 88 308 21 215 21C169 21 128 36 98 64C74 86 61 109 42 163L15 153C36 92 44 56 50 6C103 -12 147 -20 184 -20C307 -20 462 87 462 224Z" stroke="rgb(0,0,0)" stroke-opacity="1" stroke-width="0" fill="rgb(0,0,0)" fill-opacity="1"></path></g></g></g><g><g><g><g><g><text x="57.828125" y="28.328125" style="white-space:pre;stroke:none;fill:rgb(0,0,0);fill-opacity:1;font-size:15px;font-family:Arial, Helvetica, sans-serif;font-weight:400;font-style:normal;dominant-baseline:text-before-edge;text-decoration:none solid rgb(0, 0, 0);">and the lines</text></g></g></g></g><g><g transform="matrix(1,0,0,1,142.90625,42.328125)"><path transform="matrix(0.017,0,0,-0.017,0,0)" d="M258 1C273 -7 289 -11 301 -11C334 -11 373 18 404 65L480 182L491 113C504 28 527 -11 563 -11C585 -11 617 6 649 35L698 79L689 98C653 68 628 53 612 53C597 53 584 63 574 83C565 102 554 139 549 168L531 269L566 318C613 383 640 406 671 406C687 406 699 398 704 383L718 387L733 472C721 479 712 482 703 482C663 482 623 446 561 354L524 299L518 347C506 446 479 482 420 482C394 482 372 474 363 461L305 378L322 368C352 402 372 416 391 416C424 416 446 375 463 277L474 215L434 153C391 86 357 54 329 54C314 54 303 58 301 63L290 91L270 88C270 53 262 27 258 1Z" stroke="rgb(0,0,0)" stroke-opacity="1" stroke-width="0" fill="rgb(0,0,0)" fill-opacity="1"></path></g></g><g><g transform="matrix(1,0,0,1,160.71875,42.328125)"><path transform="matrix(0.017,0,0,-0.017,0,0)" d="M604 347L604 406L65 406L65 347ZM604 134L604 193L65 193L65 134Z" stroke="rgb(0,0,0)" stroke-opacity="1" stroke-width="0" fill="rgb(0,0,0)" fill-opacity="1"></path></g></g><g><g transform="matrix(1,0,0,1,177.171875,42.328125)"><path transform="matrix(0.017,0,0,-0.017,0,0)" d="M418 -3L418 27L366 30C311 33 301 44 301 96L301 700L60 598L67 548L217 614L217 96C217 44 206 33 152 30L96 27L96 -3C250 0 250 0 261 0C292 0 402 -3 418 -3Z" stroke="rgb(0,0,0)" stroke-opacity="1" stroke-width="0" fill="rgb(0,0,0)" fill-opacity="1"></path></g></g><g><g><g><g><text x="189.890625" y="28.328125" style="white-space:pre;stroke:none;fill:rgb(0,0,0);fill-opacity:1;font-size:15px;font-family:Arial, Helvetica, sans-serif;font-weight:400;font-style:normal;dominant-baseline:text-before-edge;text-decoration:none solid rgb(0, 0, 0);">and</text></g></g></g></g><g><g transform="matrix(1,0,0,1,214.921875,42.328125)"><path transform="matrix(0.017,0,0,-0.017,0,0)" d="M258 1C273 -7 289 -11 301 -11C334 -11 373 18 404 65L480 182L491 113C504 28 527 -11 563 -11C585 -11 617 6 649 35L698 79L689 98C653 68 628 53 612 53C597 53 584 63 574 83C565 102 554 139 549 168L531 269L566 318C613 383 640 406 671 406C687 406 699 398 704 383L718 387L733 472C721 479 712 482 703 482C663 482 623 446 561 354L524 299L518 347C506 446 479 482 420 482C394 482 372 474 363 461L305 378L322 368C352 402 372 416 391 416C424 416 446 375 463 277L474 215L434 153C391 86 357 54 329 54C314 54 303 58 301 63L290 91L270 88C270 53 262 27 258 1Z" stroke="rgb(0,0,0)" stroke-opacity="1" stroke-width="0" fill="rgb(0,0,0)" fill-opacity="1"></path></g></g><g><g transform="matrix(1,0,0,1,232.734375,42.328125)"><path transform="matrix(0.017,0,0,-0.017,0,0)" d="M604 347L604 406L65 406L65 347ZM604 134L604 193L65 193L65 134Z" stroke="rgb(0,0,0)" stroke-opacity="1" stroke-width="0" fill="rgb(0,0,0)" fill-opacity="1"></path></g></g><g><g transform="matrix(1,0,0,1,249.1875,42.328125)"><path transform="matrix(0.017,0,0,-0.017,0,0)" d="M462 224C462 345 355 366 308 374C388 436 418 482 418 541C418 630 344 689 233 689C165 689 120 670 72 622L43 498L74 498L92 554C103 588 166 622 218 622C283 622 336 569 336 506C336 431 277 368 206 368C198 368 187 369 174 370L159 371L147 318L154 312C192 329 211 334 238 334C321 334 369 281 369 190C369 88 308 21 215 21C169 21 128 36 98 64C74 86 61 109 42 163L15 153C36 92 44 56 50 6C103 -12 147 -20 184 -20C307 -20 462 87 462 224Z" stroke="rgb(0,0,0)" stroke-opacity="1" stroke-width="0" fill="rgb(0,0,0)" fill-opacity="1"></path></g></g><g><g><g><g><text x="261.90625" y="28.328125" style="white-space:pre;stroke:none;fill:rgb(0,0,0);fill-opacity:1;font-size:15px;font-family:Arial, Helvetica, sans-serif;font-weight:400;font-style:normal;dominant-baseline:text-before-edge;text-decoration:none solid rgb(0, 0, 0);">is a base of solid defined as A</text></g></g></g></g></g><g><g><g><g><g><text x="2" y="50.328125" style="white-space:pre;stroke:none;fill:rgb(0,0,0);fill-opacity:1;font-size:15px;font-family:Arial, Helvetica, sans-serif;font-weight:400;font-style:normal;dominant-baseline:text-before-edge;text-decoration:none solid rgb(0, 0, 0);">for each value of</text></g></g></g></g><g><g transform="matrix(1,0,0,1,112.90625,64.328125)"><path transform="matrix(0.017,0,0,-0.017,0,0)" d="M258 1C273 -7 289 -11 301 -11C334 -11 373 18 404 65L480 182L491 113C504 28 527 -11 563 -11C585 -11 617 6 649 35L698 79L689 98C653 68 628 53 612 53C597 53 584 63 574 83C565 102 554 139 549 168L531 269L566 318C613 383 640 406 671 406C687 406 699 398 704 383L718 387L733 472C721 479 712 482 703 482C663 482 623 446 561 354L524 299L518 347C506 446 479 482 420 482C394 482 372 474 363 461L305 378L322 368C352 402 372 416 391 416C424 416 446 375 463 277L474 215L434 153C391 86 357 54 329 54C314 54 303 58 301 63L290 91L270 88C270 53 262 27 258 1Z" stroke="rgb(0,0,0)" stroke-opacity="1" stroke-width="0" fill="rgb(0,0,0)" fill-opacity="1"></path></g></g><g><g><g><g><text x="129.859375" y="50.328125" style="white-space:pre;stroke:none;fill:rgb(0,0,0);fill-opacity:1;font-size:15px;font-family:Arial, Helvetica, sans-serif;font-weight:400;font-style:normal;dominant-baseline:text-before-edge;text-decoration:none solid rgb(0, 0, 0);">the cross section of the solid perpendicular to to the</text></g></g></g></g><g><g transform="matrix(1,0,0,1,472.5625,64.328125)"><path transform="matrix(0.017,0,0,-0.017,0,0)" d="M258 1C273 -7 289 -11 301 -11C334 -11 373 18 404 65L480 182L491 113C504 28 527 -11 563 -11C585 -11 617 6 649 35L698 79L689 98C653 68 628 53 612 53C597 53 584 63 574 83C565 102 554 139 549 168L531 269L566 318C613 383 640 406 671 406C687 406 699 398 704 383L718 387L733 472C721 479 712 482 703 482C663 482 623 446 561 354L524 299L518 347C506 446 479 482 420 482C394 482 372 474 363 461L305 378L322 368C352 402 372 416 391 416C424 416 446 375 463 277L474 215L434 153C391 86 357 54 329 54C314 54 303 58 301 63L290 91L270 88C270 53 262 27 258 1Z" stroke="rgb(0,0,0)" stroke-opacity="1" stroke-width="0" fill="rgb(0,0,0)" fill-opacity="1"></path></g></g><g><g><g><g><text x="489.515625" y="50.328125" style="white-space:pre;stroke:none;fill:rgb(0,0,0);fill-opacity:1;font-size:15px;font-family:Arial, Helvetica, sans-serif;font-weight:400;font-style:normal;dominant-baseline:text-before-edge;text-decoration:none solid rgb(0, 0, 0);">axis</text></g></g></g></g></g><g><g><g><g><g><text x="74.71875" y="80.328125" style="white-space:pre;stroke:none;fill:rgb(0,0,0);fill-opacity:1;font-size:15px;font-family:Arial, Helvetica, sans-serif;font-weight:400;font-style:normal;dominant-baseline:text-before-edge;text-decoration:none solid rgb(0, 0, 0);">is a rectangle with a base that lies in A anda height of </text></g></g></g></g><g><g><g><g><g transform="matrix(1,0,0,1,433.3125,82.328125)"><path transform="matrix(0.017,0,0,-0.017,0,0)" d="M9 1C24 -7 40 -11 52 -11C85 -11 124 18 155 65L231 182L242 113C255 28 278 -11 314 -11C336 -11 368 6 400 35L449 79L440 98C404 68 379 53 363 53C348 53 335 63 325 83C316 102 305 139 300 168L282 269L317 318C364 383 391 406 422 406C438 406 450 398 455 383L469 387L484 472C472 479 463 482 454 482C414 482 374 446 312 354L275 299L269 347C257 446 230 482 171 482C145 482 123 474 114 461L56 378L73 368C103 402 123 416 142 416C175 416 197 375 214 277L225 215L185 153C142 86 108 54 80 54C65 54 54 58 52 63L41 91L21 88C21 53 13 27 9 1Z" stroke="rgb(0,0,0)" stroke-opacity="1" stroke-width="0" fill="rgb(0,0,0)" fill-opacity="1"></path></g></g></g></g><g><g><g><g transform="matrix(1,0,0,1,433.3125,107.328125)"><path transform="matrix(0.017,0,0,-0.017,0,0)" d="M462 224C462 345 355 366 308 374C388 436 418 482 418 541C418 630 344 689 233 689C165 689 120 670 72 622L43 498L74 498L92 554C103 588 166 622 218 622C283 622 336 569 336 506C336 431 277 368 206 368C198 368 187 369 174 370L159 371L147 318L154 312C192 329 211 334 238 334C321 334 369 281 369 190C369 88 308 21 215 21C169 21 128 36 98 64C74 86 61 109 42 163L15 153C36 92 44 56 50 6C103 -12 147 -20 184 -20C307 -20 462 87 462 224Z" stroke="rgb(0,0,0)" stroke-opacity="1" stroke-width="0" fill="rgb(0,0,0)" fill-opacity="1"></path></g></g></g></g><line style="fill:none;stroke-width:1px;stroke:rgb(0, 0, 0);" x1="433.3125" y1="90.078125" x2="441.796875" y2="90.078125"></line></g></g><g><g><g><g><g><text x="95.671875" y="110.328125" style="white-space:pre;stroke:none;fill:rgb(0,0,0);fill-opacity:1;font-size:15px;font-family:Arial, Helvetica, sans-serif;font-weight:400;font-style:normal;dominant-baseline:text-before-edge;text-decoration:none solid rgb(0, 0, 0);">which integral is equal to the volume of the solid?</text></g></g></g></g></g></g></svg>