<svg xmlns="http://www.w3.org/2000/svg" xmlns:xlink="http://www.w3.org/1999/xlink" width="344.96875" height="93.328125" style="width:344.96875px;height:93.328125px;font-family:Asana-Math, Asana;background:transparent;"><g><g><g><g><g><g><text x="49.90625" y="5" style="white-space:pre;stroke:none;fill:rgb(0,0,0);fill-opacity:1;font-size:15px;font-family:Arial, Helvetica, sans-serif;font-weight:400;font-style:normal;dominant-baseline:text-before-edge;text-decoration:none solid rgb(0, 0, 0);">A glass aquarium with a square base</text></g></g></g></g></g><g><g><g><g><g><text x="48.265625" y="28.328125" style="white-space:pre;stroke:none;fill:rgb(0,0,0);fill-opacity:1;font-size:15px;font-family:Arial, Helvetica, sans-serif;font-weight:400;font-style:normal;dominant-baseline:text-before-edge;text-decoration:none solid rgb(0, 0, 0);">and open top can hold</text></g></g></g></g><g><g transform="matrix(1,0,0,1,196.734375,42.328125)"><path transform="matrix(0.017,0,0,-0.017,0,0)" d="M417 345C376 326 359 315 337 294C299 256 279 211 279 159C279 56 362 -20 475 -20C605 -20 713 82 713 206C713 286 676 329 562 381C653 443 685 485 685 545C685 631 614 689 508 689C389 689 302 613 302 508C302 440 329 402 417 345ZM533 295C596 267 634 218 634 164C634 80 571 14 490 14C405 14 350 74 350 167C350 240 379 286 453 331ZM472 423C409 454 377 494 377 544C377 610 425 655 496 655C569 655 617 607 617 534C617 477 592 438 527 396ZM916 345C875 326 858 315 836 294C798 256 778 211 778 159C778 56 861 -20 974 -20C1104 -20 1212 82 1212 206C1212 286 1175 329 1061 381C1152 443 1184 485 1184 545C1184 631 1113 689 1007 689C888 689 801 613 801 508C801 440 828 402 916 345ZM1032 295C1095 267 1133 218 1133 164C1133 80 1070 14 989 14C904 14 849 74 849 167C849 240 878 286 952 331ZM971 423C908 454 876 494 876 544C876 610 924 655 995 655C1068 655 1116 607 1116 534C1116 477 1091 438 1026 396ZM1977 103L1951 86C1922 67 1900 56 1890 56C1883 56 1877 65 1877 76C1877 86 1879 95 1884 116L1959 413C1963 430 1966 446 1966 454C1966 471 1956 482 1940 482C1911 482 1873 464 1812 421C1749 376 1714 341 1665 272L1695 409C1699 429 1702 444 1702 451C1702 470 1692 482 1676 482C1646 482 1600 460 1545 418C1501 384 1481 363 1416 275L1449 408C1453 424 1455 439 1455 451C1455 470 1446 482 1432 482C1411 482 1373 461 1299 408L1271 388L1278 368C1315 391 1350 414 1357 414C1368 414 1375 404 1375 389C1375 338 1334 145 1293 2L1296 -9L1364 6L1386 108C1410 219 1437 278 1492 338C1534 384 1579 414 1607 414C1614 414 1618 406 1618 393C1618 358 1596 244 1555 69L1539 2L1544 -9L1613 6L1634 113C1650 194 1684 269 1728 318C1783 379 1833 414 1865 414C1873 414 1878 405 1878 389C1878 365 1875 351 1853 264C1813 105 1797 84 1797 31C1797 6 1808 -9 1827 -9C1853 -9 1889 12 1987 85Z" stroke="rgb(0,0,0)" stroke-opacity="1" stroke-width="8" fill="rgb(0,0,0)" fill-opacity="1"></path></g></g><g><g><g><g><g transform="matrix(1,0,0,1,232.125,35.9)"><path transform="matrix(0.0119,0,0,-0.0119,0,0)" d="M16 23L16 -3C203 -3 203 0 239 0C275 0 275 -3 468 -3L468 82C353 77 307 81 122 77L304 270C401 373 431 428 431 503C431 618 353 689 226 689C154 689 105 669 56 619L39 483L68 483L81 529C97 587 133 612 200 612C286 612 341 558 341 473C341 398 299 324 186 204Z" stroke="rgb(0,0,0)" stroke-opacity="1" stroke-width="8" fill="rgb(0,0,0)" fill-opacity="1"></path></g></g></g></g></g><g><g transform="matrix(1,0,0,1,239.09375,42.328125)"><path transform="matrix(0.017,0,0,-0.017,0,0)" d="" stroke="rgb(0,0,0)" stroke-opacity="1" stroke-width="8" fill="rgb(0,0,0)" fill-opacity="1"></path></g></g><g><g><g><g><text x="243.328125" y="28.328125" style="white-space:pre;stroke:none;fill:rgb(0,0,0);fill-opacity:1;font-size:15px;font-family:Arial, Helvetica, sans-serif;font-weight:400;font-style:normal;dominant-baseline:text-before-edge;text-decoration:none solid rgb(0, 0, 0);">of water</text></g></g></g></g></g><g><g><g><g><g><text x="2" y="50.328125" style="white-space:pre;stroke:none;fill:rgb(0,0,0);fill-opacity:1;font-size:15px;font-family:Arial, Helvetica, sans-serif;font-weight:400;font-style:normal;dominant-baseline:text-before-edge;text-decoration:none solid rgb(0, 0, 0);">What is the minimum possible exterior surface area</text></g></g></g></g></g><g><g><g><g><g><text x="114.078125" y="72.328125" style="white-space:pre;stroke:none;fill:rgb(0,0,0);fill-opacity:1;font-size:15px;font-family:Arial, Helvetica, sans-serif;font-weight:400;font-style:normal;dominant-baseline:text-before-edge;text-decoration:none solid rgb(0, 0, 0);">of the aquarium?</text></g></g></g></g><g><g transform="matrix(1,0,0,1,226.65625,86.328125)"><path transform="matrix(0.017,0,0,-0.017,0,0)" d="" stroke="rgb(0,0,0)" stroke-opacity="1" stroke-width="8" fill="rgb(0,0,0)" fill-opacity="1"></path></g></g></g></g></svg>