<svg xmlns="http://www.w3.org/2000/svg" xmlns:xlink="http://www.w3.org/1999/xlink" width="62.390625" height="39" style="width:62.390625px;height:39px;font-family:Asana-Math, Asana;background:transparent;"><g><g><g><g><g transform="matrix(1,0,0,1,2,29.900000000000002)"><path transform="matrix(0.0255,0,0,-0.0255,0,0)" d="M694 802C694 860 621 885 573 885C368 885 344 579 334 430C323 251 309 72 304 -108C301 -191 312 -410 184 -410C173 -410 159 -407 151 -397C153 -392 155 -384 155 -378C155 -347 114 -315 83 -315C59 -315 54 -340 54 -359C54 -418 125 -442 173 -442C348 -442 380 -190 395 -59C413 104 421 269 433 433C439 521 422 853 562 853C574 853 587 850 596 841C593 834 592 828 592 821C592 789 633 759 663 759C687 759 694 782 694 802Z" stroke="rgb(0,0,0)" stroke-opacity="1" stroke-width="8" fill="rgb(0,0,0)" fill-opacity="1"></path></g></g></g><g><g transform="matrix(1,0,0,1,22.125,30)"><path transform="matrix(0.017,0,0,-0.017,0,0)" d="M125 390L69 107C68 99 56 61 56 31C56 6 67 -9 86 -9C121 -9 156 11 234 74L265 99L255 117L210 86C181 66 161 56 150 56C141 56 136 64 136 76C136 102 150 183 179 328L192 390L299 390L310 440C272 436 238 434 200 434C216 528 227 577 245 631L234 646C214 634 187 622 156 610L131 440C87 419 61 408 43 403L41 390ZM660 111L636 94C583 56 535 36 499 36C452 36 423 73 423 133C423 158 426 185 431 214C448 218 557 248 582 259C667 296 706 342 706 404C706 451 672 482 622 482C554 496 444 423 407 349C377 299 347 180 347 113C347 35 391 -11 463 -11C520 -11 576 17 668 92ZM445 274C462 343 482 386 511 412C529 428 560 440 584 440C613 440 632 420 632 388C632 344 597 297 545 272C517 258 481 247 436 237Z" stroke="rgb(0,0,0)" stroke-opacity="1" stroke-width="8" fill="rgb(0,0,0)" fill-opacity="1"></path></g></g><g><g><g><g><g transform="matrix(1,0,0,1,35.34375,23.571875)"><path transform="matrix(0.0119,0,0,-0.0119,0,0)" d="M280 181L280 106C280 46 269 32 220 30L158 27L158 -3C291 0 291 0 315 0C339 0 339 0 472 -3L472 27L424 30C375 33 364 46 364 106L364 181C423 181 444 180 472 177L472 248L364 245L365 697L285 667L2 204L2 181ZM280 245L65 245L280 597ZM624 390L568 107C567 99 555 61 555 31C555 6 566 -9 585 -9C620 -9 655 11 733 74L764 99L754 117L709 86C680 66 660 56 649 56C640 56 635 64 635 76C635 102 649 183 678 328L691 390L798 390L809 440C771 436 737 434 699 434C715 528 726 577 744 631L733 646C713 634 686 622 655 610L630 440C586 419 560 408 542 403L540 390Z" stroke="rgb(0,0,0)" stroke-opacity="1" stroke-width="8" fill="rgb(0,0,0)" fill-opacity="1"></path></g></g></g></g></g><g><g transform="matrix(1,0,0,1,46.25,30)"><path transform="matrix(0.017,0,0,-0.017,0,0)" d="M483 722L471 733C419 707 383 698 311 691L307 670L355 670C379 670 389 663 389 646C389 638 388 629 387 622L359 468C329 477 302 482 277 482C208 482 114 410 68 323C37 265 17 170 17 86C17 21 32 -11 61 -11C88 -11 125 6 159 33C213 77 246 116 313 217L290 126C279 82 274 50 274 24C274 3 283 -9 300 -9C317 -9 341 3 375 28L456 88L446 107L402 76C388 66 372 59 363 59C355 59 349 68 349 82C349 90 350 99 357 128ZM114 59C98 59 89 73 89 98C89 224 135 380 184 418C197 428 216 433 243 433C287 433 316 427 349 410L337 351C300 171 159 59 114 59ZM624 390L568 107C567 99 555 61 555 31C555 6 566 -9 585 -9C620 -9 655 11 733 74L764 99L754 117L709 86C680 66 660 56 649 56C640 56 635 64 635 76C635 102 649 183 678 328L691 390L798 390L809 440C771 436 737 434 699 434C715 528 726 577 744 631L733 646C713 634 686 622 655 610L630 440C586 419 560 408 542 403L540 390Z" stroke="rgb(0,0,0)" stroke-opacity="1" stroke-width="8" fill="rgb(0,0,0)" fill-opacity="1"></path></g></g></g></g></svg>