<svg xmlns="http://www.w3.org/2000/svg" xmlns:xlink="http://www.w3.org/1999/xlink" width="70.75" height="81.890625" style="width:70.75px;height:81.890625px;font-family:Asana-Math, Asana;background:transparent;"><g><g><g><svg x="2" overflow="visible" y="12.203125" height="66" width="8.5"><path d=" M 8.35 1.70 c 0.00 -0.03 -0.05 -0.06 -0.12 -0.06 c -0.15 0.00 -0.44 0.09 -0.51 0.11 c -3.03 1.08 -3.59 3.33 -3.59 7.41 v 0.60 h 1.62 v -1.28 c 0.00 -2.20 0.12 -5.16 2.13 -6.48 c 0.15 -0.10 0.48 -0.22 0.48 -0.31 z  M 4.13 9.17 v 19.98 h 1.62 v -19.98 z  M 5.75 29.15 h -1.62 v 0.59 c 0.00 2.97 -2.74 3.66 -2.75 3.66 v 0.02 c 0.02 0.00 2.75 0.75 2.75 3.71 h 1.62 c 0.00 -1.05 -0.09 -2.87 -2.96 -3.69 c 2.87 -0.80 2.96 -2.63 2.96 -3.69 v -0.59 z  M 4.13 36.85 v 19.98 h 1.62 v -19.98 z" style="fill:rgb(0,0,0);fill-opacity:1;stroke-width:1px;stroke:none;stroke-opacity:1;"></path><path d=" M 8.35 64.30 c 0.00 0.03 -0.05 0.06 -0.12 0.06 c -0.15 0.00 -0.44 -0.09 -0.51 -0.11 c -3.03 -1.08 -3.59 -3.33 -3.59 -7.41 v -0.60 h 1.62 v 1.28 c 0.00 2.20 0.12 5.16 2.13 6.48 c 0.15 0.10 0.48 0.22 0.48 0.31 z" style="fill:rgb(0,0,0);fill-opacity:1;stroke-width:1px;stroke:none;stroke-opacity:1;"></path></svg></g><g><g><g><g><g><g><g><g transform="matrix(1,0,0,1,38.171875,38.5)"><path transform="matrix(0.017,0,0,-0.017,0,0)" d="M9 1C24 -7 40 -11 52 -11C85 -11 124 18 155 65L231 182L242 113C255 28 278 -11 314 -11C336 -11 368 6 400 35L449 79L440 98C404 68 379 53 363 53C348 53 335 63 325 83C316 102 305 139 300 168L282 269L317 318C364 383 391 406 422 406C438 406 450 398 455 383L469 387L484 472C472 479 463 482 454 482C414 482 374 446 312 354L275 299L269 347C257 446 230 482 171 482C145 482 123 474 114 461L56 378L73 368C103 402 123 416 142 416C175 416 197 375 214 277L225 215L185 153C142 86 108 54 80 54C65 54 54 58 52 63L41 91L21 88C21 53 13 27 9 1Z" stroke="rgb(0,0,0)" stroke-opacity="1" stroke-width="8" fill="rgb(0,0,0)" fill-opacity="1"></path></g></g></g></g><svg x="21.171875" overflow="visible" y="19.5" height="17" width="25.5"><polygon points="0.35142118863049093,9.889147286821704 4.7881136950904395,7.517054263565892 9.6703316016086,17.8711299203846 16.363049095607234,0 25.5,0 25.5,1.0542635658914745 17.08627450980392,1.0542635658914745 9.180878552971576,22.18888888888889 3.0968992248062013,9.44987080103359 0.6369509043927648,10.372351421188629" style="fill:rgb(0,0,0);fill-opacity:1;stroke-width:1px;stroke:none;stroke-opacity:1;"></polygon></svg></g></g></g><g><g><g><g><g transform="matrix(1,0,0,1,13.03125,63.5)"><path transform="matrix(0.017,0,0,-0.017,0,0)" d="M41 143C41 74 38 44 30 4C82 -13 121 -20 167 -20C298 -20 391 50 391 148C391 321 107 228 107 358C107 408 142 436 203 436C270 436 321 401 321 354L321 331L349 331C350 389 351 413 354 444C301 462 265 469 224 469C108 469 37 414 37 324C37 276 59 242 105 221C223 169 317 195 317 109C317 55 267 17 196 17C123 17 71 52 71 102L71 143ZM611 465L602 469C551 448 499 434 446 428L446 400L483 400C523 400 527 393 527 327L527 102C527 39 524 32 490 30L444 27L444 -3C544 0 544 0 569 0C594 0 594 0 694 -3L694 27L648 30C614 32 611 39 611 102ZM565 687C535 687 509 661 509 631C509 602 535 576 564 576C593 576 620 602 620 631C620 659 593 687 565 687ZM1123 -3C1184 0 1185 0 1202 0C1216 0 1216 0 1285 -3L1285 27L1244 30C1210 32 1207 38 1207 102L1207 295C1207 412 1152 469 1040 469C1003 469 982 462 961 444L885 378L885 465L876 469C825 448 773 434 720 428L720 400L757 400C797 400 801 393 801 327L801 102C801 39 798 32 764 30L719 27L719 -3C787 -1 814 0 843 0C872 0 899 -1 967 -3L967 27L922 30C888 32 885 39 885 102L885 314C885 359 951 408 1012 408C1079 408 1123 358 1123 281Z" stroke="rgb(0,0,0)" stroke-opacity="1" stroke-width="8" fill="rgb(0,0,0)" fill-opacity="1"></path></g></g></g><g><g transform="matrix(1,0,0,1,35.03125,63.5)"><path transform="matrix(0.017,0,0,-0.017,0,0)" d="M146 266C146 526 243 632 301 700L282 726C225 675 60 542 60 266C60 159 85 58 133 -32C168 -99 200 -138 282 -215L301 -194C255 -137 146 -15 146 266Z" stroke="rgb(0,0,0)" stroke-opacity="1" stroke-width="8" fill="rgb(0,0,0)" fill-opacity="1"></path></g></g><g><g transform="matrix(1,0,0,1,40.6875,63.5)"><path transform="matrix(0.017,0,0,-0.017,0,0)" d="M9 1C24 -7 40 -11 52 -11C85 -11 124 18 155 65L231 182L242 113C255 28 278 -11 314 -11C336 -11 368 6 400 35L449 79L440 98C404 68 379 53 363 53C348 53 335 63 325 83C316 102 305 139 300 168L282 269L317 318C364 383 391 406 422 406C438 406 450 398 455 383L469 387L484 472C472 479 463 482 454 482C414 482 374 446 312 354L275 299L269 347C257 446 230 482 171 482C145 482 123 474 114 461L56 378L73 368C103 402 123 416 142 416C175 416 197 375 214 277L225 215L185 153C142 86 108 54 80 54C65 54 54 58 52 63L41 91L21 88C21 53 13 27 9 1Z" stroke="rgb(0,0,0)" stroke-opacity="1" stroke-width="8" fill="rgb(0,0,0)" fill-opacity="1"></path></g></g><g><g transform="matrix(1,0,0,1,49.171875,63.5)"><path transform="matrix(0.017,0,0,-0.017,0,0)" d="M51 726L32 700C87 636 187 526 187 266C187 -10 83 -131 32 -194L51 -215C104 -165 273 -23 273 265C273 542 108 675 51 726Z" stroke="rgb(0,0,0)" stroke-opacity="1" stroke-width="8" fill="rgb(0,0,0)" fill-opacity="1"></path></g></g></g></g><line style="fill:none;stroke-width:1px;stroke:rgb(0, 0, 0);" x1="13.03125" y1="46.25" x2="54.828125" y2="46.25"></line></g><g><svg x="57.359375" overflow="visible" y="12.203125" height="66" width="8.5"><path d=" M 0.15 1.70 c 0.00 -0.03 0.05 -0.06 0.12 -0.06 c 0.15 0.00 0.44 0.09 0.51 0.11 c 3.03 1.08 3.59 3.33 3.59 7.41 v 0.60 h -1.62 v -1.28 c 0.00 -2.20 -0.12 -5.16 -2.13 -6.48 c -0.15 -0.10 -0.48 -0.22 -0.48 -0.31 z   M 4.37 9.17 v 19.98 h -1.62 v -19.98 z  M 2.75 29.15 h 1.62 v 0.59 c 0.00 2.97 2.74 3.66 2.75 3.66 v 0.02 c -0.02 0.00 -2.75 0.75 -2.75 3.71 h -1.62 c 0.00 -1.05 0.09 -2.87 2.96 -3.69 c -2.87 -0.80 -2.96 -2.63 -2.96 -3.69 v -0.59 z  M 4.37 36.85 v 19.98 h -1.62 v -19.98 z" style="fill:rgb(0,0,0);fill-opacity:1;stroke-width:1px;stroke:none;stroke-opacity:1;"></path><path d=" M 0.15 64.30 c 0.00 0.03 0.05 0.06 0.12 0.06 c 0.15 0.00 0.44 -0.09 0.51 -0.11 c 3.03 -1.08 3.59 -3.33 3.59 -7.41 v -0.60 h -1.62 v 1.28 c 0.00 2.20 -0.12 5.16 -2.13 6.48 c -0.15 0.10 -0.48 0.22 -0.48 0.31 z" style="fill:rgb(0,0,0);fill-opacity:1;stroke-width:1px;stroke:none;stroke-opacity:1;"></path></svg></g><g><g><g><g><g transform="matrix(1,0,0,1,64.171875,19)"><path transform="matrix(0.017,0,0,-0.017,0,0)" d="M231.80334 794.13126C231.80334 821.493 202.92302 841.25307 177.08278 841.25307C147.44268 841.25307 133.76181 812.37177 125.4023 788.05206L41.80044 545.60793C39.52013 539.52776 34.20072 525.08809 34.20072 517.48836C34.20072 510.64842 38.76036 500.76741 46.36008 500.76741C58.52042 500.76741 72.2013 517.48836 78.28147 526.60764L209.00319 734.09128C219.64398 750.81126 231.80334 772.85164 231.80334 794.13126Z" stroke="rgb(0,0,0)" stroke-opacity="1" stroke-width="8" fill="rgb(0,0,0)" fill-opacity="1"></path></g></g></g></g></g></g></g></svg>