<svg xmlns="http://www.w3.org/2000/svg" xmlns:xlink="http://www.w3.org/1999/xlink" width="75.140625" height="24" style="width:75.140625px;height:24px;font-family:Asana-Math, Asana;background:transparent;"><g><g><g><g transform="matrix(1,0,0,1,2,19)"><path transform="matrix(0.017,0,0,-0.017,0,0)" d="M34 388L41 368L73 389C110 412 113 414 120 414C130 414 138 404 138 391C138 384 134 361 130 347L64 107C56 76 51 49 51 30C51 6 62 -9 81 -9C107 -9 143 12 241 85L231 103L205 86C176 67 153 56 144 56C137 56 131 66 131 76C131 86 133 95 138 116L215 420C219 437 221 448 221 456C221 473 212 482 196 482C174 482 137 461 62 408ZM228 712C199 712 170 679 170 645C170 620 185 604 209 604C240 604 264 633 264 671C264 695 249 712 228 712ZM402 390L346 107C345 99 333 61 333 31C333 6 344 -9 363 -9C398 -9 433 11 511 74L542 99L532 117L487 86C458 66 438 56 427 56C418 56 413 64 413 76C413 102 427 183 456 328L469 390L576 390L587 440C549 436 515 434 477 434C493 528 504 577 522 631L511 646C491 634 464 622 433 610L408 440C364 419 338 408 320 403L318 390ZM1341 722L1329 733C1277 707 1241 698 1169 691L1165 670L1213 670C1237 670 1247 663 1247 646C1247 638 1246 629 1245 622L1217 468C1187 477 1160 482 1135 482C1066 482 972 410 926 323C895 265 875 170 875 86C875 21 890 -11 919 -11C946 -11 983 6 1017 33C1071 77 1104 116 1171 217L1148 126C1137 82 1132 50 1132 24C1132 3 1141 -9 1158 -9C1175 -9 1199 3 1233 28L1314 88L1304 107L1260 76C1246 66 1230 59 1221 59C1213 59 1207 68 1207 82C1207 90 1208 99 1215 128ZM972 59C956 59 947 73 947 98C947 224 993 380 1042 418C1055 428 1074 433 1101 433C1145 433 1174 427 1207 410L1195 351C1158 171 1017 59 972 59ZM1391 388L1398 368L1430 389C1467 412 1470 414 1477 414C1487 414 1495 404 1495 391C1495 384 1491 361 1487 347L1421 107C1413 76 1408 49 1408 30C1408 6 1419 -9 1438 -9C1464 -9 1500 12 1598 85L1588 103L1562 86C1533 67 1510 56 1501 56C1494 56 1488 66 1488 76C1488 86 1490 95 1495 116L1572 420C1576 437 1578 448 1578 456C1578 473 1569 482 1553 482C1531 482 1494 461 1419 408ZM1585 712C1556 712 1527 679 1527 645C1527 620 1542 604 1566 604C1597 604 1621 633 1621 671C1621 695 1606 712 1585 712ZM1800 420C1821 420 1837 421 1863 424C1752 304 1710 221 1710 121C1710 44 1756 -11 1820 -11C1958 -11 2111 236 2111 384C2111 441 2085 482 2049 482C2036 482 2024 478 2016 470L1966 423L1977 404C1986 410 1995 413 2004 413C2031 413 2047 390 2047 350C2047 202 1950 39 1862 39C1813 39 1782 81 1782 146C1782 251 1821 342 1919 464L1909 482C1889 473 1876 470 1848 470C1820 470 1778 472 1749 475L1737 476C1731 477 1726 477 1725 477C1713 477 1704 475 1693 470C1679 443 1668 407 1655 352L1677 352L1694 394C1701 411 1721 422 1745 422C1778 422 1762 420 1800 420ZM2461 111L2437 94C2384 56 2336 36 2300 36C2253 36 2224 73 2224 133C2224 158 2227 185 2232 214C2249 218 2358 248 2383 259C2468 296 2507 342 2507 404C2507 451 2473 482 2423 482C2355 496 2245 423 2208 349C2178 299 2148 180 2148 113C2148 35 2192 -11 2264 -11C2321 -11 2377 17 2469 92ZM2246 274C2263 343 2283 386 2312 412C2330 428 2361 440 2385 440C2414 440 2433 420 2433 388C2433 344 2398 297 2346 272C2318 258 2282 247 2237 237ZM2889 365C2892 403 2897 435 2905 476C2894 481 2890 482 2885 482C2854 482 2823 458 2787 407C2748 351 2709 291 2693 256L2725 408C2729 425 2731 438 2731 450C2731 470 2723 482 2708 482C2687 482 2649 461 2575 408L2547 388L2554 368L2586 389C2614 407 2625 412 2634 412C2644 412 2651 403 2651 390C2651 332 2608 126 2568 -2L2578 -9C2593 -4 2609 -1 2632 4L2645 6L2671 126C2689 209 2712 262 2756 319C2790 363 2817 384 2839 384C2854 384 2864 379 2875 365ZM3184 482C3117 482 2964 419 2964 259C2964 182 3009 136 3086 136C3094 136 3105 136 3116 137L3075 99C3059 84 3048 66 3048 52C3048 42 3055 31 3069 19C3000 -4 2872 -48 2872 -159C2872 -230 2942 -276 3051 -276C3180 -276 3293 -204 3293 -121C3293 -85 3272 -49 3229 -14L3169 35C3135 62 3122 81 3122 100C3122 114 3137 128 3149 146C3247 170 3318 253 3318 342C3318 357 3315 376 3314 380C3331 378 3339 378 3348 378C3365 378 3375 379 3398 382L3407 427L3404 433C3376 426 3356 424 3302 424C3302 425 3278 482 3184 482ZM3085 1L3162 -58C3208 -94 3227 -121 3227 -154C3227 -206 3158 -248 3075 -248C2993 -248 2936 -206 2936 -145C2936 -43 3046 -11 3085 1ZM3159 448C3217 448 3246 412 3246 341C3246 238 3198 168 3128 168C3067 168 3035 209 3035 288C3035 383 3086 448 3159 448ZM3736 111L3712 94C3659 56 3611 36 3575 36C3528 36 3499 73 3499 133C3499 158 3502 185 3507 214C3524 218 3633 248 3658 259C3743 296 3782 342 3782 404C3782 451 3748 482 3698 482C3630 496 3520 423 3483 349C3453 299 3423 180 3423 113C3423 35 3467 -11 3539 -11C3596 -11 3652 17 3744 92ZM3521 274C3538 343 3558 386 3587 412C3605 428 3636 440 3660 440C3689 440 3708 420 3708 388C3708 344 3673 297 3621 272C3593 258 3557 247 3512 237ZM3827 148C3822 97 3816 62 3805 16C3843 -2 3877 -11 3912 -11C3961 -11 4007 7 4058 47C4109 87 4130 124 4130 174C4130 228 4098 257 4024 271L3981 279C3921 290 3902 307 3902 348C3902 401 3947 442 4004 442C4045 442 4083 424 4099 397L4099 342L4122 342C4126 377 4130 404 4141 455C4102 474 4074 482 4041 482C3989 482 3928 452 3880 404C3854 377 3843 352 3843 316C3843 260 3874 228 3940 215L4003 203C4047 195 4063 177 4063 138C4063 73 4017 29 3946 29C3911 29 3880 40 3852 64L3852 148Z" stroke="rgb(0,0,0)" stroke-opacity="1" stroke-width="8" fill="rgb(0,0,0)" fill-opacity="1"></path></g></g></g></g></svg>