<svg xmlns="http://www.w3.org/2000/svg" xmlns:xlink="http://www.w3.org/1999/xlink" width="12.484375" height="42" style="width:12.484375px;height:42px;font-family:Asana-Math, Asana;background:transparent;"><g><g><g><g><g><g><g transform="matrix(1,0,0,1,2.9375,15)"><path transform="matrix(0.017,0,0,-0.017,0,0)" d="M328 111L304 94C251 56 203 36 167 36C120 36 91 73 91 133C91 158 94 185 99 214C116 218 225 248 250 259C335 296 374 342 374 404C374 451 340 482 290 482C222 496 112 423 75 349C45 299 15 180 15 113C15 35 59 -11 131 -11C188 -11 244 17 336 92ZM113 274C130 343 150 386 179 412C197 428 228 440 252 440C281 440 300 420 300 388C300 344 265 297 213 272C185 258 149 247 104 237Z" stroke="rgb(0,0,0)" stroke-opacity="1" stroke-width="8" fill="rgb(0,0,0)" fill-opacity="1"></path></g></g></g></g><g><g><g><g transform="matrix(1,0,0,1,2,40)"><path transform="matrix(0.017,0,0,-0.017,0,0)" d="M462 224C462 345 355 366 308 374C388 436 418 482 418 541C418 630 344 689 233 689C165 689 120 670 72 622L43 498L74 498L92 554C103 588 166 622 218 622C283 622 336 569 336 506C336 431 277 368 206 368C198 368 187 369 174 370L159 371L147 318L154 312C192 329 211 334 238 334C321 334 369 281 369 190C369 88 308 21 215 21C169 21 128 36 98 64C74 86 61 109 42 163L15 153C36 92 44 56 50 6C103 -12 147 -20 184 -20C307 -20 462 87 462 224Z" stroke="rgb(0,0,0)" stroke-opacity="1" stroke-width="8" fill="rgb(0,0,0)" fill-opacity="1"></path></g></g></g></g><line style="fill:none;stroke-width:1px;stroke:rgb(0, 0, 0);" x1="2" y1="22.75" x2="10.484375" y2="22.75"></line></g></g></g></svg>