<svg xmlns="http://www.w3.org/2000/svg" xmlns:xlink="http://www.w3.org/1999/xlink" width="25.5" height="26" style="width:25.5px;height:26px;font-family:Asana-Math, Asana;background:transparent;"><g><g><g><g><g><g><g transform="matrix(1,0,0,1,17,23)"><path transform="matrix(0.017,0,0,-0.017,0,0)" d="M16 23L16 -3C203 -3 203 0 239 0C275 0 275 -3 468 -3L468 82C353 77 307 81 122 77L304 270C401 373 431 428 431 503C431 618 353 689 226 689C154 689 105 669 56 619L39 483L68 483L81 529C97 587 133 612 200 612C286 612 341 558 341 473C341 398 299 324 186 204Z" stroke="rgb(0,0,0)" stroke-opacity="1" stroke-width="8" fill="rgb(0,0,0)" fill-opacity="1"></path></g></g></g></g><svg x="0" overflow="visible" y="4" height="17" width="25.5"><polygon points="0.35142118863049093,9.889147286821704 4.7881136950904395,7.517054263565892 9.6703316016086,17.8711299203846 16.363049095607234,0 25.5,0 25.5,1.0542635658914745 17.08627450980392,1.0542635658914745 9.180878552971576,22.18888888888889 3.0968992248062013,9.44987080103359 0.6369509043927648,10.372351421188629" style="fill:rgb(0,0,0);fill-opacity:1;stroke-width:1px;stroke:none;stroke-opacity:1;"></polygon></svg></g></g></g></svg>