<svg xmlns="http://www.w3.org/2000/svg" xmlns:xlink="http://www.w3.org/1999/xlink" width="72.53125" height="20" style="width:72.53125px;height:20px;font-family:Asana-Math, Asana;background:transparent;"><g><g><g><g transform="matrix(1,0,0,1,0,17)"><path transform="matrix(0.017,0,0,-0.017,0,0)" d="M492 473L485 482L417 465L407 414C392 336 367 268 336 221C277 130 199 59 159 59C151 59 146 68 146 85C146 99 148 112 153 137L210 408C213 424 215 438 215 451C215 470 206 482 192 482C172 482 134 461 60 408L32 388L39 368L71 389C99 407 110 412 119 412C128 412 136 403 136 392C136 388 135 378 134 374L71 77C69 68 67 44 67 30C67 7 82 -11 102 -11C165 -11 286 101 370 239L333 97C326 73 322 46 322 31C322 6 333 -9 352 -9C378 -9 414 12 512 85L502 103L476 86C452 70 426 59 415 59C407 59 402 66 402 76C402 112 477 416 492 473ZM579 388L586 368L618 389C655 412 658 414 665 414C676 414 683 404 683 389C683 338 642 145 601 2L608 -9C633 -2 656 4 678 8C697 134 718 199 764 268C818 352 893 414 938 414C949 414 955 405 955 390C955 372 952 351 944 319L892 107C883 70 879 47 879 31C879 6 890 -9 909 -9C935 -9 971 12 1069 85L1059 103L1033 86C1004 67 982 56 972 56C965 56 959 65 959 76C959 81 960 92 961 96L1027 372C1034 401 1038 429 1038 446C1038 469 1027 482 1007 482C965 482 896 444 837 389C799 354 771 320 719 247L757 408C761 426 763 438 763 449C763 470 755 482 740 482C719 482 680 460 607 408ZM1593 722L1581 733C1529 707 1493 698 1421 691L1417 670L1465 670C1489 670 1499 663 1499 646C1499 638 1498 629 1497 622L1469 468C1439 477 1412 482 1387 482C1318 482 1224 410 1178 323C1147 265 1127 170 1127 86C1127 21 1142 -11 1171 -11C1198 -11 1235 6 1269 33C1323 77 1356 116 1423 217L1400 126C1389 82 1384 50 1384 24C1384 3 1393 -9 1410 -9C1427 -9 1451 3 1485 28L1566 88L1556 107L1512 76C1498 66 1482 59 1473 59C1465 59 1459 68 1459 82C1459 90 1460 99 1467 128ZM1224 59C1208 59 1199 73 1199 98C1199 224 1245 380 1294 418C1307 428 1326 433 1353 433C1397 433 1426 427 1459 410L1447 351C1410 171 1269 59 1224 59ZM1937 111L1913 94C1860 56 1812 36 1776 36C1729 36 1700 73 1700 133C1700 158 1703 185 1708 214C1725 218 1834 248 1859 259C1944 296 1983 342 1983 404C1983 451 1949 482 1899 482C1831 496 1721 423 1684 349C1654 299 1624 180 1624 113C1624 35 1668 -11 1740 -11C1797 -11 1853 17 1945 92ZM1722 274C1739 343 1759 386 1788 412C1806 428 1837 440 1861 440C1890 440 1909 420 1909 388C1909 344 1874 297 1822 272C1794 258 1758 247 1713 237ZM2342 437L2326 437L2347 549C2363 635 2391 673 2437 673C2467 673 2494 658 2509 634L2519 638C2524 654 2534 685 2542 705L2547 720C2531 727 2500 733 2477 733C2466 733 2450 730 2442 726C2418 715 2336 654 2313 630C2291 608 2279 578 2268 521L2253 442C2212 422 2192 414 2167 405L2162 383L2243 383L2234 327C2204 132 2167 -54 2145 -123C2127 -182 2097 -213 2061 -213C2038 -213 2027 -206 2009 -184L1995 -188C1991 -211 1977 -259 1972 -268C1981 -273 1996 -276 2007 -276C2048 -276 2102 -245 2141 -198C2212 -114 2232 -18 2316 383L2420 383C2424 402 2431 425 2437 439L2433 446C2404 439 2405 437 2342 437ZM2581 388L2588 368L2620 389C2657 412 2660 414 2667 414C2677 414 2685 404 2685 391C2685 384 2681 361 2677 347L2611 107C2603 76 2598 49 2598 30C2598 6 2609 -9 2628 -9C2654 -9 2690 12 2788 85L2778 103L2752 86C2723 67 2700 56 2691 56C2684 56 2678 66 2678 76C2678 86 2680 95 2685 116L2762 420C2766 437 2768 448 2768 456C2768 473 2759 482 2743 482C2721 482 2684 461 2609 408ZM2775 712C2746 712 2717 679 2717 645C2717 620 2732 604 2756 604C2787 604 2811 633 2811 671C2811 695 2796 712 2775 712ZM2848 388L2855 368L2887 389C2924 412 2927 414 2934 414C2945 414 2952 404 2952 389C2952 338 2911 145 2870 2L2877 -9C2902 -2 2925 4 2947 8C2966 134 2987 199 3033 268C3087 352 3162 414 3207 414C3218 414 3224 405 3224 390C3224 372 3221 351 3213 319L3161 107C3152 70 3148 47 3148 31C3148 6 3159 -9 3178 -9C3204 -9 3240 12 3338 85L3328 103L3302 86C3273 67 3251 56 3241 56C3234 56 3228 65 3228 76C3228 81 3229 92 3230 96L3296 372C3303 401 3307 429 3307 446C3307 469 3296 482 3276 482C3234 482 3165 444 3106 389C3068 354 3040 320 2988 247L3026 408C3030 426 3032 438 3032 449C3032 470 3024 482 3009 482C2988 482 2949 460 2876 408ZM3707 111L3683 94C3630 56 3582 36 3546 36C3499 36 3470 73 3470 133C3470 158 3473 185 3478 214C3495 218 3604 248 3629 259C3714 296 3753 342 3753 404C3753 451 3719 482 3669 482C3601 496 3491 423 3454 349C3424 299 3394 180 3394 113C3394 35 3438 -11 3510 -11C3567 -11 3623 17 3715 92ZM3492 274C3509 343 3529 386 3558 412C3576 428 3607 440 3631 440C3660 440 3679 420 3679 388C3679 344 3644 297 3592 272C3564 258 3528 247 3483 237ZM4250 722L4238 733C4186 707 4150 698 4078 691L4074 670L4122 670C4146 670 4156 663 4156 646C4156 638 4155 629 4154 622L4126 468C4096 477 4069 482 4044 482C3975 482 3881 410 3835 323C3804 265 3784 170 3784 86C3784 21 3799 -11 3828 -11C3855 -11 3892 6 3926 33C3980 77 4013 116 4080 217L4057 126C4046 82 4041 50 4041 24C4041 3 4050 -9 4067 -9C4084 -9 4108 3 4142 28L4223 88L4213 107L4169 76C4155 66 4139 59 4130 59C4122 59 4116 68 4116 82C4116 90 4117 99 4124 128ZM3881 59C3865 59 3856 73 3856 98C3856 224 3902 380 3951 418C3964 428 3983 433 4010 433C4054 433 4083 427 4116 410L4104 351C4067 171 3926 59 3881 59Z" stroke="rgb(0,0,0)" stroke-opacity="1" stroke-width="8" fill="rgb(0,0,0)" fill-opacity="1"></path></g></g></g></g></svg>